<?xml version="1.0" encoding="utf-8"?>
<!-- Generator: Adobe Illustrator 16.0.0, SVG Export Plug-In . SVG Version: 6.00 Build 0)  -->
<!DOCTYPE svg PUBLIC "-//W3C//DTD SVG 1.1//EN" "http://www.w3.org/Graphics/SVG/1.1/DTD/svg11.dtd">
<svg version="1.1" id="Layer_1" xmlns="http://www.w3.org/2000/svg" xmlns:xlink="http://www.w3.org/1999/xlink" x="0px" y="0px"
	 width="960px" height="560px" viewBox="0 0 960 560" enable-background="new 0 0 960 560" xml:space="preserve">
<g>
	<path fill="#0095A6" d="M346.802,242.131c0,0,1.515,0.063,4.352-0.647c2.833-0.636,7.131-1.292,12.657-1.769
		c5.525-0.399,12.396-0.401,20.208,0.956c7.787,1.333,16.545,4.075,25.244,8.674c8.738,4.532,17.386,10.815,25.671,18.064
		c8.305,7.253,16.328,15.46,24.336,23.903c3.98,4.184,8.025,8.443,12.121,12.75c4.092,4.241,8.252,8.457,12.477,12.598
		c8.518,8.209,17.423,16.048,27.015,22.742c4.774,3.369,9.695,6.484,14.751,9.295c5.088,2.746,10.262,5.262,15.539,7.447
		c5.301,2.13,10.684,3.951,16.087,5.542c5.435,1.472,10.872,2.763,16.317,3.696c21.78,3.877,43.065,3.45,61.252,2.065
		c2.281-0.19,4.512-0.38,6.694-0.563c2.184-0.236,4.315-0.467,6.396-0.689c4.177-0.377,8.115-0.968,11.836-1.444
		c7.412-1.103,13.927-2.034,19.263-2.992c10.729-1.861,16.858-2.924,16.858-2.924s-1.428,0.629-4.105,1.808
		c-2.699,1.119-6.605,2.945-11.743,4.806c-5.101,1.978-11.358,4.259-18.672,6.483c-7.311,2.242-15.642,4.629-24.931,6.545
		c-9.285,1.911-19.494,3.56-30.466,4.384c-10.963,0.806-22.697,0.799-34.819-0.604c-12.114-1.341-24.613-4.177-36.762-8.744
		c-6.047-2.332-12.061-4.947-17.835-8.066c-5.765-3.133-11.366-6.585-16.731-10.331c-10.675-7.589-20.377-16.252-29.105-25.278
		c-8.762-8.998-16.645-18.3-24.098-27.174c-7.474-8.869-14.534-17.344-21.633-24.803c-7.076-7.48-14.197-13.946-21.426-18.952
		c-3.594-2.531-7.215-4.699-10.792-6.506c-3.551-1.893-7.11-3.301-10.518-4.517c-6.861-2.268-13.189-3.959-18.488-4.59
		c-5.317-0.49-9.53-1.162-12.464-1.162C348.361,242.131,346.802,242.131,346.802,242.131z"/>
	<g>
		<defs>
			<path id="SVGID_1_" d="M380.495,210.505c0,0,57.528,5.937,74.63,23.703c17.098,17.766,24.676,44.213,71.423,74.57l24.731-264.455
				L380.495,57.157V210.505z"/>
		</defs>
		<clipPath id="SVGID_2_">
			<use xlink:href="#SVGID_1_"  overflow="visible"/>
		</clipPath>
		<rect x="399.092" y="109.626" clip-path="url(#SVGID_2_)" fill="#C1C0C0" width="123.207" height="225.49"/>
		<polygon clip-path="url(#SVGID_2_)" fill="#4D4E4E" points="522.299,335.116 522.299,332.792 401.418,332.792 401.418,111.951 
			519.974,111.951 519.974,335.116 522.299,335.116 522.299,332.792 522.299,335.116 524.623,335.116 524.623,107.302 
			396.769,107.302 396.769,337.441 524.623,337.441 524.623,335.116 		"/>
		<path clip-path="url(#SVGID_2_)" fill="#84007E" d="M505.545,154.982c0,1.542-1.263,2.801-2.807,2.801h-85.244
			c-1.543,0-2.804-1.259-2.804-2.801v-18.883c0-1.542,1.261-2.804,2.804-2.804h85.244c1.544,0,2.807,1.262,2.807,2.804V154.982z"/>
		<path clip-path="url(#SVGID_2_)" fill="#8C8B8B" d="M505.449,155.073h-0.468c0,0.649-0.261,1.228-0.681,1.653
			c-0.428,0.424-1.008,0.686-1.655,0.686h-85.246c-0.646,0-1.227-0.261-1.65-0.686c-0.425-0.425-0.684-1.003-0.686-1.653v-18.878
			c0.002-0.647,0.261-1.23,0.686-1.655c0.424-0.422,1.005-0.684,1.65-0.684h85.246c0.647,0,1.228,0.261,1.655,0.684
			c0.42,0.424,0.681,1.008,0.681,1.655v18.878H505.449h0.468v-18.878c0-1.809-1.462-3.271-3.271-3.273h-85.246
			c-1.804,0.002-3.269,1.464-3.269,3.273v18.878c0,1.81,1.465,3.271,3.269,3.271h85.246c1.81,0,3.271-1.462,3.271-3.271H505.449z"/>
		<rect x="420.859" y="137.221" clip-path="url(#SVGID_2_)" fill="#FFD800" width="3.55" height="3.553"/>
		<rect x="420.859" y="143.765" clip-path="url(#SVGID_2_)" fill="#808080" width="3.55" height="3.551"/>
		<rect x="420.859" y="150.308" clip-path="url(#SVGID_2_)" fill="#808080" width="3.55" height="3.55"/>
		<rect x="427.401" y="137.221" clip-path="url(#SVGID_2_)" fill="#808080" width="3.55" height="3.553"/>
		<rect x="427.401" y="143.765" clip-path="url(#SVGID_2_)" fill="#808080" width="3.55" height="3.551"/>
		<rect x="427.401" y="150.308" clip-path="url(#SVGID_2_)" fill="#808080" width="3.55" height="3.55"/>
		<rect x="433.943" y="137.221" clip-path="url(#SVGID_2_)" fill="#808080" width="3.556" height="3.553"/>
		<rect x="433.943" y="143.765" clip-path="url(#SVGID_2_)" fill="#FFD800" width="3.556" height="3.551"/>
		<rect x="433.943" y="150.308" clip-path="url(#SVGID_2_)" fill="#808080" width="3.556" height="3.55"/>
		<rect x="440.487" y="137.221" clip-path="url(#SVGID_2_)" fill="#808080" width="3.552" height="3.553"/>
		<rect x="440.487" y="143.765" clip-path="url(#SVGID_2_)" fill="#808080" width="3.552" height="3.551"/>
		<rect x="440.487" y="150.308" clip-path="url(#SVGID_2_)" fill="#FFD800" width="3.552" height="3.55"/>
		<rect x="447.029" y="137.221" clip-path="url(#SVGID_2_)" fill="#808080" width="3.555" height="3.553"/>
		<rect x="447.029" y="143.765" clip-path="url(#SVGID_2_)" fill="#808080" width="3.555" height="3.551"/>
		<rect x="447.029" y="150.308" clip-path="url(#SVGID_2_)" fill="#808080" width="3.555" height="3.55"/>
		<rect x="453.574" y="137.221" clip-path="url(#SVGID_2_)" fill="#808080" width="3.551" height="3.553"/>
		<rect x="453.574" y="143.765" clip-path="url(#SVGID_2_)" fill="#808080" width="3.551" height="3.551"/>
		<rect x="453.574" y="150.308" clip-path="url(#SVGID_2_)" fill="#808080" width="3.551" height="3.55"/>
		<rect x="460.119" y="137.221" clip-path="url(#SVGID_2_)" fill="#808080" width="3.55" height="3.553"/>
		<rect x="460.119" y="143.765" clip-path="url(#SVGID_2_)" fill="#FFD800" width="3.55" height="3.551"/>
		<rect x="460.119" y="150.308" clip-path="url(#SVGID_2_)" fill="#808080" width="3.55" height="3.55"/>
		<rect x="472.455" y="142.081" clip-path="url(#SVGID_2_)" fill="#E02427" width="6.917" height="6.917"/>
		<rect x="494.889" y="142.081" clip-path="url(#SVGID_2_)" fill="#E02427" width="6.919" height="6.917"/>
		<rect x="483.483" y="142.081" clip-path="url(#SVGID_2_)" fill="#808080" width="6.915" height="6.917"/>
		<path clip-path="url(#SVGID_2_)" fill="#84007E" d="M505.638,182.898c0,1.543-1.261,2.806-2.804,2.806h-85.246
			c-1.542,0-2.805-1.262-2.805-2.806V164.02c0-1.542,1.263-2.806,2.805-2.806h85.246c1.543,0,2.804,1.264,2.804,2.806V182.898z"/>
		<path clip-path="url(#SVGID_2_)" fill="#8C8B8B" d="M505.545,182.994h-0.468c0,0.647-0.261,1.226-0.687,1.653
			c-0.422,0.422-1.006,0.683-1.652,0.685h-85.244c-0.646-0.002-1.229-0.263-1.652-0.685c-0.422-0.427-0.686-1.006-0.686-1.653
			v-18.881c0-0.649,0.264-1.228,0.686-1.653c0.424-0.424,1.006-0.686,1.652-0.686h85.244c0.646,0,1.23,0.261,1.652,0.686
			c0.426,0.425,0.687,1.004,0.687,1.653v18.881H505.545h0.467v-18.881c0-1.807-1.463-3.271-3.273-3.271h-85.244
			c-1.807,0-3.271,1.464-3.271,3.271v18.881c0,1.807,1.464,3.269,3.271,3.269h85.244c1.811,0,3.273-1.462,3.273-3.269H505.545z"/>
		<rect x="420.954" y="165.141" clip-path="url(#SVGID_2_)" fill="#FFD800" width="3.55" height="3.55"/>
		<rect x="420.954" y="171.684" clip-path="url(#SVGID_2_)" fill="#808080" width="3.55" height="3.553"/>
		<rect x="420.954" y="178.227" clip-path="url(#SVGID_2_)" fill="#808080" width="3.55" height="3.55"/>
		<rect x="427.496" y="165.141" clip-path="url(#SVGID_2_)" fill="#808080" width="3.551" height="3.55"/>
		<rect x="427.496" y="171.684" clip-path="url(#SVGID_2_)" fill="#808080" width="3.551" height="3.553"/>
		<rect x="427.496" y="178.227" clip-path="url(#SVGID_2_)" fill="#808080" width="3.551" height="3.55"/>
		<rect x="434.039" y="165.141" clip-path="url(#SVGID_2_)" fill="#808080" width="3.553" height="3.55"/>
		<rect x="434.039" y="171.684" clip-path="url(#SVGID_2_)" fill="#FFD800" width="3.553" height="3.553"/>
		<rect x="434.039" y="178.227" clip-path="url(#SVGID_2_)" fill="#808080" width="3.553" height="3.55"/>
		<rect x="440.582" y="165.141" clip-path="url(#SVGID_2_)" fill="#808080" width="3.553" height="3.55"/>
		<rect x="440.582" y="171.684" clip-path="url(#SVGID_2_)" fill="#808080" width="3.553" height="3.553"/>
		<rect x="440.582" y="178.227" clip-path="url(#SVGID_2_)" fill="#FFD800" width="3.553" height="3.55"/>
		<rect x="447.125" y="165.141" clip-path="url(#SVGID_2_)" fill="#808080" width="3.55" height="3.55"/>
		<rect x="447.125" y="171.684" clip-path="url(#SVGID_2_)" fill="#808080" width="3.55" height="3.553"/>
		<rect x="447.125" y="178.227" clip-path="url(#SVGID_2_)" fill="#808080" width="3.55" height="3.55"/>
		<rect x="453.667" y="165.141" clip-path="url(#SVGID_2_)" fill="#808080" width="3.555" height="3.55"/>
		<rect x="453.667" y="171.684" clip-path="url(#SVGID_2_)" fill="#808080" width="3.555" height="3.553"/>
		<rect x="453.667" y="178.227" clip-path="url(#SVGID_2_)" fill="#808080" width="3.555" height="3.55"/>
		<rect x="460.21" y="165.141" clip-path="url(#SVGID_2_)" fill="#808080" width="3.554" height="3.55"/>
		<rect x="460.21" y="171.684" clip-path="url(#SVGID_2_)" fill="#FFD800" width="3.554" height="3.553"/>
		<rect x="460.21" y="178.227" clip-path="url(#SVGID_2_)" fill="#808080" width="3.554" height="3.55"/>
		<rect x="472.551" y="169.999" clip-path="url(#SVGID_2_)" fill="#E02427" width="6.914" height="6.917"/>
		<rect x="494.982" y="169.999" clip-path="url(#SVGID_2_)" fill="#E02427" width="6.916" height="6.917"/>
		<rect x="483.578" y="169.999" clip-path="url(#SVGID_2_)" fill="#808080" width="6.918" height="6.917"/>
		<path clip-path="url(#SVGID_2_)" fill="#84007E" d="M505.73,211.629c0,1.542-1.26,2.801-2.804,2.801h-85.244
			c-1.546,0-2.806-1.26-2.806-2.801v-18.881c0-1.543,1.26-2.804,2.806-2.804h85.244c1.544,0,2.804,1.26,2.804,2.804V211.629z"/>
		<path clip-path="url(#SVGID_2_)" fill="#8C8B8B" d="M505.638,211.72h-0.47c0,0.65-0.259,1.231-0.681,1.655
			c-0.425,0.422-1.009,0.683-1.653,0.683H417.59c-0.648,0-1.23-0.261-1.652-0.683c-0.425-0.424-0.686-1.005-0.686-1.655v-18.881
			c0-0.645,0.261-1.228,0.686-1.65c0.422-0.424,1.004-0.685,1.652-0.685h85.244c0.645,0,1.229,0.261,1.653,0.685
			c0.422,0.422,0.681,1.006,0.681,1.65v18.881H505.638h0.466v-18.881c0-1.805-1.462-3.269-3.27-3.269H417.59
			c-1.807,0-3.273,1.464-3.273,3.269v18.881c0,1.81,1.467,3.274,3.273,3.274h85.244c1.808,0,3.27-1.464,3.27-3.274H505.638z"/>
		<rect x="421.049" y="193.868" clip-path="url(#SVGID_2_)" fill="#FFD800" width="3.549" height="3.555"/>
		<rect x="421.049" y="200.413" clip-path="url(#SVGID_2_)" fill="#808080" width="3.549" height="3.552"/>
		<rect x="421.049" y="206.955" clip-path="url(#SVGID_2_)" fill="#808080" width="3.549" height="3.55"/>
		<rect x="427.59" y="193.868" clip-path="url(#SVGID_2_)" fill="#808080" width="3.551" height="3.555"/>
		<rect x="427.59" y="200.413" clip-path="url(#SVGID_2_)" fill="#808080" width="3.551" height="3.552"/>
		<rect x="427.59" y="206.955" clip-path="url(#SVGID_2_)" fill="#808080" width="3.551" height="3.55"/>
		<rect x="434.132" y="193.868" clip-path="url(#SVGID_2_)" fill="#808080" width="3.554" height="3.555"/>
		<rect x="434.132" y="200.413" clip-path="url(#SVGID_2_)" fill="#FFD800" width="3.554" height="3.552"/>
		<rect x="434.132" y="206.955" clip-path="url(#SVGID_2_)" fill="#808080" width="3.554" height="3.55"/>
		<rect x="440.676" y="193.868" clip-path="url(#SVGID_2_)" fill="#808080" width="3.552" height="3.555"/>
		<rect x="440.676" y="200.413" clip-path="url(#SVGID_2_)" fill="#808080" width="3.552" height="3.552"/>
		<rect x="440.676" y="206.955" clip-path="url(#SVGID_2_)" fill="#FFD800" width="3.552" height="3.55"/>
		<rect x="447.22" y="193.868" clip-path="url(#SVGID_2_)" fill="#808080" width="3.55" height="3.555"/>
		<rect x="447.22" y="200.413" clip-path="url(#SVGID_2_)" fill="#808080" width="3.55" height="3.552"/>
		<rect x="447.22" y="206.955" clip-path="url(#SVGID_2_)" fill="#808080" width="3.55" height="3.55"/>
		<rect x="453.762" y="193.868" clip-path="url(#SVGID_2_)" fill="#808080" width="3.552" height="3.555"/>
		<rect x="453.762" y="200.413" clip-path="url(#SVGID_2_)" fill="#808080" width="3.552" height="3.552"/>
		<rect x="453.762" y="206.955" clip-path="url(#SVGID_2_)" fill="#808080" width="3.552" height="3.55"/>
		<rect x="460.305" y="193.868" clip-path="url(#SVGID_2_)" fill="#808080" width="3.553" height="3.555"/>
		<rect x="460.305" y="200.413" clip-path="url(#SVGID_2_)" fill="#FFD800" width="3.553" height="3.552"/>
		<rect x="460.305" y="206.955" clip-path="url(#SVGID_2_)" fill="#808080" width="3.553" height="3.55"/>
		<rect x="472.642" y="198.73" clip-path="url(#SVGID_2_)" fill="#E02427" width="6.919" height="6.915"/>
		<rect x="495.075" y="198.73" clip-path="url(#SVGID_2_)" fill="#E02427" width="6.919" height="6.915"/>
		<rect x="483.674" y="198.73" clip-path="url(#SVGID_2_)" fill="#808080" width="6.915" height="6.915"/>
		<path clip-path="url(#SVGID_2_)" fill="#84007E" d="M505.638,240.188c0,1.544-1.261,2.806-2.804,2.806h-85.246
			c-1.542,0-2.805-1.262-2.805-2.806v-18.878c0-1.542,1.263-2.804,2.805-2.804h85.246c1.543,0,2.804,1.262,2.804,2.804V240.188z"/>
		<path clip-path="url(#SVGID_2_)" fill="#8C8B8B" d="M505.545,240.283h-0.468c0,0.647-0.261,1.228-0.687,1.652
			c-0.424,0.422-1.006,0.684-1.652,0.686h-85.244c-0.646-0.002-1.229-0.264-1.652-0.686c-0.422-0.424-0.686-1.005-0.686-1.652
			v-18.881c0-0.649,0.264-1.228,0.686-1.653c0.424-0.424,1.006-0.686,1.652-0.686h85.244c0.646,0,1.229,0.261,1.652,0.686
			c0.426,0.425,0.687,1.003,0.687,1.653v18.881H505.545h0.467v-18.881c0-1.807-1.463-3.271-3.273-3.271h-85.244
			c-1.807,0-3.271,1.464-3.271,3.271v18.881c0,1.807,1.464,3.271,3.271,3.271h85.244c1.811,0,3.273-1.465,3.273-3.271H505.545z"/>
		<rect x="420.954" y="222.431" clip-path="url(#SVGID_2_)" fill="#FFD800" width="3.55" height="3.551"/>
		<rect x="420.954" y="228.973" clip-path="url(#SVGID_2_)" fill="#808080" width="3.55" height="3.553"/>
		<rect x="420.954" y="235.518" clip-path="url(#SVGID_2_)" fill="#808080" width="3.55" height="3.551"/>
		<rect x="427.496" y="222.431" clip-path="url(#SVGID_2_)" fill="#808080" width="3.551" height="3.551"/>
		<rect x="427.496" y="228.973" clip-path="url(#SVGID_2_)" fill="#808080" width="3.551" height="3.553"/>
		<rect x="427.496" y="235.518" clip-path="url(#SVGID_2_)" fill="#808080" width="3.551" height="3.551"/>
		<rect x="434.039" y="222.431" clip-path="url(#SVGID_2_)" fill="#808080" width="3.553" height="3.551"/>
		<rect x="434.039" y="228.973" clip-path="url(#SVGID_2_)" fill="#FFD800" width="3.553" height="3.553"/>
		<rect x="434.039" y="235.518" clip-path="url(#SVGID_2_)" fill="#808080" width="3.553" height="3.551"/>
		<rect x="440.582" y="222.431" clip-path="url(#SVGID_2_)" fill="#808080" width="3.553" height="3.551"/>
		<rect x="440.582" y="228.973" clip-path="url(#SVGID_2_)" fill="#808080" width="3.553" height="3.553"/>
		<rect x="440.582" y="235.518" clip-path="url(#SVGID_2_)" fill="#FFD800" width="3.553" height="3.551"/>
		<rect x="447.125" y="222.431" clip-path="url(#SVGID_2_)" fill="#808080" width="3.55" height="3.551"/>
		<rect x="447.125" y="228.973" clip-path="url(#SVGID_2_)" fill="#808080" width="3.55" height="3.553"/>
		<rect x="447.125" y="235.518" clip-path="url(#SVGID_2_)" fill="#808080" width="3.55" height="3.551"/>
		<rect x="453.667" y="222.431" clip-path="url(#SVGID_2_)" fill="#808080" width="3.555" height="3.551"/>
		<rect x="453.667" y="228.973" clip-path="url(#SVGID_2_)" fill="#808080" width="3.555" height="3.553"/>
		<rect x="453.667" y="235.518" clip-path="url(#SVGID_2_)" fill="#808080" width="3.555" height="3.551"/>
		<rect x="460.21" y="222.431" clip-path="url(#SVGID_2_)" fill="#808080" width="3.554" height="3.551"/>
		<rect x="460.21" y="228.973" clip-path="url(#SVGID_2_)" fill="#FFD800" width="3.554" height="3.553"/>
		<rect x="460.21" y="235.518" clip-path="url(#SVGID_2_)" fill="#808080" width="3.554" height="3.551"/>
		<rect x="472.551" y="227.289" clip-path="url(#SVGID_2_)" fill="#E02427" width="6.914" height="6.919"/>
		<rect x="494.982" y="227.289" clip-path="url(#SVGID_2_)" fill="#E02427" width="6.916" height="6.919"/>
		<rect x="483.578" y="227.289" clip-path="url(#SVGID_2_)" fill="#808080" width="6.918" height="6.919"/>
		<path clip-path="url(#SVGID_2_)" fill="#84007E" d="M505.73,268.108c0,1.542-1.26,2.804-2.806,2.804h-85.244
			c-1.544,0-2.804-1.262-2.804-2.804v-18.881c0-1.541,1.26-2.804,2.804-2.804h85.244c1.546,0,2.806,1.263,2.806,2.804V268.108z"/>
		<path clip-path="url(#SVGID_2_)" fill="#8C8B8B" d="M505.638,268.202h-0.47c0,0.649-0.259,1.228-0.681,1.655
			c-0.425,0.422-1.009,0.684-1.653,0.684H417.59c-0.648,0-1.23-0.262-1.658-0.684c-0.419-0.427-0.68-1.006-0.68-1.655v-18.881
			c0-0.647,0.261-1.226,0.68-1.65c0.428-0.425,1.01-0.686,1.658-0.686h85.244c0.645,0,1.229,0.261,1.653,0.686
			c0.422,0.424,0.681,1.003,0.681,1.65v18.881H505.638h0.466v-18.881c0-1.807-1.462-3.271-3.27-3.271H417.59
			c-1.807,0-3.273,1.464-3.273,3.271v18.881c0,1.807,1.467,3.271,3.273,3.273h85.244c1.808-0.002,3.27-1.466,3.27-3.273H505.638z"/>
		<rect x="421.045" y="250.349" clip-path="url(#SVGID_2_)" fill="#FFD800" width="3.553" height="3.553"/>
		<rect x="421.045" y="256.894" clip-path="url(#SVGID_2_)" fill="#808080" width="3.553" height="3.553"/>
		<rect x="421.045" y="263.437" clip-path="url(#SVGID_2_)" fill="#808080" width="3.553" height="3.551"/>
		<rect x="427.59" y="250.349" clip-path="url(#SVGID_2_)" fill="#808080" width="3.551" height="3.553"/>
		<rect x="427.59" y="256.894" clip-path="url(#SVGID_2_)" fill="#808080" width="3.551" height="3.553"/>
		<rect x="427.59" y="263.437" clip-path="url(#SVGID_2_)" fill="#808080" width="3.551" height="3.551"/>
		<rect x="434.132" y="250.349" clip-path="url(#SVGID_2_)" fill="#808080" width="3.554" height="3.553"/>
		<rect x="434.132" y="256.894" clip-path="url(#SVGID_2_)" fill="#FFD800" width="3.554" height="3.553"/>
		<rect x="434.132" y="263.437" clip-path="url(#SVGID_2_)" fill="#808080" width="3.554" height="3.551"/>
		<rect x="440.676" y="250.349" clip-path="url(#SVGID_2_)" fill="#808080" width="3.552" height="3.553"/>
		<rect x="440.676" y="256.894" clip-path="url(#SVGID_2_)" fill="#808080" width="3.552" height="3.553"/>
		<rect x="440.676" y="263.437" clip-path="url(#SVGID_2_)" fill="#FFD800" width="3.552" height="3.551"/>
		<rect x="447.22" y="250.349" clip-path="url(#SVGID_2_)" fill="#808080" width="3.55" height="3.553"/>
		<rect x="447.22" y="256.894" clip-path="url(#SVGID_2_)" fill="#808080" width="3.55" height="3.553"/>
		<rect x="447.22" y="263.437" clip-path="url(#SVGID_2_)" fill="#808080" width="3.55" height="3.551"/>
		<rect x="453.762" y="250.349" clip-path="url(#SVGID_2_)" fill="#808080" width="3.552" height="3.553"/>
		<rect x="453.762" y="256.894" clip-path="url(#SVGID_2_)" fill="#808080" width="3.552" height="3.553"/>
		<rect x="453.762" y="263.437" clip-path="url(#SVGID_2_)" fill="#808080" width="3.552" height="3.551"/>
		<rect x="460.305" y="250.349" clip-path="url(#SVGID_2_)" fill="#808080" width="3.551" height="3.553"/>
		<rect x="460.305" y="256.894" clip-path="url(#SVGID_2_)" fill="#FFD800" width="3.551" height="3.553"/>
		<rect x="460.305" y="263.437" clip-path="url(#SVGID_2_)" fill="#808080" width="3.551" height="3.551"/>
		<rect x="472.642" y="255.211" clip-path="url(#SVGID_2_)" fill="#E02427" width="6.919" height="6.916"/>
		<rect x="495.075" y="255.211" clip-path="url(#SVGID_2_)" fill="#E02427" width="6.919" height="6.916"/>
		<rect x="483.674" y="255.211" clip-path="url(#SVGID_2_)" fill="#808080" width="6.915" height="6.916"/>
		<path clip-path="url(#SVGID_2_)" fill="#84007E" d="M505.824,296.838c0,1.541-1.261,2.803-2.805,2.803h-85.244
			c-1.543,0-2.805-1.262-2.805-2.803v-18.882c0-1.541,1.262-2.804,2.805-2.804h85.244c1.544,0,2.805,1.263,2.805,2.804V296.838z"/>
		<path clip-path="url(#SVGID_2_)" fill="#8C8B8B" d="M505.73,296.931h-0.468c0,0.647-0.261,1.228-0.686,1.652
			c-0.422,0.425-1.003,0.683-1.65,0.688h-85.244c-0.648-0.006-1.228-0.264-1.652-0.688s-0.686-1.005-0.686-1.652v-18.881
			c0-0.647,0.261-1.228,0.686-1.65c0.425-0.424,1.004-0.688,1.652-0.688h85.244c0.647,0,1.229,0.263,1.65,0.688
			c0.425,0.422,0.686,1.003,0.686,1.65v18.881H505.73h0.469v-18.881c0-1.807-1.465-3.271-3.272-3.271h-85.244
			c-1.809,0-3.271,1.464-3.271,3.271v18.881c0,1.807,1.462,3.271,3.271,3.271h85.244c1.808,0,3.272-1.464,3.272-3.271H505.73z"/>
		<rect x="421.141" y="279.078" clip-path="url(#SVGID_2_)" fill="#FFD800" width="3.553" height="3.551"/>
		<rect x="421.141" y="285.623" clip-path="url(#SVGID_2_)" fill="#808080" width="3.553" height="3.55"/>
		<rect x="421.141" y="292.162" clip-path="url(#SVGID_2_)" fill="#808080" width="3.553" height="3.554"/>
		<rect x="427.683" y="279.078" clip-path="url(#SVGID_2_)" fill="#808080" width="3.554" height="3.551"/>
		<rect x="427.683" y="285.623" clip-path="url(#SVGID_2_)" fill="#808080" width="3.554" height="3.55"/>
		<rect x="427.683" y="292.162" clip-path="url(#SVGID_2_)" fill="#808080" width="3.554" height="3.554"/>
		<rect x="434.226" y="279.078" clip-path="url(#SVGID_2_)" fill="#808080" width="3.55" height="3.551"/>
		<rect x="434.226" y="285.623" clip-path="url(#SVGID_2_)" fill="#FFD800" width="3.55" height="3.55"/>
		<rect x="434.226" y="292.162" clip-path="url(#SVGID_2_)" fill="#808080" width="3.55" height="3.554"/>
		<rect x="440.768" y="279.078" clip-path="url(#SVGID_2_)" fill="#808080" width="3.553" height="3.551"/>
		<rect x="440.768" y="285.623" clip-path="url(#SVGID_2_)" fill="#808080" width="3.553" height="3.55"/>
		<rect x="440.768" y="292.162" clip-path="url(#SVGID_2_)" fill="#FFD800" width="3.553" height="3.554"/>
		<rect x="447.311" y="279.078" clip-path="url(#SVGID_2_)" fill="#808080" width="3.553" height="3.551"/>
		<rect x="447.311" y="285.623" clip-path="url(#SVGID_2_)" fill="#808080" width="3.553" height="3.55"/>
		<rect x="447.311" y="292.162" clip-path="url(#SVGID_2_)" fill="#808080" width="3.553" height="3.554"/>
		<rect x="453.855" y="279.078" clip-path="url(#SVGID_2_)" fill="#808080" width="3.551" height="3.551"/>
		<rect x="453.855" y="285.623" clip-path="url(#SVGID_2_)" fill="#808080" width="3.551" height="3.55"/>
		<rect x="453.855" y="292.162" clip-path="url(#SVGID_2_)" fill="#808080" width="3.551" height="3.554"/>
		<rect x="460.398" y="279.078" clip-path="url(#SVGID_2_)" fill="#808080" width="3.553" height="3.551"/>
		<rect x="460.398" y="285.623" clip-path="url(#SVGID_2_)" fill="#FFD800" width="3.553" height="3.55"/>
		<rect x="460.398" y="292.162" clip-path="url(#SVGID_2_)" fill="#808080" width="3.553" height="3.554"/>
		<rect x="472.736" y="283.938" clip-path="url(#SVGID_2_)" fill="#E02427" width="6.916" height="6.92"/>
		<rect x="495.167" y="283.938" clip-path="url(#SVGID_2_)" fill="#E02427" width="6.919" height="6.92"/>
		<rect x="483.766" y="283.938" clip-path="url(#SVGID_2_)" fill="#808080" width="6.918" height="6.92"/>
	</g>
	<g>
		<defs>
			<path id="SVGID_3_" d="M472.637,251.975c0,0,76.711,81.894,100.565,87.16c23.854,5.265,69.978,2.129,69.978,2.129V35.238
				l-183.656,8.429L472.637,251.975z"/>
		</defs>
		<clipPath id="SVGID_4_">
			<use xlink:href="#SVGID_3_"  overflow="visible"/>
		</clipPath>
		<rect x="474.643" y="66.621" clip-path="url(#SVGID_4_)" fill="#C1C0C0" width="144.128" height="269.658"/>
		<polygon clip-path="url(#SVGID_4_)" fill="#4D4E4E" points="618.771,336.279 618.771,332.792 478.131,332.792 478.131,70.108 
			615.283,70.108 615.283,336.279 618.771,336.279 618.771,332.792 618.771,336.279 622.258,336.279 622.258,63.134 471.156,63.134 
			471.156,339.766 622.258,339.766 622.258,336.279 		"/>
		<path clip-path="url(#SVGID_4_)" fill="#84007E" d="M599.3,121.965c0,1.823-1.492,3.314-3.317,3.314H495.227
			c-1.822,0-3.314-1.491-3.314-3.314V99.647c0-1.821,1.492-3.314,3.314-3.314h100.756c1.825,0,3.317,1.494,3.317,3.314V121.965z"/>
		<path clip-path="url(#SVGID_4_)" fill="#8C8B8B" d="M599.188,122.076h-0.554c0,0.765-0.307,1.451-0.809,1.953
			c-0.502,0.5-1.189,0.808-1.952,0.811H495.115c-0.763-0.002-1.447-0.311-1.951-0.811c-0.502-0.502-0.809-1.188-0.811-1.953V99.758
			c0.002-0.765,0.309-1.451,0.811-1.953c0.504-0.501,1.188-0.81,1.951-0.81h100.759c0.763,0,1.45,0.309,1.952,0.81
			c0.502,0.502,0.809,1.188,0.809,1.953v22.318H599.188h0.552V99.758c0-2.136-1.728-3.863-3.866-3.866H495.115
			c-2.133,0.002-3.866,1.73-3.866,3.866v22.318c0,2.134,1.733,3.864,3.866,3.866h100.759c2.139-0.002,3.866-1.732,3.866-3.866
			H599.188z"/>
		<rect x="499.207" y="100.975" clip-path="url(#SVGID_4_)" fill="#FFD800" width="4.197" height="4.195"/>
		<rect x="499.207" y="108.707" clip-path="url(#SVGID_4_)" fill="#808080" width="4.197" height="4.2"/>
		<rect x="499.207" y="116.442" clip-path="url(#SVGID_4_)" fill="#808080" width="4.197" height="4.198"/>
		<rect x="506.937" y="100.975" clip-path="url(#SVGID_4_)" fill="#808080" width="4.196" height="4.195"/>
		<rect x="506.937" y="108.707" clip-path="url(#SVGID_4_)" fill="#808080" width="4.196" height="4.2"/>
		<rect x="506.937" y="116.442" clip-path="url(#SVGID_4_)" fill="#808080" width="4.196" height="4.198"/>
		<rect x="514.671" y="100.975" clip-path="url(#SVGID_4_)" fill="#808080" width="4.2" height="4.195"/>
		<rect x="514.671" y="108.707" clip-path="url(#SVGID_4_)" fill="#FFD800" width="4.2" height="4.2"/>
		<rect x="514.671" y="116.442" clip-path="url(#SVGID_4_)" fill="#808080" width="4.2" height="4.198"/>
		<rect x="522.402" y="100.975" clip-path="url(#SVGID_4_)" fill="#808080" width="4.2" height="4.195"/>
		<rect x="522.402" y="108.707" clip-path="url(#SVGID_4_)" fill="#808080" width="4.2" height="4.2"/>
		<rect x="522.402" y="116.442" clip-path="url(#SVGID_4_)" fill="#FFD800" width="4.2" height="4.198"/>
		<rect x="530.14" y="100.975" clip-path="url(#SVGID_4_)" fill="#808080" width="4.197" height="4.195"/>
		<rect x="530.14" y="108.707" clip-path="url(#SVGID_4_)" fill="#808080" width="4.197" height="4.2"/>
		<rect x="530.14" y="116.442" clip-path="url(#SVGID_4_)" fill="#808080" width="4.197" height="4.198"/>
		<rect x="537.871" y="100.975" clip-path="url(#SVGID_4_)" fill="#808080" width="4.2" height="4.195"/>
		<rect x="537.871" y="108.707" clip-path="url(#SVGID_4_)" fill="#808080" width="4.2" height="4.2"/>
		<rect x="537.871" y="116.442" clip-path="url(#SVGID_4_)" fill="#808080" width="4.2" height="4.198"/>
		<rect x="545.604" y="100.975" clip-path="url(#SVGID_4_)" fill="#808080" width="4.2" height="4.195"/>
		<rect x="545.604" y="108.707" clip-path="url(#SVGID_4_)" fill="#FFD800" width="4.2" height="4.2"/>
		<rect x="545.604" y="116.442" clip-path="url(#SVGID_4_)" fill="#808080" width="4.2" height="4.198"/>
		<rect x="560.189" y="106.718" clip-path="url(#SVGID_4_)" fill="#E02427" width="8.174" height="8.175"/>
		<rect x="586.703" y="106.718" clip-path="url(#SVGID_4_)" fill="#E02427" width="8.177" height="8.175"/>
		<rect x="573.227" y="106.718" clip-path="url(#SVGID_4_)" fill="#808080" width="8.174" height="8.175"/>
		<path clip-path="url(#SVGID_4_)" fill="#84007E" d="M599.41,154.964c0,1.822-1.49,3.314-3.314,3.314H495.338
			c-1.823,0-3.314-1.492-3.314-3.314v-22.318c0-1.821,1.491-3.312,3.314-3.312h100.758c1.824,0,3.314,1.491,3.314,3.312V154.964z"/>
		<path clip-path="url(#SVGID_4_)" fill="#8C8B8B" d="M599.3,155.075h-0.554c0,0.765-0.307,1.453-0.807,1.953
			c-0.504,0.501-1.189,0.808-1.954,0.811H495.227c-0.766-0.002-1.45-0.31-1.954-0.811c-0.5-0.5-0.81-1.188-0.81-1.953V132.76
			c0-0.765,0.31-1.453,0.81-1.955c0.504-0.501,1.188-0.81,1.954-0.81h100.759c0.765,0,1.45,0.309,1.954,0.81
			c0.5,0.502,0.807,1.19,0.807,1.955v22.315H599.3h0.552V132.76c0-2.139-1.73-3.868-3.866-3.868H495.227
			c-2.136,0-3.865,1.729-3.865,3.868v22.315c0,2.136,1.729,3.866,3.865,3.868h100.759c2.136-0.002,3.866-1.732,3.866-3.868H599.3z"
			/>
		<rect x="499.315" y="133.974" clip-path="url(#SVGID_4_)" fill="#FFD800" width="4.195" height="4.197"/>
		<rect x="499.315" y="141.708" clip-path="url(#SVGID_4_)" fill="#808080" width="4.195" height="4.197"/>
		<rect x="499.315" y="149.44" clip-path="url(#SVGID_4_)" fill="#808080" width="4.195" height="4.198"/>
		<rect x="507.047" y="133.974" clip-path="url(#SVGID_4_)" fill="#808080" width="4.198" height="4.197"/>
		<rect x="507.047" y="141.708" clip-path="url(#SVGID_4_)" fill="#808080" width="4.198" height="4.197"/>
		<rect x="507.047" y="149.44" clip-path="url(#SVGID_4_)" fill="#808080" width="4.198" height="4.198"/>
		<rect x="514.781" y="133.974" clip-path="url(#SVGID_4_)" fill="#808080" width="4.198" height="4.197"/>
		<rect x="514.781" y="141.708" clip-path="url(#SVGID_4_)" fill="#FFD800" width="4.198" height="4.197"/>
		<rect x="514.781" y="149.44" clip-path="url(#SVGID_4_)" fill="#808080" width="4.198" height="4.198"/>
		<rect x="522.516" y="133.974" clip-path="url(#SVGID_4_)" fill="#808080" width="4.198" height="4.197"/>
		<rect x="522.516" y="141.708" clip-path="url(#SVGID_4_)" fill="#808080" width="4.198" height="4.197"/>
		<rect x="522.516" y="149.44" clip-path="url(#SVGID_4_)" fill="#FFD800" width="4.198" height="4.198"/>
		<rect x="530.25" y="133.974" clip-path="url(#SVGID_4_)" fill="#808080" width="4.198" height="4.197"/>
		<rect x="530.25" y="141.708" clip-path="url(#SVGID_4_)" fill="#808080" width="4.198" height="4.197"/>
		<rect x="530.25" y="149.44" clip-path="url(#SVGID_4_)" fill="#808080" width="4.198" height="4.198"/>
		<rect x="537.98" y="133.974" clip-path="url(#SVGID_4_)" fill="#808080" width="4.199" height="4.197"/>
		<rect x="537.98" y="141.708" clip-path="url(#SVGID_4_)" fill="#808080" width="4.199" height="4.197"/>
		<rect x="537.98" y="149.44" clip-path="url(#SVGID_4_)" fill="#808080" width="4.199" height="4.198"/>
		<rect x="545.718" y="133.974" clip-path="url(#SVGID_4_)" fill="#808080" width="4.194" height="4.197"/>
		<rect x="545.718" y="141.708" clip-path="url(#SVGID_4_)" fill="#FFD800" width="4.194" height="4.197"/>
		<rect x="545.718" y="149.44" clip-path="url(#SVGID_4_)" fill="#808080" width="4.194" height="4.198"/>
		<rect x="560.299" y="139.72" clip-path="url(#SVGID_4_)" fill="#E02427" width="8.175" height="8.172"/>
		<rect x="586.814" y="139.72" clip-path="url(#SVGID_4_)" fill="#E02427" width="8.179" height="8.172"/>
		<rect x="573.336" y="139.72" clip-path="url(#SVGID_4_)" fill="#808080" width="8.175" height="8.172"/>
		<path clip-path="url(#SVGID_4_)" fill="#84007E" d="M599.521,188.921c0,1.823-1.489,3.314-3.314,3.314H495.447
			c-1.824,0-3.313-1.491-3.313-3.314v-22.318c0-1.821,1.488-3.312,3.313-3.312h100.759c1.825,0,3.314,1.491,3.314,3.312V188.921z"/>
		<path clip-path="url(#SVGID_4_)" fill="#8C8B8B" d="M599.41,189.032h-0.553c0,0.765-0.309,1.451-0.809,1.952
			c-0.502,0.502-1.189,0.808-1.953,0.811H495.338c-0.768-0.002-1.45-0.309-1.952-0.811c-0.502-0.501-0.809-1.188-0.809-1.952
			v-22.318c0-0.765,0.307-1.451,0.809-1.952c0.502-0.502,1.185-0.808,1.952-0.808h100.758c0.764,0,1.451,0.306,1.953,0.808
			c0.5,0.501,0.809,1.187,0.809,1.952v22.318H599.41h0.55v-22.318c0-2.136-1.728-3.864-3.864-3.866H495.338
			c-2.137,0.002-3.865,1.73-3.865,3.866v22.318c0,2.134,1.729,3.866,3.865,3.866h100.758c2.137,0,3.864-1.732,3.864-3.866H599.41z"
			/>
		<rect x="499.424" y="167.931" clip-path="url(#SVGID_4_)" fill="#FFD800" width="4.2" height="4.197"/>
		<rect x="499.424" y="175.666" clip-path="url(#SVGID_4_)" fill="#808080" width="4.2" height="4.198"/>
		<rect x="499.424" y="183.398" clip-path="url(#SVGID_4_)" fill="#808080" width="4.2" height="4.197"/>
		<rect x="507.158" y="167.931" clip-path="url(#SVGID_4_)" fill="#808080" width="4.198" height="4.197"/>
		<rect x="507.158" y="175.666" clip-path="url(#SVGID_4_)" fill="#808080" width="4.198" height="4.198"/>
		<rect x="507.158" y="183.398" clip-path="url(#SVGID_4_)" fill="#808080" width="4.198" height="4.197"/>
		<rect x="514.894" y="167.931" clip-path="url(#SVGID_4_)" fill="#808080" width="4.197" height="4.197"/>
		<rect x="514.894" y="175.666" clip-path="url(#SVGID_4_)" fill="#FFD800" width="4.197" height="4.198"/>
		<rect x="514.894" y="183.398" clip-path="url(#SVGID_4_)" fill="#808080" width="4.197" height="4.197"/>
		<rect x="522.628" y="167.931" clip-path="url(#SVGID_4_)" fill="#808080" width="4.196" height="4.197"/>
		<rect x="522.628" y="175.666" clip-path="url(#SVGID_4_)" fill="#808080" width="4.196" height="4.198"/>
		<rect x="522.628" y="183.398" clip-path="url(#SVGID_4_)" fill="#FFD800" width="4.196" height="4.197"/>
		<rect x="530.357" y="167.931" clip-path="url(#SVGID_4_)" fill="#808080" width="4.199" height="4.197"/>
		<rect x="530.357" y="175.666" clip-path="url(#SVGID_4_)" fill="#808080" width="4.199" height="4.198"/>
		<rect x="530.357" y="183.398" clip-path="url(#SVGID_4_)" fill="#808080" width="4.199" height="4.197"/>
		<rect x="538.094" y="167.931" clip-path="url(#SVGID_4_)" fill="#808080" width="4.199" height="4.197"/>
		<rect x="538.094" y="175.666" clip-path="url(#SVGID_4_)" fill="#808080" width="4.199" height="4.198"/>
		<rect x="538.094" y="183.398" clip-path="url(#SVGID_4_)" fill="#808080" width="4.199" height="4.197"/>
		<rect x="545.826" y="167.931" clip-path="url(#SVGID_4_)" fill="#808080" width="4.2" height="4.197"/>
		<rect x="545.826" y="175.666" clip-path="url(#SVGID_4_)" fill="#FFD800" width="4.2" height="4.198"/>
		<rect x="545.826" y="183.398" clip-path="url(#SVGID_4_)" fill="#808080" width="4.2" height="4.197"/>
		<rect x="560.41" y="173.675" clip-path="url(#SVGID_4_)" fill="#E02427" width="8.177" height="8.175"/>
		<rect x="586.925" y="173.675" clip-path="url(#SVGID_4_)" fill="#E02427" width="8.177" height="8.175"/>
		<rect x="573.445" y="173.675" clip-path="url(#SVGID_4_)" fill="#808080" width="8.177" height="8.175"/>
		<path clip-path="url(#SVGID_4_)" fill="#84007E" d="M599.41,222.681c0,1.822-1.49,3.314-3.314,3.314H495.338
			c-1.825,0-3.314-1.492-3.314-3.314v-22.316c0-1.823,1.489-3.314,3.314-3.314h100.758c1.824,0,3.314,1.491,3.314,3.314V222.681z"/>
		<path clip-path="url(#SVGID_4_)" fill="#8C8B8B" d="M599.3,222.789h-0.554c0,0.768-0.307,1.453-0.809,1.955
			s-1.188,0.808-1.952,0.811H495.227c-0.766-0.002-1.45-0.309-1.954-0.811c-0.5-0.502-0.81-1.188-0.81-1.955v-22.315
			c0-0.765,0.31-1.451,0.81-1.952c0.504-0.501,1.188-0.811,1.954-0.811h100.759c0.765,0,1.45,0.309,1.952,0.811
			s0.809,1.187,0.809,1.952v22.315H599.3h0.552v-22.315c0-2.134-1.73-3.866-3.866-3.866H495.227c-2.136,0-3.865,1.732-3.865,3.866
			v22.315c0,2.136,1.729,3.866,3.865,3.869h100.759c2.136-0.002,3.866-1.732,3.866-3.869H599.3z"/>
		<rect x="499.315" y="201.69" clip-path="url(#SVGID_4_)" fill="#FFD800" width="4.195" height="4.198"/>
		<rect x="499.315" y="209.425" clip-path="url(#SVGID_4_)" fill="#808080" width="4.195" height="4.197"/>
		<rect x="499.315" y="217.157" clip-path="url(#SVGID_4_)" fill="#808080" width="4.195" height="4.198"/>
		<rect x="507.047" y="201.69" clip-path="url(#SVGID_4_)" fill="#808080" width="4.198" height="4.198"/>
		<rect x="507.047" y="209.425" clip-path="url(#SVGID_4_)" fill="#808080" width="4.198" height="4.197"/>
		<rect x="507.047" y="217.157" clip-path="url(#SVGID_4_)" fill="#808080" width="4.198" height="4.198"/>
		<rect x="514.781" y="201.69" clip-path="url(#SVGID_4_)" fill="#808080" width="4.198" height="4.198"/>
		<rect x="514.781" y="209.425" clip-path="url(#SVGID_4_)" fill="#FFD800" width="4.198" height="4.197"/>
		<rect x="514.781" y="217.157" clip-path="url(#SVGID_4_)" fill="#808080" width="4.198" height="4.198"/>
		<rect x="522.516" y="201.69" clip-path="url(#SVGID_4_)" fill="#808080" width="4.198" height="4.198"/>
		<rect x="522.516" y="209.425" clip-path="url(#SVGID_4_)" fill="#808080" width="4.198" height="4.197"/>
		<rect x="522.516" y="217.157" clip-path="url(#SVGID_4_)" fill="#FFD800" width="4.198" height="4.198"/>
		<rect x="530.25" y="201.69" clip-path="url(#SVGID_4_)" fill="#808080" width="4.198" height="4.198"/>
		<rect x="530.25" y="209.425" clip-path="url(#SVGID_4_)" fill="#808080" width="4.198" height="4.197"/>
		<rect x="530.25" y="217.157" clip-path="url(#SVGID_4_)" fill="#808080" width="4.198" height="4.198"/>
		<rect x="537.98" y="201.69" clip-path="url(#SVGID_4_)" fill="#808080" width="4.199" height="4.198"/>
		<rect x="537.98" y="209.425" clip-path="url(#SVGID_4_)" fill="#808080" width="4.199" height="4.197"/>
		<rect x="537.98" y="217.157" clip-path="url(#SVGID_4_)" fill="#808080" width="4.199" height="4.198"/>
		<rect x="545.718" y="201.69" clip-path="url(#SVGID_4_)" fill="#808080" width="4.194" height="4.198"/>
		<rect x="545.718" y="209.425" clip-path="url(#SVGID_4_)" fill="#FFD800" width="4.194" height="4.197"/>
		<rect x="545.718" y="217.157" clip-path="url(#SVGID_4_)" fill="#808080" width="4.194" height="4.198"/>
		<rect x="560.299" y="207.434" clip-path="url(#SVGID_4_)" fill="#E02427" width="8.175" height="8.177"/>
		<rect x="586.814" y="207.434" clip-path="url(#SVGID_4_)" fill="#E02427" width="8.179" height="8.177"/>
		<rect x="573.336" y="207.434" clip-path="url(#SVGID_4_)" fill="#808080" width="8.175" height="8.177"/>
		<path clip-path="url(#SVGID_4_)" fill="#84007E" d="M599.521,255.68c0,1.822-1.489,3.314-3.314,3.314H495.447
			c-1.824,0-3.313-1.492-3.313-3.314v-22.318c0-1.821,1.488-3.312,3.313-3.312h100.759c1.825,0,3.314,1.491,3.314,3.312V255.68z"/>
		<path clip-path="url(#SVGID_4_)" fill="#8C8B8B" d="M599.41,255.791h-0.553c0,0.765-0.309,1.451-0.809,1.955
			c-0.502,0.499-1.189,0.809-1.953,0.809H495.338c-0.768,0-1.45-0.31-1.954-0.809c-0.5-0.504-0.807-1.189-0.811-1.955v-22.315
			c0.004-0.768,0.311-1.453,0.811-1.955c0.504-0.5,1.187-0.808,1.954-0.808h100.758c0.764,0,1.451,0.309,1.953,0.808
			c0.5,0.502,0.809,1.188,0.809,1.955v22.315H599.41h0.55v-22.315c0-2.139-1.728-3.868-3.864-3.868H495.338
			c-2.137,0-3.869,1.729-3.869,3.868v22.315c0,2.136,1.732,3.866,3.869,3.866h100.758c2.137,0,3.864-1.729,3.864-3.866H599.41z"/>
		<rect x="499.424" y="234.689" clip-path="url(#SVGID_4_)" fill="#FFD800" width="4.2" height="4.197"/>
		<rect x="499.424" y="242.421" clip-path="url(#SVGID_4_)" fill="#808080" width="4.2" height="4.2"/>
		<rect x="499.424" y="250.156" clip-path="url(#SVGID_4_)" fill="#808080" width="4.2" height="4.197"/>
		<rect x="507.158" y="234.689" clip-path="url(#SVGID_4_)" fill="#808080" width="4.198" height="4.197"/>
		<rect x="507.158" y="242.421" clip-path="url(#SVGID_4_)" fill="#808080" width="4.198" height="4.2"/>
		<rect x="507.158" y="250.156" clip-path="url(#SVGID_4_)" fill="#808080" width="4.198" height="4.197"/>
		<rect x="514.894" y="234.689" clip-path="url(#SVGID_4_)" fill="#808080" width="4.197" height="4.197"/>
		<rect x="514.894" y="242.421" clip-path="url(#SVGID_4_)" fill="#FFD800" width="4.197" height="4.2"/>
		<rect x="514.894" y="250.156" clip-path="url(#SVGID_4_)" fill="#808080" width="4.197" height="4.197"/>
		<rect x="522.628" y="234.689" clip-path="url(#SVGID_4_)" fill="#808080" width="4.196" height="4.197"/>
		<rect x="522.628" y="242.421" clip-path="url(#SVGID_4_)" fill="#808080" width="4.196" height="4.2"/>
		<rect x="522.628" y="250.156" clip-path="url(#SVGID_4_)" fill="#FFD800" width="4.196" height="4.197"/>
		<rect x="530.357" y="234.689" clip-path="url(#SVGID_4_)" fill="#808080" width="4.199" height="4.197"/>
		<rect x="530.357" y="242.421" clip-path="url(#SVGID_4_)" fill="#808080" width="4.199" height="4.2"/>
		<rect x="530.357" y="250.156" clip-path="url(#SVGID_4_)" fill="#808080" width="4.199" height="4.197"/>
		<rect x="538.094" y="234.689" clip-path="url(#SVGID_4_)" fill="#808080" width="4.199" height="4.197"/>
		<rect x="538.094" y="242.421" clip-path="url(#SVGID_4_)" fill="#808080" width="4.199" height="4.2"/>
		<rect x="538.094" y="250.156" clip-path="url(#SVGID_4_)" fill="#808080" width="4.199" height="4.197"/>
		<rect x="545.826" y="234.689" clip-path="url(#SVGID_4_)" fill="#808080" width="4.198" height="4.197"/>
		<rect x="545.826" y="242.421" clip-path="url(#SVGID_4_)" fill="#FFD800" width="4.198" height="4.2"/>
		<rect x="545.826" y="250.156" clip-path="url(#SVGID_4_)" fill="#808080" width="4.198" height="4.197"/>
		<rect x="560.41" y="240.433" clip-path="url(#SVGID_4_)" fill="#E02427" width="8.177" height="8.175"/>
		<rect x="586.925" y="240.433" clip-path="url(#SVGID_4_)" fill="#E02427" width="8.177" height="8.175"/>
		<rect x="573.445" y="240.433" clip-path="url(#SVGID_4_)" fill="#808080" width="8.177" height="8.175"/>
		<path clip-path="url(#SVGID_4_)" fill="#84007E" d="M599.629,289.637c0,1.822-1.489,3.314-3.314,3.314H495.561
			c-1.825,0-3.316-1.492-3.316-3.314V267.32c0-1.822,1.491-3.314,3.316-3.314h100.754c1.825,0,3.314,1.492,3.314,3.314V289.637z"/>
		<path clip-path="url(#SVGID_4_)" fill="#8C8B8B" d="M599.521,289.745h-0.555c0,0.767-0.304,1.453-0.806,1.957
			c-0.502,0.499-1.192,0.808-1.954,0.808H495.447c-0.764,0-1.449-0.309-1.953-0.808c-0.498-0.504-0.808-1.19-0.808-1.957V267.43
			c0-0.763,0.31-1.451,0.808-1.952c0.504-0.5,1.189-0.811,1.953-0.811h100.759c0.762,0,1.452,0.311,1.954,0.811
			c0.502,0.501,0.806,1.189,0.806,1.952v22.315H599.521h0.554V267.43c0-2.134-1.73-3.864-3.868-3.864H495.447
			c-2.135,0-3.864,1.73-3.864,3.864v22.315c0,2.139,1.729,3.868,3.864,3.868h100.759c2.138,0,3.868-1.729,3.868-3.868H599.521z"/>
		<rect x="499.538" y="268.646" clip-path="url(#SVGID_4_)" fill="#FFD800" width="4.2" height="4.197"/>
		<rect x="499.538" y="276.381" clip-path="url(#SVGID_4_)" fill="#808080" width="4.2" height="4.198"/>
		<rect x="499.538" y="284.115" clip-path="url(#SVGID_4_)" fill="#808080" width="4.2" height="4.195"/>
		<rect x="507.27" y="268.646" clip-path="url(#SVGID_4_)" fill="#808080" width="4.197" height="4.197"/>
		<rect x="507.27" y="276.381" clip-path="url(#SVGID_4_)" fill="#808080" width="4.197" height="4.198"/>
		<rect x="507.27" y="284.115" clip-path="url(#SVGID_4_)" fill="#808080" width="4.197" height="4.195"/>
		<rect x="515.004" y="268.646" clip-path="url(#SVGID_4_)" fill="#808080" width="4.197" height="4.197"/>
		<rect x="515.004" y="276.381" clip-path="url(#SVGID_4_)" fill="#FFD800" width="4.197" height="4.198"/>
		<rect x="515.004" y="284.115" clip-path="url(#SVGID_4_)" fill="#808080" width="4.197" height="4.195"/>
		<rect x="522.736" y="268.646" clip-path="url(#SVGID_4_)" fill="#808080" width="4.198" height="4.197"/>
		<rect x="522.736" y="276.381" clip-path="url(#SVGID_4_)" fill="#808080" width="4.198" height="4.198"/>
		<rect x="522.736" y="284.115" clip-path="url(#SVGID_4_)" fill="#FFD800" width="4.198" height="4.195"/>
		<rect x="530.471" y="268.646" clip-path="url(#SVGID_4_)" fill="#808080" width="4.2" height="4.197"/>
		<rect x="530.471" y="276.381" clip-path="url(#SVGID_4_)" fill="#808080" width="4.2" height="4.198"/>
		<rect x="530.471" y="284.115" clip-path="url(#SVGID_4_)" fill="#808080" width="4.2" height="4.195"/>
		<rect x="538.203" y="268.646" clip-path="url(#SVGID_4_)" fill="#808080" width="4.197" height="4.197"/>
		<rect x="538.203" y="276.381" clip-path="url(#SVGID_4_)" fill="#808080" width="4.197" height="4.198"/>
		<rect x="538.203" y="284.115" clip-path="url(#SVGID_4_)" fill="#808080" width="4.197" height="4.195"/>
		<rect x="545.938" y="268.646" clip-path="url(#SVGID_4_)" fill="#808080" width="4.197" height="4.197"/>
		<rect x="545.938" y="276.381" clip-path="url(#SVGID_4_)" fill="#FFD800" width="4.197" height="4.198"/>
		<rect x="545.938" y="284.115" clip-path="url(#SVGID_4_)" fill="#808080" width="4.197" height="4.195"/>
		<rect x="560.519" y="274.39" clip-path="url(#SVGID_4_)" fill="#E02427" width="8.177" height="8.177"/>
		<rect x="587.037" y="274.39" clip-path="url(#SVGID_4_)" fill="#E02427" width="8.174" height="8.177"/>
		<rect x="573.559" y="274.39" clip-path="url(#SVGID_4_)" fill="#808080" width="8.174" height="8.177"/>
	</g>
	<path fill="#0095A6" d="M618.979,344.415c0,0-1.514-0.046-4.352,0.665c-2.833,0.636-7.13,1.301-12.656,1.777
		c-5.526,0.4-12.397,0.408-20.208-0.951c-7.787-1.332-16.547-4.07-25.244-8.674c-8.738-4.527-17.386-10.811-25.672-18.059
		c-8.305-7.254-16.327-15.458-24.336-23.9c-3.98-4.187-8.025-8.447-12.12-12.754c-4.093-4.241-8.252-8.457-12.478-12.597
		c-8.518-8.208-17.423-16.047-27.014-22.742c-4.775-3.37-9.696-6.484-14.752-9.294c-5.088-2.747-10.261-5.262-15.539-7.448
		c-5.301-2.129-10.684-3.948-16.086-5.539c-5.436-1.473-10.873-2.763-16.318-3.698c-21.78-3.877-43.064-3.451-61.251-2.066
		c-2.282,0.19-4.513,0.379-6.695,0.563c-2.183,0.236-4.315,0.467-6.395,0.689c-4.178,0.377-8.116,0.968-11.837,1.444
		c-7.411,1.104-13.927,2.034-19.262,2.992c-10.729,1.861-16.858,2.923-16.858,2.923s1.428-0.628,4.104-1.807
		c2.699-1.119,6.606-2.947,11.744-4.806c5.101-1.978,11.357-4.259,18.672-6.483c7.31-2.243,15.641-4.629,24.93-6.545
		c9.285-1.912,19.494-3.56,30.466-4.384c10.963-0.806,22.697-0.799,34.819,0.604c12.114,1.342,24.613,4.177,36.762,8.747
		c6.047,2.329,12.061,4.944,17.836,8.063c5.765,3.133,11.364,6.588,16.73,10.333c10.676,7.587,20.378,16.25,29.106,25.276
		c8.761,8.999,16.645,18.299,24.098,27.173c7.474,8.872,14.532,17.346,21.632,24.806c7.076,7.479,14.197,13.943,21.426,18.952
		c3.594,2.531,7.215,4.697,10.793,6.506c3.55,1.891,7.109,3.299,10.518,4.518c6.86,2.268,13.189,3.938,18.488,4.57
		c5.315,0.49,9.529,1.144,12.463,1.144C617.42,344.415,618.979,344.415,618.979,344.415z"/>
	<path fill="#FFFFFF" d="M136.131,438.612v82.162h-10.424v-14.123c-4.427,5.387-9.4,9.438-14.912,12.157
		c-5.512,2.719-11.542,4.077-18.087,4.077c-11.628,0-21.56-4.214-29.789-12.647c-8.231-8.434-12.35-18.689-12.35-30.774
		c0-11.829,4.154-21.947,12.464-30.356c8.304-8.406,18.297-12.61,29.977-12.61c6.747,0,12.852,1.435,18.313,4.305
		c5.462,2.869,10.257,7.173,14.384,12.912v-15.102H136.131z M93.88,446.689c-5.885,0-11.314,1.449-16.296,4.341
		c-4.976,2.891-8.937,6.952-11.879,12.182c-2.94,5.23-4.411,10.761-4.411,16.595c0,5.782,1.484,11.314,4.449,16.596
		c2.967,5.277,6.951,9.389,11.955,12.331c5.003,2.942,10.372,4.413,16.104,4.413c5.784,0,11.265-1.457,16.445-4.377
		c5.176-2.915,9.162-6.865,11.954-11.841c2.792-4.979,4.187-10.584,4.187-16.822c0-9.503-3.129-17.448-9.391-23.837
		C110.736,449.887,103.03,446.689,93.88,446.689z"/>
	<path fill="#FFFFFF" d="M136.131,438.612h-0.841v81.317h-8.74v-15.632l-1.494,1.818c-4.363,5.308-9.242,9.273-14.634,11.936
		c-5.394,2.659-11.284,3.989-17.714,3.989c-11.423-0.007-21.089-4.106-29.185-12.391c-8.087-8.295-12.103-18.293-12.111-30.187
		c0.009-11.632,4.057-21.491,12.22-29.764c8.173-8.259,17.903-12.352,29.378-12.361c6.629,0.003,12.586,1.405,17.921,4.207
		c5.333,2.804,10.027,7.011,14.091,12.66l1.528,2.123v-16.874h9.581V438.612h-0.841H136.131v-0.844h-11.266v15.945h0.842
		l0.684-0.493c-4.188-5.827-9.085-10.229-14.674-13.166c-5.59-2.938-11.842-4.402-18.707-4.402
		c-11.884-0.007-22.141,4.309-30.576,12.862c-8.455,8.546-12.716,18.922-12.706,30.949c-0.01,12.274,4.209,22.79,12.588,31.362
		c8.363,8.584,18.562,12.91,30.393,12.901c6.661,0.003,12.829-1.385,18.459-4.163c5.63-2.776,10.699-6.913,15.191-12.377
		l-0.651-0.536h-0.842v14.965h12.109v-83.848h-0.844V438.612z M93.88,446.689v-0.844c-6.023,0-11.614,1.489-16.718,4.456
		c-5.107,2.963-9.185,7.146-12.193,12.497c-3.005,5.347-4.52,11.03-4.518,17.008c-0.002,5.928,1.525,11.614,4.557,17.009
		c3.033,5.396,7.131,9.63,12.263,12.645c5.124,3.015,10.654,4.53,16.532,4.529c5.925,0.001,11.562-1.499,16.857-4.486
		c5.299-2.98,9.412-7.052,12.277-12.161c2.867-5.112,4.295-10.872,4.293-17.235c0.01-9.687-3.215-17.894-9.63-24.427
		c-6.401-6.538-14.375-9.841-23.721-9.834V446.689v0.843c8.954,0.009,16.393,3.099,22.518,9.328
		c6.106,6.241,9.14,13.925,9.148,23.246c-0.002,6.113-1.362,11.563-4.079,16.408c-2.72,4.843-6.579,8.673-11.633,11.52
		c-5.064,2.854-10.391,4.268-16.031,4.268c-5.587,0-10.795-1.426-15.678-4.295c-4.874-2.869-8.745-6.858-11.646-12.019
		c-2.901-5.167-4.34-10.544-4.343-16.182c0.003-5.693,1.431-11.066,4.305-16.182c2.876-5.109,6.722-9.049,11.566-11.866
		c4.858-2.816,10.127-4.225,15.873-4.227V446.689z"/>
	<path fill="#FFFFFF" d="M239.662,455.678l-8.382,5.21c-7.241-9.614-17.121-14.423-29.646-14.423
		c-10.007,0-18.316,3.22-24.926,9.655c-6.611,6.438-9.919,14.257-9.919,23.46c0,5.984,1.519,11.616,4.561,16.895
		c3.042,5.28,7.219,9.38,12.522,12.295c5.305,2.92,11.251,4.377,17.839,4.377c12.068,0,21.925-4.809,29.568-14.425l8.382,5.513
		c-3.925,5.913-9.201,10.501-15.82,13.761c-6.62,3.261-14.157,4.891-22.618,4.891c-12.987,0-23.762-4.127-32.319-12.384
		c-8.56-8.255-12.838-18.3-12.838-30.13c0-7.954,2-15.342,6.004-22.163c4.002-6.822,9.503-12.147,16.499-15.974
		c6.997-3.824,14.829-5.738,23.487-5.738c5.436,0,10.684,0.831,15.744,2.493c5.06,1.661,9.351,3.824,12.873,6.494
		C234.197,448.152,237.194,451.551,239.662,455.678z"/>
	<path fill="#FFFFFF" d="M239.662,455.678l-0.445-0.716l-8.381,5.208l0.444,0.718l0.675-0.509
		c-7.373-9.812-17.58-14.773-30.32-14.756c-10.187-0.01-18.754,3.301-25.515,9.894c-6.76,6.572-10.182,14.656-10.172,24.063
		c-0.003,6.127,1.559,11.918,4.671,17.314c3.113,5.407,7.415,9.63,12.848,12.613c5.435,2.992,11.534,4.482,18.245,4.481
		c12.296,0.016,22.461-4.947,30.229-14.743l-0.661-0.524l-0.463,0.704l8.382,5.512l0.463-0.703l-0.702-0.469
		c-3.845,5.792-8.994,10.271-15.491,13.474c-6.492,3.194-13.891,4.802-22.245,4.802c-12.813-0.007-23.327-4.046-31.734-12.146
		c-8.409-8.122-12.571-17.897-12.581-29.523c0.003-7.813,1.959-15.037,5.889-21.736c3.93-6.697,9.308-11.902,16.177-15.659
		c6.867-3.755,14.548-5.635,23.083-5.638c5.349,0,10.507,0.817,15.48,2.452c4.99,1.637,9.193,3.762,12.629,6.365
		c3.431,2.6,6.354,5.909,8.771,9.955L239.662,455.678l-0.445-0.716L239.662,455.678l0.725-0.434
		c-2.519-4.209-5.59-7.696-9.203-10.432c-3.612-2.735-7.989-4.938-13.12-6.624c-5.146-1.689-10.485-2.536-16.007-2.536
		c-8.78,0-16.767,1.948-23.891,5.844c-7.124,3.891-12.75,9.337-16.822,16.286c-4.079,6.944-6.122,14.492-6.12,22.59
		c-0.009,12.034,4.384,22.348,13.095,30.735c8.71,8.414,19.741,12.627,32.905,12.62c8.567,0.003,16.241-1.652,22.99-4.976
		c6.742-3.319,12.146-8.014,16.149-14.053l0.471-0.706l-9.732-6.399l-0.481,0.604c-7.519,9.438-17.067,14.091-28.908,14.104
		c-6.466,0-12.257-1.426-17.433-4.272c-5.174-2.845-9.228-6.822-12.197-11.978c-2.972-5.157-4.447-10.631-4.449-16.472
		c0.008-9.001,3.202-16.552,9.664-22.855c6.46-6.279,14.508-9.408,24.338-9.417c12.309,0.016,21.861,4.672,28.972,14.086
		l0.466,0.615l9.738-6.055l-0.424-0.71L239.662,455.678z"/>
	<path fill="#FFFFFF" d="M298.865,436.497c12.66,0,23.148,4.581,31.471,13.743c7.566,8.359,11.35,18.252,11.35,29.678
		c0,11.479-3.998,21.51-11.991,30.094c-7.996,8.583-18.271,12.874-30.829,12.874c-12.608,0-22.91-4.291-30.9-12.874
		c-7.996-8.584-11.992-18.615-11.992-30.094c0-11.378,3.782-21.244,11.351-29.6C275.642,441.104,286.157,436.497,298.865,436.497z
		 M298.829,446.843c-8.79,0-16.345,3.245-22.658,9.741c-6.315,6.494-9.474,14.347-9.474,23.562c0,5.94,1.439,11.48,4.32,16.615
		c2.876,5.133,6.77,9.096,11.671,11.891c4.899,2.797,10.279,4.19,16.141,4.19c5.859,0,11.241-1.394,16.141-4.19
		c4.901-2.795,8.79-6.758,11.671-11.891c2.881-5.135,4.32-10.675,4.32-16.615c0-9.215-3.172-17.067-9.513-23.562
		C315.11,450.088,307.568,446.843,298.829,446.843z"/>
	<path fill="#FFFFFF" d="M298.865,436.497v0.842c12.459,0.012,22.661,4.473,30.847,13.47c7.433,8.218,11.124,17.87,11.131,29.109
		c-0.007,11.28-3.905,21.067-11.767,29.52c-7.85,8.413-17.843,12.595-30.211,12.604c-12.42-0.009-22.44-4.193-30.283-12.604
		c-7.864-8.452-11.76-18.239-11.767-29.52c0.007-11.191,3.698-20.814,11.132-29.035c8.183-9.047,18.414-13.532,30.918-13.544
		V436.497v-0.845c-12.912-0.009-23.714,4.718-32.168,14.1c-7.7,8.493-11.573,18.6-11.566,30.166
		c-0.007,11.676,4.088,21.953,12.216,30.668c8.139,8.754,18.722,13.153,31.519,13.142c12.749,0.012,23.303-4.388,31.446-13.142
		c8.125-8.715,12.222-18.992,12.216-30.668c0.006-11.611-3.866-21.746-11.566-30.243c-8.459-9.33-19.233-14.031-32.096-14.022
		V436.497z M298.829,446.843V446c-8.999-0.009-16.82,3.355-23.263,9.995c-6.461,6.634-9.721,14.742-9.712,24.15
		c-0.002,6.077,1.479,11.771,4.427,17.028c2.943,5.253,6.956,9.342,11.989,12.209c5.023,2.872,10.563,4.304,16.559,4.302
		c5.993,0.002,11.534-1.43,16.559-4.302c5.032-2.867,9.042-6.956,11.988-12.209c2.949-5.258,4.429-10.951,4.427-17.028
		c0.01-9.408-3.265-17.52-9.75-24.152c-6.468-6.638-14.272-10.002-23.224-9.993V446.843v0.842
		c8.529,0.009,15.808,3.137,22.016,9.486c6.195,6.359,9.265,13.953,9.274,22.975c-0.003,5.805-1.401,11.187-4.214,16.201
		c-2.815,5.014-6.586,8.852-11.354,11.571c-4.774,2.725-9.997,4.08-15.723,4.08c-5.728,0-10.949-1.355-15.723-4.077
		c-4.77-2.723-8.543-6.561-11.354-11.574c-2.813-5.015-4.211-10.396-4.214-16.201c0.01-9.021,3.064-16.618,9.235-22.975
		c6.185-6.35,13.474-9.478,22.055-9.486V446.843z"/>
	<path fill="#FFFFFF" d="M443.254,406.895v113.88h-10.42v-14.123c-4.434,5.387-9.401,9.438-14.918,12.157
		c-5.511,2.719-11.541,4.077-18.083,4.077c-11.63,0-21.56-4.214-29.791-12.647c-8.234-8.434-12.349-18.689-12.349-30.774
		c0-11.829,4.155-21.947,12.462-30.356c8.307-8.406,18.3-12.61,29.979-12.61c6.744,0,12.85,1.435,18.313,4.305
		c5.463,2.869,10.257,7.173,14.387,12.912v-46.819H443.254z M401.004,446.689c-5.884,0-11.314,1.449-16.293,4.341
		c-4.98,2.891-8.939,6.952-11.88,12.182c-2.941,5.23-4.413,10.761-4.413,16.595c0,5.782,1.48,11.314,4.449,16.596
		c2.966,5.277,6.951,9.389,11.955,12.331s10.37,4.413,16.105,4.413c5.783,0,11.264-1.457,16.442-4.377
		c5.181-2.915,9.164-6.865,11.956-11.841c2.789-4.979,4.187-10.584,4.187-16.822c0-9.503-3.131-17.448-9.394-23.837
		C417.86,449.887,410.154,446.689,401.004,446.689z"/>
	<path fill="#FFFFFF" d="M443.254,406.895h-0.843V519.93h-8.735V504.3l-1.493,1.816c-4.37,5.31-9.24,9.273-14.638,11.936
		c-5.395,2.659-11.285,3.989-17.712,3.989c-11.427-0.009-21.09-4.106-29.188-12.391c-8.087-8.295-12.101-18.293-12.108-30.187
		c0.008-11.632,4.056-21.491,12.217-29.764c8.175-8.259,17.905-12.352,29.381-12.361c6.626,0.003,12.583,1.405,17.921,4.209
		c5.333,2.802,10.027,7.009,14.095,12.658l1.525,2.123v-48.593h9.578V406.895h-0.843H443.254v-0.845h-11.263v47.664h0.843
		l0.684-0.493c-4.191-5.827-9.088-10.229-14.677-13.166c-5.592-2.938-11.844-4.402-18.706-4.402
		c-11.885-0.007-22.141,4.309-30.579,12.862c-8.452,8.546-12.713,18.922-12.703,30.949c-0.01,12.274,4.203,22.79,12.585,31.362
		c8.366,8.584,18.561,12.91,30.396,12.901c6.658,0.003,12.825-1.385,18.456-4.163c5.635-2.778,10.699-6.913,15.196-12.377
		l-0.651-0.536h-0.843v14.965h12.105V406.05h-0.843V406.895z M401.004,446.689v-0.844c-6.023,0-11.613,1.489-16.718,4.456
		c-5.109,2.963-9.185,7.146-12.19,12.497c-3.008,5.347-4.521,11.03-4.52,17.008c-0.002,5.926,1.521,11.614,4.557,17.009
		c3.03,5.396,7.13,9.63,12.263,12.645c5.124,3.015,10.651,4.53,16.532,4.529c5.924,0.001,11.561-1.499,16.854-4.486
		c5.304-2.98,9.415-7.054,12.28-12.161c2.861-5.11,4.295-10.872,4.293-17.235c0.009-9.687-3.217-17.894-9.636-24.427
		c-6.396-6.538-14.37-9.841-23.716-9.834V446.689v0.843c8.956,0.009,16.394,3.099,22.514,9.328
		c6.109,6.243,9.144,13.927,9.152,23.246c-0.002,6.113-1.365,11.563-4.079,16.408c-2.72,4.843-6.578,8.673-11.634,11.52
		c-5.063,2.854-10.389,4.268-16.029,4.268c-5.59,0-10.795-1.426-15.678-4.295c-4.875-2.869-8.748-6.858-11.646-12.019
		c-2.903-5.167-4.34-10.544-4.344-16.182c0.004-5.693,1.431-11.066,4.307-16.182c2.875-5.112,6.718-9.049,11.567-11.866
		c4.855-2.816,10.125-4.225,15.87-4.227V446.689z"/>
	<path fill="#FFFFFF" d="M536.363,493.51l8.914,4.684c-2.925,5.74-6.302,10.372-10.13,13.896c-3.83,3.523-8.137,6.204-12.927,8.04
		c-4.785,1.84-10.202,2.757-16.249,2.757c-13.405,0-23.884-4.391-31.444-13.177c-7.558-8.785-11.337-18.715-11.337-29.791
		c0-10.422,3.199-19.711,9.601-27.866c8.109-10.37,18.97-15.555,32.576-15.555c14.008,0,25.192,5.313,33.558,15.932
		c5.945,7.506,8.968,16.867,9.071,28.093h-73.935c0.203,9.545,3.253,17.367,9.149,23.472c5.897,6.1,13.181,9.153,21.853,9.153
		c4.182,0,8.252-0.727,12.208-2.184c3.96-1.453,7.322-3.386,10.094-5.791C530.14,502.763,533.139,498.879,536.363,493.51z
		 M536.363,471.385c-1.411-5.64-3.463-10.144-6.162-13.517c-2.697-3.373-6.264-6.093-10.697-8.156
		c-4.438-2.063-9.102-3.095-13.986-3.095c-8.068,0-14.996,2.593-20.795,7.777c-4.236,3.775-7.436,9.439-9.603,16.99H536.363z"/>
	<path fill="#FFFFFF" d="M536.363,493.51l-0.392,0.744l8.912,4.686l0.394-0.746l-0.752-0.384
		c-2.889,5.671-6.211,10.218-9.949,13.659c-3.756,3.453-7.965,6.072-12.657,7.873c-4.675,1.796-9.983,2.699-15.947,2.699
		c-13.229-0.009-23.405-4.295-30.806-12.881c-7.439-8.658-11.127-18.361-11.134-29.242c0.005-10.249,3.131-19.325,9.422-27.346
		c7.978-10.18,18.519-15.217,31.913-15.233c13.794,0.017,24.663,5.184,32.895,15.612c5.816,7.346,8.786,16.494,8.893,27.577
		l0.842-0.007v-0.842h-74.795l0.019,0.86c0.197,9.71,3.333,17.78,9.386,24.039c6.036,6.257,13.588,9.419,22.458,9.41
		c4.278,0,8.451-0.745,12.499-2.236c4.041-1.48,7.496-3.465,10.354-5.945c2.883-2.507,5.916-6.45,9.169-11.864L536.363,493.51
		l-0.392,0.744L536.363,493.51l-0.721-0.434c-3.199,5.323-6.164,9.146-8.832,11.457c-2.683,2.332-5.951,4.214-9.829,5.637
		c-3.868,1.424-7.835,2.132-11.918,2.132c-8.476-0.009-15.487-2.951-21.246-8.895c-5.739-5.95-8.706-13.525-8.913-22.903
		l-0.843,0.018v0.843h74.786l-0.009-0.85c-0.103-11.371-3.177-20.944-9.253-28.61c-8.498-10.808-19.998-16.266-34.219-16.252
		c-13.82-0.014-24.999,5.317-33.241,15.88c-6.511,8.288-9.782,17.791-9.778,28.386c-0.007,11.27,3.864,21.429,11.539,30.341
		c7.721,8.985,18.502,13.48,32.085,13.469c6.132,0,11.654-0.929,16.552-2.813c4.888-1.873,9.291-4.613,13.193-8.207
		c3.919-3.604,7.352-8.322,10.312-14.132l0.376-0.744l-10.354-5.439l-0.408,0.684L536.363,493.51z M536.363,471.385l0.818-0.205
		c-1.433-5.723-3.525-10.34-6.322-13.838c-2.785-3.484-6.468-6.286-11-8.396c-4.547-2.113-9.339-3.173-14.342-3.173
		c-8.248-0.005-15.417,2.674-21.357,7.993c-4.393,3.915-7.652,9.734-9.851,17.387l-0.31,1.073h63.444l-0.263-1.047L536.363,471.385
		v-0.845H475.12v0.845l0.811,0.231c2.139-7.45,5.273-12.96,9.353-16.593c5.657-5.051,12.346-7.557,20.234-7.563
		c4.768,0.002,9.298,1.003,13.63,3.017c4.333,2.016,7.787,4.656,10.396,7.918c2.599,3.249,4.612,7.637,6.004,13.194L536.363,471.385
		v-0.845V471.385z"/>
	<path fill="#FFFFFF" d="M609.011,447.598l-6.796,7.021c-5.656-5.486-11.181-8.229-16.581-8.229c-3.433,0-6.372,1.13-8.819,3.396
		c-2.448,2.266-3.674,4.908-3.674,7.933c0,2.667,1.008,5.21,3.028,7.625c2.016,2.468,6.255,5.362,12.713,8.684
		c7.87,4.079,13.217,8.007,16.043,11.782c2.774,3.825,4.162,8.129,4.162,12.912c0,6.747-2.371,12.459-7.11,17.145
		c-4.74,4.679-10.666,7.02-17.771,7.02c-4.742,0-9.267-1.031-13.577-3.095c-4.312-2.063-7.88-4.91-10.701-8.533l6.644-7.553
		c5.401,6.093,11.129,9.137,17.183,9.137c4.239,0,7.845-1.357,10.823-4.077c2.979-2.719,4.467-5.913,4.467-9.589
		c0-3.021-0.984-5.714-2.951-8.082c-1.969-2.313-6.408-5.234-13.316-8.758c-7.419-3.827-12.466-7.603-15.138-11.328
		c-2.674-3.726-4.014-7.979-4.014-12.763c0-6.24,2.132-11.428,6.394-15.558c4.261-4.125,9.643-6.19,16.148-6.19
		C593.731,436.497,601.346,440.197,609.011,447.598z"/>
	<path fill="#FFFFFF" d="M609.011,447.598l-0.605-0.586l-6.797,7.02l0.606,0.588l0.588-0.605
		c-5.744-5.573-11.469-8.464-17.169-8.468c-3.616-0.005-6.805,1.217-9.392,3.623c-2.588,2.382-3.952,5.292-3.943,8.55
		c-0.005,2.885,1.105,5.639,3.223,8.165l0.647-0.54l-0.654,0.533c2.18,2.649,6.478,5.547,12.981,8.899
		c7.812,4.043,13.068,7.941,15.755,11.537l0.674-0.504l-0.684,0.494c2.675,3.691,3.998,7.799,4.003,12.418
		c-0.009,6.55-2.273,11.996-6.861,16.545c-4.592,4.522-10.256,6.768-17.178,6.774c-4.619,0-9.01-0.999-13.215-3.01
		c-4.201-2.012-7.656-4.772-10.398-8.291l-0.665,0.518l0.633,0.556l6.646-7.552l-0.635-0.557l-0.631,0.559
		c5.492,6.206,11.46,9.425,17.813,9.421c4.419,0.007,8.269-1.437,11.39-4.298c3.125-2.837,4.754-6.302,4.742-10.211
		c0.008-3.205-1.062-6.12-3.145-8.619l-0.006-0.01c-2.143-2.497-6.626-5.407-13.575-8.963c-7.356-3.788-12.304-7.527-14.836-11.066
		c-2.571-3.589-3.853-7.646-3.857-12.272c0.01-6.05,2.037-10.968,6.137-14.951c4.109-3.968,9.232-5.947,15.563-5.955
		c7.277,0,14.684,3.556,22.26,10.865L609.011,447.598l-0.605-0.586L609.011,447.598l0.587-0.605
		c-7.758-7.494-15.578-11.338-23.432-11.34c-6.681-0.007-12.322,2.147-16.735,6.429c-4.422,4.272-6.657,9.732-6.649,16.164
		c-0.004,4.94,1.395,9.392,4.171,13.253c2.813,3.909,7.957,7.724,15.437,11.587c6.87,3.494,11.268,6.427,13.061,8.554l0.643-0.545
		l-0.648,0.539c1.85,2.235,2.751,4.705,2.758,7.543c-0.012,3.441-1.36,6.363-4.193,8.967c-2.836,2.579-6.195,3.851-10.255,3.855
		c-5.754-0.002-11.241-2.872-16.552-8.854l-0.633-0.713l-7.736,8.792l0.429,0.552c2.901,3.728,6.584,6.661,11.004,8.776
		c4.417,2.115,9.076,3.179,13.94,3.176c7.289,0.009,13.477-2.427,18.363-7.263c4.891-4.821,7.369-10.799,7.359-17.743
		c0.006-4.946-1.445-9.448-4.319-13.407l-0.009-0.012c-2.967-3.952-8.402-7.909-16.329-12.024
		c-6.416-3.29-10.596-6.182-12.448-8.468l-0.006-0.007c-1.923-2.305-2.828-4.636-2.834-7.085c0.01-2.791,1.097-5.165,3.403-7.315
		c2.307-2.124,4.999-3.164,8.248-3.171c5.101-0.002,10.427,2.593,15.993,7.993l0.605,0.586l7.973-8.233l-0.607-0.586
		L609.011,447.598z"/>
	<polygon fill="#FFFFFF" points="636.955,408.102 647.524,408.102 647.524,438.612 664.289,438.612 664.289,447.748 
		647.524,447.748 647.524,520.774 636.955,520.774 636.955,447.748 622.53,447.748 622.53,438.612 636.955,438.612 	"/>
	<polygon fill="#FFFFFF" points="636.955,408.102 636.955,408.944 646.683,408.944 646.683,439.455 663.447,439.455 
		663.447,446.903 646.683,446.903 646.683,519.93 637.797,519.93 637.797,446.903 623.372,446.903 623.372,439.455 637.797,439.455 
		637.797,408.102 636.955,408.102 636.955,408.944 636.955,408.102 636.112,408.102 636.112,437.769 621.688,437.769 
		621.688,448.59 636.112,448.59 636.112,521.616 648.367,521.616 648.367,448.59 665.132,448.59 665.132,437.769 648.367,437.769 
		648.367,407.258 636.112,407.258 636.112,408.102 	"/>
	<path fill="#FFFFFF" d="M719.039,436.497c12.658,0,23.148,4.581,31.469,13.743c7.566,8.359,11.349,18.252,11.349,29.678
		c0,11.479-3.998,21.51-11.989,30.094c-7.995,8.583-18.27,12.874-30.828,12.874c-12.609,0-22.911-4.291-30.902-12.874
		c-7.995-8.584-11.99-18.615-11.99-30.094c0-11.378,3.783-21.244,11.346-29.6C695.815,441.104,706.33,436.497,719.039,436.497z
		 M719,446.843c-8.789,0-16.342,3.245-22.658,9.741c-6.315,6.494-9.474,14.347-9.474,23.562c0,5.94,1.442,11.48,4.32,16.615
		c2.878,5.133,6.77,9.096,11.671,11.891c4.9,2.797,10.281,4.19,16.141,4.19s11.24-1.394,16.143-4.19
		c4.899-2.795,8.791-6.758,11.672-11.891c2.879-5.135,4.32-10.675,4.32-16.615c0-9.215-3.172-17.067-9.512-23.562
		C735.279,450.088,727.74,446.843,719,446.843z"/>
	<path fill="#FFFFFF" d="M719.039,436.497v0.842c12.454,0.012,22.66,4.473,30.844,13.47c7.433,8.218,11.124,17.87,11.132,29.109
		c-0.008,11.28-3.905,21.067-11.765,29.52c-7.85,8.413-17.844,12.595-30.211,12.604c-12.42-0.009-22.441-4.193-30.284-12.604
		c-7.864-8.452-11.76-18.239-11.767-29.52c0.007-11.191,3.699-20.814,11.129-29.035c8.186-9.047,18.418-13.532,30.922-13.544
		V436.497v-0.845c-12.912-0.009-23.714,4.718-32.173,14.1c-7.695,8.493-11.569,18.6-11.562,30.166
		c-0.008,11.676,4.088,21.953,12.215,30.668c8.139,8.754,18.723,13.153,31.52,13.142c12.749,0.012,23.303-4.388,31.445-13.142
		c8.123-8.715,12.221-18.992,12.215-30.668c0.006-11.611-3.867-21.746-11.567-30.243c-8.456-9.33-19.232-14.031-32.093-14.022
		V436.497z M719,446.843V446c-8.999-0.009-16.816,3.355-23.262,9.995c-6.461,6.634-9.721,14.742-9.711,24.15
		c-0.004,6.077,1.479,11.771,4.426,17.028c2.943,5.253,6.955,9.342,11.989,12.209c5.026,2.872,10.564,4.304,16.558,4.302
		c5.993,0.002,11.533-1.43,16.561-4.302c5.031-2.867,9.042-6.956,11.988-12.209c2.947-5.258,4.43-10.951,4.428-17.028
		c0.01-9.408-3.264-17.52-9.75-24.152c-6.473-6.638-14.275-10.002-23.227-9.993V446.843v0.842
		c8.529,0.009,15.806,3.137,22.019,9.486c6.194,6.359,9.265,13.953,9.273,22.975c-0.002,5.805-1.403,11.187-4.214,16.201
		c-2.814,5.014-6.585,8.852-11.353,11.571c-4.778,2.725-10,4.08-15.726,4.08s-10.946-1.355-15.723-4.08
		c-4.77-2.72-8.541-6.558-11.354-11.571c-2.811-5.015-4.211-10.396-4.213-16.201c0.009-9.021,3.064-16.618,9.234-22.975
		c6.186-6.35,13.475-9.478,22.055-9.486V446.843z"/>
	<path fill="#FFFFFF" d="M777.412,438.612h10.799v12.005c3.223-4.73,6.619-8.268,10.194-10.61c3.575-2.341,7.299-3.51,11.177-3.51
		c2.919,0,6.041,0.934,9.365,2.795l-5.516,8.91c-2.215-0.956-4.077-1.435-5.587-1.435c-3.523,0-6.921,1.448-10.194,4.343
		s-5.765,7.387-7.474,13.478c-1.313,4.682-1.966,14.147-1.966,28.395v27.792h-10.799V438.612z"/>
	<path fill="#FFFFFF" d="M777.412,438.612v0.843h9.954l0.002,13.896l1.539-2.259c3.179-4.665,6.506-8.118,9.96-10.381
		c3.461-2.262,7.008-3.369,10.715-3.372c2.737,0,5.719,0.877,8.955,2.688l0.41-0.735l-0.717-0.442l-5.516,8.907l0.717,0.445
		l0.334-0.774c-2.279-0.98-4.231-1.5-5.921-1.505c-3.761-0.002-7.376,1.562-10.754,4.556c-3.441,3.045-5.987,7.693-7.728,13.882
		c-1.355,4.872-1.99,14.339-1.995,28.622v26.947h-9.114v-81.317H777.412v0.843V438.612h-0.844v83.004h12.484v-28.634
		c-0.005-14.211,0.668-23.678,1.937-28.167c1.68-5.994,4.113-10.33,7.22-13.074c3.168-2.795,6.352-4.13,9.636-4.132
		c1.331-0.002,3.102,0.436,5.253,1.367l0.668,0.288l6.363-10.279l-0.77-0.43c-3.414-1.911-6.678-2.901-9.777-2.903
		c-4.051,0-7.949,1.23-11.637,3.648c-3.699,2.425-7.162,6.046-10.432,10.843l0.697,0.474h0.842v-12.849h-12.484v0.844H777.412z"/>
	<path fill="#FFFFFF" d="M897.105,493.51l8.912,4.684c-2.924,5.74-6.3,10.372-10.13,13.896c-3.829,3.523-8.138,6.204-12.923,8.04
		c-4.791,1.84-10.207,2.757-16.253,2.757c-13.403,0-23.886-4.391-31.441-13.177c-7.56-8.785-11.341-18.715-11.341-29.791
		c0-10.422,3.2-19.711,9.6-27.866c8.111-10.37,18.972-15.555,32.577-15.555c14.009,0,25.193,5.313,33.56,15.932
		c5.945,7.506,8.967,16.867,9.068,28.093h-73.93c0.202,9.545,3.249,17.367,9.147,23.472c5.897,6.1,13.183,9.153,21.853,9.153
		c4.181,0,8.252-0.727,12.209-2.184c3.959-1.453,7.32-3.386,10.092-5.791C890.881,502.763,893.879,498.879,897.105,493.51z
		 M897.105,471.385c-1.412-5.64-3.465-10.144-6.162-13.517s-6.266-6.093-10.701-8.156c-4.434-2.063-9.097-3.095-13.983-3.095
		c-8.068,0-14.999,2.593-20.795,7.777c-4.233,3.775-7.435,9.439-9.604,16.99H897.105z"/>
	<path fill="#FFFFFF" d="M897.105,493.51l-0.394,0.744l8.913,4.686l0.393-0.746l-0.752-0.384
		c-2.887,5.671-6.208,10.218-9.949,13.657c-3.756,3.455-7.969,6.077-12.654,7.875c-4.679,1.796-9.988,2.699-15.95,2.699
		c-13.226-0.009-23.407-4.295-30.801-12.881c-7.444-8.658-11.134-18.361-11.14-29.242c0.004-10.249,3.133-19.325,9.421-27.346
		c7.979-10.18,18.522-15.217,31.914-15.233c13.795,0.017,24.665,5.184,32.897,15.612c5.815,7.346,8.784,16.494,8.889,27.577
		l0.842-0.007v-0.842h-74.789l0.018,0.86c0.197,9.71,3.328,17.78,9.383,24.039c6.036,6.257,13.592,9.419,22.459,9.41
		c4.279,0,8.451-0.745,12.499-2.236c4.04-1.48,7.497-3.465,10.354-5.945c2.883-2.507,5.915-6.45,9.168-11.864L897.105,493.51
		l-0.394,0.744L897.105,493.51l-0.723-0.434c-3.199,5.323-6.164,9.146-8.83,11.457c-2.684,2.332-5.953,4.214-9.83,5.637
		c-3.868,1.424-7.834,2.132-11.918,2.132c-8.473-0.009-15.488-2.951-21.246-8.895c-5.742-5.95-8.707-13.525-8.91-22.903
		l-0.844,0.018v0.843h74.781l-0.009-0.85c-0.1-11.371-3.173-20.944-9.251-28.61c-8.497-10.808-20-16.266-34.22-16.252
		c-13.819-0.014-24.997,5.317-33.242,15.88c-6.508,8.288-9.782,17.791-9.778,28.386c-0.006,11.27,3.869,21.429,11.545,30.341
		c7.716,8.985,18.502,13.48,32.081,13.469c6.13,0,11.653-0.929,16.555-2.813c4.883-1.873,9.29-4.613,13.191-8.207
		c3.921-3.604,7.351-8.322,10.312-14.132l0.376-0.744l-10.354-5.439l-0.409,0.684L897.105,493.51z M897.105,471.385l0.817-0.205
		c-1.433-5.723-3.526-10.34-6.321-13.838c-2.785-3.484-6.469-6.286-11.003-8.396c-4.542-2.113-9.335-3.173-14.34-3.173
		c-8.248-0.005-15.419,2.674-21.358,7.993c-4.39,3.915-7.652,9.734-9.85,17.387l-0.309,1.073h63.443l-0.263-1.047L897.105,471.385
		v-0.845H835.86v0.845l0.811,0.231c2.139-7.448,5.276-12.96,9.353-16.593c5.655-5.051,12.347-7.557,20.235-7.563
		c4.77,0.002,9.302,1.003,13.627,3.017c4.339,2.016,7.791,4.656,10.399,7.918c2.598,3.249,4.61,7.637,6.003,13.194L897.105,471.385
		v-0.845V471.385z"/>
</g>
</svg>
