<?xml version="1.0" encoding="utf-8"?>
<!-- Generator: Adobe Illustrator 16.0.0, SVG Export Plug-In . SVG Version: 6.00 Build 0)  -->
<!DOCTYPE svg PUBLIC "-//W3C//DTD SVG 1.1//EN" "http://www.w3.org/Graphics/SVG/1.1/DTD/svg11.dtd">
<svg version="1.1" id="Layer_1" xmlns="http://www.w3.org/2000/svg" xmlns:xlink="http://www.w3.org/1999/xlink" x="0px" y="0px"
	 width="1080px" height="1080px" viewBox="0 0 1080 1080" enable-background="new 0 0 1080 1080" xml:space="preserve">
<g>
	<defs>
		<path id="SVGID_1_" d="M161.224,745.461c-8.072-12.673-12.826-26.875-18.279-40.696c-10.805-27.386-17.952-55.897-22.632-84.885
			c-4.688-29.042-6.644-58.446-5.111-87.859c1.829-35.119,7.039-69.745,17.113-103.601c7.707-25.898,17.601-50.904,29.83-74.895
			c15.264-29.939,33.654-57.894,55.727-83.403c9.643-11.144,19.5-22.031,30.022-32.331c24.974-24.45,52.939-44.969,82.837-62.928
			c25.333-15.218,52.262-27.123,80.152-36.591c24.062-8.169,48.73-14.285,74.004-17.862c24.635-3.485,49.323-5.439,74.19-4.868
			c28.757,0.662,57.23,3.823,85.346,10.009c34.336,7.554,67.297,19.114,98.769,34.705c31.837,15.772,61.137,35.396,88.317,58.395
			c31.544,26.689,58.657,57.119,81.464,91.513c28.322,42.712,48.992,88.796,60.931,138.656c4.564,19.055,7.592,38.379,9.601,57.941
			c2.19,21.308,3.138,42.644,2.04,63.917c-1.844,35.737-7.498,70.96-17.976,105.32c-6.471,21.222-14.571,41.785-23.676,61.979
			c-1.175,2.607-2.032,5.469-4.292,7.485c-4.643-3.867-6.981-3.657-9.432,1.52c-6.546,13.831-16.229,25.74-23.614,39.003
			c-3.925,7.052-9.835,12.12-14.564,18.308c-9.269,12.123-18.801,24.055-29.418,35.069c-17.814,18.484-36.695,35.795-57.458,50.9
			c-6.232,4.533-11.865,10.292-19.704,12.363c-0.166-0.598-0.362-1.188-0.495-1.793c-5.476-24.986-14.846-48.032-34.268-65.641
			c-14.268-12.936-30.519-20.653-50.616-20.155c-29.065,0.717-58.165,0.165-87.25,0.155c-0.102-17.857-0.204-35.718-0.307-53.575
			c0.055-1.219,0.111-2.436,0.165-3.656c3.538-1.654,7.055-3.359,10.617-4.957c37.271-16.726,66.117-42.801,87.109-77.816
			c7.935-13.232,12.749-27.81,19.168-41.689c4.116-6.621,7.284-13.669,9.513-21.138c8.539-4.441,11.448-12.431,13.456-21.075
			c2.304-9.919,0.851-19.62-1.333-29.312c2.646-17.621,2.053-35.254-0.588-52.774c-7.086-46.998-27.996-86.894-62.384-119.712
			c-1.641-1.565-3.223-2.861-2.926-5.695c2.082-19.845-7.994-33.181-23.798-43.143c-9.402-5.925-19.913-8.876-31.944-9.959
			c6.68-8.779,11.441-17.701,12.827-27.889c1.401-10.292,1.012-20.507-3.839-30.506c-21.091,25.182-49.868,25.576-79.505,26.834
			c13.007-11.855,15.858-23.241,8.874-33.817c-7.113,8.53-14.979,16.113-23.993,22.527c-16.151,11.496-34.049,19.774-51.683,28.553
			c-21.249,10.579-43.332,20.803-57.868,40.071c-12.815,16.988-27.497,31.954-41.941,47.312c-4.254,4.522-8.072,9.506-11.709,14.555
			c-30.963,42.975-42.925,91.041-38.196,143.533c-0.986,7.539-2.542,15.093-1.59,22.706c1.354,10.849,2.57,21.944,14.116,27.67
			c2.55,7.228,5.228,14.396,9.487,20.846c1.715,4.089,3.52,8.145,5.132,12.271c16.404,41.983,43.326,75.018,82.457,97.947
			c9.313,5.46,19.481,9.089,28.684,14.666c0.017,0.811,0.035,1.62,0.052,2.429c-0.092,18.265-0.184,36.528-0.276,54.791
			c-31.797,0.011-63.595,0.02-95.392,0.039c-3.318,0.002-6.59,0.051-9.879,0.931c-25.771,6.9-43.24,23.639-55.603,46.535
			c-5.757,10.66-9.111,22.205-12.609,33.703c-1.312-0.044-2.291-0.71-3.31-1.498c-11.257-8.714-22.391-17.548-33.304-26.723
			c-19.414-16.318-36.841-34.446-52.411-54.299c-8.514-10.855-18.635-20.439-25.54-32.607c-6.718-11.837-13.94-23.389-20.967-35.051
			C168.297,740.824,165.426,740.633,161.224,745.461z"/>
	</defs>
	<clipPath id="SVGID_2_">
		<use xlink:href="#SVGID_1_"  overflow="visible"/>
	</clipPath>
	<g clip-path="url(#SVGID_2_)">
		<g>
			<g>
				<path fill="#0095A6" d="M192.667,559.637c0,0,0.965-0.245,2.836-0.721c1.871-0.469,4.644-1.201,8.27-2.072
					c3.592-0.992,8.169-1.706,13.573-2.693c1.355-0.241,2.762-0.491,4.218-0.75c1.459-0.181,2.967-0.366,4.525-0.559
					c3.133-0.351,6.463-0.723,9.981-1.116c14.12-1.102,31.626-1.171,51.6,2.125c1.261,0.146,2.494,0.454,3.756,0.692
					c1.26,0.258,2.529,0.517,3.808,0.778c1.28,0.271,2.569,0.545,3.868,0.819c0.65,0.139,1.304,0.278,1.959,0.417
					c0.65,0.156,1.292,0.346,1.944,0.519c5.187,1.435,10.612,2.773,15.982,4.709c1.356,0.456,2.721,0.914,4.095,1.375
					c0.688,0.232,1.377,0.465,2.07,0.698c0.675,0.271,1.352,0.542,2.031,0.813c2.718,1.104,5.469,2.221,8.252,3.351
					c1.411,0.54,2.757,1.209,4.136,1.843c1.376,0.643,2.76,1.288,4.151,1.938c1.394,0.652,2.795,1.308,4.204,1.968
					c1.373,0.717,2.753,1.438,4.141,2.163c11.203,5.695,22.202,12.723,33.185,20.413c10.979,7.712,21.792,16.323,32.344,25.596
					c2.692,2.285,5.282,4.66,7.918,7.041c1.313,1.195,2.631,2.394,3.953,3.596c1.296,1.218,2.596,2.438,3.899,3.664
					c2.585,2.461,5.26,4.907,7.819,7.428c2.571,2.522,5.158,5.06,7.758,7.61c2.56,2.566,5.135,5.147,7.722,7.741
					c2.584,2.596,5.108,5.235,7.685,7.871c5.12,5.278,10.266,10.61,15.365,15.998c20.487,21.542,41.104,43.61,62.777,64.663
					c10.812,10.554,21.988,20.692,33.434,30.464l4.296,3.661c1.433,1.221,2.915,2.364,4.369,3.552l4.384,3.534
					c1.456,1.188,2.91,2.375,4.409,3.492l8.916,6.832l9.1,6.527c12.195,8.589,24.797,16.457,37.662,23.685
					c12.942,7.082,26.204,13.388,39.662,18.987c3.396,1.328,6.784,2.653,10.165,3.976l2.535,0.993l2.575,0.879
					c1.716,0.588,3.429,1.175,5.141,1.762c6.79,2.521,13.763,4.413,20.625,6.529c13.867,3.759,27.729,7.136,41.637,9.448
					c27.751,4.922,55.275,7.181,81.6,7.697c26.332,0.498,51.465-0.591,74.709-2.389c5.819-0.49,11.518-0.969,17.086-1.438
					c5.571-0.53,10.992-1.263,16.313-1.784c10.657-0.977,20.682-2.593,30.19-3.752c2.373-0.31,4.716-0.586,7.011-0.91
					c2.29-0.357,4.541-0.708,6.752-1.053c4.421-0.703,8.696-1.345,12.814-1.942c2.059-0.304,4.076-0.602,6.05-0.893
					c1.978-0.282,3.889-0.661,5.771-0.976c3.754-0.67,7.354-1.244,10.768-1.817c3.417-0.567,6.651-1.104,9.695-1.61
					c3.057-0.469,5.901-0.996,8.549-1.487c5.295-0.986,9.82-1.779,13.494-2.418c3.668-0.657,6.503-1.1,8.406-1.422
					c1.906-0.315,2.891-0.479,2.891-0.479s-0.909,0.405-2.67,1.189c-1.764,0.777-4.37,1.967-7.801,3.439
					c-3.424,1.49-7.653,3.323-12.65,5.424c-4.969,2.199-10.799,4.351-17.311,6.873c-6.521,2.492-13.725,5.345-21.714,8.008
					c-3.979,1.386-8.131,2.808-12.452,4.245c-2.16,0.726-4.359,1.464-6.597,2.215c-2.247,0.72-4.548,1.398-6.879,2.118
					c-9.34,2.833-19.288,5.884-29.937,8.582c-5.312,1.403-10.765,2.839-16.387,4.171c-5.646,1.258-11.423,2.544-17.322,3.857
					c-23.699,4.849-49.741,9.144-77.744,11.204c-27.979,2.092-57.928,2.026-88.864-1.521c-15.483-1.599-31.135-4.548-46.883-8.053
					c-15.696-3.79-31.433-8.463-46.946-14.249c-3.888-1.416-7.696-3.065-11.554-4.609c-1.92-0.792-3.856-1.555-5.769-2.375
					l-5.686-2.59l-5.692-2.6l-2.85-1.304c-0.942-0.449-1.863-0.94-2.796-1.41c-3.72-1.903-7.444-3.809-11.172-5.716
					c-14.745-7.931-28.996-16.826-42.686-26.394c-13.689-9.589-26.633-20.035-39.016-30.858
					c-6.246-5.366-12.196-10.966-18.103-16.56c-2.911-2.827-5.818-5.65-8.72-8.469c-2.828-2.869-5.65-5.733-8.467-8.592
					c-22.332-22.994-42.472-46.707-61.497-69.352c-9.525-11.322-18.806-22.384-27.943-33.019
					c-4.601-5.266-9.129-10.503-13.667-15.546c-1.133-1.267-2.264-2.529-3.39-3.788c-1.141-1.232-2.278-2.462-3.413-3.688
					c-2.27-2.448-4.488-4.938-6.775-7.275c-2.275-2.356-4.507-4.752-6.778-7.039c-2.278-2.277-4.539-4.539-6.783-6.784
					c-4.567-4.363-9.062-8.699-13.63-12.715c-1.135-1.021-2.266-2.036-3.392-3.047c-1.123-1.019-2.296-1.935-3.436-2.901
					c-2.303-1.89-4.543-3.854-6.849-5.646c-2.319-1.779-4.617-3.542-6.892-5.287c-1.125-0.904-2.314-1.668-3.459-2.504
					c-1.154-0.823-2.302-1.641-3.444-2.455c-1.146-0.813-2.286-1.623-3.419-2.428c-1.165-0.748-2.323-1.491-3.475-2.23
					c-1.154-0.743-2.302-1.481-3.444-2.216c-1.146-0.729-2.268-1.498-3.442-2.132c-2.328-1.333-4.628-2.651-6.901-3.953
					c-0.571-0.325-1.14-0.649-1.707-0.972c-0.579-0.297-1.155-0.592-1.73-0.887c-1.151-0.592-2.296-1.18-3.434-1.765
					c-4.511-2.467-9.121-4.356-13.571-6.366c-0.559-0.243-1.11-0.505-1.67-0.733c-0.565-0.212-1.128-0.423-1.69-0.634
					c-1.125-0.423-2.241-0.842-3.349-1.259c-2.224-0.814-4.384-1.758-6.574-2.471c-17.473-5.961-33.651-8.925-47.162-10.615
					c-13.569-1.379-24.307-1.858-31.801-1.87c-3.729,0.034-6.596-0.006-8.524-0.007
					C193.664,559.641,192.667,559.637,192.667,559.637z"/>
			</g>
			<g>
				<defs>
					<path id="SVGID_3_" d="M280,476.67c0,0,146.141,15.151,189.777,60.488c43.638,45.337,62.64,112.834,181.936,190.3
						l63.625-674.885L280,85.321V476.67z"/>
				</defs>
				<clipPath id="SVGID_4_">
					<use xlink:href="#SVGID_3_"  overflow="visible"/>
				</clipPath>
				<g clip-path="url(#SVGID_4_)">
					
						<rect x="324.5" y="216.5" fill="#C1C0C0" stroke="#4D4E4E" stroke-width="13" stroke-miterlimit="10" width="314" height="580"/>
					<g>
						<path fill="#84007E" d="M597.776,334.971c0,3.933-3.218,7.151-7.157,7.151H373.075c-3.939,0-7.153-3.219-7.153-7.151v-48.185
							c0-3.938,3.214-7.156,7.153-7.156h217.544c3.939,0,7.157,3.218,7.157,7.156V334.971z"/>
						<path fill="#8C8B8B" d="M597.537,335.206h-1.192c0,1.656-0.667,3.135-1.746,4.219c-1.084,1.079-2.564,1.747-4.215,1.747
							H372.836c-1.649,0-3.133-0.668-4.216-1.747c-1.081-1.084-1.746-2.563-1.749-4.219v-48.181
							c0.003-1.651,0.668-3.139,1.749-4.219c1.083-1.081,2.567-1.748,4.216-1.748h217.548c1.65,0,3.131,0.667,4.215,1.748
							c1.079,1.08,1.746,2.567,1.746,4.219v48.181H597.537h1.19v-48.181c0-4.614-3.732-8.349-8.344-8.354H372.836
							c-4.608,0.004-8.347,3.74-8.347,8.354v48.181c0,4.614,3.739,8.349,8.347,8.349h217.548c4.611,0,8.344-3.735,8.344-8.349
							H597.537z"/>
						<rect x="381.666" y="289.647" fill="#FFD800" width="9.061" height="9.067"/>
						<rect x="381.666" y="306.349" fill="#808080" width="9.061" height="9.059"/>
						<rect x="381.666" y="323.042" fill="#808080" width="9.061" height="9.063"/>
						<rect x="398.359" y="289.647" fill="#808080" width="9.065" height="9.067"/>
						<rect x="398.359" y="306.349" fill="#808080" width="9.065" height="9.059"/>
						<rect x="398.359" y="323.042" fill="#808080" width="9.065" height="9.063"/>
						<rect x="415.057" y="289.647" fill="#808080" width="9.067" height="9.067"/>
						<rect x="415.057" y="306.349" fill="#FFD800" width="9.067" height="9.059"/>
						<rect x="415.057" y="323.042" fill="#808080" width="9.067" height="9.063"/>
						<rect x="431.754" y="289.647" fill="#808080" width="9.065" height="9.067"/>
						<rect x="431.754" y="306.349" fill="#808080" width="9.065" height="9.059"/>
						<rect x="431.754" y="323.042" fill="#FFD800" width="9.065" height="9.063"/>
						<rect x="448.452" y="289.647" fill="#808080" width="9.068" height="9.067"/>
						<rect x="448.452" y="306.349" fill="#808080" width="9.068" height="9.059"/>
						<rect x="448.452" y="323.042" fill="#808080" width="9.068" height="9.063"/>
						<rect x="465.149" y="289.647" fill="#808080" width="9.066" height="9.067"/>
						<rect x="465.149" y="306.349" fill="#808080" width="9.066" height="9.059"/>
						<rect x="465.149" y="323.042" fill="#808080" width="9.066" height="9.063"/>
						<rect x="481.85" y="289.647" fill="#808080" width="9.063" height="9.067"/>
						<rect x="481.85" y="306.349" fill="#FFD800" width="9.063" height="9.059"/>
						<rect x="481.85" y="323.042" fill="#808080" width="9.063" height="9.063"/>
						<rect x="513.333" y="302.05" fill="#E02427" width="17.656" height="17.652"/>
						<rect x="570.583" y="302.05" fill="#E02427" width="17.655" height="17.652"/>
						<rect x="541.482" y="302.05" fill="#808080" width="17.649" height="17.652"/>
					</g>
					<g>
						<path fill="#84007E" d="M598.017,406.216c0,3.937-3.22,7.159-7.158,7.159H373.314c-3.937,0-7.153-3.222-7.153-7.159v-48.181
							c0-3.934,3.216-7.16,7.153-7.16h217.544c3.938,0,7.158,3.226,7.158,7.16V406.216z"/>
						<path fill="#8C8B8B" d="M597.776,406.455h-1.192c0,1.656-0.666,3.134-1.744,4.218c-1.082,1.08-2.569,1.744-4.218,1.753
							H373.077c-1.651-0.009-3.134-0.673-4.22-1.753c-1.078-1.084-1.745-2.563-1.747-4.218v-48.181
							c0.002-1.656,0.668-3.135,1.747-4.219c1.086-1.084,2.569-1.749,4.22-1.749h217.545c1.648,0,3.136,0.665,4.218,1.749
							c1.078,1.084,1.744,2.563,1.744,4.219v48.181H597.776h1.194v-48.181c0-4.614-3.736-8.349-8.349-8.349H373.077
							c-4.611,0-8.349,3.735-8.349,8.349v48.181c0,4.613,3.737,8.349,8.349,8.349h217.545c4.612,0,8.349-3.736,8.349-8.349H597.776z
							"/>
						<rect x="381.905" y="360.896" fill="#FFD800" width="9.062" height="9.063"/>
						<rect x="381.905" y="377.593" fill="#808080" width="9.062" height="9.068"/>
						<rect x="381.905" y="394.291" fill="#808080" width="9.062" height="9.063"/>
						<rect x="398.601" y="360.896" fill="#808080" width="9.062" height="9.063"/>
						<rect x="398.601" y="377.593" fill="#808080" width="9.062" height="9.068"/>
						<rect x="398.601" y="394.291" fill="#808080" width="9.062" height="9.063"/>
						<rect x="415.296" y="360.896" fill="#808080" width="9.068" height="9.063"/>
						<rect x="415.296" y="377.593" fill="#FFD800" width="9.068" height="9.068"/>
						<rect x="415.296" y="394.291" fill="#808080" width="9.068" height="9.063"/>
						<rect x="431.996" y="360.896" fill="#808080" width="9.063" height="9.063"/>
						<rect x="431.996" y="377.593" fill="#808080" width="9.063" height="9.068"/>
						<rect x="431.996" y="394.291" fill="#FFD800" width="9.063" height="9.063"/>
						<rect x="448.693" y="360.896" fill="#808080" width="9.062" height="9.063"/>
						<rect x="448.693" y="377.593" fill="#808080" width="9.062" height="9.068"/>
						<rect x="448.693" y="394.291" fill="#808080" width="9.062" height="9.063"/>
						<rect x="465.389" y="360.896" fill="#808080" width="9.065" height="9.063"/>
						<rect x="465.389" y="377.593" fill="#808080" width="9.065" height="9.068"/>
						<rect x="465.389" y="394.291" fill="#808080" width="9.065" height="9.063"/>
						<rect x="482.089" y="360.896" fill="#808080" width="9.063" height="9.063"/>
						<rect x="482.089" y="377.593" fill="#FFD800" width="9.063" height="9.068"/>
						<rect x="482.089" y="394.291" fill="#808080" width="9.063" height="9.063"/>
						<rect x="513.573" y="373.299" fill="#E02427" width="17.651" height="17.651"/>
						<rect x="570.823" y="373.299" fill="#E02427" width="17.654" height="17.651"/>
						<rect x="541.723" y="373.299" fill="#808080" width="17.649" height="17.651"/>
					</g>
					<g>
						<path fill="#84007E" d="M598.252,479.535c0,3.934-3.216,7.151-7.149,7.151H373.555c-3.938,0-7.158-3.217-7.158-7.151v-48.185
							c0-3.937,3.22-7.156,7.158-7.156h217.548c3.934,0,7.149,3.219,7.149,7.156V479.535z"/>
						<path fill="#8C8B8B" d="M598.017,479.771h-1.195c0,1.655-0.663,3.134-1.741,4.218c-1.083,1.08-2.571,1.748-4.218,1.748
							H373.316c-1.655,0-3.134-0.668-4.218-1.748c-1.08-1.084-1.748-2.563-1.748-4.218v-48.186c0-1.647,0.668-3.134,1.748-4.214
							c1.084-1.08,2.563-1.748,4.218-1.748h217.546c1.646,0,3.135,0.668,4.218,1.748c1.078,1.08,1.741,2.567,1.741,4.214v48.186
							H598.017h1.19v-48.186c0-4.609-3.732-8.345-8.345-8.345H373.316c-4.611,0-8.348,3.735-8.348,8.345v48.186
							c0,4.613,3.737,8.349,8.348,8.349h217.546c4.612,0,8.345-3.736,8.345-8.349H598.017z"/>
						<rect x="382.145" y="434.211" fill="#FFD800" width="9.062" height="9.067"/>
						<rect x="382.145" y="450.909" fill="#808080" width="9.062" height="9.068"/>
						<rect x="382.145" y="467.607" fill="#808080" width="9.062" height="9.063"/>
						<rect x="398.838" y="434.211" fill="#808080" width="9.065" height="9.067"/>
						<rect x="398.838" y="450.909" fill="#808080" width="9.065" height="9.068"/>
						<rect x="398.838" y="467.607" fill="#808080" width="9.065" height="9.063"/>
						<rect x="415.536" y="434.211" fill="#808080" width="9.063" height="9.067"/>
						<rect x="415.536" y="450.909" fill="#FFD800" width="9.063" height="9.068"/>
						<rect x="415.536" y="467.607" fill="#808080" width="9.063" height="9.063"/>
						<rect x="432.234" y="434.211" fill="#808080" width="9.065" height="9.067"/>
						<rect x="432.234" y="450.909" fill="#808080" width="9.065" height="9.068"/>
						<rect x="432.234" y="467.607" fill="#FFD800" width="9.065" height="9.063"/>
						<rect x="448.933" y="434.211" fill="#808080" width="9.062" height="9.067"/>
						<rect x="448.933" y="450.909" fill="#808080" width="9.062" height="9.068"/>
						<rect x="448.933" y="467.607" fill="#808080" width="9.062" height="9.063"/>
						<rect x="465.628" y="434.211" fill="#808080" width="9.063" height="9.067"/>
						<rect x="465.628" y="450.909" fill="#808080" width="9.063" height="9.068"/>
						<rect x="465.628" y="467.607" fill="#808080" width="9.063" height="9.063"/>
						<rect x="482.328" y="434.211" fill="#808080" width="9.065" height="9.067"/>
						<rect x="482.328" y="450.909" fill="#FFD800" width="9.065" height="9.068"/>
						<rect x="482.328" y="467.607" fill="#808080" width="9.065" height="9.063"/>
						<rect x="513.812" y="446.615" fill="#E02427" width="17.651" height="17.651"/>
						<rect x="571.063" y="446.615" fill="#E02427" width="17.654" height="17.651"/>
						<rect x="541.959" y="446.615" fill="#808080" width="17.651" height="17.651"/>
					</g>
					<g>
						<path fill="#84007E" d="M598.017,552.42c0,3.936-3.22,7.158-7.158,7.158H373.314c-3.939,0-7.153-3.223-7.153-7.158v-48.178
							c0-3.938,3.214-7.16,7.153-7.16h217.544c3.938,0,7.158,3.223,7.158,7.16V552.42z"/>
						<path fill="#8C8B8B" d="M597.776,552.663h-1.192c0,1.651-0.666,3.134-1.746,4.214c-1.083,1.079-2.567,1.748-4.216,1.751
							H373.075c-1.649-0.003-3.132-0.672-4.218-1.751c-1.078-1.08-1.745-2.563-1.747-4.214v-48.187
							c0.002-1.655,0.668-3.135,1.747-4.219c1.086-1.079,2.569-1.748,4.218-1.748h217.547c1.648,0,3.133,0.669,4.216,1.748
							c1.08,1.084,1.746,2.563,1.746,4.219v48.187H597.776h1.19v-48.187c0-4.613-3.732-8.35-8.345-8.35H373.075
							c-4.609,0-8.347,3.736-8.347,8.35v48.187c0,4.608,3.737,8.345,8.347,8.349h217.547c4.612-0.004,8.345-3.74,8.345-8.349
							H597.776z"/>
						<rect x="381.905" y="507.1" fill="#FFD800" width="9.062" height="9.063"/>
						<rect x="381.905" y="523.797" fill="#808080" width="9.062" height="9.066"/>
						<rect x="381.905" y="540.498" fill="#808080" width="9.062" height="9.063"/>
						<rect x="398.599" y="507.1" fill="#808080" width="9.063" height="9.063"/>
						<rect x="398.599" y="523.797" fill="#808080" width="9.063" height="9.066"/>
						<rect x="398.599" y="540.498" fill="#808080" width="9.063" height="9.063"/>
						<rect x="415.296" y="507.1" fill="#808080" width="9.068" height="9.063"/>
						<rect x="415.296" y="523.797" fill="#FFD800" width="9.068" height="9.066"/>
						<rect x="415.296" y="540.498" fill="#808080" width="9.068" height="9.063"/>
						<rect x="431.994" y="507.1" fill="#808080" width="9.065" height="9.063"/>
						<rect x="431.994" y="523.797" fill="#808080" width="9.065" height="9.066"/>
						<rect x="431.994" y="540.498" fill="#FFD800" width="9.065" height="9.063"/>
						<rect x="448.693" y="507.1" fill="#808080" width="9.062" height="9.063"/>
						<rect x="448.693" y="523.797" fill="#808080" width="9.062" height="9.066"/>
						<rect x="448.693" y="540.498" fill="#808080" width="9.062" height="9.063"/>
						<rect x="465.389" y="507.1" fill="#808080" width="9.065" height="9.063"/>
						<rect x="465.389" y="523.797" fill="#808080" width="9.065" height="9.066"/>
						<rect x="465.389" y="540.498" fill="#808080" width="9.065" height="9.063"/>
						<rect x="482.089" y="507.1" fill="#808080" width="9.063" height="9.063"/>
						<rect x="482.089" y="523.797" fill="#FFD800" width="9.063" height="9.066"/>
						<rect x="482.089" y="540.498" fill="#808080" width="9.063" height="9.063"/>
						<rect x="513.573" y="519.502" fill="#E02427" width="17.651" height="17.656"/>
						<rect x="570.823" y="519.502" fill="#E02427" width="17.654" height="17.656"/>
						<rect x="541.723" y="519.502" fill="#808080" width="17.649" height="17.656"/>
					</g>
					<g>
						<path fill="#84007E" d="M598.252,623.671c0,3.933-3.216,7.156-7.154,7.156H373.552c-3.936,0-7.156-3.224-7.156-7.156v-48.186
							c0-3.933,3.22-7.155,7.156-7.155h217.545c3.938,0,7.154,3.223,7.154,7.155V623.671z"/>
						<path fill="#8C8B8B" d="M598.017,623.911h-1.195c0,1.65-0.663,3.129-1.741,4.219c-1.083,1.078-2.571,1.744-4.218,1.744
							H373.316c-1.655,0-3.134-0.666-4.22-1.744c-1.078-1.09-1.746-2.568-1.746-4.219v-48.186c0-1.651,0.668-3.13,1.746-4.214
							c1.085-1.085,2.564-1.748,4.22-1.748h217.546c1.646,0,3.135,0.663,4.218,1.748c1.078,1.084,1.741,2.563,1.741,4.214v48.186
							H598.017h1.19v-48.186c0-4.614-3.732-8.349-8.345-8.349H373.316c-4.611,0-8.351,3.734-8.351,8.349v48.186
							c0,4.608,3.74,8.344,8.351,8.348h217.546c4.612-0.004,8.345-3.739,8.345-8.348H598.017z"/>
						<rect x="382.14" y="578.352" fill="#FFD800" width="9.063" height="9.063"/>
						<rect x="382.14" y="595.05" fill="#808080" width="9.063" height="9.066"/>
						<rect x="382.14" y="611.748" fill="#808080" width="9.063" height="9.063"/>
						<rect x="398.838" y="578.352" fill="#808080" width="9.063" height="9.063"/>
						<rect x="398.838" y="595.05" fill="#808080" width="9.063" height="9.066"/>
						<rect x="398.838" y="611.748" fill="#808080" width="9.063" height="9.063"/>
						<rect x="415.536" y="578.352" fill="#808080" width="9.063" height="9.063"/>
						<rect x="415.536" y="595.05" fill="#FFD800" width="9.063" height="9.066"/>
						<rect x="415.536" y="611.748" fill="#808080" width="9.063" height="9.063"/>
						<rect x="432.234" y="578.352" fill="#808080" width="9.065" height="9.063"/>
						<rect x="432.234" y="595.05" fill="#808080" width="9.065" height="9.066"/>
						<rect x="432.234" y="611.748" fill="#FFD800" width="9.065" height="9.063"/>
						<rect x="448.933" y="578.352" fill="#808080" width="9.062" height="9.063"/>
						<rect x="448.933" y="595.05" fill="#808080" width="9.062" height="9.066"/>
						<rect x="448.933" y="611.748" fill="#808080" width="9.062" height="9.063"/>
						<rect x="465.628" y="578.352" fill="#808080" width="9.063" height="9.063"/>
						<rect x="465.628" y="595.05" fill="#808080" width="9.063" height="9.066"/>
						<rect x="465.628" y="611.748" fill="#808080" width="9.063" height="9.063"/>
						<rect x="482.328" y="578.352" fill="#808080" width="9.063" height="9.063"/>
						<rect x="482.328" y="595.05" fill="#FFD800" width="9.063" height="9.066"/>
						<rect x="482.328" y="611.748" fill="#808080" width="9.063" height="9.063"/>
						<rect x="513.812" y="590.754" fill="#E02427" width="17.651" height="17.652"/>
						<rect x="571.063" y="590.754" fill="#E02427" width="17.654" height="17.652"/>
						<rect x="541.959" y="590.754" fill="#808080" width="17.651" height="17.652"/>
					</g>
					<g>
						<path fill="#84007E" d="M598.492,696.987c0,3.933-3.216,7.155-7.154,7.155H373.794c-3.939,0-7.158-3.223-7.158-7.155v-48.186
							c0-3.933,3.219-7.155,7.158-7.155h217.544c3.938,0,7.154,3.223,7.154,7.155V696.987z"/>
						<path fill="#8C8B8B" d="M598.252,697.224h-1.19c0,1.653-0.666,3.138-1.744,4.216c-1.084,1.087-2.57,1.749-4.215,1.753H373.555
							c-1.654-0.004-3.133-0.666-4.218-1.753c-1.081-1.078-1.747-2.563-1.747-4.216v-48.182c0-1.651,0.666-3.134,1.747-4.216
							c1.085-1.082,2.564-1.752,4.218-1.752h217.548c1.645,0,3.131,0.67,4.215,1.752c1.078,1.082,1.744,2.564,1.744,4.216v48.182
							H598.252h1.194v-48.182c0-4.614-3.736-8.349-8.344-8.349H373.555c-4.612,0-8.348,3.734-8.348,8.349v48.182
							c0,4.613,3.736,8.347,8.348,8.353h217.548c4.607-0.006,8.344-3.739,8.344-8.353H598.252z"/>
						<rect x="382.384" y="651.664" fill="#FFD800" width="9.061" height="9.061"/>
						<rect x="382.384" y="668.366" fill="#808080" width="9.061" height="9.063"/>
						<rect x="382.384" y="685.059" fill="#808080" width="9.061" height="9.063"/>
						<rect x="399.078" y="651.664" fill="#808080" width="9.065" height="9.061"/>
						<rect x="399.078" y="668.366" fill="#808080" width="9.065" height="9.063"/>
						<rect x="399.078" y="685.059" fill="#808080" width="9.065" height="9.063"/>
						<rect x="415.775" y="651.664" fill="#808080" width="9.063" height="9.061"/>
						<rect x="415.775" y="668.366" fill="#FFD800" width="9.063" height="9.063"/>
						<rect x="415.775" y="685.059" fill="#808080" width="9.063" height="9.063"/>
						<rect x="432.473" y="651.664" fill="#808080" width="9.063" height="9.061"/>
						<rect x="432.473" y="668.366" fill="#808080" width="9.063" height="9.063"/>
						<rect x="432.473" y="685.059" fill="#FFD800" width="9.063" height="9.063"/>
						<rect x="449.168" y="651.664" fill="#808080" width="9.066" height="9.061"/>
						<rect x="449.168" y="668.366" fill="#808080" width="9.066" height="9.063"/>
						<rect x="449.168" y="685.059" fill="#808080" width="9.066" height="9.063"/>
						<rect x="465.868" y="651.664" fill="#808080" width="9.063" height="9.061"/>
						<rect x="465.868" y="668.366" fill="#808080" width="9.063" height="9.063"/>
						<rect x="465.868" y="685.059" fill="#808080" width="9.063" height="9.063"/>
						<rect x="482.563" y="651.664" fill="#808080" width="9.068" height="9.061"/>
						<rect x="482.563" y="668.366" fill="#FFD800" width="9.068" height="9.063"/>
						<rect x="482.563" y="685.059" fill="#808080" width="9.068" height="9.063"/>
						<rect x="514.05" y="664.066" fill="#E02427" width="17.652" height="17.656"/>
						<rect x="571.299" y="664.066" fill="#E02427" width="17.654" height="17.656"/>
						<rect x="542.199" y="664.066" fill="#808080" width="17.651" height="17.656"/>
					</g>
				</g>
			</g>
			<g>
				<defs>
					<path id="SVGID_5_" d="M513.797,582.495c0,0,196.253,208.993,257.132,222.431S950,810.363,950,810.363V29.388L480.828,50.9
						L513.797,582.495z"/>
				</defs>
				<clipPath id="SVGID_6_">
					<use xlink:href="#SVGID_5_"  overflow="visible"/>
				</clipPath>
				<g clip-path="url(#SVGID_6_)">
					
						<rect x="516.5" y="110.5" fill="#C1C0C0" stroke="#4D4E4E" stroke-width="17" stroke-miterlimit="10" width="370" height="688"/>
					<g>
						<path fill="#84007E" d="M837.04,250.714c0,4.651-3.804,8.458-8.461,8.458H571.448c-4.657,0-8.457-3.807-8.457-8.458v-56.955
							c0-4.647,3.8-8.458,8.457-8.458h257.131c4.657,0,8.461,3.811,8.461,8.458V250.714z"/>
						<path fill="#8C8B8B" d="M836.758,250.996h-1.41c0,1.953-0.786,3.706-2.064,4.982c-1.28,1.277-3.033,2.063-4.983,2.072H571.165
							c-1.952-0.009-3.7-0.795-4.984-2.072c-1.275-1.277-2.063-3.03-2.065-4.982v-56.955c0.003-1.95,0.79-3.702,2.065-4.983
							c1.284-1.277,3.032-2.063,4.984-2.063H828.3c1.95,0,3.703,0.786,4.983,2.063c1.278,1.281,2.064,3.033,2.064,4.983v56.955
							H836.758h1.406v-56.955c0-5.45-4.411-9.862-9.864-9.866H571.165c-5.449,0.004-9.868,4.416-9.868,9.866v56.955
							c0,5.449,4.419,9.865,9.868,9.87H828.3c5.453-0.005,9.864-4.421,9.864-9.87H836.758z"/>
						<rect x="581.599" y="197.146" fill="#FFD800" width="10.714" height="10.71"/>
						<rect x="581.599" y="216.881" fill="#808080" width="10.714" height="10.715"/>
						<rect x="581.599" y="236.617" fill="#808080" width="10.714" height="10.714"/>
						<rect x="601.333" y="197.146" fill="#808080" width="10.714" height="10.71"/>
						<rect x="601.333" y="216.881" fill="#808080" width="10.714" height="10.715"/>
						<rect x="601.333" y="236.617" fill="#808080" width="10.714" height="10.714"/>
						<rect x="621.071" y="197.146" fill="#808080" width="10.712" height="10.71"/>
						<rect x="621.071" y="216.881" fill="#FFD800" width="10.712" height="10.715"/>
						<rect x="621.071" y="236.617" fill="#808080" width="10.712" height="10.714"/>
						<rect x="640.806" y="197.146" fill="#808080" width="10.714" height="10.71"/>
						<rect x="640.806" y="216.881" fill="#808080" width="10.714" height="10.715"/>
						<rect x="640.806" y="236.617" fill="#FFD800" width="10.714" height="10.714"/>
						<rect x="660.541" y="197.146" fill="#808080" width="10.715" height="10.71"/>
						<rect x="660.541" y="216.881" fill="#808080" width="10.715" height="10.715"/>
						<rect x="660.541" y="236.617" fill="#808080" width="10.715" height="10.714"/>
						<rect x="680.276" y="197.146" fill="#808080" width="10.715" height="10.71"/>
						<rect x="680.276" y="216.881" fill="#808080" width="10.715" height="10.715"/>
						<rect x="680.276" y="236.617" fill="#808080" width="10.715" height="10.714"/>
						<rect x="700.016" y="197.146" fill="#808080" width="10.712" height="10.71"/>
						<rect x="700.016" y="216.881" fill="#FFD800" width="10.712" height="10.715"/>
						<rect x="700.016" y="236.617" fill="#808080" width="10.712" height="10.714"/>
						<rect x="737.23" y="211.806" fill="#E02427" width="20.862" height="20.862"/>
						<rect x="804.897" y="211.806" fill="#E02427" width="20.866" height="20.862"/>
						<rect x="770.501" y="211.806" fill="#808080" width="20.863" height="20.862"/>
					</g>
					<g>
						<path fill="#84007E" d="M837.323,334.929c0,4.651-3.806,8.458-8.46,8.458H571.73c-4.653,0-8.459-3.807-8.459-8.458v-56.955
							c0-4.646,3.806-8.458,8.459-8.458h257.133c4.654,0,8.46,3.812,8.46,8.458V334.929z"/>
						<path fill="#8C8B8B" d="M837.04,335.21h-1.412c0,1.955-0.785,3.706-2.059,4.984c-1.282,1.277-3.038,2.063-4.988,2.067H571.448
							c-1.95-0.005-3.702-0.791-4.986-2.067c-1.274-1.278-2.063-3.029-2.066-4.984v-56.95c0.004-1.953,0.792-3.705,2.066-4.987
							c1.284-1.276,3.036-2.066,4.986-2.066h257.133c1.95,0,3.706,0.79,4.988,2.066c1.273,1.282,2.059,3.034,2.059,4.987v56.95
							H837.04h1.409v-56.95c0-5.453-4.416-9.869-9.868-9.869H571.448c-5.449,0-9.866,4.416-9.866,9.869v56.95
							c0,5.45,4.417,9.866,9.866,9.87h257.133c5.452-0.003,9.868-4.42,9.868-9.87H837.04z"/>
						<rect x="581.882" y="281.362" fill="#FFD800" width="10.714" height="10.709"/>
						<rect x="581.882" y="301.097" fill="#808080" width="10.714" height="10.714"/>
						<rect x="581.882" y="320.832" fill="#808080" width="10.714" height="10.71"/>
						<rect x="601.617" y="281.362" fill="#808080" width="10.711" height="10.709"/>
						<rect x="601.617" y="301.097" fill="#808080" width="10.711" height="10.714"/>
						<rect x="601.617" y="320.832" fill="#808080" width="10.711" height="10.71"/>
						<rect x="621.354" y="281.362" fill="#808080" width="10.714" height="10.709"/>
						<rect x="621.354" y="301.097" fill="#FFD800" width="10.714" height="10.714"/>
						<rect x="621.354" y="320.832" fill="#808080" width="10.714" height="10.71"/>
						<rect x="641.09" y="281.362" fill="#808080" width="10.715" height="10.709"/>
						<rect x="641.09" y="301.097" fill="#808080" width="10.715" height="10.714"/>
						<rect x="641.09" y="320.832" fill="#FFD800" width="10.715" height="10.71"/>
						<rect x="660.826" y="281.362" fill="#808080" width="10.712" height="10.709"/>
						<rect x="660.826" y="301.097" fill="#808080" width="10.712" height="10.714"/>
						<rect x="660.826" y="320.832" fill="#808080" width="10.712" height="10.71"/>
						<rect x="680.562" y="281.362" fill="#808080" width="10.713" height="10.709"/>
						<rect x="680.562" y="301.097" fill="#808080" width="10.713" height="10.714"/>
						<rect x="680.562" y="320.832" fill="#808080" width="10.713" height="10.71"/>
						<rect x="700.299" y="281.362" fill="#808080" width="10.709" height="10.709"/>
						<rect x="700.299" y="301.097" fill="#FFD800" width="10.709" height="10.714"/>
						<rect x="700.299" y="320.832" fill="#808080" width="10.709" height="10.71"/>
						<rect x="737.514" y="296.021" fill="#E02427" width="20.864" height="20.861"/>
						<rect x="805.178" y="296.021" fill="#E02427" width="20.869" height="20.861"/>
						<rect x="770.782" y="296.021" fill="#808080" width="20.862" height="20.861"/>
					</g>
					<g>
						<path fill="#84007E" d="M837.603,421.586c0,4.651-3.803,8.457-8.456,8.457H572.014c-4.655,0-8.457-3.806-8.457-8.457V364.63
							c0-4.646,3.802-8.454,8.457-8.454h257.133c4.653,0,8.456,3.807,8.456,8.454V421.586z"/>
						<path fill="#8C8B8B" d="M837.323,421.867h-1.414c0,1.953-0.782,3.706-2.06,4.982c-1.279,1.281-3.037,2.064-4.984,2.071
							H571.732c-1.954-0.007-3.706-0.79-4.986-2.071c-1.277-1.277-2.063-3.029-2.063-4.982v-56.955c0-1.95,0.785-3.702,2.063-4.983
							c1.28-1.277,3.032-2.063,4.986-2.063h257.133c1.947,0,3.705,0.787,4.984,2.063c1.277,1.282,2.06,3.034,2.06,4.983v56.955
							H837.323h1.409v-56.955c0-5.45-4.414-9.861-9.867-9.865H571.732c-5.451,0.004-9.867,4.415-9.867,9.865v56.955
							c0,5.45,4.416,9.866,9.867,9.869h257.133c5.453-0.003,9.867-4.419,9.867-9.869H837.323z"/>
						<rect x="582.166" y="368.018" fill="#FFD800" width="10.712" height="10.711"/>
						<rect x="582.166" y="387.757" fill="#808080" width="10.712" height="10.709"/>
						<rect x="582.166" y="407.488" fill="#808080" width="10.712" height="10.715"/>
						<rect x="601.898" y="368.018" fill="#808080" width="10.714" height="10.711"/>
						<rect x="601.898" y="387.757" fill="#808080" width="10.714" height="10.709"/>
						<rect x="601.898" y="407.488" fill="#808080" width="10.714" height="10.715"/>
						<rect x="621.634" y="368.018" fill="#808080" width="10.715" height="10.711"/>
						<rect x="621.634" y="387.757" fill="#FFD800" width="10.715" height="10.709"/>
						<rect x="621.634" y="407.488" fill="#808080" width="10.715" height="10.715"/>
						<rect x="641.372" y="368.018" fill="#808080" width="10.712" height="10.711"/>
						<rect x="641.372" y="387.757" fill="#808080" width="10.712" height="10.709"/>
						<rect x="641.372" y="407.488" fill="#FFD800" width="10.712" height="10.715"/>
						<rect x="661.106" y="368.018" fill="#808080" width="10.715" height="10.711"/>
						<rect x="661.106" y="387.757" fill="#808080" width="10.715" height="10.709"/>
						<rect x="661.106" y="407.488" fill="#808080" width="10.715" height="10.715"/>
						<rect x="680.843" y="368.018" fill="#808080" width="10.714" height="10.711"/>
						<rect x="680.843" y="387.757" fill="#808080" width="10.714" height="10.709"/>
						<rect x="680.843" y="407.488" fill="#808080" width="10.714" height="10.715"/>
						<rect x="700.578" y="368.018" fill="#808080" width="10.717" height="10.711"/>
						<rect x="700.578" y="387.757" fill="#FFD800" width="10.717" height="10.709"/>
						<rect x="700.578" y="407.488" fill="#808080" width="10.717" height="10.715"/>
						<rect x="737.795" y="382.678" fill="#E02427" width="20.863" height="20.861"/>
						<rect x="805.463" y="382.678" fill="#E02427" width="20.865" height="20.861"/>
						<rect x="771.065" y="382.678" fill="#808080" width="20.864" height="20.861"/>
					</g>
					<g>
						<path fill="#84007E" d="M837.323,507.737c0,4.651-3.806,8.458-8.46,8.458H571.73c-4.655,0-8.459-3.807-8.459-8.458v-56.95
							c0-4.651,3.804-8.458,8.459-8.458h257.133c4.654,0,8.46,3.807,8.46,8.458V507.737z"/>
						<path fill="#8C8B8B" d="M837.04,508.02h-1.412c0,1.953-0.785,3.705-2.063,4.986c-1.279,1.278-3.034,2.063-4.984,2.068H571.448
							c-1.95-0.006-3.702-0.79-4.986-2.068c-1.274-1.281-2.063-3.033-2.066-4.986v-56.951c0.004-1.954,0.792-3.701,2.066-4.984
							c1.284-1.281,3.036-2.067,4.986-2.067h257.133c1.95,0,3.705,0.786,4.984,2.067c1.277,1.283,2.063,3.03,2.063,4.984v56.951
							H837.04h1.408v-56.951c0-5.45-4.415-9.866-9.867-9.866H571.448c-5.449,0-9.866,4.417-9.866,9.866v56.951
							c0,5.449,4.417,9.865,9.866,9.869h257.133c5.452-0.004,9.867-4.42,9.867-9.869H837.04z"/>
						<rect x="581.882" y="454.169" fill="#FFD800" width="10.714" height="10.714"/>
						<rect x="581.882" y="473.91" fill="#808080" width="10.714" height="10.71"/>
						<rect x="581.882" y="493.641" fill="#808080" width="10.714" height="10.714"/>
						<rect x="601.616" y="454.169" fill="#808080" width="10.712" height="10.714"/>
						<rect x="601.616" y="473.91" fill="#808080" width="10.712" height="10.71"/>
						<rect x="601.616" y="493.641" fill="#808080" width="10.712" height="10.714"/>
						<rect x="621.354" y="454.169" fill="#808080" width="10.714" height="10.714"/>
						<rect x="621.354" y="473.91" fill="#FFD800" width="10.714" height="10.71"/>
						<rect x="621.354" y="493.641" fill="#808080" width="10.714" height="10.714"/>
						<rect x="641.086" y="454.169" fill="#808080" width="10.719" height="10.714"/>
						<rect x="641.086" y="473.91" fill="#808080" width="10.719" height="10.71"/>
						<rect x="641.086" y="493.641" fill="#FFD800" width="10.719" height="10.714"/>
						<rect x="660.826" y="454.169" fill="#808080" width="10.712" height="10.714"/>
						<rect x="660.826" y="473.91" fill="#808080" width="10.712" height="10.71"/>
						<rect x="660.826" y="493.641" fill="#808080" width="10.712" height="10.714"/>
						<rect x="680.559" y="454.169" fill="#808080" width="10.716" height="10.714"/>
						<rect x="680.559" y="473.91" fill="#808080" width="10.716" height="10.71"/>
						<rect x="680.559" y="493.641" fill="#808080" width="10.716" height="10.714"/>
						<rect x="700.299" y="454.169" fill="#808080" width="10.709" height="10.714"/>
						<rect x="700.299" y="473.91" fill="#FFD800" width="10.709" height="10.71"/>
						<rect x="700.299" y="493.641" fill="#808080" width="10.709" height="10.714"/>
						<rect x="737.514" y="468.829" fill="#E02427" width="20.864" height="20.866"/>
						<rect x="805.178" y="468.829" fill="#E02427" width="20.869" height="20.866"/>
						<rect x="770.782" y="468.829" fill="#808080" width="20.862" height="20.866"/>
					</g>
					<g>
						<path fill="#84007E" d="M837.603,591.952c0,4.652-3.803,8.458-8.458,8.458H572.014c-4.655,0-8.457-3.806-8.457-8.458v-56.954
							c0-4.646,3.802-8.454,8.457-8.454h257.131c4.655,0,8.458,3.808,8.458,8.454V591.952z"/>
						<path fill="#8C8B8B" d="M837.323,592.234h-1.414c0,1.952-0.782,3.704-2.06,4.988c-1.279,1.276-3.037,2.063-4.984,2.063
							H571.732c-1.954,0-3.706-0.786-4.99-2.063c-1.273-1.284-2.059-3.036-2.064-4.988v-56.951c0.006-1.953,0.791-3.705,2.064-4.982
							c1.284-1.277,3.036-2.067,4.99-2.067h257.133c1.947,0,3.705,0.79,4.984,2.067c1.277,1.277,2.06,3.029,2.06,4.982v56.951
							H837.323h1.409v-56.951c0-5.453-4.414-9.87-9.867-9.87H571.732c-5.451,0-9.87,4.417-9.87,9.87v56.951
							c0,5.453,4.419,9.87,9.87,9.87h257.133c5.453,0,9.867-4.417,9.867-9.87H837.323z"/>
						<rect x="582.162" y="538.385" fill="#FFD800" width="10.715" height="10.715"/>
						<rect x="582.162" y="558.121" fill="#808080" width="10.715" height="10.718"/>
						<rect x="582.162" y="577.855" fill="#808080" width="10.715" height="10.716"/>
						<rect x="601.898" y="538.385" fill="#808080" width="10.711" height="10.715"/>
						<rect x="601.898" y="558.121" fill="#808080" width="10.711" height="10.718"/>
						<rect x="601.898" y="577.855" fill="#808080" width="10.711" height="10.716"/>
						<rect x="621.634" y="538.385" fill="#808080" width="10.715" height="10.715"/>
						<rect x="621.634" y="558.121" fill="#FFD800" width="10.715" height="10.718"/>
						<rect x="621.634" y="577.855" fill="#808080" width="10.715" height="10.716"/>
						<rect x="641.372" y="538.385" fill="#808080" width="10.712" height="10.715"/>
						<rect x="641.372" y="558.121" fill="#808080" width="10.712" height="10.718"/>
						<rect x="641.372" y="577.855" fill="#FFD800" width="10.712" height="10.716"/>
						<rect x="661.106" y="538.385" fill="#808080" width="10.715" height="10.715"/>
						<rect x="661.106" y="558.121" fill="#808080" width="10.715" height="10.718"/>
						<rect x="661.106" y="577.855" fill="#808080" width="10.715" height="10.716"/>
						<rect x="680.843" y="538.385" fill="#808080" width="10.714" height="10.715"/>
						<rect x="680.843" y="558.121" fill="#808080" width="10.714" height="10.718"/>
						<rect x="680.843" y="577.855" fill="#808080" width="10.714" height="10.716"/>
						<rect x="700.578" y="538.385" fill="#808080" width="10.715" height="10.715"/>
						<rect x="700.578" y="558.121" fill="#FFD800" width="10.715" height="10.718"/>
						<rect x="700.578" y="577.855" fill="#808080" width="10.715" height="10.716"/>
						<rect x="737.795" y="553.045" fill="#E02427" width="20.863" height="20.861"/>
						<rect x="805.463" y="553.045" fill="#E02427" width="20.865" height="20.861"/>
						<rect x="771.065" y="553.045" fill="#808080" width="20.86" height="20.861"/>
					</g>
					<g>
						<path fill="#84007E" d="M837.884,678.611c0,4.649-3.801,8.461-8.455,8.461H572.296c-4.653,0-8.459-3.812-8.459-8.461v-56.952
							c0-4.651,3.806-8.459,8.459-8.459h257.133c4.654,0,8.455,3.808,8.455,8.459V678.611z"/>
						<path fill="#8C8B8B" d="M837.603,678.892h-1.409c0,1.952-0.785,3.703-2.061,4.987c-1.28,1.277-3.038,2.063-4.986,2.067
							H572.014c-1.955-0.005-3.702-0.79-4.985-2.067c-1.278-1.284-2.063-3.035-2.063-4.987v-56.952c0-1.948,0.785-3.7,2.063-4.982
							c1.283-1.278,3.03-2.068,4.985-2.068h257.133c1.948,0,3.706,0.79,4.986,2.068c1.275,1.282,2.061,3.034,2.061,4.982v56.952
							H837.603h1.412v-56.952c0-5.448-4.416-9.866-9.868-9.866H572.014c-5.451,0-9.864,4.418-9.864,9.866v56.952
							c0,5.452,4.413,9.865,9.864,9.868h257.133c5.452-0.003,9.868-4.416,9.868-9.868H837.603z"/>
						<rect x="582.447" y="625.041" fill="#FFD800" width="10.714" height="10.715"/>
						<rect x="582.447" y="644.781" fill="#808080" width="10.714" height="10.715"/>
						<rect x="582.447" y="664.518" fill="#808080" width="10.714" height="10.71"/>
						<rect x="602.181" y="625.041" fill="#808080" width="10.714" height="10.715"/>
						<rect x="602.181" y="644.781" fill="#808080" width="10.714" height="10.715"/>
						<rect x="602.181" y="664.518" fill="#808080" width="10.714" height="10.71"/>
						<rect x="621.919" y="625.041" fill="#808080" width="10.71" height="10.715"/>
						<rect x="621.919" y="644.781" fill="#FFD800" width="10.71" height="10.715"/>
						<rect x="621.919" y="664.518" fill="#808080" width="10.71" height="10.71"/>
						<rect x="641.653" y="625.041" fill="#808080" width="10.712" height="10.715"/>
						<rect x="641.653" y="644.781" fill="#808080" width="10.712" height="10.715"/>
						<rect x="641.653" y="664.518" fill="#FFD800" width="10.712" height="10.71"/>
						<rect x="661.389" y="625.041" fill="#808080" width="10.715" height="10.715"/>
						<rect x="661.389" y="644.781" fill="#808080" width="10.715" height="10.715"/>
						<rect x="661.389" y="664.518" fill="#808080" width="10.715" height="10.71"/>
						<rect x="681.127" y="625.041" fill="#808080" width="10.711" height="10.715"/>
						<rect x="681.127" y="644.781" fill="#808080" width="10.711" height="10.715"/>
						<rect x="681.127" y="664.518" fill="#808080" width="10.711" height="10.71"/>
						<rect x="700.864" y="625.041" fill="#808080" width="10.713" height="10.715"/>
						<rect x="700.864" y="644.781" fill="#FFD800" width="10.713" height="10.715"/>
						<rect x="700.864" y="664.518" fill="#808080" width="10.713" height="10.71"/>
						<rect x="738.076" y="639.701" fill="#E02427" width="20.865" height="20.866"/>
						<rect x="805.743" y="639.701" fill="#E02427" width="20.869" height="20.866"/>
						<rect x="771.346" y="639.701" fill="#808080" width="20.867" height="20.866"/>
					</g>
				</g>
			</g>
			<g>
				<path fill="#0095A6" d="M887.264,816.241c0,0-0.966,0.245-2.836,0.721c-1.871,0.469-4.644,1.201-8.27,2.072
					c-3.593,0.992-8.169,1.706-13.572,2.693c-1.356,0.241-2.763,0.491-4.219,0.75c-1.459,0.181-2.967,0.366-4.524,0.559
					c-3.134,0.351-6.464,0.724-9.981,1.116c-14.12,1.102-31.627,1.171-51.601-2.125c-1.261-0.146-2.493-0.454-3.756-0.693
					c-1.26-0.257-2.528-0.517-3.808-0.777c-1.279-0.271-2.569-0.545-3.868-0.82c-0.65-0.139-1.304-0.277-1.959-0.417
					c-0.65-0.155-1.293-0.345-1.943-0.518c-5.188-1.435-10.612-2.774-15.982-4.71c-1.356-0.455-2.722-0.913-4.095-1.374
					c-0.688-0.232-1.378-0.465-2.07-0.698c-0.675-0.271-1.352-0.542-2.03-0.813c-2.719-1.104-5.47-2.221-8.253-3.351
					c-1.411-0.541-2.757-1.209-4.136-1.844c-1.376-0.642-2.76-1.287-4.151-1.937c-1.394-0.652-2.795-1.309-4.204-1.968
					c-1.373-0.717-2.754-1.438-4.142-2.163c-11.202-5.696-22.201-12.724-33.185-20.414c-10.979-7.711-21.791-16.323-32.344-25.596
					c-2.692-2.285-5.282-4.659-7.918-7.041c-1.313-1.194-2.631-2.394-3.953-3.596c-1.295-1.218-2.595-2.438-3.899-3.664
					c-2.585-2.461-5.26-4.907-7.818-7.428c-2.572-2.522-5.158-5.06-7.759-7.61c-2.561-2.566-5.135-5.147-7.722-7.741
					c-2.585-2.596-5.108-5.235-7.686-7.871c-5.12-5.279-10.266-10.61-15.365-15.999c-20.486-21.541-41.104-43.61-62.776-64.663
					c-10.812-10.554-21.989-20.692-33.433-30.464l-4.297-3.661c-1.433-1.222-2.914-2.365-4.369-3.553l-4.384-3.534
					c-1.455-1.188-2.91-2.375-4.408-3.492l-8.916-6.832l-9.101-6.527c-12.194-8.589-24.797-16.457-37.662-23.685
					c-12.942-7.083-26.203-13.388-39.662-18.988c-3.396-1.328-6.784-2.653-10.165-3.975l-2.536-0.994l-2.575-0.879
					c-1.716-0.588-3.43-1.175-5.141-1.761c-6.79-2.522-13.762-4.414-20.625-6.529c-13.868-3.759-27.729-7.136-41.637-9.449
					c-27.75-4.921-55.275-7.18-81.6-7.697c-26.332-0.498-51.465,0.591-74.709,2.389c-5.819,0.49-11.517,0.969-17.086,1.438
					c-5.571,0.53-10.992,1.263-16.313,1.784c-10.657,0.977-20.681,2.593-30.19,3.751c-2.374,0.31-4.716,0.586-7.011,0.91
					c-2.29,0.357-4.541,0.708-6.751,1.053c-4.421,0.703-8.697,1.345-12.815,1.942c-2.059,0.304-4.076,0.602-6.05,0.893
					c-1.978,0.282-3.889,0.661-5.771,0.976c-3.754,0.67-7.354,1.244-10.767,1.817c-3.417,0.568-6.652,1.105-9.696,1.611
					c-3.057,0.469-5.901,0.996-8.549,1.487c-5.295,0.986-9.82,1.779-13.494,2.418c-3.668,0.657-6.502,1.1-8.406,1.422
					c-1.907,0.315-2.891,0.479-2.891,0.479s0.909-0.405,2.67-1.189c1.763-0.778,4.371-1.968,7.8-3.44
					c3.425-1.49,7.654-3.323,12.651-5.424c4.968-2.199,10.799-4.351,17.31-6.873c6.521-2.492,13.725-5.345,21.714-8.008
					c3.979-1.385,8.131-2.807,12.453-4.245c2.16-0.726,4.359-1.464,6.597-2.215c2.247-0.719,4.547-1.398,6.879-2.118
					c9.34-2.833,19.288-5.884,29.936-8.583c5.312-1.403,10.765-2.839,16.387-4.171c5.646-1.257,11.423-2.543,17.323-3.857
					c23.699-4.849,49.741-9.144,77.744-11.205c27.979-2.091,57.928-2.026,88.865,1.521c15.483,1.598,31.134,4.548,46.883,8.053
					c15.696,3.79,31.433,8.463,46.946,14.25c3.888,1.417,7.696,3.065,11.553,4.609c1.921,0.792,3.857,1.555,5.769,2.375l5.685,2.59
					l5.693,2.6l2.849,1.304c0.942,0.45,1.863,0.941,2.796,1.411c3.72,1.903,7.444,3.809,11.172,5.716
					c14.745,7.93,28.996,16.826,42.686,26.394c13.689,9.589,26.632,20.035,39.015,30.859c6.247,5.365,12.197,10.966,18.102,16.56
					c2.912,2.827,5.819,5.65,8.721,8.469c2.828,2.869,5.65,5.733,8.468,8.592c22.331,22.994,42.472,46.708,61.496,69.353
					c9.525,11.321,18.807,22.384,27.943,33.019c4.601,5.266,9.129,10.504,13.668,15.546c1.133,1.267,2.263,2.529,3.39,3.788
					c1.141,1.233,2.278,2.462,3.412,3.688c2.27,2.448,4.489,4.938,6.775,7.275c2.276,2.356,4.508,4.752,6.779,7.039
					c2.277,2.278,4.539,4.54,6.783,6.784c4.566,4.363,9.062,8.7,13.63,12.716c1.135,1.02,2.266,2.035,3.391,3.046
					c1.123,1.019,2.297,1.935,3.437,2.902c2.303,1.889,4.542,3.854,6.849,5.646c2.319,1.779,4.616,3.542,6.892,5.287
					c1.125,0.904,2.314,1.668,3.459,2.504c1.153,0.822,2.302,1.641,3.443,2.454c1.146,0.814,2.286,1.623,3.42,2.429
					c1.165,0.747,2.323,1.491,3.475,2.23c1.155,0.743,2.303,1.481,3.444,2.216c1.146,0.729,2.269,1.497,3.442,2.132
					c2.328,1.333,4.629,2.65,6.901,3.953c0.571,0.325,1.14,0.648,1.707,0.972c0.579,0.296,1.155,0.592,1.73,0.887
					c1.151,0.592,2.296,1.18,3.434,1.765c4.512,2.467,9.121,4.356,13.571,6.365c0.559,0.244,1.109,0.506,1.67,0.734
					c0.565,0.212,1.128,0.423,1.689,0.634c1.125,0.423,2.24,0.842,3.349,1.259c2.224,0.814,4.384,1.758,6.574,2.471
					c17.473,5.961,33.651,8.925,47.162,10.615c13.569,1.379,24.307,1.858,31.801,1.869c3.729-0.033,6.596,0.007,8.524,0.008
					C886.268,816.237,887.264,816.241,887.264,816.241z"/>
			</g>
		</g>
	</g>
</g>
<g>
	<path opacity="0.4" fill-rule="evenodd" clip-rule="evenodd" fill="#F4F4F4" d="M163.224,740.461
		c-8.072-12.673-12.826-26.875-18.279-40.696c-10.805-27.386-17.952-55.897-22.632-84.885c-4.688-29.042-6.644-58.446-5.111-87.859
		c1.829-35.119,7.039-69.745,17.113-103.601c7.707-25.898,17.601-50.904,29.83-74.895c15.264-29.939,33.654-57.894,55.727-83.403
		c9.643-11.144,19.5-22.031,30.022-32.331c24.974-24.45,52.939-44.969,82.837-62.928c25.333-15.218,52.262-27.123,80.152-36.591
		c24.062-8.169,48.73-14.285,74.004-17.862c24.635-3.485,49.323-5.439,74.19-4.868c28.757,0.662,57.23,3.823,85.346,10.009
		c34.336,7.554,67.297,19.114,98.769,34.705c31.837,15.772,61.137,35.396,88.317,58.395c31.544,26.689,58.657,57.119,81.464,91.513
		c28.322,42.712,48.992,88.796,60.931,138.656c4.564,19.055,7.592,38.379,9.601,57.941c2.19,21.308,3.138,42.644,2.04,63.917
		c-1.844,35.737-7.498,70.96-17.976,105.32c-6.471,21.222-14.571,41.785-23.676,61.979c-1.175,2.607-2.032,5.469-4.292,7.485
		c-4.643-3.867-6.981-3.657-9.432,1.52c-6.546,13.831-16.229,25.74-23.614,39.003c-3.925,7.052-9.835,12.12-14.564,18.308
		c-9.269,12.123-18.801,24.055-29.418,35.069c-17.814,18.484-36.695,35.795-57.458,50.9c-6.232,4.533-11.865,10.292-19.704,12.363
		c-0.166-0.598-0.362-1.188-0.495-1.793c-5.476-24.986-14.846-48.032-34.268-65.641c-14.268-12.936-30.519-20.653-50.616-20.155
		c-29.065,0.717-58.165,0.165-87.25,0.155c-0.102-17.857-0.204-35.718-0.307-53.575c0.055-1.219,0.111-2.436,0.165-3.656
		c3.538-1.654,7.055-3.359,10.617-4.957c37.271-16.726,66.117-42.801,87.109-77.816c7.935-13.232,12.749-27.81,19.168-41.689
		c4.116-6.621,7.284-13.669,9.513-21.138c8.539-4.441,11.448-12.431,13.456-21.075c2.304-9.919,0.851-19.62-1.333-29.312
		c2.646-17.622,2.053-35.253-0.588-52.774c-7.086-46.998-27.996-86.894-62.384-119.712c-1.641-1.565-3.223-2.861-2.926-5.695
		c2.082-19.845-7.994-33.181-23.798-43.143c-9.402-5.925-19.913-8.876-31.944-9.959c6.68-8.779,11.441-17.701,12.827-27.889
		c1.401-10.292,1.012-20.507-3.839-30.506c-21.091,25.182-49.868,25.576-79.505,26.834c13.007-11.855,15.858-23.241,8.874-33.817
		c-7.113,8.53-14.979,16.113-23.993,22.527c-16.151,11.496-34.049,19.774-51.683,28.553c-21.249,10.579-43.332,20.803-57.868,40.071
		c-12.815,16.988-27.497,31.954-41.941,47.312c-4.254,4.522-8.072,9.506-11.709,14.555c-30.963,42.975-42.925,91.041-38.196,143.533
		c-0.986,7.539-2.542,15.093-1.59,22.706c1.354,10.849,2.57,21.944,14.116,27.67c2.55,7.228,5.228,14.396,9.487,20.846
		c1.715,4.089,3.52,8.145,5.132,12.271c16.404,41.983,43.326,75.018,82.457,97.947c9.313,5.46,19.481,9.089,28.684,14.666
		c0.017,0.811,0.035,1.62,0.052,2.429c-0.092,18.265-0.184,36.528-0.276,54.791c-31.797,0.011-63.595,0.02-95.392,0.039
		c-3.318,0.002-6.59,0.051-9.879,0.931c-25.771,6.9-43.24,23.639-55.603,46.535c-5.757,10.66-9.111,22.205-12.609,33.703
		c-1.312-0.044-2.291-0.71-3.31-1.498c-11.257-8.714-22.391-17.548-33.304-26.723c-19.414-16.318-36.841-34.446-52.411-54.299
		c-8.514-10.855-18.635-20.439-25.54-32.607c-6.718-11.837-13.94-23.389-20.967-35.051
		C170.297,735.824,167.426,735.633,163.224,740.461z"/>
	<path fill-rule="evenodd" clip-rule="evenodd" fill="#EDEDED" d="M787.411,897.625c7.839-2.071,13.472-7.83,19.704-12.363
		c20.763-15.105,39.644-32.416,57.458-50.9c10.617-11.015,20.149-22.946,29.418-35.069c4.729-6.188,10.64-11.256,14.564-18.308
		c7.385-13.263,17.068-25.172,23.614-39.003c2.45-5.177,4.789-5.387,9.432-1.52c-11.326,23.813-25.466,45.887-41.342,66.887
		c-13.501,17.86-28.229,34.684-44.215,50.31c-15.379,15.033-32.028,28.611-49.328,41.475c-19.883,14.784-41.117,27.188-63.18,38.21
		c-33.882,16.928-69.646,28.711-106.731,36.047c-17.969,3.553-36.235,5.556-54.61,6.876c-17.032,1.227-34.061,1.551-50.969,0.685
		c-34.488-1.765-68.468-7.296-101.717-17.117c-23.323-6.887-45.886-15.684-67.65-26.332c-21.009-10.278-41.166-22.177-60.326-35.708
		c-24.281-17.147-46.589-36.561-66.9-58.209c-21.431-22.842-40.22-47.729-56.053-74.811c-5.424-9.276-11.047-18.436-15.356-28.313
		c4.202-4.828,7.073-4.637,10.323,0.758c7.026,11.662,14.249,23.214,20.967,35.051c6.905,12.168,17.026,21.752,25.54,32.607
		c15.569,19.853,32.997,37.98,52.411,54.299c10.913,9.175,22.047,18.009,33.304,26.723c1.019,0.788,1.999,1.454,3.31,1.498
		c-0.337,2.936,2.063,3.76,3.885,5.023c11.609,8.048,23.633,15.434,36.023,22.205c53.951,29.485,111.645,46.493,172.905,51.183
		c39.156,2.999,78.049,0.476,116.548-7.342c52.414-10.644,101.113-30.458,146.076-59.456
		C786.647,901.636,788.112,900.324,787.411,897.625z"/>
	<path fill-rule="evenodd" clip-rule="evenodd" fill="#FCB696" d="M482.787,752.969c-9.205-5.577-19.373-9.206-28.686-14.666
		c-39.131-22.93-66.052-55.964-82.457-97.947c-1.613-4.127-3.417-8.183-5.133-12.271c0.628-4.823-1.679-9.238-2.015-13.854
		c-0.373-5.127-2.487-7.318-7.472-6.992c-11.545-5.726-12.761-16.821-14.116-27.67c-0.952-7.613,0.604-15.167,1.589-22.709
		c0.794-1.188,1.686-2.321,2.369-3.569c3.164-5.773,6.473-11.34,14.253-11.214c2.016,0.031,2.292-1.444,2.604-2.863
		c0.58-2.632,1.012-5.299,1.645-7.918c8.382-34.764,25.321-64.741,50.524-90.066c1.601-1.607,2.856-4.2,6.001-1.487
		c8.949,7.718,19.843,10.932,31.257,12.824c3.455,0.573,6.654,1.575,9.629,3.873c45.359,35.033,97.077,45.984,153.172,40.087
		c30.107-3.166,59.109-10.86,87.288-21.727c4.033-1.555,5.825-0.55,7.86,2.93c9.602,16.41,17.006,33.682,21.388,52.208
		c1.434,6.062,1.182,13.057,10.387,13.611c2.943,0.176,4.901,3.644,6.508,6.348c1.362,2.3,2.533,4.714,3.788,7.076
		c2.184,9.691,3.637,19.393,1.333,29.312c-2.008,8.645-4.917,16.634-13.456,21.072c-1.992,0.797-5.534-1.012-6.005,1.595
		c-1.175,6.511-4.202,12.715-3.508,19.546c-6.419,13.88-11.233,28.457-19.168,41.689c-20.992,35.016-49.839,61.091-87.109,77.816
		c-3.563,1.598-7.079,3.303-10.617,4.957c-6.967,1.848-13.909,3.799-20.908,5.521c-28.103,6.922-56.213,7.355-84.612,1.228
		C500.22,757.789,491.949,753.65,482.787,752.969z"/>
	<path fill-rule="evenodd" clip-rule="evenodd" fill="#343333" d="M753.171,556.973c-1.255-2.362-2.426-4.776-3.788-7.076
		c-1.606-2.704-3.564-6.172-6.508-6.348c-9.205-0.554-8.953-7.549-10.387-13.611c-4.382-18.527-11.786-35.799-21.388-52.208
		c-2.035-3.48-3.827-4.485-7.86-2.93c-28.179,10.867-57.181,18.561-87.288,21.727c-56.095,5.897-107.813-5.055-153.172-40.087
		c-2.976-2.298-6.175-3.3-9.629-3.873c-11.414-1.892-22.308-5.106-31.257-12.824c-3.145-2.713-4.4-0.121-6.001,1.487
		c-25.203,25.325-42.142,55.302-50.524,90.066c-0.632,2.619-1.064,5.286-1.645,7.918c-0.313,1.419-0.588,2.894-2.604,2.863
		c-7.78-0.126-11.089,5.44-14.253,11.214c-0.683,1.248-1.574,2.382-2.369,3.569c-4.729-52.489,7.233-100.555,38.196-143.53
		c3.637-5.048,7.455-10.032,11.709-14.555c14.444-15.358,29.125-30.324,41.941-47.312c14.536-19.269,36.62-29.493,57.868-40.071
		c17.634-8.779,35.532-17.058,51.683-28.553c9.014-6.414,16.88-13.997,23.993-22.527c6.984,10.577,4.133,21.962-8.874,33.817
		c29.637-1.259,58.414-1.652,79.505-26.834c4.851,9.999,5.24,20.214,3.839,30.506c-1.386,10.188-6.147,19.109-12.827,27.889
		c12.031,1.083,22.542,4.034,31.944,9.959c15.804,9.962,25.88,23.298,23.798,43.143c-0.297,2.834,1.285,4.129,2.926,5.695
		c34.388,32.819,55.298,72.714,62.384,119.712C755.224,521.719,755.817,539.351,753.171,556.973z"/>
	<path fill-rule="evenodd" clip-rule="evenodd" fill="#283A5A" d="M787.411,897.625c0.701,2.699-0.764,4.011-2.896,5.385
		c-44.963,28.998-93.662,48.813-146.076,59.456c-38.499,7.817-77.392,10.341-116.548,7.342
		c-61.26-4.689-118.954-21.697-172.905-51.183c-12.391-6.771-24.414-14.157-36.023-22.205c-1.822-1.264-4.222-2.088-3.885-5.023
		c3.498-11.498,6.853-23.043,12.609-33.703c12.363-22.896,29.833-39.635,55.603-46.535c3.289-0.88,6.561-0.929,9.879-0.931
		c31.797-0.02,63.595-0.028,95.392-0.039c0.368,1.83,0.826,3.646,1.087,5.49c6.917,48.878,64.729,72.828,104.255,43.195
		c16.275-12.202,24.402-28.876,26.879-48.683c29.085,0.01,58.185,0.562,87.25-0.155c20.098-0.498,36.349,7.22,50.616,20.155
		c19.422,17.608,28.792,40.654,34.268,65.641C787.049,896.437,787.245,897.027,787.411,897.625z"/>
	<path fill-rule="evenodd" clip-rule="evenodd" fill="#FCB696" d="M614.782,810.191c-2.477,19.807-10.604,36.48-26.879,48.683
		c-39.526,29.633-97.338,5.683-104.255-43.195c-0.261-1.845-0.72-3.66-1.087-5.49c0.092-18.263,0.184-36.526,0.275-54.791
		c14.538,4.565,29.062,8.981,44.412,10.3c17.744,1.525,35.367,1.566,53.021-1.01c11.658-1.7,22.696-5.854,34.207-8.071
		C614.578,774.474,614.681,792.334,614.782,810.191z"/>
	<path fill-rule="evenodd" clip-rule="evenodd" fill="#E5A689" d="M614.476,756.616c-11.511,2.217-22.549,6.371-34.207,8.071
		c-17.654,2.576-35.277,2.535-53.021,1.01c-15.35-1.318-29.874-5.734-44.412-10.3c-0.016-0.809-0.034-1.618-0.051-2.429
		c9.164,0.682,17.435,4.82,26.335,6.74c28.399,6.128,56.509,5.694,84.612-1.228c6.999-1.723,13.941-3.674,20.908-5.521
		C614.587,754.181,614.53,755.397,614.476,756.616z"/>
	<path fill-rule="evenodd" clip-rule="evenodd" fill="#474341" d="M731.535,628.497c-0.694-6.831,2.333-13.035,3.508-19.546
		c0.471-2.606,4.013-0.798,6.005-1.595C738.819,614.828,735.651,621.876,731.535,628.497z"/>
	<path fill-rule="evenodd" clip-rule="evenodd" fill="#464240" d="M357.025,607.238c4.985-0.326,7.099,1.865,7.472,6.992
		c0.336,4.615,2.644,9.03,2.015,13.854C362.253,621.635,359.575,614.466,357.025,607.238z"/>
</g>
</svg>
