<?xml version="1.0" encoding="utf-8"?>
<!-- Generator: Adobe Illustrator 16.0.0, SVG Export Plug-In . SVG Version: 6.00 Build 0)  -->
<!DOCTYPE svg PUBLIC "-//W3C//DTD SVG 1.1 Tiny//EN" "http://www.w3.org/Graphics/SVG/1.1/DTD/svg11-tiny.dtd">
<svg version="1.1" baseProfile="tiny" id="shopping_x5F_carts_1_"
	 xmlns="http://www.w3.org/2000/svg" xmlns:xlink="http://www.w3.org/1999/xlink" x="0px" y="0px" width="1080px" height="1280px"
	 viewBox="0 0 1080 1280" xml:space="preserve">
<g id="_x31_5_1_" display="none">
	<g id="icon" display="inline">
		<path fill="#020202" d="M1034.438,490.656H597.375v-229.5c0-25.313-20.25-45.563-45.563-45.563s-45.563,20.25-45.563,45.563v229.5
			H45.563C20.25,490.656,0,510.906,0,536.219s20.25,45.563,45.563,45.563h988.031c25.313,0,45.563-20.25,45.563-45.563
			C1080,510.906,1059.75,490.656,1034.438,490.656z M161.156,996.063c0,37.969,31.219,69.188,69.188,69.188H850.5
			c37.969,0,69.188-31.219,69.188-69.188l91.969-390.656H69.188L161.156,996.063z M804.094,685.563
			c0-6.75,5.063-11.813,11.813-11.813s11.813,5.063,11.813,11.813v114.75c0,6.75-5.063,11.813-11.813,11.813
			s-11.813-5.063-11.813-11.813V685.563z M804.094,869.5c0-6.75,5.063-11.813,11.813-11.813s11.813,5.063,11.813,11.813v114.75
			c0,6.75-5.063,11.813-11.813,11.813S804.094,991,804.094,984.25V869.5z M712.125,685.563c0-6.75,5.063-11.813,11.813-11.813
			s11.813,5.063,11.813,11.813v114.75c0,6.75-5.063,11.813-11.813,11.813s-11.813-5.063-11.813-11.813V685.563z M712.125,869.5
			c0-6.75,5.063-11.813,11.813-11.813s11.813,5.063,11.813,11.813v114.75c0,6.75-5.063,11.813-11.813,11.813
			S712.125,991,712.125,984.25V869.5z M620.156,685.563c0-6.75,5.063-11.813,11.813-11.813s11.813,5.063,11.813,11.813v114.75
			c0,6.75-5.063,11.813-11.813,11.813s-11.813-5.063-11.813-11.813V685.563z M620.156,869.5c0-6.75,5.063-11.813,11.813-11.813
			s11.813,5.063,11.813,11.813v114.75c0,6.75-5.063,11.813-11.813,11.813S620.156,991,620.156,984.25V869.5z M528.188,685.563
			c0-6.75,5.063-11.813,11.813-11.813s11.813,5.063,11.813,11.813v114.75c0,6.75-5.063,11.813-11.813,11.813
			s-11.813-5.063-11.813-11.813V685.563z M528.188,869.5c0-6.75,5.063-11.813,11.813-11.813s11.813,5.063,11.813,11.813v114.75
			c0,6.75-5.063,11.813-11.813,11.813S528.188,991,528.188,984.25V869.5z M436.219,685.563c0-6.75,5.063-11.813,11.813-11.813
			s11.813,5.063,11.813,11.813v114.75c0,6.75-5.063,11.813-11.813,11.813s-11.813-5.063-11.813-11.813V685.563z M436.219,869.5
			c0-6.75,5.063-11.813,11.813-11.813s11.813,5.063,11.813,11.813v114.75c0,6.75-5.063,11.813-11.813,11.813
			S436.219,991,436.219,984.25V869.5z M345.094,685.563c0-6.75,5.063-11.813,11.813-11.813s11.813,5.063,11.813,11.813v114.75
			c0,6.75-5.063,11.813-11.813,11.813s-11.813-5.063-11.813-11.813V685.563z M345.094,869.5c0-6.75,5.063-11.813,11.813-11.813
			s11.813,5.063,11.813,11.813v114.75c0,6.75-5.063,11.813-11.813,11.813S345.094,991,345.094,984.25V869.5z M253.125,685.563
			c0-6.75,5.063-11.813,11.813-11.813s11.813,5.063,11.813,11.813v114.75c0,6.75-5.063,11.813-11.813,11.813
			s-11.813-5.063-11.813-11.813V685.563z M253.125,869.5c0-6.75,5.063-11.813,11.813-11.813s11.813,5.063,11.813,11.813v114.75
			c0,6.75-5.063,11.813-11.813,11.813S253.125,991,253.125,984.25V869.5z"/>
	</g>
</g>
<g id="_x31_4_1_" display="none">
	<g id="icon_1_" display="inline">
		<path fill="#020202" d="M804.094,518.5c-18.563,0-32.906,15.188-32.906,32.906c0,18.563,15.188,32.906,32.906,32.906
			S837,569.125,837,551.406C837.844,533.688,822.656,518.5,804.094,518.5z M814.219,474.625
			c-10.969-135.844-124.875-242.156-263.25-242.156s-252.281,106.313-263.25,242.156H0v132.469h65.813l87.75,440.438H924.75
			l87.75-418.5h65.813V474.625H814.219z M550.969,267.906c126.563,0,229.5,102.938,229.5,229.5c-261.563,0-194.906,0-458.156,0
			C321.469,370,424.406,267.906,550.969,267.906z M198.281,1003.656h-21.938l-7.594-43.875h29.531V1003.656z M198.281,849.25
			h-69.188v21.938h69.188V937h-33.75l-27-153.563h60.75V849.25z M198.281,761.5h-64.969L121.5,695.688h76.781V761.5z
			 M198.281,672.906h-80.156l-7.594-43.875h87.75V672.906z M330.75,1003.656H220.219v-43.875H330.75V1003.656z M330.75,937.844
			H220.219v-65.813H330.75V937.844z M330.75,849.25H220.219v-65.813H330.75V849.25z M330.75,761.5H220.219v-65.813H330.75V761.5z
			 M330.75,672.906H220.219v-43.875H330.75V672.906z M297.844,607.094c-30.375,0-54.844-24.469-54.844-54.844
			s24.469-54.844,54.844-54.844s54.844,24.469,54.844,54.844S328.219,607.094,297.844,607.094z M463.219,1003.656H352.688v-43.875
			h110.531V1003.656z M463.219,937.844H352.688v-65.813h110.531V937.844z M463.219,849.25H352.688v-65.813h110.531V849.25z
			 M463.219,761.5H352.688v-65.813h110.531V761.5z M463.219,672.906H352.688v-43.875h110.531V672.906z M594.844,1003.656H485.156
			v-43.875h110.531v43.875H594.844z M594.844,937.844H485.156v-65.813h110.531v65.813H594.844z M594.844,849.25H485.156v-65.813
			h110.531v65.813H594.844z M594.844,761.5H485.156v-65.813h110.531V761.5H594.844z M594.844,672.906H485.156v-43.875h110.531
			v43.875H594.844z M727.313,1003.656H616.781v-43.875h110.531V1003.656z M727.313,937.844H616.781v-65.813h110.531V937.844z
			 M727.313,849.25H616.781v-65.813h110.531V849.25z M727.313,761.5H616.781v-65.813h110.531V761.5z M727.313,672.906H616.781
			v-43.875h110.531V672.906z M859.781,1003.656H749.25v-43.875h110.531V1003.656z M859.781,937.844H749.25v-65.813h110.531V937.844z
			 M859.781,849.25H749.25v-65.813h110.531V849.25z M859.781,761.5H749.25v-65.813h110.531V761.5z M859.781,672.906H749.25v-43.875
			h110.531V672.906z M804.094,607.094c-30.375,0-54.844-24.469-54.844-54.844s24.469-54.844,54.844-54.844
			s54.844,24.469,54.844,54.844C859.781,582.625,835.313,607.094,804.094,607.094z M903.656,1003.656h-21.938v-43.875h43.875
			v-21.938h-43.875v-65.813h58.219v-21.938h-58.219v-66.656h60.75L903.656,1003.656z M946.688,761.5h-64.969v-65.813H958.5
			L946.688,761.5z M961.875,672.906h-80.156v-43.875h87.75L961.875,672.906z M297.844,518.5c-18.563,0-32.906,15.188-32.906,32.906
			c0,18.563,15.188,32.906,32.906,32.906s32.906-15.188,32.906-32.906S315.563,518.5,297.844,518.5z"/>
	</g>
</g>
<g id="_x31_3_1_" display="none">
	<g id="icon_2_" display="inline">
		<path fill="#020202" d="M1055.531,467.875H883.406V247.656H712.125v-24.469H392.344v24.469H221.063v221.063H24.469
			C10.969,468.719,0,479.688,0,493.188v73.406c0,13.5,10.969,24.469,24.469,24.469h1031.063c13.5,0,24.469-10.969,24.469-24.469
			v-73.406C1080,478.844,1069.031,467.875,1055.531,467.875z M834.469,467.875H270V296.594h122.344v24.469h318.938v-24.469h122.344
			v171.281H834.469z M172.125,1007.875c0,27,21.938,48.938,48.938,48.938h613.406c27,0,48.938-21.938,48.938-48.938l122.344-392.344
			H73.406L172.125,1007.875z M687.656,701.594c0-42.188,73.406-42.188,73.406,0v245.531c0,42.188-73.406,42.188-73.406,0V701.594z
			 M491.063,701.594c0-42.188,73.406-42.188,73.406,0v245.531c0,42.188-73.406,42.188-73.406,0V701.594z M294.469,701.594
			c0-42.188,73.406-42.188,73.406,0v245.531c0,42.188-73.406,42.188-73.406,0V701.594z"/>
	</g>
</g>
<g id="_x31_2_1_" display="none">
	<g id="icon_3_" display="inline">
		<path fill="#020202" d="M613.406,996.063V677.125h-48.938v318.938H613.406z M515.531,677.125h-48.938v318.938h48.938V677.125z
			 M712.125,677.125h-48.938v318.938h48.938V677.125z M491.063,627.344h122.344c13.5,0,24.469-10.969,24.469-24.469V186.063H466.594
			v417.656C466.594,616.375,477.563,627.344,491.063,627.344z M552.656,505c20.25,0,37.125,16.875,37.125,37.125
			s-16.875,37.125-37.125,37.125s-37.125-16.875-37.125-37.125S531.563,505,552.656,505z M662.344,480.531v147.656h294.469v392.344
			c0,13.5-10.969,24.469-24.469,24.469H147.656c-13.5,0-24.469-10.969-24.469-24.469V627.344h318.938V480.531H0v147.656h73.406V1045
			c0,27,21.938,48.938,48.938,48.938h834.469c27,0,48.938-21.938,48.938-48.938V626.5l73.406,1.688V480.531H662.344z
			 M221.063,996.063V677.125h-48.938v318.938H221.063z M417.656,996.063V677.125h-48.938v318.938H417.656z M761.063,677.125v318.938
			H810V677.125H761.063z M318.938,996.063V677.125H270v318.938H318.938z M858.938,677.125v318.938h48.938V677.125H858.938z"/>
	</g>
</g>
<g id="_x31_1_1_" display="none">
	<g id="icon_4_" display="inline">
		<path fill="#020202" d="M168.75,1116.719c0,0,29.531,28.688,52.313,28.688h637.031c0,0,43.875,1.688,51.469-30.375l141.75-523.125
			H27.844L168.75,1116.719z M803.25,1034.875h-526.5c-15.188,0-27.844-12.656-27.844-27.844s12.656-27.844,27.844-27.844h526.5
			c15.188,0,27.844,12.656,27.844,27.844S818.438,1034.875,803.25,1034.875z M831.094,896.5H248.906
			c-15.188,0-27.844-12.656-27.844-27.844s12.656-27.844,27.844-27.844H830.25c15.188,0,27.844,12.656,27.844,27.844
			S846.281,896.5,831.094,896.5z M221.906,702.438h637.031c15.188,0,27.844,12.656,27.844,27.844s-12.656,27.844-27.844,27.844
			H221.906c-15.188,0-27.844-12.656-27.844-27.844S205.875,702.438,221.906,702.438z M920.531,480.531L710.438,187.75
			c0.844-4.219,2.531-7.594,2.531-11.813c0-22.781-18.563-41.344-41.344-41.344s-41.344,18.563-41.344,41.344
			s18.563,41.344,41.344,41.344c4.219,0,7.594-0.844,10.969-2.531l180.563,264.938H216L397.406,214.75
			c2.531,0.844,5.906,1.688,8.438,1.688c22.781,0,41.344-18.563,41.344-41.344s-18.563-41.344-41.344-41.344
			S364.5,152.313,364.5,175.094c0,4.219,0.844,8.438,2.531,12.656L159.469,480.531H0v83.531h1080v-82.688H920.531V480.531z"/>
	</g>
</g>
<g id="_x31_0_1_" display="none">
	<g id="icon_5_" display="inline">
		<path fill="#020202" d="M791.438,569.969l-39.656-89.438l-37.969,87.75l39.656,88.594L791.438,569.969z M843.75,451
			l-39.656-89.438l-38.813,88.594l39.656,88.594L843.75,451z M739.125,688.938L699.469,599.5l-40.5,92.813h79.313L739.125,688.938z
			 M843.75,689.781l-39.656-89.438l-40.5,92.813h79.313L843.75,689.781z M940.781,431.594l-32.063-70.875l-38.813,88.594
			l34.594,77.625L940.781,431.594z M738.281,450.156l-39.656-89.438l-38.813,88.594l39.656,89.438L738.281,450.156z
			 M934.875,657.719l-28.688-64.125l-37.125,98.719h52.313L934.875,657.719z M892.688,560.688l-35.438-80.156l-38.813,87.75
			l38.813,86.906L892.688,560.688z M983.813,527.781l-28.688-64.125L919.688,559l28.688,64.125L983.813,527.781z M342.563,432.438
			l38.813,90.281l37.969-80.156l-38.813-86.906L342.563,432.438z M475.875,568.281l-43.031-95.344l-37.969,81l43.031,99.563
			L475.875,568.281z M997.313,492.344L1080,271.281h-52.313l-59.063,157.781L997.313,492.344z M527.344,450.156L486,358.188
			l-38.813,85.219l42.188,93.656L527.344,450.156z M634.5,688.094l-39.656-89.438l-37.969,86.063v0.844h-0.844l-2.531,6.75h79.313
			L634.5,688.094z M632.813,450.156l-39.656-89.438l-38.813,88.594l40.5,88.594L632.813,450.156z M685.969,569.969l-39.656-90.281
			l-38.813,87.75l40.5,88.594L685.969,569.969z M529.031,687.25l-39.656-88.594l-37.969,86.063l0.844,0.844h-0.844l-2.531,6.75
			h79.313L529.031,687.25z M580.5,569.125l-39.656-89.438l-37.969,86.906l40.5,88.594L580.5,569.125z M685.125,331.188l-27-59.906
			h-26.156l-26.156,59.063l39.656,89.438L685.125,331.188z M184.781,1061.875H290.25v-52.313H184.781V1061.875z M394.875,271.281
			h-26.156l12.656,27L394.875,271.281z M500.344,271.281h-26.156l12.656,28.688L500.344,271.281z M432.844,413.031l40.5-85.219
			l-25.313-57.375h-26.156l-27,55.688L432.844,413.031z M367.031,326.125l-24.469-54.844h-69.188l55.688,129.094L367.031,326.125z
			 M1000.688,271.281h-52.313l-26.156,59.063l31.219,67.5L1000.688,271.281z M394.875,956.406
			c-43.875,0-79.313,35.438-79.313,79.313s35.438,79.313,79.313,79.313s79.313-35.438,79.313-79.313S438.75,956.406,394.875,956.406
			z M500.344,1061.875h210.938v-52.313H500.344V1061.875z M372.938,692.313h48.938l-81.844-201.656L203.344,165.813H0v52.313h168.75
			l173.813,448.031L184.781,850.938v52.313h816.75v105.469h-79.313v52.313h131.625v-52.313V850.938h-816.75L372.938,692.313z
			 M816.75,271.281h-26.156l13.5,29.531L816.75,271.281z M540.844,419.781l38.813-88.594L553.5,271.281h-26.156l-27,57.375
			L540.844,419.781z M922.219,271.281h-26.156l13.5,29.531L922.219,271.281z M896.063,330.344l-27-59.906h-26.156L816.75,329.5
			l39.656,89.438L896.063,330.344z M605.813,271.281h-26.156l13.5,29.531L605.813,271.281z M790.594,331.188l-26.156-59.906h-26.156
			l-26.156,59.063l39.656,89.438L790.594,331.188z M711.281,271.281h-26.156l13.5,29.531L711.281,271.281z M816.75,956.406
			c-43.875,0-79.313,35.438-79.313,79.313s35.438,79.313,79.313,79.313s79.313-35.438,79.313-79.313
			C895.219,991.844,860.625,956.406,816.75,956.406z"/>
	</g>
</g>
<g id="_x39__1_" display="none">
	<g id="icon_6_" display="inline">
		<path fill="#020202" d="M263.25,455.219V218.125v-52.313H0v52.313h210.938v237.094v52.313v421.875c0,0,374.625,0,394.875,0
			c261.563,0,350.156-104.625,421.875-263.25c9.281-21.094,17.719-49.781,25.313-79.313h0.844v-3.375
			c16.031-63.281,26.156-128.25,26.156-128.25H263.25z M1011.656,560.688H737.438v26.156h266.625
			c-9.281,28.688-19.406,58.219-29.531,79.313H763.594v26.156h198.281c-15.188,29.531-32.063,55.688-52.313,79.313H737.438v26.156
			h145.969c-57.375,49.781-140.063,79.313-277.594,79.313c-131.625,0-342.563,0-342.563,0v-79.313h184.781v-26.156H263.25v-79.313
			h158.625v-26.156H263.25v-79.313h184.781v-26.156H263.25v-52.313c0,0,271.688,0,342.563,0c126.563,0,421.875,0,421.875,0
			S1020.938,531.156,1011.656,560.688z M342.563,956.406c-43.875,0-79.313,35.438-79.313,79.313s35.438,79.313,79.313,79.313
			s79.313-35.438,79.313-79.313S386.438,956.406,342.563,956.406z M685.125,956.406c-43.875,0-79.313,35.438-79.313,79.313
			s35.438,79.313,79.313,79.313s79.313-35.438,79.313-79.313C763.594,991.844,728.156,956.406,685.125,956.406z"/>
	</g>
	<g id="delete" display="inline">
		<path fill="#020202" d="M592.313,534.531c-80.156,0-145.125,64.969-145.125,145.125s64.969,145.125,145.125,145.125
			s145.125-64.969,145.125-145.125S672.469,534.531,592.313,534.531z M667.406,735.344l-18.563,18.563l-55.688-55.688
			l-55.688,55.688l-18.563-18.563l55.688-55.688l-55.688-55.688l18.563-18.563l55.688,55.688l55.688-55.688l18.563,18.563
			l-55.688,55.688L667.406,735.344z"/>
	</g>
	<g id="add" display="inline">
		<path fill="#020202" d="M592.313,534.531c-80.156,0-145.125,64.969-145.125,145.125s64.969,145.125,145.125,145.125
			s145.125-64.969,145.125-145.125S672.469,534.531,592.313,534.531z M526.5,745.469l-26.156-79.313L526.5,640l26.156,52.313
			L673.313,613l11.813,24.469L526.5,745.469z"/>
	</g>
</g>
<g id="_x38__1_" display="none">
	<g id="icon_7_" display="inline">
		<path fill="#020202" d="M231.188,215.594v-51.469H0v51.469h179.719v719.719h51.469h591.469v-50.625H231.188V215.594z
			 M282.656,678.813h694.406v-51.469H282.656V678.813z M282.656,807.063h616.781v-51.469H282.656V807.063z M308.813,961.469
			c-42.188,0-76.781,34.594-76.781,76.781c0,43.031,34.594,76.781,76.781,76.781s76.781-34.594,76.781-76.781
			S351,961.469,308.813,961.469z M694.406,961.469c-42.188,0-76.781,34.594-76.781,76.781c0,43.031,34.594,76.781,76.781,76.781
			s76.781-34.594,76.781-76.781S736.594,961.469,694.406,961.469z M282.656,549.719h745.875V498.25H282.656V549.719z M282.656,370
			v51.469H1080V370H282.656z"/>
	</g>
</g>
<g id="_x37__1_" display="none">
	<g id="icon_8_" display="inline">
		<path fill="#020202" d="M907.875,726.063L1080,332.875H343.406l97.875,392.344h466.594V726.063z M764.438,586.844l73.406-141.75
			c6.75-12.656,21.938-17.719,33.75-10.125s16.031,24.469,9.281,37.125l-73.406,141.75c-6.75,12.656-21.938,17.719-33.75,10.125
			C761.063,616.375,757.688,600.344,764.438,586.844z M641.25,586.844l73.406-141.75c6.75-12.656,21.938-17.719,33.75-10.125
			s16.031,24.469,9.281,37.125l-73.406,141.75c-6.75,12.656-21.938,17.719-33.75,10.125S634.5,600.344,641.25,586.844z
			 M518.906,586.844l73.406-141.75c6.75-12.656,21.938-17.719,33.75-10.125s16.031,24.469,9.281,37.125l-73.406,141.75
			c-6.75,12.656-21.938,17.719-33.75,10.125S512.156,600.344,518.906,586.844z M270,186.063h-97.875v-24.469H73.406
			c0,0-73.406,13.5-73.406,48.938c0,37.969,73.406,48.938,73.406,48.938h97.875V235h48.938l172.125,588.938h564.469v48.938H392.344
			v48.938h613.406v-97.875V775H417.656L270,186.063z M871.594,947.125c-47.25,0-86.063,38.813-86.063,86.063
			s38.813,86.063,86.063,86.063s86.063-38.813,86.063-86.063C957.656,985.094,918.844,947.125,871.594,947.125z M871.594,1093.938
			c-33.75,0-61.594-27.844-61.594-61.594s27.844-61.594,61.594-61.594s61.594,27.844,61.594,61.594
			C932.344,1066.938,905.344,1093.938,871.594,1093.938z M502.875,947.125c-47.25,0-86.063,38.813-86.063,86.063
			s38.813,86.063,86.063,86.063s86.063-38.813,86.063-86.063C588.938,985.094,550.969,947.125,502.875,947.125z M502.875,1093.938
			c-33.75,0-61.594-27.844-61.594-61.594s27.844-61.594,61.594-61.594s61.594,27.844,61.594,61.594
			C564.469,1066.938,537.469,1093.938,502.875,1093.938z"/>
	</g>
</g>
<g id="_x36__1_" display="none">
	<g id="icon_9_" display="inline">
		<path fill="#020202" d="M162.844,221.5c-2.531-10.969-11.813-18.563-22.781-18.563H22.781C10.125,203.781,0,213.906,0,226.563
			s10.125,22.781,22.781,22.781H121.5l217.688,625.219c2.531,10.969,11.813,18.563,22.781,18.563h604.125v-45.563H380.531
			L162.844,221.5z M942.469,801.156L1080,386.875H275.906l137.531,413.438h529.031V801.156z M436.219,754.75l-13.5-45.563h13.5
			V754.75z M918.844,502.469h69.188v-22.781h-69.188v-45.563h91.969l-32.906,114.75h-59.063V502.469z M918.844,570.813h52.313
			l-13.5,45.563H918v-45.563H918.844z M918.844,640h32.906l-13.5,45.563h-19.406V640z M918.844,709.188h13.5l-13.5,45.563V709.188z
			 M826.875,433.281h69.188v45.563h-69.188V433.281z M826.875,502.469h69.188v45.563h-69.188V502.469z M826.875,570.813h69.188
			v45.563h-69.188V570.813z M826.875,640h69.188v45.563h-69.188V640z M826.875,709.188h69.188v45.563h-69.188V709.188z
			 M735.75,433.281h69.188v45.563H735.75V433.281z M735.75,502.469h69.188v45.563H735.75V502.469z M735.75,570.813h69.188v45.563
			H735.75V570.813z M735.75,640h69.188v45.563H735.75V640z M735.75,709.188h69.188v45.563H735.75V709.188z M643.781,433.281h69.188
			v45.563h-69.188V433.281z M643.781,502.469h69.188v45.563h-69.188V502.469z M643.781,570.813h69.188v45.563h-69.188V570.813z
			 M643.781,640h69.188v45.563h-69.188V640z M643.781,709.188h69.188v45.563h-69.188V709.188z M551.813,433.281H621v45.563h-69.188
			V433.281z M551.813,502.469H621v45.563h-69.188V502.469z M551.813,570.813H621v45.563h-69.188V570.813z M551.813,640H621v45.563
			h-69.188V640z M551.813,709.188H621v45.563h-69.188V709.188z M459.844,433.281h69.188v45.563h-69.188V433.281z M459.844,502.469
			h69.188v45.563h-69.188V502.469z M459.844,570.813h69.188v45.563h-69.188V570.813z M459.844,640h69.188v45.563h-69.188V640z
			 M459.844,709.188h69.188v45.563h-69.188V709.188z M345.094,433.281h91.969v45.563h-69.188v22.781h69.188v45.563H378
			L345.094,433.281z M383.906,570.813h52.313v45.563h-39.656L383.906,570.813z M436.219,640v45.563h-19.406L404.156,640H436.219z
			 M861.469,915.906c-44.719,0-80.156,36.281-80.156,80.156s36.281,80.156,80.156,80.156c44.719,0,80.156-36.281,80.156-80.156
			S906.188,915.906,861.469,915.906z M425.25,915.906c-44.719,0-80.156,36.281-80.156,80.156s36.281,80.156,80.156,80.156
			c44.719,0,80.156-36.281,80.156-80.156S469.125,915.906,425.25,915.906z"/>
	</g>
</g>
<g id="_x35__1_" display="none">
	<g id="icon_10_" display="inline">
		<path fill="#020202" d="M1050.469,435.813h-29.531H320.625v58.219h700.313v58.219H320.625v58.219h700.313v58.219H320.625v58.219
			h700.313v58.219H262.406V172.563v-58.219H0v58.219h204.188v671.625h58.219H1080v-29.531v-29.531V435.813H1050.469z
			 M204.188,961.469H1080V903.25H204.188V961.469z M379.688,990.156c-48.094,0-87.75,38.813-87.75,87.75
			c0,48.094,38.813,87.75,87.75,87.75c48.094,0,87.75-38.813,87.75-87.75C467.438,1029.813,427.781,990.156,379.688,990.156z
			 M904.5,990.156c-48.094,0-87.75,38.813-87.75,87.75c0,48.094,38.813,87.75,87.75,87.75c48.094,0,87.75-38.813,87.75-87.75
			C992.25,1029.813,953.438,990.156,904.5,990.156z"/>
	</g>
</g>
<g id="_x34__1_">
	<g id="icon_11_">
		<path fill="#FFFFFF" d="M382.219,785.125h658.125V468.719L302.906,314.313L276.75,205.469l-106.313-35.438
			c0-1.688,0.844-2.531,0.844-4.219c0-36.281-29.531-65.813-65.813-65.813s-65.813,29.531-65.813,65.813
			s29.531,65.813,65.813,65.813c15.188,0,28.688-5.063,39.656-13.5l79.313,39.656l104.625,500.344l-105.469,79.313v131.625
			l48.094,59.906c-13.5,16.031-21.094,36.281-21.094,59.063c0,50.625,41.344,91.969,91.969,91.969s91.969-41.344,91.969-91.969
			s-41.344-91.969-91.969-91.969c-7.594,0-15.188,0.844-21.938,2.531l-17.719-28.688h553.5l30.375,50.625
			c-18.563,16.875-30.375,41.344-30.375,68.344c0,50.625,41.344,91.969,91.969,91.969s91.969-41.344,91.969-91.969
			S999,996.906,948.375,996.906c-0.844,0-1.688,0-2.531,0l-10.969-26.156h105.469v-52.313H276.75v-52.313L382.219,785.125z
			 M382.219,731.969l-38.813-180.563l5.063,25.313l156.094,12.656l32.063,143.438H382.219V731.969z M566.156,731.969
			l-31.219-140.906l152.719,11.813l11.813,129.094H566.156z M724.781,731.969l-11.813-126.563l143.438,10.969v115.594H724.781z
			 M988.031,600.344v131.625H882.563V618.906l105.469,8.438V600.344l-105.469-8.438V474.625l0,0l105.469,20.25V600.344z
			 M302.906,363.25l553.5,106.313v119.813l-145.969-11.813l-12.656-138.375l-26.156-5.063l13.5,141.75l-156.094-12.656
			L492.75,400.375l-31.219-5.906l37.125,166.219l-156.094-12.656L302.906,363.25z M948.375,1048.375
			c21.938,0,39.656,17.719,39.656,39.656s-17.719,39.656-39.656,39.656s-39.656-17.719-39.656-39.656
			S926.438,1048.375,948.375,1048.375z M342.563,1048.375c21.938,0,39.656,17.719,39.656,39.656s-17.719,39.656-39.656,39.656
			s-39.656-17.719-39.656-39.656S320.625,1048.375,342.563,1048.375z"/>
	</g>
</g>
<g id="_x33__1_" display="none">
	<g id="icon_12_" display="inline">
		<path fill="#020202" d="M434.531,921.813c-45.563,0-81.844,37.125-81.844,81.844c0,45.563,37.125,81.844,81.844,81.844
			s81.844-37.125,81.844-81.844S480.094,921.813,434.531,921.813z M434.531,1039.094c-19.406,0-35.438-16.031-35.438-35.438
			s16.031-35.438,35.438-35.438s35.438,16.031,35.438,35.438S453.938,1039.094,434.531,1039.094z M166.219,213.063
			c-2.531-10.969-11.813-18.563-22.781-18.563H23.625C10.969,194.5,0,204.625,0,218.125c0,12.656,10.125,23.625,23.625,23.625
			h100.406l221.906,637.875c2.531,10.969,11.813,18.563,22.781,18.563H985.5v-47.25H388.125L166.219,213.063z M880.031,921.813
			c-45.563,0-81.844,37.125-81.844,81.844c0,45.563,37.125,81.844,81.844,81.844c45.563,0,81.844-37.125,81.844-81.844
			C962.719,958.938,925.594,921.813,880.031,921.813z M880.031,1039.094c-19.406,0-35.438-16.031-35.438-35.438
			s16.031-35.438,35.438-35.438s35.438,16.031,35.438,35.438S900.281,1039.094,880.031,1039.094z M281.813,381.813l23.625,47.25
			h47.25h669.938c0,0-4.219,28.688-21.094,70.031H323.156l5.906,23.625h662.344c-7.594,16.875-17.719,35.438-29.531,54.844
			c-3.375,5.063-7.594,10.125-11.813,15.188H346.781l5.906,23.625H924.75c-59.063,47.25-156.094,70.031-216,70.031
			c-43.875,0-306.281,0-331.594,0l0,0c-0.844,0-1.688,0-1.688,0s0.844,0,1.688,0h-1.688l23.625,47.25c0,0,235.406,0,281.813,0
			c135,0,245.531-41.344,305.438-117.281C1066.5,513.438,1080,381.813,1080,381.813H281.813z M925.594,616.375l22.781-21.938
			C941.625,602.031,934.031,609.625,925.594,616.375z"/>
	</g>
</g>
<g id="_x32__1_" display="none">
	<g id="icon_13_" display="inline">
		<path fill="#020202" d="M515.531,443.406h122.344V370H515.531V443.406z M662.344,566.594h122.344v-98.719H662.344V566.594z
			 M367.875,443.406h122.344V370H367.875V443.406z M662.344,443.406h122.344V370H662.344V443.406z M515.531,566.594h122.344v-98.719
			H515.531V566.594z M380.531,934.469c-47.25,0-86.063,38.813-86.063,86.063s38.813,86.063,86.063,86.063
			s86.063-38.813,86.063-86.063S427.781,934.469,380.531,934.469z M847.125,934.469c-47.25,0-86.063,38.813-86.063,86.063
			s38.813,86.063,86.063,86.063s86.063-38.813,86.063-86.063C932.344,973.281,894.375,934.469,847.125,934.469z M924.75,467.875H810
			v97.875h81.844L924.75,467.875z M932.344,443.406L956.813,370H810v73.406H932.344L932.344,443.406z M367.875,566.594h122.344
			v-98.719H367.875V566.594z M515.531,664.469h122.344v-73.406H515.531V664.469z M662.344,664.469h122.344v-73.406H662.344V664.469z
			 M883.406,591.063H810v73.406h48.938l25.313-75.938L883.406,591.063z M278.438,738.719h629.438L1080,296.594H194.063
			l-21.094-102.938c-2.531-11.813-12.656-19.406-23.625-19.406H24.469C10.969,173.406,0,184.375,0,197.875
			s10.969,24.469,24.469,24.469h105.469L264.094,889.75c2.531,11.813,12.656,19.406,23.625,19.406h669.094v-48.938H307.125
			L278.438,738.719z M270,688.938l-73.406-343.406H344.25h24.469h122.344h24.469h122.344h24.469h122.344H810h196.594L884.25,688.938
			H270z M367.875,664.469h122.344v-73.406H367.875V664.469z M278.438,566.594h65.813v-98.719h-82.688L278.438,566.594z
			 M294.469,664.469h48.938v-73.406h-61.594L294.469,664.469z M258.188,447.625l-0.844-4.219h86.063V370h-97.875L258.188,447.625z"
			/>
	</g>
</g>
<g id="_x31__1_" display="none">
	<g id="icon_14_" display="inline">
		<path fill="#020202" d="M777.094,910c-43.875,0-78.469,35.438-78.469,78.469c0,43.875,35.438,78.469,78.469,78.469
			s78.469-35.438,78.469-78.469S820.969,910,777.094,910z M777.094,1045c-31.219,0-56.531-25.313-56.531-56.531
			s25.313-56.531,56.531-56.531s56.531,25.313,56.531,56.531C833.625,1020.531,808.313,1045,777.094,1045z M349.313,910
			c-43.875,0-78.469,35.438-78.469,78.469c0,43.875,35.438,78.469,78.469,78.469s78.469-35.438,78.469-78.469
			S392.344,910,349.313,910z M349.313,1045c-31.219,0-56.531-25.313-56.531-56.531s25.313-56.531,56.531-56.531
			s56.531,25.313,56.531,56.531C405.844,1020.531,380.531,1045,349.313,1045z M1076.625,424.844
			c-4.219-6.75-10.969-10.125-18.563-10.125H197.438l-37.125-184.781c-2.531-10.125-10.969-17.719-21.938-17.719H22.781
			C10.125,212.219,0,222.344,0,235s10.125,22.781,22.781,22.781h96.188l123.188,612.563c2.531,10.125,10.969,17.719,21.938,17.719
			h609.188c9.281,0,16.875-5.063,20.25-13.5l184.781-428.625C1080.844,439.188,1080.844,431.594,1076.625,424.844z M858.094,842.5
			H282.656l-22.781-112.219h647.156L858.094,842.5z M916.313,707.5H255.656l-22.781-112.219H965.25L916.313,707.5z M974.531,572.5
			H227.813l-22.781-112.219h817.594L974.531,572.5z"/>
	</g>
</g>
</svg>
