<?xml version="1.0" encoding="utf-8"?>
<!-- Generator: Adobe Illustrator 16.0.0, SVG Export Plug-In . SVG Version: 6.00 Build 0)  -->
<!DOCTYPE svg PUBLIC "-//W3C//DTD SVG 1.1 Tiny//EN" "http://www.w3.org/Graphics/SVG/1.1/DTD/svg11-tiny.dtd">
<svg version="1.1" baseProfile="tiny" id="Layer_1" xmlns="http://www.w3.org/2000/svg" xmlns:xlink="http://www.w3.org/1999/xlink"
	 x="0px" y="0px" width="512px" height="512px" viewBox="0 0 512 512" xml:space="preserve">
<path fill="#FFFFFF" d="M472.778,452.76l0.049-0.056l-0.076-0.083L380.919,16.5h-29.998l-2.507,11.456L70.257,36.757v13.597
	l2.079,0.129v8.92h3.272c-0.193,0.815-0.306,1.662-0.306,2.536c0,5.146,3.542,9.453,8.318,10.649v239.357H14.077v37.752h17.819
	v9.803H14.077v10.689h17.819v9.803H14.077v10.688h17.819v9.803H14.077v10.69h17.819v9.8H14.077v10.689h40.982v9.802H14.077v14.808
	h144.327v-14.808h-41.363v-9.802h41.363v-10.689h-22.271v-9.8h22.271v-10.69h-22.271v-9.803h22.271v-10.688h-22.271v-9.803h22.271
	V359.5h-22.271v-9.803h22.271v-37.752H88.966V72.588c4.775-1.196,8.318-5.503,8.318-10.649c0-0.874-0.113-1.72-0.306-2.536h3.273
	v-7.188L339.85,67.083L243.679,506.5h24.673l7.209-32.944l88.926-97.387l87.787,96.142l7.197,34.19h24.623L472.778,452.76z
	 M412.164,281.839l-3.205,3.511l-28.94-31.696l21.301-23.328L412.164,281.839z M365.755,61.447l29.742,141.236l-31.011,33.962
	l-29.905-32.751L365.755,61.447z M328.576,231.335l20.379,22.32l-28.94,31.695l-2.632-2.884L328.576,231.335z M287.684,418.167
	l18.248-83.377l10.388-11.375l28.94,31.698L287.684,418.167z M335.547,302.358l28.939-31.696l28.939,31.696l-28.939,31.696
	L335.547,302.358z M383.715,355.111l28.94-31.697l10.465,11.464l0.174-0.194l17.451,82.884L383.715,355.111z"/>
</svg>
