<?xml version="1.0" encoding="utf-8"?>
<!-- Generator: Adobe Illustrator 16.0.0, SVG Export Plug-In . SVG Version: 6.00 Build 0)  -->
<!DOCTYPE svg PUBLIC "-//W3C//DTD SVG 1.1//EN" "http://www.w3.org/Graphics/SVG/1.1/DTD/svg11.dtd">
<svg version="1.1" id="Layer_5" xmlns="http://www.w3.org/2000/svg" xmlns:xlink="http://www.w3.org/1999/xlink" x="0px" y="0px"
	 width="512px" height="512px" viewBox="0 0 512 512" enable-background="new 0 0 512 512" xml:space="preserve">
<path fill="#00ACED" d="M31.998,368.043C30.74,367.902,33.251,368.043,31.998,368.043L31.998,368.043z"/>
<path fill="#00ACED" d="M63.998,56.059C63.173,56.059,64.826,55.984,63.998,56.059L63.998,56.059z"/>
<g>
	<path fill="#FFFFFF" d="M370.656,412.156c-28.177-5.136-58.156-7.702-89.936-7.702c-30.676,0-73.56,5.064-128.657,15.197
		c2.082-10.272,4.439-22.205,7.078-35.808c22.203-2.635,36.672-7.943,43.406-15.927c6.73-7.979,12.387-22.795,16.966-44.446
		c4.441-20.538,6.663-40.596,6.663-60.165c0-20.818-8.816-31.228-26.439-31.228c-5.553,0-10.826,0.625-15.822,1.874
		c-7.635-16.791-11.449-28.798-11.449-36.016c56.901-0.416,110.056-9.785,159.467-28.104c0.554,0.417,0.832,1.597,0.832,3.539
		c0,3.055-0.696,8.607-2.081,16.655c-8.883,49.131-13.324,90.007-13.324,122.621c0,22.623,2.706,37.403,8.12,44.341
		c3.331,4.305,8.047,6.454,14.155,6.454c6.938,0,14.85-1.872,23.733-5.62c2.499-0.97,3.956,0.207,4.371,3.538
		C369.266,373.435,370.238,390.369,370.656,412.156z M368.99,116.954c0,9.3-10.688,17.211-32.062,23.733
		c-18.875,5.829-38.86,8.744-59.955,8.744c-19.709,0-35.88-3.676-48.508-11.033c-14.572-8.604-21.858-20.956-21.858-37.057
		c0-20.819,24.009-31.228,72.032-31.228c26.646,0,48.642,4.928,65.994,14.781C360.871,94.053,368.99,104.742,368.99,116.954z"/>
</g>
</svg>
