<?xml version="1.0" encoding="utf-8"?>
<!-- Generator: Adobe Illustrator 16.0.0, SVG Export Plug-In . SVG Version: 6.00 Build 0)  -->
<!DOCTYPE svg PUBLIC "-//W3C//DTD SVG 1.1//EN" "http://www.w3.org/Graphics/SVG/1.1/DTD/svg11.dtd">
<svg version="1.1" id="Layer_1" xmlns="http://www.w3.org/2000/svg" xmlns:xlink="http://www.w3.org/1999/xlink" x="0px" y="0px"
	 width="960px" height="560px" viewBox="0 0 960 560" enable-background="new 0 0 960 560" xml:space="preserve">
<g>
	<path fill-rule="evenodd" clip-rule="evenodd" fill="#DFB28B" d="M697.746,165.839c33.86,14.983,43.027,54.405,19.036,81.861
		c-13.04,14.922-35.341,20.427-54.82,13.531c-19.206-6.799-32.909-25.074-33.583-44.787c-0.961-28.191,16.855-49.473,44.937-53.695
		c1.147-0.172,2.271-0.508,3.404-0.77c4.501,1.457,9.035,2.824,13.493,4.408C692.875,167.333,695.327,167.311,697.746,165.839z
		 M679.204,201.098c-0.528,0.077-1.057,0.153-1.585,0.23c-0.623,4.996,0.848,9.834,1.452,14.725c0.304,2.454,0.628,3.925-2.734,4.22
		c-4.088,0.357-5.478,3.373-4.853,7.241c0.714,4.422,8.776,8.973,12.681,7.203c0.39-0.176,0.855-0.626,0.91-1.003
		c0.112-0.771-0.503-1.155-1.202-1.254c-1.645-0.236-3.356-0.223-4.936-0.679c-3.077-0.889-5.774-2.664-5.291-6.236
		c0.533-3.944,3.751-2.897,6.329-2.44c1.226,0.217,2.532,0.686,2.265-1.262C681.293,214.92,680.226,208.012,679.204,201.098z
		 M662.215,204.897c1.472-0.497,4.736,1.042,4.764-1.233c0.027-2.373-3.208-0.908-4.967-1.315c-0.47-0.109-0.997-0.079-1.48-0.004
		c-1.354,0.211-3.678-0.671-3.713,1.244c-0.037,2.033,2.3,1.054,3.624,1.295C660.923,204.971,661.432,204.897,662.215,204.897z
		 M696.013,204.999c1.729-0.629,4.991,0.987,4.985-1.407c-0.005-2.224-3.281-1.187-5.068-1.167c-1.756,0.02-4.996-1.127-4.971,1.234
		C690.983,205.947,694.248,204.396,696.013,204.999z"/>
	<path fill-rule="evenodd" clip-rule="evenodd" fill="#14B900" d="M274.594,212.003c-2.934,0.199-5.687-1.327-8.243-3.277
		c-9.27-7.074-18.568-14.114-27.752-21.296c-6.839-5.348-8.159-13.081-3.528-19.278c4.609-6.169,12.376-6.928,19.498-1.734
		c5.113,3.728,10.228,7.48,15.056,11.56c2.634,2.225,3.834,1.682,5.759-0.858c13.983-18.453,28.152-36.765,42.201-55.168
		c3.712-4.864,8.514-7.104,14.414-5.646c5.442,1.346,8.793,5.146,9.838,10.791c0.755,4.08-0.652,7.59-3.039,10.713
		c-17.496,22.898-35.028,45.769-52.582,68.623C283.426,210.064,279.758,212.13,274.594,212.003z"/>
	<path fill-rule="evenodd" clip-rule="evenodd" fill="#44425A" d="M270.952,32.138c-2.219,1.332-4.213,0.84-6.064,0.841
		c-53.646,0.031-107.293,0.073-160.939-0.07c-4.179-0.011-5.521,0.696-5.511,5.297c0.169,83.802,0.159,167.604,0.021,251.405
		c-0.007,4.299,0.88,5.454,5.358,5.448c110.625-0.146,221.25-0.15,331.875,0.007c4.807,0.007,5.56-1.536,5.544-5.825
		c-0.15-40.151-0.101-80.302-0.049-120.454c0.002-1.863-0.783-3.965,0.897-5.651c1.852,1.238,1.127,3.073,1.129,4.615
		c0.041,41.485-0.007,82.969,0.103,124.454c0.009,3.571-0.738,4.858-4.647,4.854c-112.624-0.109-225.248-0.106-337.872-0.009
		c-3.658,0.004-4.33-1.221-4.326-4.56c0.083-85.634,0.08-171.268,0.012-256.903c-0.002-3.15,0.33-4.707,4.18-4.698
		c55.479,0.128,110.958,0.086,166.437,0.103C268.211,30.993,269.432,30.649,270.952,32.138z"/>
	<path fill-rule="evenodd" clip-rule="evenodd" fill="#3E3D4F" d="M697.746,165.839c-2.419,1.472-4.871,1.494-7.533,0.548
		c-4.458-1.584-8.992-2.951-13.493-4.408c-4.547-5.389-3.6-8.68,3.32-10.386c2.704-0.667,2.448-2.928,3.14-4.507
		c12.212-27.837,46.883-35.791,69.639-15.888c13.678,11.963,18.384,31.544,11.868,49.273c-2.767,7.526-6.897,14.366-10.631,21.409
		c-15.349,28.961-21.22,59.646-16.541,92.186c0.517,3.592,1.579,7.142,2.718,10.603c4.857,14.763,14.771,23.181,30.561,24.536
		c11.418,0.979,22.666,0.574,33.536-3.208c12.637-4.396,22.093-12.114,25.146-25.916c0.256-1.156,0.39-2.6,1.938-2.348
		c2.06,0.336,1.251,2.114,1.027,3.242c-1.88,9.501-7.32,16.646-15.165,22.016c-13.353,9.14-28.528,10.718-44.018,9.504
		c-22.844-1.791-35.063-13.491-38.716-37.027c-5.148-33.17,0.867-64.539,16.319-94.216c4.972-9.549,10.907-18.625,12.998-29.512
		c3.931-20.461-8.661-41.034-28.937-46.79c-20.391-5.788-42.036,4.901-49.227,24.427c-0.41,1.114-2.566,3.24,0.51,3.832
		c2.325,0.448,4.73,3.741,7.206-0.348c4.406-7.275,11.058-11.33,19.572-12.209c0.662-0.068,1.326-0.195,1.987-0.178
		c1.302,0.034,3.03-0.172,3.004,1.701c-0.021,1.479-1.554,1.422-2.708,1.454c-3.36,0.092-6.597,0.665-9.664,2.142
		c-3.371,1.622-6.152,3.898-8.431,6.862c-1.437,1.868-2.43,3.175,0.283,5.168C700.407,159.967,699.531,163.074,697.746,165.839z"/>
	<path fill-rule="evenodd" clip-rule="evenodd" fill="#DFB28B" d="M717.187,437.077c-3.978-0.148-7.969-0.15-11.931-0.482
		c-5.539-0.465-7.764-2.852-7.635-8.339c0.221-9.448,0.703-18.89,0.955-28.338c0.065-2.428,0.782-3.683,3.431-3.652
		c7.133,0.084,14.269,0.082,21.401-0.005c2.358-0.029,3.248,0.826,3.138,3.214c-0.16,3.475-0.046,6.96-0.049,10.442
		c-0.34,6.142-0.75,12.281-1,18.427C725.24,434.65,723.678,436.371,717.187,437.077z"/>
	<path fill-rule="evenodd" clip-rule="evenodd" fill="#DFB28B" d="M565.665,345.862c5.026,7.787,9.722,15.764,13.9,24.041
		c-5.834,3.188-11.639,6.433-17.508,9.554c-5.59,2.971-8.456,2.136-11.48-3.236c-1.792-3.187-3.523-6.409-5.214-9.651
		c-3.061-5.871-2.269-8.42,3.646-11.673C554.543,351.853,560.111,348.871,565.665,345.862z"/>
	<path fill-rule="evenodd" clip-rule="evenodd" fill="#333333" d="M684.416,499.802c9.248-0.007,18.496-0.015,27.743-0.021
		c0.018,6.906,0.044,13.813,0.051,20.718c0.003,3.114-0.686,5.889-3.833,7.375c-6.656,0.033-13.313,0.066-19.969,0.1
		c-3.103-1.195-4.021-3.639-4.001-6.736C684.453,514.092,684.418,506.946,684.416,499.802z"/>
	<path fill-rule="evenodd" clip-rule="evenodd" fill="#3F3D56" d="M708.265,528.828c50.49,0.033,100.979,0.06,151.47,0.125
		c1.842,0.002,3.833-0.495,5.466,1.448c-127.39,0-254.778,0-382.462,0c1.343-2.532,3.592-1.409,5.236-1.411
		c51.491-0.076,102.981-0.062,154.474-0.069c1.996-0.001,3.993-0.098,5.99-0.149c6.349,0.008,12.697,0.016,19.046,0.022
		c7.014,0.005,14.028,0.01,21.043,0.015C695.106,528.815,701.686,528.821,708.265,528.828z"/>
	<path fill-rule="evenodd" clip-rule="evenodd" fill="#333333" d="M644.271,499.877c9.126-0.039,18.253-0.078,27.378-0.116
		c0.002,7.064-0.02,14.127,0.021,21.19c0.019,3.188-0.684,5.886-4.092,7.051c-6.414,0.01-12.829,0.02-19.244,0.029
		c-3.531-1.058-4.102-3.835-4.091-6.983C644.267,513.991,644.263,506.935,644.271,499.877z"/>
	<path fill-rule="evenodd" clip-rule="evenodd" fill="#9690FE" d="M708.265,528.828c-6.579-0.007-13.158-0.013-19.739-0.019
		c0.022-0.288-0.016-0.567-0.117-0.837c6.656-0.033,13.313-0.066,19.969-0.1C708.274,528.183,708.237,528.502,708.265,528.828z"/>
	<path fill-rule="evenodd" clip-rule="evenodd" fill="#9690FE" d="M648.334,528.031c6.415-0.01,12.83-0.02,19.244-0.029
		c-0.081,0.258-0.112,0.522-0.094,0.792c-6.349-0.007-12.697-0.015-19.046-0.022C648.439,528.52,648.404,528.273,648.334,528.031z"
		/>
	<path fill-rule="evenodd" clip-rule="evenodd" fill="#F0F0F5" d="M667.484,528.794c-0.019-0.27,0.013-0.534,0.094-0.792
		c3.408-1.165,4.11-3.862,4.092-7.051c-0.041-7.063-0.02-14.126-0.021-21.19c3.979-1.178,4.525-4.173,4.515-7.806
		c-0.078-25.462-0.041-50.923-0.041-76.385c0-1.165-0.012-2.33,0.01-3.495c0.018-0.991-0.034-2.054,1.408-2.108
		c1.336-0.05,1.667,0.777,1.668,1.899c0.002,1.165,0.014,2.33,0.014,3.495c0.001,25.629,0.063,51.256-0.063,76.884
		c-0.021,4.043,0.896,6.847,5.258,7.557c0.002,7.145,0.037,14.29-0.009,21.435c-0.021,3.098,0.898,5.541,4.001,6.736
		c0.102,0.27,0.14,0.549,0.117,0.837C681.513,528.804,674.498,528.799,667.484,528.794z"/>
	<path fill-rule="evenodd" clip-rule="evenodd" fill="#38365E" d="M679.204,201.098c1.021,6.914,2.089,13.822,3.036,20.746
		c0.268,1.947-1.039,1.479-2.265,1.262c-2.578-0.457-5.796-1.504-6.329,2.44c-0.483,3.572,2.214,5.347,5.291,6.236
		c1.579,0.456,3.291,0.442,4.936,0.679c0.699,0.1,1.314,0.483,1.202,1.254c-0.055,0.377-0.521,0.827-0.91,1.003
		c-3.904,1.77-11.967-2.781-12.681-7.203c-0.625-3.869,0.765-6.884,4.853-7.241c3.362-0.295,3.038-1.767,2.734-4.22
		c-0.604-4.89-2.075-9.729-1.452-14.725C678.147,201.251,678.676,201.175,679.204,201.098z"/>
	<path fill-rule="evenodd" clip-rule="evenodd" fill="#393761" d="M662.215,204.897c-0.783,0-1.292,0.073-1.772-0.014
		c-1.324-0.241-3.661,0.738-3.624-1.295c0.035-1.915,2.358-1.033,3.713-1.244c0.483-0.075,1.011-0.105,1.48,0.004
		c1.759,0.407,4.994-1.057,4.967,1.315C666.951,205.94,663.687,204.4,662.215,204.897z"/>
	<path fill-rule="evenodd" clip-rule="evenodd" fill="#393761" d="M696.013,204.999c-1.765-0.603-5.029,0.948-5.054-1.34
		c-0.025-2.362,3.215-1.215,4.971-1.234c1.787-0.02,5.063-1.057,5.068,1.167C701.004,205.986,697.742,204.37,696.013,204.999z"/>
	<line fill="none" stroke="#000000" stroke-width="2.4987" x1="131.108" y1="96.1" x2="287.191" y2="96.1"/>
	<line fill="none" stroke="#000000" stroke-width="2.4987" x1="131.108" y1="136.1" x2="287.191" y2="136.1"/>
	<line fill="none" stroke="#000000" stroke-width="2.4987" x1="131.108" y1="353.509" x2="287.191" y2="353.509"/>
	<line fill="none" stroke="#000000" stroke-width="2.4987" x1="131.108" y1="393.509" x2="287.191" y2="393.509"/>
	<line fill="none" stroke="#000000" stroke-width="2.4987" x1="131.108" y1="433.509" x2="287.191" y2="433.509"/>
	<line fill="none" stroke="#000000" stroke-width="2.4987" x1="131.108" y1="473.509" x2="287.191" y2="473.509"/>
	<path fill-rule="evenodd" clip-rule="evenodd" fill="#309842" d="M734.134,312.693c-0.059-10.501-5.536-17.49-15.595-20.609
		c-1.473-0.457-2.759-1.076-3.978-1.943c-5.426-3.861-11.42-6.071-18.121-6.156c-1.545-0.02-2.359-0.313-3.311-1.984
		c-4.576-8.044-22.079-8.218-26.894-0.327c-0.989,1.62-1.767,2.31-3.682,2.353c-9.527,0.213-17.298,4.316-23.561,11.321
		c-1.709,1.911-3.691,3.3-5.857,4.551c-21.297,12.294-42.548,24.67-63.912,36.846c-3.957,2.255-6.002,4.655-3.56,9.119
		c5.026,7.787,9.722,15.764,13.9,24.041c3.951,5.269,4.76,5.454,10.593,2.13c6.213-3.54,12.39-7.147,18.592-10.707
		c6.424-3.688,12.86-7.354,19.8-11.32c0,2.456,0,4.109,0,5.763c0,15.997,0.039,31.995-0.029,47.993
		c-0.017,3.685,0.912,6.562,5.193,6.104c0.809-0.086,1.47-0.083,2.02,0h62.512c0.124-3.315,0.242-6.632,0.331-9.948
		c0.065-2.428,0.782-3.683,3.431-3.652c7.133,0.084,14.269,0.082,21.401-0.005c2.358-0.029,3.248,0.826,3.138,3.214
		c-0.159,3.458-0.047,6.926-0.049,10.392h0.734c1.458-0.215,2.808-1.138,2.762-2.192c-0.273-6.309,3.758-11.846,3.904-17.573
		C734.558,364.313,734.28,338.498,734.134,312.693z"/>
	<path fill-rule="evenodd" clip-rule="evenodd" fill="#302F42" d="M717.187,437.077c-3.978-0.148-7.969-0.15-11.931-0.482
		c-5.539-0.465-7.764-2.852-7.635-8.339c0.143-6.099,0.392-12.194,0.62-18.291h-62.037c1.752,0.487,2.045,2.073,2.03,4.662
		c-0.144,25.829,0.018,51.659-0.164,77.488c-0.033,4.703,1.444,7.315,6.2,7.762c9.126-0.039,18.253-0.078,27.379-0.117
		c3.978-1.177,4.524-4.172,4.514-7.805c-0.078-25.462-0.041-50.923-0.041-76.385c0-1.165-0.012-2.33,0.01-3.495
		c0.018-0.991-0.034-2.054,1.408-2.108c1.336-0.05,1.667,0.777,1.668,1.899c0.002,1.165,0.014,2.33,0.014,3.495
		c0.001,25.629,0.063,51.256-0.063,76.884c-0.021,4.043,0.896,6.847,5.258,7.557c9.248-0.007,18.496-0.015,27.743-0.021
		c3.949-0.87,5.105-3.452,5.081-7.308C717.124,474.008,717.188,455.543,717.187,437.077z"/>
	<g>
		<path fill="none" stroke="#44425A" stroke-width="3" stroke-miterlimit="10" d="M443.35,503.896c0,5.5-4.5,10-10,10H106.469
			c-5.5,0-10-4.5-10-10V329.478c0-5.5,4.5-10,10-10H433.35c5.5,0,10,4.5,10,10V503.896z"/>
	</g>
</g>
</svg>
