<?xml version="1.0" encoding="utf-8"?>
<!-- Generator: Adobe Illustrator 16.0.0, SVG Export Plug-In . SVG Version: 6.00 Build 0)  -->
<!DOCTYPE svg PUBLIC "-//W3C//DTD SVG 1.1//EN" "http://www.w3.org/Graphics/SVG/1.1/DTD/svg11.dtd">
<svg version="1.1" id="Layer_5" xmlns="http://www.w3.org/2000/svg" xmlns:xlink="http://www.w3.org/1999/xlink" x="0px" y="0px"
	 width="512px" height="512px" viewBox="0 0 512 512" enable-background="new 0 0 512 512" xml:space="preserve">
<path fill="#00ACED" d="M31.998,368.043C30.74,367.902,33.251,368.043,31.998,368.043L31.998,368.043z"/>
<path fill="#00ACED" d="M63.998,56.059C63.173,56.059,64.826,55.984,63.998,56.059L63.998,56.059z"/>
<g>
	<path fill="#FFFFFF" d="M377.074,228.751c0,35.685-11.403,64.237-34.207,85.658c-22.805,21.423-53.054,32.134-90.747,32.134
		l-2.261,57.481H146.014l-5.465-140.407c-1.635-36.186-4.211-85.876-7.728-149.077c19.601-3.893,48.31-5.842,86.129-5.842
		c46.108,0,83.049,9.235,110.817,27.704C361.304,157.387,377.074,188.169,377.074,228.751z M298.86,260.412
		c0-19.6-11.624-29.4-34.866-29.4c-2.767,0-5.593,0.189-8.481,0.566l-1.885,65.963C283.782,296.537,298.86,284.16,298.86,260.412z"
		/>
</g>
</svg>
