<?xml version="1.0" encoding="utf-8"?>
<!-- Generator: Adobe Illustrator 16.0.0, SVG Export Plug-In . SVG Version: 6.00 Build 0)  -->
<!DOCTYPE svg PUBLIC "-//W3C//DTD SVG 1.1//EN" "http://www.w3.org/Graphics/SVG/1.1/DTD/svg11.dtd">
<svg version="1.1" id="Layer_1" xmlns="http://www.w3.org/2000/svg" xmlns:xlink="http://www.w3.org/1999/xlink" x="0px" y="0px"
	 width="1080px" height="1080px" viewBox="0 0 1080 1080" enable-background="new 0 0 1080 1080" xml:space="preserve">
<g>
	<path fill-rule="evenodd" clip-rule="evenodd" fill="#2F2E41" d="M713.76,632.665c15.343,2.917,29.457,9.628,44.168,14.481
		c23.32,7.695,46.345,16.287,69.501,24.477c47.188,16.688,94.377,33.373,141.589,49.994c2.046,0.719,3.986,1.258,4.86,3.471
		c-6.322,17.453-15.054,33.769-24.571,49.584c-70.932,117.859-173.242,192.787-307.395,223.907
		c-47.687,11.063-96.055,13.979-144.614,9.232c-103.96-10.161-195.169-50.017-272.956-120.036c-1.188-1.071-2.201-2.337-3.296-3.509
		c8.218-13.019,18.751-23.812,31.281-32.72c1.455-1.035,2.53-2.601,3.782-3.919c8.421-5.412,16.761-10.928,23.766-18.188
		c9.821-6.793,20.436-12.589,27.93-22.293c2.859-0.515,5.493-1.402,6.963-4.214c13.986-8.598,26.27-19.507,39.419-29.236
		c21.313-15.771,42.058-32.307,63.108-48.437c1.695-1.298,3.575-2.187,3.575-4.667c3.362,0.306,5.525-1.368,6.975-4.222
		c10.065-5.71,18.509-13.651,27.916-20.271c9.406-6.619,17.6-14.917,27.954-20.231c14.405,19.844,30.524,38.003,51.114,51.725
		c52.848,35.221,120.314,22.352,156.849-29.822C705.388,678.193,711.751,656.181,713.76,632.665z"/>
	<path fill-rule="evenodd" clip-rule="evenodd" fill="#CEA28B" d="M713.76,632.665c-2.009,23.516-8.372,45.528-22.082,65.106
		c-36.535,52.174-104.001,65.043-156.849,29.822c-20.589-13.722-36.709-31.881-51.114-51.724c-2.727-13.415-5.617-26.8-8.077-40.263
		c-0.709-3.885-2.186-5.956-5.971-7.461c-10.146-4.032-19.716-9.271-28.987-15.085c-19.142-12-34.686-27.846-48.941-45.115
		c-6.376-10.387-13.433-20.381-18.313-31.632c19.146-13.837,32.593-2.214,46.022,11.341c3.806-34.289,7.506-67.531,11.185-100.774
		c2.477-22.396,4.848-44.807,7.487-67.183c0.304-2.575-0.932-6.563,4.966-6.023c19.201,1.757,38.451,3.176,57.714,4.031
		c47.023,2.09,93.83,0.934,140.015-9.781c34.392-7.981,61.93,5.795,75.729,37.194c3.956,17.221,7.398,34.477,7.332,52.302
		c-0.151,41.109-12.309,78.188-36.896,111.099c-2.703,3.614-3.191,6.229-1.326,10.478
		C693.793,597.548,704.076,614.943,713.76,632.665z"/>
	<path fill-rule="evenodd" clip-rule="evenodd" fill="#2F2E41" d="M716.542,405.119c-13.799-31.399-41.337-45.175-75.729-37.194
		c-46.185,10.715-92.991,11.872-140.015,9.781c-19.263-0.854-38.513-2.274-57.714-4.031c-5.898-0.541-4.663,3.448-4.966,6.023
		c-2.639,22.376-5.01,44.787-7.487,67.183c-3.679,33.244-7.378,66.486-11.185,100.774c-13.429-13.556-26.875-25.179-46.022-11.341
		c-0.946,0.465-1.892,0.933-2.837,1.399c-8.618-0.705-10.717-8.271-13.59-14.089c-7.365-14.913-11.283-31.029-14.332-47.335
		c-1.386-8.375-2.773-16.752-4.158-25.128c-0.459-14.831-2.338-29.633-1.369-44.487c1.557-23.884,4.75-47.361,16.104-69.059
		c4.214-8.055,9.5-15.542,16.782-20.122c12.463-7.836,17.08-20.938,24.681-32.018c20.727-30.209,45.749-55.533,80.41-69.258
		c26.766-10.598,54.196-10.02,81.666-2.048c35.016,10.162,69.707,21.17,102.042,38.415c22.668,12.091,43.494,26.423,59.552,47.056
		c10.11,12.993,13.075,27.975,13.646,43.582c0.621,16.959,0.506,33.97,0.016,50.939c-0.366,12.693-1.825,25.355-2.858,38.027
		c-0.041,0.515-0.697,0.982-1.365,1.869C723.942,424.111,723.161,413.445,716.542,405.119z"/>
	<path fill-rule="evenodd" clip-rule="evenodd" fill="#212F49" d="M370.588,537.713c0.946-0.466,1.891-0.934,2.837-1.399
		c4.88,11.251,11.937,21.246,18.312,31.634c0.184,1.588,0.105,3.262,0.59,4.754c11.082,34.068,20.141,68.686,27.946,103.631
		c2.96,13.252,6.32,26.451,7.571,40.038c-1.449,2.854-3.613,4.527-6.975,4.222c-3.722-16.882-7.386-33.773-11.177-50.639
		c-8.833-39.31-19.875-77.979-33.628-115.867C374.102,548.682,371.365,543.521,370.588,537.713z"/>
	<path fill-rule="evenodd" clip-rule="evenodd" fill="#FBFBFB" d="M1005.305,454.351
		c-20.061-110.595-72.793-203.453-158.818-275.771C733.232,83.375,602.341,49.264,456.643,73.494
		c-64.264,10.687-123.881,34.691-177.464,71.833C146.97,236.969,76.46,363.531,69.432,524.329
		c-3.142,71.896,11.582,140.921,41.167,206.616c26.389,58.594,63.002,109.871,110.447,153.321
		c8.218-13.019,18.752-23.812,31.281-32.72c1.455-1.035,2.53-2.601,3.782-3.919c8.421-5.412,16.761-10.928,23.766-18.188
		c9.821-6.793,20.436-12.589,27.93-22.293c2.859-0.515,5.493-1.402,6.963-4.214c13.986-8.598,26.27-19.507,39.419-29.236
		c18.079-13.378,35.75-27.304,53.544-41.067l30.777-23.354c0.332-0.247,0.66-0.501,0.99-0.751l1.277-0.969l-0.001-0.004
		c4.987-3.828,9.846-7.833,14.987-11.45c9.406-6.619,17.6-14.917,27.954-20.23c-2.727-13.415-5.617-26.8-8.077-40.263
		c-0.709-3.885-2.186-5.956-5.971-7.461c-10.146-4.032-19.716-9.271-28.987-15.085c-17.137-10.743-31.387-24.574-44.415-39.743
		c-0.219-0.328-15.753-23.583-25.344-33.714c-0.129-0.624-0.247-1.252-0.333-1.891c-8.618-0.705-10.717-8.271-13.59-14.089
		c-7.365-14.913-11.283-31.029-14.332-47.335c-1.386-8.375-2.773-16.752-4.158-25.128c-0.459-14.831-2.338-29.633-1.369-44.487
		c1.557-23.884,4.75-47.361,16.104-69.059c4.214-8.055,9.5-15.542,16.782-20.122c12.463-7.836,17.08-20.938,24.681-32.018
		c20.727-30.209,45.749-55.533,80.41-69.258c26.766-10.598,54.196-10.02,81.666-2.048c35.016,10.162,69.707,21.17,102.042,38.415
		c22.668,12.091,43.494,26.423,59.552,47.056c10.11,12.993,13.075,27.975,13.646,43.582c0.621,16.959,0.506,33.97,0.016,50.939
		c-0.366,12.693-1.825,25.355-2.858,38.027c-0.041,0.515-0.697,0.982-1.365,1.869c-3.87-9.945-4.651-20.61-11.271-28.937
		c3.956,17.221,7.398,34.477,7.332,52.302c-0.151,41.109-12.309,78.188-36.896,111.099c-2.703,3.614-3.191,6.229-1.326,10.478
		c8.141,18.551,18.424,35.946,28.107,53.668c15.343,2.917,29.457,9.628,44.168,14.481c23.32,7.695,46.345,16.287,69.501,24.477
		c47.188,16.688,94.377,33.373,141.589,49.994c2.046,0.719,3.986,1.258,4.86,3.471c1.112-2.499,2.291-4.969,3.325-7.499
		C1011.897,632.548,1021.673,544.609,1005.305,454.351z"/>
</g>
</svg>
