<?xml version="1.0" encoding="utf-8"?>
<!-- Generator: Adobe Illustrator 16.0.0, SVG Export Plug-In . SVG Version: 6.00 Build 0)  -->
<!DOCTYPE svg PUBLIC "-//W3C//DTD SVG 1.1//EN" "http://www.w3.org/Graphics/SVG/1.1/DTD/svg11.dtd">
<svg version="1.1" id="Layer_1" xmlns="http://www.w3.org/2000/svg" xmlns:xlink="http://www.w3.org/1999/xlink" x="0px" y="0px"
	 width="1080px" height="1080px" viewBox="0 0 1080 1080" enable-background="new 0 0 1080 1080" xml:space="preserve">
<g>
	<path fill-rule="evenodd" clip-rule="evenodd" fill="#F4F4F4" d="M102.134,756.294c-9.102-14.289-14.462-30.303-20.61-45.886
		C69.34,679.53,61.281,647.38,56.005,614.696c-5.287-32.747-7.491-65.901-5.764-99.066c2.063-39.598,7.938-78.641,19.297-116.815
		c8.69-29.202,19.845-57.397,33.635-84.447c17.21-33.758,37.946-65.278,62.833-94.042c10.874-12.565,21.988-24.841,33.852-36.454
		c28.161-27.569,59.692-50.705,93.404-70.956c28.563-17.158,58.927-30.582,90.375-41.258c27.131-9.21,54.946-16.106,83.444-20.139
		c27.777-3.93,55.614-6.134,83.654-5.489c32.424,0.746,64.529,4.311,96.23,11.286c38.716,8.518,75.882,21.552,111.367,39.131
		c35.897,17.784,68.935,39.912,99.583,65.843c35.567,30.094,66.139,64.405,91.854,103.186
		c31.935,48.161,55.24,100.123,68.702,156.342c5.146,21.485,8.56,43.275,10.824,65.332c2.471,24.026,3.539,48.083,2.3,72.07
		c-2.077,40.295-8.453,80.01-20.267,118.752c-7.297,23.93-16.431,47.116-26.696,69.887c-1.324,2.939-2.291,6.166-4.84,8.44
		c-5.234-4.36-7.872-4.124-10.634,1.712c-7.381,15.597-18.3,29.024-26.627,43.979c-4.425,7.949-11.089,13.665-16.423,20.642
		c-10.45,13.669-21.198,27.122-33.17,39.542c-20.087,20.842-41.376,40.362-64.786,57.394c-7.027,5.111-13.377,11.604-22.218,13.94
		c-0.188-0.674-0.407-1.34-0.558-2.021c-6.175-28.175-16.74-54.159-38.639-74.014c-16.088-14.586-34.411-23.287-57.071-22.728
		c-32.775,0.811-65.585,0.188-98.379,0.177c-0.116-20.136-0.231-40.273-0.347-60.409c0.062-1.375,0.125-2.747,0.188-4.122
		c3.988-1.866,7.952-3.789,11.97-5.591c42.025-18.858,74.55-48.259,98.22-87.741c8.947-14.92,14.375-31.357,21.613-47.007
		c4.642-7.466,8.214-15.412,10.726-23.834c9.629-5.007,12.909-14.016,15.173-23.764c2.599-11.184,0.959-22.122-1.503-33.049
		c2.983-19.87,2.315-39.751-0.663-59.506c-7.989-52.993-31.566-97.977-70.34-134.981c-1.851-1.765-3.634-3.226-3.301-6.421
		c2.349-22.376-9.013-37.415-26.833-48.646c-10.601-6.681-22.452-10.009-36.019-11.23c7.532-9.899,12.901-19.959,14.465-31.446
		c1.579-11.605,1.139-23.122-4.329-34.396c-23.781,28.395-56.23,28.838-89.646,30.257c14.666-13.368,17.881-26.206,10.006-38.131
		c-8.021,9.618-16.89,18.168-27.053,25.4c-18.211,12.961-38.392,22.295-58.275,32.194c-23.959,11.928-48.859,23.457-65.25,45.184
		c-14.45,19.154-31.003,36.029-47.291,53.346c-4.796,5.1-9.101,10.719-13.202,16.411c-34.913,48.456-48.4,102.654-43.067,161.841
		c-1.112,8.501-2.866,17.018-1.793,25.603c1.527,12.231,2.897,24.743,15.916,31.198c2.876,8.148,5.895,16.233,10.698,23.506
		c1.934,4.61,3.968,9.182,5.787,13.836c18.497,47.339,48.852,84.586,92.974,110.441c10.5,6.155,21.966,10.247,32.343,16.537
		c0.018,0.913,0.038,1.825,0.059,2.736c-0.104,20.596-0.208,41.188-0.312,61.78c-35.853,0.012-71.707,0.021-107.56,0.043
		c-3.741,0.004-7.43,0.059-11.139,1.05c-29.057,7.781-48.755,26.655-62.695,52.471c-6.49,12.021-10.273,25.038-14.218,38.003
		c-1.479-0.049-2.583-0.8-3.732-1.688c-12.693-9.825-25.247-19.787-37.552-30.133c-21.89-18.399-41.54-38.839-59.096-61.223
		c-9.6-12.241-21.012-23.048-28.797-36.768c-7.575-13.347-15.718-26.373-23.641-39.522
		C110.11,751.065,106.872,750.852,102.134,756.294z"/>
	<path fill-rule="evenodd" clip-rule="evenodd" fill="#EDEDED" d="M805.937,933.506c8.841-2.336,15.19-8.829,22.218-13.94
		c23.41-17.031,44.699-36.552,64.786-57.394c11.972-12.42,22.72-25.873,33.17-39.542c5.334-6.977,11.998-12.692,16.423-20.642
		c8.327-14.955,19.246-28.383,26.627-43.979c2.762-5.836,5.399-6.072,10.634-1.712c-12.77,26.849-28.714,51.737-46.614,75.418
		c-15.223,20.138-31.831,39.107-49.855,56.727c-17.341,16.951-36.114,32.261-55.619,46.765
		c-22.418,16.668-46.361,30.655-71.237,43.083c-38.205,19.088-78.53,32.373-120.347,40.644c-20.26,4.008-40.856,6.266-61.575,7.756
		c-19.204,1.381-38.405,1.747-57.47,0.77c-38.887-1.99-77.201-8.227-114.692-19.299c-26.297-7.766-51.738-17.685-76.278-29.691
		c-23.689-11.589-46.417-25.006-68.021-40.264c-27.378-19.333-52.532-41.224-75.433-65.634
		c-24.165-25.754-45.35-53.816-63.203-84.351c-6.116-10.461-12.456-20.788-17.315-31.926c4.737-5.442,7.976-5.229,11.64,0.854
		c7.923,13.149,16.066,26.176,23.641,39.522c7.786,13.72,19.198,24.526,28.797,36.768c17.556,22.384,37.206,42.823,59.096,61.223
		c12.305,10.346,24.859,20.308,37.552,30.133c1.149,0.889,2.253,1.64,3.732,1.688c-0.379,3.311,2.327,4.239,4.381,5.664
		c13.09,9.073,26.648,17.402,40.619,25.038c60.833,33.245,125.885,52.423,194.958,57.711c44.152,3.381,88.005,0.536,131.416-8.279
		c59.099-12.001,114.01-34.343,164.707-67.039C805.076,938.027,806.728,936.548,805.937,933.506z"/>
	<path fill-rule="evenodd" clip-rule="evenodd" fill="#FCB696" d="M462.457,770.399c-10.378-6.29-21.844-10.382-32.344-16.537
		c-44.122-25.855-74.478-63.103-92.974-110.441c-1.818-4.654-3.853-9.226-5.787-13.836c0.709-5.439-1.894-10.417-2.272-15.622
		c-0.419-5.779-2.805-8.25-8.425-7.884c-13.019-6.455-14.389-18.967-15.916-31.198c-1.073-8.585,0.681-17.102,1.792-25.605
		c0.896-1.339,1.9-2.618,2.671-4.025c3.567-6.509,7.298-12.785,16.07-12.644c2.273,0.036,2.584-1.627,2.937-3.228
		c0.654-2.968,1.142-5.975,1.854-8.928c9.452-39.199,28.551-73,56.969-101.554c1.804-1.813,3.221-4.736,6.767-1.677
		c10.09,8.703,22.374,12.326,35.243,14.459c3.896,0.645,7.502,1.776,10.858,4.368c51.144,39.5,109.458,51.849,172.708,45.2
		c33.948-3.57,66.649-12.245,98.423-24.498c4.546-1.753,6.567-0.621,8.863,3.304c10.826,18.503,19.175,37.977,24.114,58.868
		c1.617,6.835,1.334,14.723,11.713,15.347c3.318,0.199,5.525,4.108,7.337,7.158c1.537,2.592,2.856,5.315,4.271,7.979
		c2.462,10.927,4.102,21.865,1.503,33.049c-2.264,9.748-5.544,18.757-15.173,23.762c-2.246,0.898-6.24-1.142-6.771,1.798
		c-1.323,7.34-4.737,14.335-3.954,22.038c-7.238,15.649-12.666,32.087-21.613,47.007c-23.67,39.482-56.194,68.883-98.22,87.741
		c-4.018,1.802-7.981,3.725-11.97,5.591c-7.857,2.083-15.685,4.282-23.577,6.227c-31.687,7.804-63.382,8.291-95.403,1.384
		C482.114,775.833,472.789,771.166,462.457,770.399z"/>
	<path fill-rule="evenodd" clip-rule="evenodd" fill="#343333" d="M767.329,549.403c-1.415-2.663-2.734-5.387-4.271-7.979
		c-1.812-3.05-4.019-6.959-7.337-7.158c-10.379-0.624-10.096-8.512-11.713-15.347c-4.939-20.891-13.288-40.365-24.114-58.868
		c-2.296-3.925-4.317-5.058-8.863-3.304c-31.773,12.253-64.475,20.928-98.423,24.498c-63.25,6.649-121.564-5.699-172.708-45.2
		c-3.355-2.591-6.962-3.723-10.858-4.368c-12.87-2.133-25.153-5.757-35.243-14.459c-3.546-3.059-4.962-0.136-6.767,1.677
		c-28.418,28.555-47.517,62.355-56.969,101.554c-0.712,2.953-1.2,5.96-1.854,8.928c-0.353,1.601-0.664,3.264-2.937,3.228
		c-8.772-0.141-12.503,6.135-16.07,12.644c-0.771,1.407-1.775,2.687-2.671,4.025c-5.332-59.184,8.156-113.382,43.068-161.838
		c4.102-5.692,8.406-11.312,13.202-16.411c16.287-17.316,32.841-34.192,47.291-53.346c16.391-21.727,41.291-33.255,65.25-45.184
		c19.883-9.899,40.063-19.233,58.275-32.194c10.163-7.232,19.032-15.782,27.053-25.4c7.875,11.925,4.66,24.763-10.006,38.131
		c33.416-1.419,65.865-1.863,89.646-30.257c5.468,11.274,5.908,22.792,4.329,34.396c-1.563,11.487-6.933,21.547-14.465,31.446
		c13.566,1.221,25.418,4.549,36.019,11.23c17.82,11.231,29.182,26.27,26.833,48.646c-0.333,3.195,1.45,4.656,3.301,6.421
		c38.773,37.004,62.351,81.989,70.34,134.981C769.645,509.652,770.313,529.533,767.329,549.403z"/>
	<path fill-rule="evenodd" clip-rule="evenodd" fill="#283A5A" d="M805.937,933.506c0.791,3.042-0.86,4.521-3.265,6.071
		c-50.697,32.696-105.608,55.038-164.707,67.039c-43.41,8.815-87.264,11.66-131.416,8.279
		c-69.073-5.288-134.125-24.466-194.958-57.711c-13.971-7.636-27.528-15.965-40.619-25.038c-2.054-1.425-4.76-2.354-4.381-5.664
		c3.945-12.965,7.728-25.982,14.218-38.003c13.94-25.815,33.638-44.689,62.695-52.471c3.708-0.991,7.397-1.046,11.139-1.05
		c35.853-0.021,71.707-0.031,107.56-0.043c0.414,2.063,0.931,4.112,1.226,6.191c7.799,55.11,72.984,82.117,117.553,48.704
		c18.35-13.759,27.515-32.56,30.308-54.892c32.794,0.011,65.604,0.634,98.379-0.177c22.66-0.56,40.983,8.142,57.071,22.728
		c21.898,19.854,32.464,45.839,38.639,74.014C805.529,932.166,805.748,932.832,805.937,933.506z"/>
	<path fill-rule="evenodd" clip-rule="evenodd" fill="#FCB696" d="M611.29,834.92c-2.793,22.332-11.958,41.133-30.308,54.892
		c-44.569,33.413-109.754,6.406-117.553-48.704c-0.295-2.079-0.812-4.128-1.226-6.191c0.104-20.592,0.208-41.185,0.31-61.78
		c16.393,5.149,32.769,10.128,50.076,11.614c20.007,1.72,39.879,1.767,59.784-1.138c13.145-1.918,25.591-6.602,38.57-9.102
		C611.059,794.646,611.174,814.784,611.29,834.92z"/>
	<path fill-rule="evenodd" clip-rule="evenodd" fill="#E5A689" d="M610.943,774.511c-12.979,2.5-25.426,7.184-38.57,9.102
		c-19.905,2.904-39.777,2.857-59.784,1.138c-17.308-1.486-33.684-6.465-50.076-11.614c-0.019-0.911-0.039-1.823-0.057-2.736
		c10.333,0.767,19.658,5.434,29.694,7.6c32.021,6.907,63.717,6.42,95.403-1.384c7.893-1.944,15.72-4.144,23.577-6.227
		C611.068,771.764,611.005,773.136,610.943,774.511z"/>
	<path fill-rule="evenodd" clip-rule="evenodd" fill="#474341" d="M742.934,630.05c-0.783-7.703,2.631-14.698,3.954-22.038
		c0.531-2.939,4.525-0.899,6.771-1.798C751.147,614.638,747.575,622.584,742.934,630.05z"/>
	<path fill-rule="evenodd" clip-rule="evenodd" fill="#464240" d="M320.654,606.079c5.62-0.366,8.005,2.104,8.425,7.884
		c0.379,5.205,2.981,10.183,2.272,15.622C326.549,622.313,323.53,614.228,320.654,606.079z"/>
</g>
</svg>
