<?xml version="1.0" encoding="utf-8"?>
<!-- Generator: Adobe Illustrator 16.0.0, SVG Export Plug-In . SVG Version: 6.00 Build 0)  -->
<!DOCTYPE svg PUBLIC "-//W3C//DTD SVG 1.1//EN" "http://www.w3.org/Graphics/SVG/1.1/DTD/svg11.dtd">
<svg version="1.1" id="Layer_1" xmlns="http://www.w3.org/2000/svg" xmlns:xlink="http://www.w3.org/1999/xlink" x="0px" y="0px"
	 width="1080px" height="1080px" viewBox="0 0 1080 1080" enable-background="new 0 0 1080 1080" xml:space="preserve">
<g>
	<path fill="#FCD458" d="M904.069,574.71c-0.864,10.114-3.601,19.583-9.498,28.004c-15.715,22.441-44.733,27.977-67.465,12.827
		c-8.856-5.902-15.79-13.713-21.985-22.248c-1.173-5.77-2.416-11.526-3.475-17.317c-0.305-1.672-0.939-2.562-2.568-3.21
		c-4.363-1.733-8.479-3.987-12.468-6.488c-8.233-5.161-14.919-11.977-21.051-19.405c-2.742-4.468-5.777-8.766-7.877-13.605
		c8.235-5.951,14.02-0.952,19.796,4.878c1.637-14.748,3.229-29.046,4.811-43.346c1.065-9.632,2.085-19.272,3.221-28.896
		c0.131-1.108-0.401-2.823,2.136-2.591c8.259,0.756,16.538,1.366,24.824,1.734c20.226,0.899,40.359,0.402,60.224-4.208
		c14.794-3.433,26.639,2.493,32.574,15.999c1.701,7.407,3.182,14.829,3.152,22.496c-0.064,17.683-5.294,33.63-15.869,47.788
		c-1.163,1.554-1.373,2.679-0.57,4.507C895.481,559.605,899.904,567.088,904.069,574.71z"/>
	<path fill="#212F49" d="M756.462,533.868c0.407-0.199,0.813-0.4,1.221-0.601c2.099,4.84,5.135,9.138,7.877,13.606
		c0.078,0.683,0.044,1.403,0.253,2.044c4.767,14.654,8.663,29.544,12.021,44.574c1.273,5.701,2.719,11.379,3.257,17.223
		c-0.624,1.227-1.555,1.947-3,1.815c-1.602-7.262-3.177-14.526-4.808-21.781c-3.8-16.908-8.549-33.541-14.464-49.837
		C757.973,538.587,756.796,536.367,756.462,533.868z"/>
	<path fill="#2F2E41" d="M1013.862,612.971c-20.308-7.148-40.604-14.326-60.901-21.504c-9.96-3.523-19.863-7.218-29.894-10.527
		c-6.328-2.088-12.398-4.975-18.998-6.229c-0.864,10.114-3.601,19.583-9.498,28.004c-15.715,22.441-44.733,27.977-67.465,12.827
		c-8.856-5.902-15.79-13.713-21.985-22.248c-4.453,2.285-7.979,5.855-12.023,8.701c-4.047,2.848-7.679,6.264-12.008,8.72
		c-0.624,1.228-1.554,1.948-3,1.815c0,1.067-0.809,1.449-1.537,2.008c-9.055,6.938-17.978,14.051-27.145,20.835
		c-5.656,4.184-10.94,8.876-16.956,12.574c-0.632,1.21-1.765,1.591-2.995,1.813c-2.849,3.69-6.747,6.067-10.53,8.588
		c-6.31,10.465-13.464,20.361-21.362,29.604c32.571,27.938,70.454,43.923,113.398,48.12c20.887,2.042,41.691,0.787,62.203-3.971
		c57.702-13.386,101.709-45.614,132.218-96.309c4.094-6.802,7.85-13.82,10.569-21.327
		C1015.577,613.512,1014.742,613.279,1013.862,612.971z"/>
	<path fill="#2F2E41" d="M911.924,450.213c-0.245-6.713-1.521-13.157-5.869-18.746c-6.907-8.875-15.864-15.04-25.615-20.24
		c-13.907-7.418-28.83-12.152-43.891-16.523c-11.816-3.429-23.614-3.678-35.127,0.881c-14.908,5.904-25.671,16.796-34.586,29.79
		c-3.27,4.766-5.256,10.401-10.616,13.771c-3.132,1.97-5.405,5.19-7.219,8.655c-4.884,9.333-6.257,19.431-6.927,29.704
		c-0.113,1.74-0.131,3.478-0.1,5.216c4.027,13.983,6.713,28.534,7.911,43.505c0.239,0.529,0.473,1.06,0.73,1.583
		c1.235,2.503,2.139,5.757,5.846,6.06c0.406-0.199,0.813-0.4,1.22-0.601c8.236-5.952,14.02-0.953,19.795,4.878
		c1.638-14.749,3.229-29.047,4.812-43.346c1.065-9.633,2.085-19.272,3.221-28.897c0.13-1.108-0.401-2.824,2.136-2.591
		c8.259,0.755,16.539,1.366,24.824,1.733c20.227,0.899,40.358,0.402,60.225-4.207c14.793-3.433,26.638,2.492,32.572,15.998
		c2.847,3.581,3.184,8.169,4.85,12.447c0.287-0.381,0.568-0.583,0.586-0.804c0.444-5.45,1.072-10.896,1.229-16.356
		C912.142,464.824,912.19,457.508,911.924,450.213z"/>
	<g>
		<path fill="#FBFBFB" d="M799.078,572.767c-4.363-1.733-8.479-3.987-12.468-6.488c-7.371-4.621-13.501-10.57-19.104-17.095
			c-0.094-0.141-6.775-10.143-10.9-14.502c-0.056-0.268-0.106-0.537-0.144-0.813c-3.707-0.303-4.609-3.558-5.845-6.06
			c-0.259-0.523-0.492-1.055-0.731-1.585c0.474,5.91,0.724,11.884,0.724,17.916c0,41.78-11.574,80.855-31.682,114.204
			c3.783-2.52,7.681-4.896,10.529-8.586c1.23-0.222,2.363-0.603,2.995-1.813c6.016-3.698,11.3-8.391,16.956-12.574
			c7.775-5.755,15.377-11.745,23.03-17.665l13.237-10.045c0.144-0.106,0.284-0.216,0.427-0.323l0.549-0.417v-0.001
			c2.145-1.647,4.234-3.369,6.446-4.926c4.045-2.847,7.57-6.416,12.023-8.701c-1.173-5.771-2.416-11.526-3.475-17.318
			C801.342,574.305,800.707,573.414,799.078,572.767z"/>
		<path fill="#FBFBFB" d="M1029.471,498.013c-8.629-47.57-31.311-87.51-68.312-118.616c-48.715-40.95-105.015-55.622-167.683-45.2
			c-27.642,4.597-53.284,14.921-76.332,30.897c-10.856,7.525-20.738,15.603-29.655,24.221
			c25.236,25.813,44.219,57.761,54.485,93.409c-0.031-1.738-0.013-3.477,0.101-5.217c0.67-10.273,2.042-20.371,6.927-29.704
			c1.813-3.465,4.086-6.685,7.219-8.655c5.36-3.371,7.346-9.006,10.615-13.772c8.915-12.994,19.678-23.886,34.587-29.79
			c11.512-4.558,23.312-4.31,35.126-0.88c15.062,4.371,29.983,9.106,43.892,16.523c9.75,5.201,18.708,11.365,25.614,20.24
			c4.349,5.588,5.624,12.033,5.869,18.746c0.268,7.294,0.219,14.612,0.007,21.911c-0.157,5.459-0.784,10.905-1.229,16.356
			c-0.018,0.222-0.3,0.422-0.587,0.804c-1.665-4.277-2.001-8.864-4.848-12.446c1.701,7.407,3.182,14.83,3.152,22.497
			c-0.064,17.683-5.294,33.631-15.869,47.786c-1.163,1.556-1.373,2.68-0.57,4.507c3.502,7.979,7.924,15.462,12.089,23.085
			c6.601,1.255,12.671,4.141,18.999,6.228c10.03,3.311,19.934,7.006,29.894,10.529c20.297,7.178,40.594,14.354,60.901,21.503
			c0.88,0.31,1.714,0.542,2.09,1.493c0.479-1.074,0.986-2.137,1.431-3.225C1032.306,574.659,1036.511,536.835,1029.471,498.013z"/>
	</g>
</g>
<g>
	<path fill="#FCD458" d="M428.469,701.593c7.624-13.181,19.601-21.226,32.835-27.757c7.81-3.854,15.946-6.913,24.354-9.137
		c15.35-4.063,21.221-15.182,22.671-28.313c0.329-2.975,0.91-6,0.217-9.023c-0.076-2.049-0.204-4.097-0.215-6.146
		c-0.013-2.444-1.069-4.022-3.162-5.42c-7.784-5.196-13.753-12.1-18.223-20.313c-1.192-2.191-1.725-5.006-5.039-5.224
		c-0.469-0.029-0.972-0.645-1.332-1.092c-4.14-5.138-5.723-11.035-4.939-17.533c0.184-1.528,0.861-3.513,2.725-3.268
		c2.106,0.275,1.727-0.847,1.733-1.948c0.034-5.717,1.073-11.258,2.819-16.686c0.334-1.039,0.668-1.995,1.64-2.669
		c3.45-2.385,6.862-4.827,10.288-7.247l-0.031-0.061c0.305,3.684-1.407,6.988-2.006,10.504c-0.218,1.277-0.789,2.431,1.006,3.084
		c1.497,0.545,2.628,1.191,4.034-0.532c4.64-5.688,9.488-11.206,14.293-16.756c0.514-0.594,0.789-1.633,2.017-1.479
		c0,7.467,0.053,14.901-0.039,22.333c-0.021,1.718,0.45,2.301,2.206,2.546c10.065,1.411,20.122,1.407,30.125-0.27
		c16.166-2.709,31.063-8.004,41.658-21.592c1.021,0.561,1.327,1.658,1.824,2.576c2.862,5.279,4.801,10.894,5.995,16.777
		c0.141,0.697-0.262,2.193,1.269,1.584c2.514-1.002,3.542,0.604,4.203,2.372c2.306,6.182,1.879,12.282-1.071,18.171
		c-0.613,1.227-1.674,2.744-3.069,2.301c-2.231-0.707-2.099,0.771-2.431,1.948c-3.828,13.615-11.5,24.555-23.152,32.535
		c-2.511,1.718-3.382,3.495-2.777,6.266c0.137,11.323,6.414,18.506,15.875,23.543c1.047,0.846,2.213,1.456,3.529,1.765
		c7.278,3.749,15.207,5.13,23.169,6.438c4.945,0.813,9.899,0.434,14.857,0.464c3.005,0.019,6.009,0.377,9.013,0.581
		c0.935,0.177,1.868,0.352,2.801,0.528c3.866,0.926,7.553,2.386,11.267,3.77c2.933,1.779,5.863,3.561,8.794,5.342
		c1.376,1.72,3.598,2.564,4.705,4.56c-10.301,2.258-20.621,4.428-30.898,6.79c-52.256,12.008-104.504,24.049-156.743,36.127
		c-7.302,1.689-14.696,3.014-21.848,5.323c-5.36-2.101-10.071-5.367-14.88-8.429C435.035,706.7,431.323,704.723,428.469,701.593z"/>
	<path fill="#2F2F41" d="M453.415,717.356c7.152-2.309,14.546-3.634,21.848-5.321c52.239-12.08,104.487-24.121,156.743-36.129
		c10.277-2.361,20.599-4.531,30.899-6.789c4.94-1.198,5.386-0.994,7.898,3.383c2.944,5.129,6.865,9.655,9.329,15.081
		c-0.63,1.872-2.352,2.761-3.708,3.915c-4.486,3.823-8.866,7.8-13.982,10.813c-3.309,0.752-3.309,0.752-13.309,7.213
		c0.09,0.474,0.285,0.928,0.433,1.389c-6.27,4.539-13.215,7.876-20.188,11.115c-19.758,9.179-40.473,14.903-62.167,17.146
		c-39.93,4.127-77.695-3.022-113.339-21.452C453.703,717.631,453.566,717.479,453.415,717.356z"/>
	<path fill="#F4F4F4" d="M590.653,609.199c-1.974,11.471-4.054,22.924-5.354,34.498c-0.075,0.669-0.35,1.314-0.529,1.972
		c-9.461-5.037-15.738-12.22-15.875-23.542C576.854,619.006,584.008,614.531,590.653,609.199z"/>
	<path fill="#CFCCE0" d="M494.842,539.819c0.071-0.061,0.136-0.129,0.215-0.172c0.022-0.013,0.085,0.048,0.13,0.075
		c-0.125,0.014-0.25,0.026-0.375,0.037C494.811,539.758,494.842,539.819,494.842,539.819z"/>
	<path fill="#2F2E41" d="M615.146,484.104c2.634,0.744,5.163,0.36,7.801-0.027c16.421-2.415,27.505-17.987,24.021-34.125
		c-1.672-7.754-5.698-14.146-12.529-18.341c-8.908-5.469-18.298-6.424-27.876-1.738c-6.936,3.394-12.451,8.226-14.796,15.931
		c-0.662,2.172-1.256,4.363-1.879,6.545c-2.085-6.359-2.476-12.712-0.04-18.898c3.965-10.07,11.408-16.23,22.016-18.61
		c-8.158-0.407-15.322,2.044-21.086,7.708c-7.651,7.521-10.359,16.73-8.274,27.299c0.14,0.704,0.961,1.517,0.051,2.097
		c-0.624,0.397-1.279-0.266-1.848-0.606c-3.436-2.055-6.939-3.937-10.603-5.597c-16.49-7.467-33.686-9.73-51.579-7.63
		c-17.186,2.018-32.56,8.416-46.294,18.857c-1.179,0.897-1.988,1.163-2.386-0.652c-0.188-0.854-0.533-1.674-0.824-2.503
		c-3.21-9.163-11.222-15.714-20.342-17.882c14.052,29.096,21.931,61.732,21.931,96.208c0,23.589-3.701,46.311-10.531,67.632
		c0.917,0.979,1.851,1.946,2.817,2.891c8.846,8.655,19.021,15.562,30.586,20.201c4.875,1.954,9.748,3.995,15.066,4.499
		c-0.076-2.049-0.204-4.096-0.215-6.146c-0.013-2.444-1.068-4.023-3.162-5.42c-7.784-5.196-13.753-12.1-18.223-20.313
		c-1.192-2.191-1.726-5.006-5.039-5.224c-0.47-0.03-0.972-0.645-1.332-1.092c-4.14-5.138-5.723-11.035-4.939-17.533
		c0.184-1.528,0.861-3.513,2.725-3.268c2.106,0.275,1.727-0.846,1.733-1.948c0.034-5.717,1.074-11.258,2.819-16.686
		c0.334-1.039,0.668-1.995,1.64-2.669c3.44-2.378,6.843-4.813,10.259-7.227c0.273,3.65-1.414,6.934-2.008,10.423
		c-0.218,1.278-0.789,2.431,1.006,3.085c1.497,0.544,2.628,1.191,4.035-0.533c4.64-5.687,9.487-11.205,14.293-16.756
		c0.514-0.594,0.79-1.633,2.017-1.479c0,7.466,0.053,14.901-0.039,22.333c-0.021,1.717,0.45,2.3,2.206,2.546
		c10.065,1.41,20.122,1.406,30.125-0.271c16.166-2.709,31.063-8.003,41.658-21.591c1.021,0.56,1.328,1.658,1.824,2.575
		c2.862,5.279,4.801,10.895,5.995,16.778c0.141,0.697-0.262,2.192,1.269,1.583c2.514-1.001,3.543,0.605,4.203,2.372
		c2.306,6.183,1.879,12.283-1.071,18.172c-0.613,1.226-1.674,2.744-3.069,2.301c-2.229-0.708-2.099,0.771-2.43,1.947
		c-3.829,13.616-11.501,24.555-23.153,32.535c-2.511,1.718-3.381,3.495-2.777,6.267c7.96-3.121,15.113-7.596,21.759-12.926
		c1.595-0.677,2.167-2.782,4.122-2.951c1.882-1.978,3.766-3.954,5.644-5.936c3.083-3.256,5.951-6.693,8.543-10.345
		c12.668-17.838,18.542-37.782,18.089-59.58c-0.13-6.301-1.396-12.522-2.297-18.761c-0.902-1.444-1.187-3.042-1.183-4.713
		c-3.013-7.174-5.154-14.732-9.457-21.34C613.383,484.449,613.972,483.771,615.146,484.104z M494.93,539.748
		c0.041-0.036,0.08-0.076,0.127-0.102c0.022-0.012,0.085,0.049,0.13,0.075C495.102,539.731,495.016,539.739,494.93,539.748z"/>
	<g>
		<path fill="#FBFBFB" d="M493.482,622.864c-11.565-4.64-21.74-11.546-30.585-20.2c-0.966-0.945-1.9-1.913-2.818-2.892
			c-10.395,32.451-28.061,61.647-51.094,85.663c6.093,5.792,12.562,11.205,19.484,16.157c7.624-13.181,19.601-21.226,32.836-27.757
			c7.81-3.853,15.946-6.913,24.354-9.137c15.351-4.063,21.221-15.181,22.671-28.313c0.329-2.975,0.91-6,0.217-9.022
			C503.229,626.859,498.357,624.818,493.482,622.864z"/>
		<path fill="#FBFBFB" d="M739.491,497.622C714.6,384.167,596.826,317.165,486.342,352.057
			c-25.524,8.061-48.437,20.883-67.952,37.25c11.942,14.139,22.155,29.784,30.289,46.625c9.12,2.167,17.132,8.719,20.343,17.882
			c0.291,0.83,0.636,1.65,0.823,2.503c0.399,1.815,1.207,1.549,2.386,0.653c13.735-10.442,29.109-16.839,46.294-18.857
			c17.893-2.101,35.09,0.163,51.579,7.629c3.665,1.66,7.168,3.542,10.603,5.597c0.569,0.34,1.226,1.003,1.849,0.606
			c0.91-0.581,0.088-1.393-0.051-2.097c-2.086-10.57,0.623-19.779,8.274-27.299c5.764-5.665,12.928-8.116,21.085-7.708
			c-10.605,2.38-18.049,8.54-22.015,18.61c-2.437,6.185-2.045,12.538,0.039,18.898c0.625-2.182,1.219-4.374,1.879-6.545
			c2.346-7.705,7.86-12.538,14.797-15.932c9.578-4.685,18.967-3.73,27.876,1.739c6.832,4.194,10.856,10.586,12.53,18.34
			c3.483,16.139-7.602,31.71-24.021,34.125c-2.64,0.388-5.168,0.771-7.801,0.027c-1.174-0.332-1.764,0.346-1.031,1.473
			c4.302,6.608,6.442,14.166,9.455,21.34c1.402-3.092,3.025-6.053,4.767-8.943c0.243,1.886,0.487,4,0.712,6.308
			c-1.426,2.452-2.865,4.897-4.296,7.347c0.901,6.239,2.167,12.459,2.298,18.761c0.453,21.798-5.421,41.741-18.089,59.58
			c-2.593,3.651-5.461,7.09-8.544,10.345c-1.877,1.981-3.761,3.957-5.643,5.936c-0.172,1.098-0.344,2.194-0.516,3.292
			c-4.314,2.832-9.125,5.275-14.487,7.241c0,0-4.482,17.501,9.041,27.388c-0.173,1.087-0.344,2.176-0.516,3.263
			c7.278,3.749,15.207,5.13,23.169,6.438c4.945,0.813,9.899,0.435,14.857,0.465c3.005,0.018,6.009,0.376,9.013,0.58
			c-0.025-0.907,0.064-1.778,0.229-2.626c1.082,0.297,2.242,0.62,3.467,0.968c-0.298,0.729-0.599,1.457-0.896,2.187
			c3.866,0.926,7.553,2.386,11.267,3.77c0.667-0.763,1.354-1.488,2.053-2.196c5.326,1.719,10.974,3.692,16.369,5.859
			c-2.545,0.522-5.147,0.857-7.819,0.971c-0.693,0.029-1.383,0.017-1.809,0.709c1.376,1.719,3.598,2.563,4.705,4.559
			c4.941-1.197,5.385-0.993,7.898,3.383c2.945,5.129,6.866,9.655,9.33,15.081c1.19-0.152,1.807-1.13,2.546-1.867
			C735.347,633.205,755.407,570.162,739.491,497.622z"/>
	</g>
</g>
<g>
	<path fill="#FCD458" d="M223.108,639.048c-4.36-2.643-9.178-4.362-13.59-6.948c-18.539-10.864-31.294-26.515-39.066-46.405
		c-0.764-1.955-1.619-3.876-2.432-5.813c0.298-2.285-0.795-4.377-0.954-6.563c-0.176-2.429-1.179-3.467-3.54-3.313
		c-5.47-2.713-6.046-7.97-6.688-13.109c-0.451-3.606,0.286-7.186,0.753-10.758c0.376-0.563,0.798-1.101,1.122-1.691
		c1.499-2.735,3.066-5.372,6.752-5.313c0.956,0.015,1.086-0.684,1.234-1.356c0.275-1.247,0.48-2.511,0.779-3.751
		c3.972-16.47,11.997-30.673,23.938-42.67c0.758-0.762,1.353-1.99,2.843-0.705c4.24,3.657,9.401,5.179,14.809,6.075
		c1.637,0.271,3.152,0.747,4.563,1.835c21.489,16.597,45.991,21.786,72.567,18.992c14.264-1.5,28.004-5.145,41.354-10.293
		c1.91-0.736,2.759-0.261,3.724,1.388c4.549,7.774,8.058,15.958,10.132,24.735c0.68,2.872,0.561,6.187,4.921,6.448
		c1.395,0.084,2.322,1.727,3.083,3.008c0.646,1.089,1.2,2.233,1.795,3.353c1.034,4.592,1.723,9.188,0.631,13.887
		c-0.951,4.096-2.33,7.881-6.375,9.984c-0.943,0.377-2.622-0.48-2.845,0.755c-0.555,3.085-1.99,6.023-1.661,9.26
		c-3.041,6.575-5.322,13.482-9.081,19.751c-9.945,16.59-23.611,28.943-41.27,36.867c-1.688,0.757-3.354,1.565-5.03,2.349
		c-3.301,0.875-6.59,1.8-9.906,2.617c-13.314,3.278-26.631,3.483-40.086,0.581C231.368,641.331,227.45,639.37,223.108,639.048z"/>
	<path fill="#343333" d="M351.208,546.191c-0.595-1.119-1.149-2.265-1.795-3.354c-0.761-1.281-1.688-2.924-3.083-3.007
		c-4.361-0.262-4.242-3.577-4.921-6.448c-2.075-8.778-5.583-16.96-10.132-24.735c-0.964-1.649-1.813-2.125-3.724-1.388
		c-13.35,5.148-27.091,8.793-41.354,10.293c-26.576,2.793-51.079-2.395-72.567-18.992c-1.41-1.088-2.926-1.564-4.563-1.835
		c-5.408-0.896-10.569-2.419-14.809-6.075c-1.49-1.285-2.084-0.057-2.843,0.705c-11.941,11.998-19.966,26.2-23.938,42.671
		c-0.299,1.241-0.504,2.504-0.779,3.751c-0.148,0.672-0.279,1.371-1.234,1.356c-3.686-0.06-5.253,2.578-6.752,5.313
		c-0.324,0.592-0.746,1.129-1.122,1.691c-2.24-24.868,3.427-47.641,18.096-68c1.724-2.392,3.532-4.753,5.547-6.896
		c6.843-7.275,13.799-14.366,19.871-22.415c6.887-9.129,17.349-13.973,27.416-18.985c8.354-4.16,16.834-8.082,24.486-13.527
		c4.271-3.039,7.997-6.631,11.367-10.672c3.309,5.011,1.958,10.405-4.204,16.022c14.041-0.597,27.675-0.783,37.667-12.713
		c2.298,4.737,2.482,9.576,1.819,14.452c-0.656,4.827-2.913,9.053-6.078,13.213c5.7,0.513,10.68,1.911,15.134,4.718
		c7.487,4.719,12.262,11.038,11.275,20.44c-0.14,1.343,0.609,1.957,1.387,2.698c16.292,15.548,26.198,34.45,29.555,56.715
		C352.181,529.488,352.461,537.842,351.208,546.191z"/>
	<path fill="#283A5A" d="M367.43,707.581c0.332,1.278-0.362,1.899-1.372,2.551c-21.302,13.738-44.374,23.126-69.206,28.168
		c-18.24,3.704-36.666,4.899-55.217,3.479c-29.023-2.222-56.356-10.28-81.917-24.249c-5.87-3.208-11.566-6.708-17.067-10.52
		c-0.863-0.6-2-0.989-1.841-2.38c1.658-5.448,3.247-10.917,5.974-15.968c5.857-10.847,14.134-18.777,26.343-22.047
		c1.558-0.417,3.108-0.439,4.68-0.441c15.064-0.009,30.129-0.014,45.194-0.019c0.174,0.867,0.391,1.729,0.515,2.602
		c3.277,23.155,30.666,34.503,49.393,20.464c7.71-5.781,11.561-13.681,12.734-23.063c13.779,0.004,27.565,0.266,41.336-0.075
		c9.521-0.235,17.22,3.422,23.98,9.55c9.201,8.343,13.641,19.261,16.235,31.099C367.259,707.018,367.351,707.298,367.43,707.581z"/>
	<path fill="#FCD458" d="M285.644,666.157c-1.173,9.384-5.024,17.283-12.734,23.064c-18.727,14.039-46.116,2.691-49.393-20.464
		c-0.124-0.873-0.341-1.734-0.515-2.602c0.043-8.652,0.087-17.305,0.13-25.958c6.888,2.163,13.769,4.255,21.041,4.88
		c8.406,0.723,16.756,0.742,25.12-0.479c5.523-0.806,10.753-2.773,16.207-3.824C285.547,649.235,285.595,657.697,285.644,666.157z"
		/>
	<path fill="#EDEDED" d="M256.063,328.64c-113.991,0-206.398,92.408-206.398,206.398c0,80.943,46.603,150.992,114.433,184.812
		c-1.465-0.756-2.926-1.525-4.38-2.32c-5.87-3.208-11.566-6.708-17.067-10.52c-0.863-0.6-2-0.989-1.841-2.38
		c1.658-5.448,3.247-10.917,5.974-15.968c5.857-10.847,14.134-18.777,26.343-22.047c1.558-0.417,3.108-0.439,4.68-0.441
		c15.064-0.009,30.129-0.014,45.194-0.019c0.043-8.652,0.087-17.304,0.13-25.957c6.888,2.163,13.769,4.255,21.041,4.88
		c8.406,0.723,16.756,0.742,25.12-0.479c5.523-0.806,10.753-2.773,16.207-3.824c0.048,8.46,0.097,16.922,0.146,25.382
		c13.779,0.004,27.565,0.266,41.336-0.075c9.521-0.235,17.22,3.422,23.98,9.55c9.201,8.343,13.641,19.261,16.235,31.099
		c0.063,0.287,0.155,0.567,0.235,0.851c0.14,0.539,0.09,0.957-0.082,1.313c57.206-36.693,95.113-100.848,95.113-173.856
		C462.461,421.047,370.054,328.64,256.063,328.64z M351.839,560.078c-0.951,4.096-2.33,7.881-6.375,9.984
		c-0.943,0.377-2.622-0.48-2.845,0.755c-0.555,3.085-1.99,6.023-1.661,9.26c-3.041,6.575-5.322,13.482-9.081,19.751
		c-9.945,16.59-23.611,28.943-41.27,36.867c-1.688,0.757-3.354,1.565-5.03,2.349c-3.301,0.875-6.59,1.8-9.906,2.617
		c-13.314,3.278-26.631,3.483-40.086,0.581c-4.217-0.911-8.135-2.872-12.477-3.194c-4.36-2.643-9.178-4.362-13.59-6.948
		c-18.539-10.864-31.294-26.515-39.066-46.405c-0.764-1.955-1.619-3.876-2.432-5.813c0.298-2.285-0.795-4.377-0.954-6.563
		c-0.176-2.429-1.179-3.467-3.54-3.313c-5.47-2.713-6.046-7.97-6.688-13.109c-0.451-3.606,0.286-7.186,0.753-10.758
		c0.376-0.563,0.798-1.101,1.122-1.691c1.499-2.735,3.066-5.372,6.752-5.313c0.956,0.015,1.086-0.684,1.234-1.356
		c0.275-1.247,0.48-2.511,0.779-3.751c3.972-16.47,11.997-30.673,23.938-42.67c0.758-0.762,1.353-1.99,2.843-0.705
		c4.24,3.657,9.401,5.179,14.809,6.075c1.637,0.271,3.152,0.747,4.563,1.835c21.489,16.597,45.991,21.786,72.567,18.992
		c14.264-1.5,28.004-5.145,41.354-10.293c1.91-0.736,2.759-0.261,3.724,1.388c4.549,7.774,8.058,15.958,10.132,24.735
		c0.68,2.872,0.561,6.187,4.921,6.448c1.395,0.084,2.322,1.727,3.083,3.008c0.646,1.089,1.2,2.233,1.795,3.353
		c-0.595-1.119-1.149-2.265-1.795-3.354c-0.761-1.281-1.688-2.924-3.083-3.007c-4.361-0.262-4.242-3.577-4.921-6.448
		c-2.075-8.778-5.583-16.96-10.132-24.735c-0.964-1.649-1.813-2.125-3.724-1.388c-13.35,5.148-27.091,8.793-41.354,10.293
		c-26.576,2.793-51.079-2.395-72.567-18.992c-1.41-1.088-2.926-1.564-4.563-1.835c-5.408-0.896-10.569-2.419-14.809-6.075
		c-1.49-1.285-2.084-0.057-2.843,0.705c-11.941,11.998-19.966,26.2-23.938,42.671c-0.299,1.241-0.504,2.504-0.779,3.751
		c-0.148,0.672-0.279,1.371-1.234,1.356c-3.686-0.06-5.253,2.578-6.752,5.313c-0.324,0.592-0.746,1.129-1.122,1.691
		c-2.24-24.868,3.427-47.641,18.096-68c1.724-2.392,3.532-4.753,5.547-6.896c6.843-7.275,13.799-14.366,19.871-22.415
		c6.887-9.129,17.349-13.973,27.416-18.985c8.354-4.16,16.834-8.082,24.486-13.527c4.271-3.039,7.997-6.631,11.367-10.672
		c3.309,5.011,1.958,10.405-4.204,16.022c14.041-0.597,27.675-0.783,37.667-12.713c2.298,4.737,2.482,9.576,1.819,14.452
		c-0.656,4.827-2.913,9.053-6.078,13.213c5.7,0.513,10.68,1.911,15.134,4.718c7.487,4.719,12.262,11.038,11.275,20.44
		c-0.14,1.343,0.609,1.957,1.387,2.698c16.292,15.548,26.198,34.45,29.555,56.715c1.251,8.301,1.532,16.655,0.278,25.004
		C352.242,550.783,352.931,555.379,351.839,560.078z"/>
	<path fill="#E5A689" d="M285.499,640.775c-5.454,1.051-10.684,3.019-16.207,3.824c-8.363,1.221-16.713,1.2-25.12,0.479
		c-7.272-0.625-14.153-2.717-21.041-4.88c-0.008-0.383-0.017-0.766-0.024-1.149c4.342,0.322,8.26,2.283,12.477,3.193
		c13.454,2.902,26.772,2.697,40.085-0.582c3.316-0.816,6.605-1.741,9.906-2.616C285.551,639.621,285.524,640.197,285.499,640.775z"
		/>
	<path fill="#474341" d="M340.958,580.076c-0.329-3.236,1.106-6.176,1.661-9.26c0.223-1.234,1.902-0.377,2.845-0.755
		C344.408,573.601,342.908,576.939,340.958,580.076z"/>
	<path fill="#464240" d="M163.526,570.005c2.361-0.154,3.364,0.884,3.54,3.313c0.159,2.187,1.252,4.278,0.955,6.563
		C166.003,576.825,164.735,573.429,163.526,570.005z"/>
</g>
</svg>
