<?xml version="1.0" encoding="utf-8"?>
<!-- Generator: Adobe Illustrator 16.0.0, SVG Export Plug-In . SVG Version: 6.00 Build 0)  -->
<!DOCTYPE svg PUBLIC "-//W3C//DTD SVG 1.1//EN" "http://www.w3.org/Graphics/SVG/1.1/DTD/svg11.dtd">
<svg version="1.1" id="Layer_1" xmlns="http://www.w3.org/2000/svg" xmlns:xlink="http://www.w3.org/1999/xlink" x="0px" y="0px"
	 width="1080px" height="1080px" viewBox="0 0 1080 1080" enable-background="new 0 0 1080 1080" xml:space="preserve">
<g>
	<path fill-rule="evenodd" clip-rule="evenodd" fill="#FBFBFB" d="M261.459,926.829c-38.372-27.451-71.22-60.533-99.31-98.321
		c-51.66-69.497-82.077-147.345-91.019-233.533c-23.146-223.11,113.785-431.57,327.926-499.2
		c262.688-82.958,542.705,76.346,601.887,346.095c37.841,172.471-9.855,322.361-135.077,447.203
		c-1.758,1.754-3.224,4.078-6.054,4.442c-5.857-12.902-15.18-23.664-22.183-35.857c-5.976-10.405-7.032-10.891-18.777-8.043
		c-2.634-4.744-7.917-6.754-11.188-10.841c1.013-1.644,2.651-1.615,4.301-1.685c19.62-0.827,37.827-6.199,54.481-16.741
		c10.656-6.746,20.249-14.768,28.741-24.038c1.972-2.152,6.86-5.809-1.423-6.938c-13.906-1.891-27.764-2.047-41.545,0.277
		c-26.062,4.396-48,16.451-65.463,36.423c-8.83-3.29-17.597-6.761-26.787-8.963c1.308-3.219,2.659-6.423,3.92-9.663
		c6.916-17.771,14.976-34.906,26.424-50.334c5.453-7.349,12.544-13.031,18.653-19.694c1.719-1.876,3.815-3.246,1.262-6.337
		c-2.688-3.253-4.707-1.568-6.983,0.014c-1.138,0.791-2.183,1.723-3.202,2.665c-16.649,15.38-28.514,34.167-37.538,54.674
		c-3.855,8.764-9.483,17.175-9.196,27.421c-7.144-0.487-14.284-1.337-21.429-1.381c-11.789-0.072-23.568,0.829-35.325-1.104
		c-18.93-3.112-37.783-6.394-55.086-15.308c2.757-17.448,5.521-34.896,8.267-52.349c2.389-15.188,4.757-30.38,7.134-45.57
		c4.473-4.703,8.953-9.401,13.416-14.112c7.329-7.739,14.148-15.915,20.313-24.597c30.12-42.411,44.084-89.83,43.008-141.655
		c-0.311-14.983-3.32-29.773-5.462-44.605c4.779-8.183,9.63-16.321,14.318-24.553c18.738-32.883,41.547-62.346,71.81-85.535
		c1.982-1.519,4.229-2.558,1.741-5.288c-1.864-2.047-3.535-4.451-6.813-1.542c-4.837,4.29-10.176,8.021-14.91,12.415
		c-15.159,14.065-28.987,29.362-40.771,46.38c-10.399,15.021-20.6,30.194-28.188,46.918c-7.162-17.058-12.253-35.028-22.481-50.739
		c-1.742-2.679-0.341-4.289,2.451-3.5c6.261,1.767,12.273,0.856,18.548-0.066c39.039-5.743,65.395-42.764,57.113-81.135
		c-3.979-18.435-13.549-33.633-29.791-43.606c-21.182-13.004-43.505-15.273-66.277-4.134c-16.492,8.068-29.604,19.559-35.18,37.879
		c-1.571,5.163-2.983,10.373-4.468,15.562c-4.955-15.121-5.885-30.226-0.095-44.932c9.428-23.941,27.126-38.588,52.346-44.247
		c-19.396-0.969-36.431,4.859-50.135,18.328c-18.192,17.881-24.631,39.776-19.673,64.907c0.33,1.673,2.285,3.605,0.121,4.985
		c-1.482,0.943-3.042-0.633-4.395-1.442c-8.167-4.887-16.495-9.361-25.208-13.307c-39.205-17.753-80.09-23.136-122.633-18.14
		c-40.86,4.798-77.414,20.008-110.069,44.835c-2.804,2.132-4.726,2.763-5.674-1.552c-0.446-2.029-1.267-3.979-1.958-5.951
		c-11.606-33.123-49.593-51.898-83.117-41.503c-25.851,8.015-50.244,34.454-48.505,66.466c1.417,26.092,12.29,45.474,34.866,58.668
		c10.109,5.908,21.291,7.604,33.101,9.69c-22.044,11.268-50.55,8.599-70.5-8.754c-28.548-24.832-32.26-55.425-15.486-89.955
		c-17.374,14.194-27.896,46.464-14.52,75.484c6.431,13.953,16.496,25.108,30.66,32.136c22.395,11.112,44.641,9.598,67.839-1.376
		c-0.838,2.472-1.209,3.715-1.676,4.92c-7.749,19.979-13.47,40.65-14.884,61.934c-2.339,35.219,0.616,69.988,13.679,103.38
		c12.281,31.394,29.973,59.326,53.981,82.813c21.031,20.576,45.223,36.997,72.721,48.027c11.591,4.647,23.175,9.501,35.82,10.699
		c1.648,7.188,0.266,14.382-0.515,21.455c-3.448,31.22-17.406,57.655-53.902,67.313c-19.993,5.29-39.338,12.563-57.905,21.725
		C308.063,876.363,279.585,895.491,261.459,926.829z M779.752,519.82c6.381,0.526,13.48-0.539,20.634-1.254
		c20.101-2.009,38.975-7.975,56.82-17.183c20.704-10.684,37.549-26.272,53.348-43.085c1.194-1.271,3.514-2.271,2.659-4.442
		c-0.721-1.835-2.845-2.188-4.715-2.399c-19.068-2.164-38.102-2.897-57.228-0.167c-43.962,6.273-78.517,28.688-107.084,61.62
		c-2.226,2.563-2.202,3.719,1.58,4.253C756.772,518.715,767.765,520.219,779.752,519.82z M893.03,682.173
		c0.011-23.539-18.347-42.097-41.659-42.111c-23.148-0.015-42.152,18.447-42.185,40.982c-0.034,24.087,18.226,42.849,41.713,42.861
		C874.305,723.917,893.02,705.381,893.03,682.173z M823.157,320.066c-1.67,22.984,20.417,42.325,41.749,42.019
		c23.223-0.333,42.084-18.885,41.926-42.117c-0.161-23.746-18.107-40.989-41.356-41.933
		C841.623,277.066,821.283,299.292,823.157,320.066z"/>
	<path fill-rule="evenodd" clip-rule="evenodd" fill="#CEA28B" d="M261.459,926.829c18.126-31.338,46.604-50.466,78.07-65.994
		c18.567-9.162,37.912-16.435,57.905-21.725c36.496-9.658,50.454-36.094,53.902-67.313c0.781-7.073,2.164-14.268,0.515-21.455
		c-0.181-4.871-0.485-9.74-0.511-14.614c-0.03-5.812-2.541-9.565-7.517-12.887c-18.506-12.353-32.7-28.766-43.328-48.295
		c-2.834-5.208-4.101-11.9-11.98-12.417c-1.116-0.071-2.311-1.535-3.167-2.598c-9.842-12.213-13.607-26.237-11.744-41.687
		c0.438-3.633,2.048-8.352,6.478-7.769c5.008,0.656,4.106-2.012,4.122-4.631c0.079-13.593,2.551-26.768,6.701-39.673
		c0.794-2.468,1.589-4.742,3.901-6.344c8.203-5.672,16.314-11.478,24.46-17.231l-0.075-0.144c0.724,8.759-3.346,16.615-4.77,24.974
		c-0.519,3.036-1.877,5.779,2.391,7.333c3.56,1.295,6.249,2.832,9.592-1.265c11.032-13.523,22.558-26.645,33.984-39.84
		c1.221-1.412,1.876-3.882,4.795-3.516c0,17.752,0.125,35.428-0.093,53.099c-0.05,4.083,1.07,5.469,5.246,6.053
		c23.931,3.354,47.84,3.344,71.622-0.642c38.438-6.441,73.858-19.029,99.049-51.335c2.427,1.331,3.155,3.943,4.337,6.122
		c6.804,12.553,11.413,25.903,14.252,39.891c0.336,1.658-0.621,5.216,3.017,3.767c5.977-2.382,8.424,1.437,9.992,5.639
		c5.482,14.697,4.468,29.202-2.545,43.203c-1.46,2.916-3.979,6.526-7.299,5.472c-5.302-1.683-4.989,1.83-5.777,4.63
		c-9.102,32.372-27.343,58.382-55.049,77.354c-5.968,4.087-8.039,8.311-6.601,14.9c0.324,26.921,15.25,43.998,37.742,55.974
		c2.49,2.012,5.262,3.462,8.393,4.196c17.303,8.914,36.156,12.195,55.086,15.308c11.757,1.934,23.536,1.032,35.325,1.104
		c7.145,0.044,14.285,0.894,21.429,1.381c2.221,0.42,4.439,0.837,6.661,1.255c9.19,2.202,17.957,5.673,26.787,8.963
		c6.969,4.232,13.938,8.467,20.907,12.702c3.271,4.087,8.554,6.097,11.188,10.841c-24.492,5.367-49.032,10.526-73.468,16.142
		c-124.242,28.551-248.467,57.179-372.669,85.897c-17.361,4.015-34.941,7.165-51.946,12.655
		c-12.744-4.994-23.945-12.762-35.379-20.039C277.071,938.974,268.245,934.271,261.459,926.829z"/>
	<path fill-rule="evenodd" clip-rule="evenodd" fill="#2F2F41" d="M320.77,964.31c17.005-5.49,34.585-8.641,51.946-12.655
		c124.202-28.719,248.427-57.347,372.669-85.897c24.436-5.615,48.976-10.774,73.468-16.142c11.745-2.848,12.802-2.362,18.777,8.043
		c7.003,12.193,16.325,22.955,22.183,35.857c-1.499,4.452-5.59,6.562-8.815,9.308c-10.668,9.091-21.081,18.543-33.246,25.709
		c-7.866,1.788-15.708,3.704-23.606,5.333c-9.881,2.039-9.914,1.941-8.038,11.819c0.214,1.124,0.68,2.203,1.029,3.3
		c-14.906,10.792-31.418,18.725-47.996,26.426c-46.976,21.825-96.229,35.435-147.809,40.766
		c-94.935,9.813-184.727-7.185-269.474-51.005C321.454,964.963,321.131,964.6,320.77,964.31z"/>
	<path fill-rule="evenodd" clip-rule="evenodd" fill="#C7C5D9" d="M787.136,948.984c-0.35-1.097-0.815-2.176-1.029-3.3
		c-1.876-9.878-1.843-9.78,8.038-11.819c7.898-1.629,15.74-3.545,23.606-5.333C808.674,937.039,798.621,944.084,787.136,948.984z"/>
	<path fill-rule="evenodd" clip-rule="evenodd" fill="#2F2E41" d="M595.335,737.892c-1.438-6.59,0.633-10.813,6.601-14.9
		c27.706-18.972,45.947-44.981,55.049-77.354c0.788-2.8,0.476-6.313,5.777-4.63c3.319,1.055,5.839-2.556,7.299-5.472
		c7.013-14.001,8.027-28.506,2.545-43.203c-1.568-4.202-4.016-8.021-9.992-5.639c-3.638,1.449-2.681-2.108-3.017-3.767
		c-2.839-13.987-7.448-27.338-14.252-39.891c-1.182-2.179-1.91-4.791-4.337-6.122c-25.19,32.306-60.611,44.894-99.049,51.335
		c-23.781,3.985-47.69,3.995-71.622,0.642c-4.176-0.584-5.296-1.97-5.246-6.053c0.218-17.671,0.093-35.347,0.093-53.099
		c-2.918-0.367-3.574,2.104-4.795,3.516c-11.427,13.196-22.952,26.317-33.984,39.84c-3.343,4.097-6.032,2.56-9.592,1.265
		c-4.268-1.554-2.909-4.297-2.391-7.333c1.423-8.358,5.494-16.215,4.771-24.97c0.299-0.025,0.596-0.059,0.893-0.09
		c-0.106-0.064-0.256-0.208-0.31-0.178c-0.188,0.103-0.342,0.267-0.51,0.407c-8.146,5.754-16.257,11.56-24.46,17.231
		c-2.312,1.602-3.107,3.876-3.901,6.344c-4.149,12.905-6.622,26.08-6.701,39.673c-0.016,2.619,0.886,5.287-4.122,4.631
		c-4.43-0.583-6.041,4.136-6.478,7.769c-1.863,15.449,1.901,29.474,11.744,41.687c0.856,1.063,2.051,2.526,3.167,2.598
		c7.879,0.517,9.146,7.209,11.98,12.417c10.628,19.529,24.822,35.942,43.328,48.295c4.977,3.321,7.487,7.075,7.517,12.887
		c0.025,4.874,0.33,9.743,0.511,14.614c-12.645-1.198-24.229-6.052-35.82-10.699c-27.498-11.03-51.69-27.451-72.721-48.027
		c-24.008-23.486-41.7-51.419-53.981-82.813c-13.063-33.392-16.019-68.161-13.679-103.38c1.414-21.284,7.135-41.956,14.884-61.934
		c0.467-1.206,0.838-2.448,1.676-4.92c-23.199,10.975-45.445,12.488-67.839,1.376c-14.164-7.028-24.229-18.184-30.66-32.136
		c-13.376-29.021-2.854-61.29,14.52-75.484c-16.773,34.53-13.062,65.124,15.486,89.955c19.951,17.353,48.457,20.022,70.5,8.754
		c-11.81-2.086-22.991-3.782-33.101-9.69c-22.577-13.194-33.449-32.576-34.866-58.668c-1.739-32.012,22.654-58.451,48.505-66.466
		c33.524-10.395,71.511,8.381,83.117,41.503c0.691,1.972,1.512,3.922,1.958,5.951c0.948,4.315,2.87,3.684,5.674,1.552
		c32.656-24.827,69.209-40.038,110.069-44.835c42.543-4.996,83.428,0.387,122.633,18.14c8.713,3.946,17.041,8.42,25.208,13.307
		c1.353,0.809,2.912,2.386,4.395,1.442c2.164-1.379,0.209-3.312-0.121-4.985c-4.958-25.131,1.48-47.026,19.673-64.907
		c13.704-13.469,30.738-19.297,50.135-18.328c-25.22,5.659-42.918,20.306-52.346,44.247c-5.79,14.706-4.86,29.811,0.095,44.932
		c1.484-5.189,2.896-10.398,4.468-15.562c5.575-18.32,18.688-29.811,35.18-37.879c22.772-11.139,45.096-8.87,66.277,4.134
		c16.242,9.973,25.813,25.171,29.791,43.606c8.281,38.371-18.074,75.393-57.113,81.135c-6.274,0.922-12.287,1.833-18.548,0.066
		c-2.792-0.79-4.193,0.821-2.451,3.5c10.229,15.711,15.319,33.681,22.482,50.739c-0.008,3.973,0.666,7.772,2.813,11.206
		c2.142,14.832,5.151,29.622,5.462,44.605c1.076,51.825-12.888,99.244-43.008,141.655c-6.164,8.682-12.983,16.857-20.313,24.597
		c-4.463,4.711-8.943,9.409-13.416,14.112c-4.652,0.403-6.012,5.408-9.804,7.015C631.268,719.833,614.259,730.473,595.335,737.892z"
		/>
	<path fill-rule="evenodd" clip-rule="evenodd" fill="#202E48" d="M779.752,519.82c-11.987,0.398-22.979-1.105-33.985-2.657
		c-3.782-0.534-3.806-1.69-1.58-4.253c28.567-32.932,63.122-55.347,107.084-61.62c19.126-2.73,38.159-1.997,57.228,0.167
		c1.87,0.211,3.994,0.564,4.715,2.399c0.854,2.17-1.465,3.171-2.659,4.442c-15.799,16.813-32.644,32.401-53.348,43.085
		c-17.846,9.208-36.72,15.174-56.82,17.183C793.232,519.281,786.133,520.346,779.752,519.82z"/>
	<path fill-rule="evenodd" clip-rule="evenodd" fill="#202E48" d="M893.03,682.173c-0.011,23.208-18.726,41.744-42.131,41.732
		c-23.487-0.013-41.747-18.774-41.713-42.861c0.032-22.535,19.036-40.997,42.185-40.982
		C874.684,640.076,893.041,658.634,893.03,682.173z"/>
	<path fill-rule="evenodd" clip-rule="evenodd" fill="#202E48" d="M823.157,320.066c-1.874-20.774,18.466-43,42.318-42.031
		c23.249,0.944,41.195,18.188,41.356,41.933c0.158,23.232-18.703,41.784-41.926,42.117
		C843.574,362.391,821.487,343.05,823.157,320.066z"/>
	<path fill-rule="evenodd" clip-rule="evenodd" fill="#202E48" d="M807.665,838.774c-6.97-4.235-13.938-8.47-20.907-12.702
		c17.463-19.972,39.401-32.026,65.463-36.423c13.781-2.324,27.639-2.168,41.545-0.277c8.283,1.13,3.395,4.786,1.423,6.938
		c-8.492,9.271-18.085,17.292-28.741,24.038c-16.654,10.542-34.861,15.914-54.481,16.741
		C810.316,837.159,808.678,837.131,807.665,838.774z"/>
	<path fill-rule="evenodd" clip-rule="evenodd" fill="#202E48" d="M728.145,475.173c-2.146-3.433-2.82-7.233-2.813-11.206
		c7.588-16.724,17.788-31.897,28.188-46.918c11.784-17.019,25.612-32.315,40.771-46.38c4.734-4.393,10.073-8.125,14.91-12.415
		c3.277-2.909,4.948-0.505,6.813,1.542c2.488,2.73,0.241,3.77-1.741,5.288c-30.263,23.189-53.071,52.652-71.81,85.535
		C737.774,458.852,732.924,466.991,728.145,475.173z"/>
	<path fill-rule="evenodd" clip-rule="evenodd" fill="#202E48" d="M759.971,817.109c-2.222-0.418-4.44-0.835-6.661-1.255
		c-0.287-10.246,5.341-18.657,9.196-27.421c9.024-20.507,20.889-39.294,37.538-54.674c1.02-0.942,2.064-1.874,3.202-2.665
		c2.276-1.582,4.296-3.267,6.983-0.014c2.554,3.091,0.457,4.461-1.262,6.337c-6.109,6.663-13.2,12.346-18.653,19.694
		c-11.448,15.428-19.508,32.563-26.424,50.334C762.63,810.687,761.278,813.891,759.971,817.109z"/>
	<path fill-rule="evenodd" clip-rule="evenodd" fill="#212F49" d="M647.066,707.157c3.792-1.606,5.151-6.611,9.804-7.015
		c-2.377,15.19-4.745,30.383-7.134,45.57c-2.746,17.453-5.51,34.9-8.267,52.349c-3.131-0.734-5.902-2.185-8.393-4.196
		c0.43-1.561,1.08-3.098,1.259-4.688C637.43,761.658,642.375,734.427,647.066,707.157z"/>
	<path fill-rule="evenodd" clip-rule="evenodd" fill="#F4F4F4" d="M647.066,707.157c-4.691,27.27-9.637,54.501-12.73,82.021
		c-0.179,1.59-0.829,3.127-1.259,4.688c-22.492-11.976-37.418-29.053-37.742-55.974
		C614.259,730.473,631.268,719.833,647.066,707.157z"/>
	<path fill-rule="evenodd" clip-rule="evenodd" fill="#CFCCE0" d="M419.268,542.197c0.167-0.141,0.322-0.305,0.51-0.407
		c0.054-0.03,0.204,0.113,0.31,0.178c-0.297,0.031-0.594,0.064-0.893,0.09C419.192,542.054,419.268,542.197,419.268,542.197z"/>
</g>
</svg>
