<svg xmlns="http://www.w3.org/2000/svg" viewBox="0 0 512 512"><title>Cloud_Download</title><g id="Cloud_Download" data-name="Cloud Download"><g id="Cloud_Download-2" data-name="Cloud Download"><path d="M256,73.82c-100.6128,0-182.18,81.5625-182.18,182.1708S155.3872,438.18,256,438.18c100.6083,0,182.18-81.58,182.18-182.1888S356.6083,73.82,256,73.82Zm72.2061,268.3476c-1.9944,0-3.9681-.1053-5.91-.2988a49.6267,49.6267,0,0,1-5.3964.2988h-45.738l49.1922-49.6314a10.4423,10.4423,0,0,0,2.2455-11.1006,9.7339,9.7339,0,0,0-9.0216-6.3279H289.3369v-51.82A11.3092,11.3092,0,0,0,278.03,211.9846H243.7393a11.3036,11.3036,0,0,0-11.3076,11.3031v51.82H206.2273a9.9424,9.9424,0,0,0-9.738,10.1421,10.2913,10.2913,0,0,0,3.6126,7.893l48.5946,49.0248H175.5886a48.19,48.19,0,0,1-12.84-94.64,37.94,37.94,0,0,1,54.189-29.7423A69.8308,69.8308,0,0,1,352.17,234.7042a56.4035,56.4035,0,0,1-23.9634,107.4636Z"/></g></g></svg>