<?xml version="1.0" encoding="utf-8"?>
<!-- Generator: Adobe Illustrator 16.0.0, SVG Export Plug-In . SVG Version: 6.00 Build 0)  -->
<!DOCTYPE svg PUBLIC "-//W3C//DTD SVG 1.1//EN" "http://www.w3.org/Graphics/SVG/1.1/DTD/svg11.dtd">
<svg version="1.1" id="Layer_5" xmlns="http://www.w3.org/2000/svg" xmlns:xlink="http://www.w3.org/1999/xlink" x="0px" y="0px"
	 width="512px" height="512px" viewBox="0 0 512 512" enable-background="new 0 0 512 512" xml:space="preserve">
<path fill="#00ACED" d="M31.998,368.043C30.74,367.902,33.251,368.043,31.998,368.043L31.998,368.043z"/>
<path fill="#00ACED" d="M63.998,56.059C63.173,56.059,64.826,55.984,63.998,56.059L63.998,56.059z"/>
<path fill="#FFFFFF" d="M368.025,200.682c-0.172,0.252-0.354,0.503-0.593,0.782c-4.86,5.52-7.653,12.818-7.31,20.616
	c0.026,0.556,0.075,1.121,0.133,1.688c0.174,1.704,0.131,2.918-0.039,3.874c1.087,67.074-39.96,149.888-129.901,158.909
	c-0.204,0.021-0.402,0.059-0.602,0.092c-31.607,2.797-64.68-10.355-64.68-10.355l0.008-0.012c-4.181-1.599-8.228-3.361-12.188-5.184
	c-0.571-0.351-0.998-0.92-1.073-1.648c-0.126-1.237,0.788-2.35,2.04-2.476c1.966-0.196,3.917-0.393,5.668-0.569
	c10.461-1.047,20.14-3.729,29.141-7.588c0.021-0.012,0.012-0.002,0.03-0.014c2.318-0.963,4.444-2.503,6.157-4.564
	c5.567-6.772,4.548-16.735-2.275-22.252c-0.672-0.537-1.358-1.018-2.08-1.424c-0.119-0.07-0.146-0.128-0.246-0.189
	c-8.449-4.909-15.493-12.071-20.118-20.816c-0.181-0.279-0.288-0.602-0.324-0.957c-0.124-1.208,0.736-2.261,1.951-2.443
	c0.166,0,0.322,0.016,0.486,0.021c0.064,0.003,0.116,0.016,0.177,0.021c0.051-0.004,0.104,0,0.154-0.006
	c2.504-0.252,4.332-2.473,4.079-4.951c-0.161-1.573-1.127-2.881-2.438-3.558c-0.065-0.028,0.037-0.038,0.212-0.038
	c-14.231-6.968-25.59-20.14-29.588-35.902c-0.185-2.426,1.607-4.604,4.072-4.851c0.731-0.071,1.432,0.03,2.071,0.272
	c0.152,0.056,0.239,0.005,0.318-0.032c0.074,0.021,0.148,0.045,0.222,0.067c0.463,0.107,0.943,0.189,1.442,0.14
	c2.504-0.251,4.334-2.471,4.081-4.951c-0.111-1.098-0.611-2.068-1.354-2.787c-0.043-0.036,0.053,0.006,0.052-0.005
	c-8.482-8.143-14.663-18.839-15.917-31.108c-0.606-5.931,0.551-12.106,2.407-17.895c0.058-0.046,0.109-0.051,0.169-0.252
	c0.258-0.8,0.666-1.552,1.221-2.24c2.397-2.9,6.702-3.332,9.626-0.966c0.19,0.154,0.286,0.176,0.418,0.264
	c22.178,18.729,50.355,28.787,80.684,31.315c1.202,0.084,2.424,0.064,3.654-0.06c11.328-1.136,19.87-10.294,20.47-21.211
	c0.067-1.169,1.082-9.367,1.254-9.467c4.436-19.921,20.279-34.232,42.824-36.493l1.049-0.298
	c10.246-1.028,19.608,1.171,27.892,5.555c0.193,0.091,0.39,0.154,0.583,0.257c4.997,2.626,10.808,3.866,16.862,3.259
	c3.892-0.391,7.504-1.536,10.765-3.218c5.051-2.596,9.871-5.554,14.383-8.879c-2.008,9.521-6.67,18.159-13.188,25.066
	c0.01-0.002,0.086-0.038,0.069-0.017c-0.367,0.444-0.562,1.035-0.5,1.648c0.127,1.23,1.261,2.146,2.478,2.023
	c7.131-2.242,13.915-5.183,20.26-8.805C379.207,185.554,373.926,193.632,368.025,200.682z"/>
</svg>
