<?xml version="1.0" encoding="utf-8"?>
<!-- Generator: Adobe Illustrator 16.0.0, SVG Export Plug-In . SVG Version: 6.00 Build 0)  -->
<!DOCTYPE svg PUBLIC "-//W3C//DTD SVG 1.1//EN" "http://www.w3.org/Graphics/SVG/1.1/DTD/svg11.dtd">
<svg version="1.1" id="Layer_9" xmlns="http://www.w3.org/2000/svg" xmlns:xlink="http://www.w3.org/1999/xlink" x="0px" y="0px"
	 width="512px" height="512px" viewBox="0 0 512 512" enable-background="new 0 0 512 512" xml:space="preserve">
<path fill="#FFFFFF" d="M293.971,166.104h27.747c15.337,0,27.766-12.427,27.766-27.764v-33.313c0-15.327-12.429-27.75-27.766-27.75
	h-55.512c-39.859,0-72.166,32.307-72.167,72.167v49.971c0,6.126-4.977,11.092-11.103,11.092h-15.95
	c-15.722,0-28.468,13.42-28.468,29.503v33.252c0,14.579,11.651,26.084,26.029,26.084h18.39c6.126,0,11.103,4.967,11.103,11.092
	v14.928v7.279v77.724v11.104v11.11h44.409v-0.004c8.255,0.004,16.512,0.007,16.654-0.003c15.328,0,27.765-12.42,27.765-27.748
	v-94.388c0-6.127,4.967-11.094,11.104-11.094h17.688c14.379,0,28.188-11.504,30.916-26.082l6.232-33.254
	c3.015-16.083-7.222-29.503-22.944-29.503h-31.894c-6.139,0-11.104-4.966-11.104-11.092v-22.21
	C282.866,171.071,287.833,166.104,293.971,166.104z"/>
</svg>
