<?xml version="1.0" encoding="utf-8"?>
<!-- Generator: Adobe Illustrator 16.0.0, SVG Export Plug-In . SVG Version: 6.00 Build 0)  -->
<svg version="1.2" baseProfile="tiny" id="Layer_1" xmlns="http://www.w3.org/2000/svg" xmlns:xlink="http://www.w3.org/1999/xlink"
	 x="0px" y="0px" width="512px" height="512px" viewBox="0 0 512 512" xml:space="preserve">
<g>
	<circle fill="#FFFFFF" cx="255.588" cy="200.938" r="157.438"/>
	<path fill="#FFFFFF" d="M372.459,342.83c3.488,2.273,5.371,4.688,5.371,7.191c0,13.513-54.73,24.467-122.243,24.467
		c-67.511,0-122.241-10.954-122.241-24.467c0-2.504,1.88-4.918,5.369-7.191c-22.364,5.316-35.846,12.18-35.846,19.674
		c0,16.881,68.375,30.566,152.718,30.566c84.346,0,152.72-13.686,152.72-30.566C408.308,355.01,394.825,348.146,372.459,342.83z"/>
	<path fill="#FFFFFF" d="M437.191,363.285c5.421,4.398,8.342,9.07,8.342,13.914c0,26.148-85.041,47.342-189.945,47.342
		c-104.903,0-189.946-21.193-189.946-47.342c0-4.844,2.923-9.516,8.343-13.914c-34.751,10.289-55.701,23.567-55.701,38.068
		c0,32.664,106.246,59.146,237.304,59.146c131.059,0,237.304-26.482,237.304-59.146
		C492.893,386.853,471.943,373.574,437.191,363.285z"/>
</g>
</svg>
