<?xml version="1.0" encoding="utf-8"?>
<!-- Generator: Adobe Illustrator 16.0.0, SVG Export Plug-In . SVG Version: 6.00 Build 0)  -->
<!DOCTYPE svg PUBLIC "-//W3C//DTD SVG 1.1//EN" "http://www.w3.org/Graphics/SVG/1.1/DTD/svg11.dtd">
<svg version="1.1" id="Layer_5" xmlns="http://www.w3.org/2000/svg" xmlns:xlink="http://www.w3.org/1999/xlink" x="0px" y="0px"
	 width="512px" height="512px" viewBox="0 0 512 512" enable-background="new 0 0 512 512" xml:space="preserve">
<path fill="#00ACED" d="M31.998,368.043C30.74,367.902,33.251,368.043,31.998,368.043L31.998,368.043z"/>
<path fill="#00ACED" d="M63.998,56.059C63.173,56.059,64.826,55.984,63.998,56.059L63.998,56.059z"/>
<g>
	<path fill="#FFFFFF" d="M186.25,362.532v-37.418c-15.774-0.367-30.449-4.769-39.253-9.538l7.337-37.786
		c10.639,6.235,23.112,10.272,38.153,10.272c17.609,0,27.147-10.272,27.147-24.214c0-15.04-9.538-25.679-28.247-37.418
		c-28.982-17.976-44.022-35.218-44.022-63.833c0-27.514,16.508-50.625,44.022-59.797V65.381h31.183v33.751
		c14.674,0,27.513,4.401,36.318,9.171l-8.071,36.686c-7.704-4.402-16.875-9.172-31.917-9.172c-17.241,0-26.413,10.272-26.413,22.745
		c0,12.474,4.769,19.443,30.083,34.852c31.182,18.709,41.821,39.987,41.821,66.033c0,32.65-18.709,55.396-46.957,62.365v40.721
		H186.25z"/>
</g>
<g>
	<path fill="#FFFFFF" d="M277.682,278.021c0-14.922-0.505-27.566-1.012-39.201h28.834l1.771,14.163h0.505
		c5.059-10.117,14.416-16.187,25.798-16.187c27.315,0,38.443,29.338,38.443,63.735c0,44.008-19.475,63.987-40.213,63.987
		c-10.119,0-16.946-6.322-20.487-12.14h-0.505v58.676h-33.134V278.021z M310.815,317.224c0,4.301,0.505,8.094,1.77,10.623
		c2.529,7.588,6.829,9.611,10.623,9.611c11.634,0,15.681-17.198,15.681-36.673c0-23.521-5.564-36.168-15.428-36.168
		c-5.059,0-9.864,4.805-11.129,10.623c-1.265,2.529-1.517,5.816-1.517,8.852V317.224z"/>
</g>
</svg>
