<?xml version="1.0" encoding="utf-8"?>
<!-- Generator: Adobe Illustrator 16.0.0, SVG Export Plug-In . SVG Version: 6.00 Build 0)  -->
<!DOCTYPE svg PUBLIC "-//W3C//DTD SVG 1.1//EN" "http://www.w3.org/Graphics/SVG/1.1/DTD/svg11.dtd">
<svg version="1.1" id="Layer_1" xmlns="http://www.w3.org/2000/svg" xmlns:xlink="http://www.w3.org/1999/xlink" x="0px" y="0px"
	 width="1080px" height="1080px" viewBox="0 0 1080 1080" enable-background="new 0 0 1080 1080" xml:space="preserve">
<g>
	<g>
		
			<image overflow="visible" opacity="0.75" width="3724" height="1937" xlink:href="FEEEAF28.png"  transform="matrix(0.24 0 0 0.24 104.4336 514.1421)">
		</image>
		<g>
			<ellipse fill-rule="evenodd" clip-rule="evenodd" fill="#E75300" cx="544.283" cy="739.553" rx="431.85" ry="217.41"/>
		</g>
	</g>
	<path fill-rule="evenodd" clip-rule="evenodd" fill="#CECCDF" d="M1004.984,344.156c0.147,0.401,0.183,0.916,0.458,1.186
		c10.769,10.621,8.253,23.675,6.854,36.594c-0.777,7.184-0.733,14.426-1.319,21.647c-1.839,22.67-2.505,45.436-4.238,68.117
		c-1.927,25.219-3.37,50.466-5.144,75.694c-1.803,25.652-3.462,51.313-5.155,76.973c-1.667,25.234-3.652,50.443-5.097,75.696
		c-1.214,21.198-3.403,42.34-4.793,63.531c-0.386,5.872-2.576,9.716-8.053,11.695c-1.906-1.382-3.315-0.38-5.146,0.58
		c-33.402,17.499-66.869,34.876-100.325,52.272c-32.72,17.014-65.417,34.073-98.172,51.019
		c-30.113,15.576-60.319,30.974-90.429,46.558c-12.865,6.658-25.947,13.006-38.287,20.547
		c-16.685,10.192-31.999,10.202-49.809,1.071c-73.481-37.676-147.567-74.174-221.441-111.084c-2.471-1.234-5.098-2.157-7.575-3.383
		c-16.446-8.138-32.879-16.303-49.281-24.529c-0.871-0.438-1.42-1.517-2.12-2.296c4.336-7.23,8.672-14.464,13.008-21.695
		c12.877,5.181,24.797,12.266,37.136,18.522c34.257,17.373,68.928,33.948,102.873,51.899c11.486,6.075,20.582,4.605,30.925-1.418
		c25.38-14.78,51.038-29.085,76.65-43.463c2.945-1.654,5.844-3.339,5.826-6.907c-0.018-3.569-3.492-4.5-6.109-5.818
		c-18.25-9.197-36.533-18.325-54.776-27.534c-30.471-15.38-60.937-30.766-91.365-46.229c-7.336-3.727-14.272-4.303-21.838-0.1
		c-17.875,9.931-35.97,19.469-54.074,28.98c-4.087,2.146-7.909,5.211-12.912,5.172c6.637-15.597,3.631-28.964-9.035-40.298
		c-11.033-9.872-23.315-17.742-36.776-23.833c-1.657-1.335-3.047-2.814-4.123-4.741c-5.088-9.104-10.142-18.241-15.586-27.135
		c-5.313-8.682-7.468-17.501-3.09-27.179c10.173-3.912,19.535-9.438,29.138-14.506c21.692-11.454,43.502-22.685,65.271-33.995
		c32.557-16.916,65.139-33.784,97.663-50.765c8.24-4.301,16.649-7.707,26.17-7.04c3.229,0.226,4.468-0.953,4.617-4.337
		c0.71-16.148,1.482-32.299,2.589-48.427c2.008-29.28,3.676-58.576,5.287-87.88c1.132-20.585,2.565-41.163,3.664-61.758
		c1.597-29.943,3.191-59.89,5.272-89.802c0.916-13.152,1.67-26.306,2.439-39.463c1.487-25.462,3.186-50.914,5.069-76.35
		c0.678-9.149,8.934-13.716,17.152-9.613c62.069,30.985,124.112,62.025,186.115,93.147c45.015,22.595,89.951,45.346,134.935,68
		c1.128,0.568,2.405,0.839,3.613,1.247c0.824,0.632,1.57,1.416,2.48,1.875c22.872,11.512,45.76,22.991,68.646,34.474
		c22.877,11.561,45.758,23.117,68.618,34.711C1002.604,344.406,1003.709,344.752,1004.984,344.156z M766.142,872.746
		c2.917,0.235,5.536-0.213,8.109-1.593c30.8-16.52,61.62-33,92.469-49.43c21.634-11.522,43.316-22.955,64.983-34.419
		c2.104-1.113,4.416-2.213,4.492-4.923c0.075-2.665-2.474-3.226-4.306-4.17c-15.167-7.821-30.328-15.652-45.543-23.38
		c-54.802-27.831-109.971-54.926-164.722-82.87c-81.172-41.427-162.805-81.946-244.177-122.98
		c-6.711-3.384-12.682-3.247-19.365,0.083c-22.727,11.315-45.346,22.84-68.267,33.781c-28.506,13.608-56.579,28.119-84.836,42.246
		c-3.416,1.707-7.14,2.97-7.037,7.999c0.098,4.718,3.271,6.64,6.735,8.437c12.115,6.287,24.233,12.568,36.382,18.79
		c36.849,18.869,74.176,36.779,110.864,55.981c37.999,19.888,76.826,38.16,114.833,58.061
		c36.674,19.202,74.154,36.819,110.832,56.043c26.466,13.867,53.413,26.815,80.119,40.223
		C760.43,871.989,763.104,873.215,766.142,872.746z M1007.215,368.837c1.962-11.088-4.675-19.341-16.865-25.436
		c-95.382-47.679-190.612-95.662-285.891-143.549c-53.172-26.724-106.337-53.463-159.525-80.151
		c-11.572-5.806-19.264-1.262-19.925,11.551c-0.319,6.183-0.763,12.357-1.129,18.538c-2.965,49.865-5.927,99.731-8.884,149.596
		c-4.311,72.667-8.461,145.345-13.13,217.991c-0.557,8.66,1.716,12.683,9.678,16.754c152.255,77.876,306.591,151.607,458.39,230.385
		c5.127,2.66,7.542,0.661,9.721-3.226c1.373-2.447,1.438-5.299,1.589-8.097c0.481-8.953,1.04-17.902,1.645-26.849
		c2.87-42.381,5.779-84.758,8.643-127.139c2.273-33.65,4.463-67.307,6.755-100.956
		C1001.159,456.087,1004.102,413.925,1007.215,368.837z"/>
	<path fill-rule="evenodd" clip-rule="evenodd" fill="#302F42" d="M135.102,834.531c-7.046,2.07-13.588,5.565-20.96,6.816
		c-5.762,0.979-9.553-0.045-12.453-5.731c-15.264-29.938-30.384-59.937-41.379-91.774c-5.79-16.767-5.251-17.512,10.14-25.704
		c16.152-8.598,32.916-15.904,49.545-23.491c4.468-0.172,8.993,0.042,13.392-0.6c7.67-1.122,15.224-1.205,22.804,0.492
		c1.517,0.339,3.038,0.384,3.273,2.324c1.576,13.054,5.915,25.641,6.531,38.854c-1.791,1.607-3.582,3.215-5.374,4.822
		c-8.715,6.448-17.43,12.895-26.546,19.64c6.477,6.958,13.171,13.104,18.677,20.314c4.409,5.773,8.473,11.726,11.125,18.557
		c2.554,6.575,2.811,12.854-1.987,18.619C153.683,824.433,144.363,829.436,135.102,834.531z"/>
	<path fill-rule="evenodd" clip-rule="evenodd" fill="#403E56" d="M272.648,634.27c-4.378,9.678-2.223,18.497,3.09,27.179
		c5.444,8.894,10.498,18.03,15.586,27.135c1.076,1.927,2.466,3.406,4.123,4.741c-0.677,2.312,1.798,4.318,0.446,7.425
		c-9.85-5.19-19.637-10.157-29.225-15.48c-4.84-2.687-7.164-2.687-8.687,3.646c-2.569,10.682-6.183,21.118-9.573,31.589
		c-1.119,3.453-2.703,6.941-7.524,6.143c-6.13-1.636-12.26-3.271-18.39-4.905c-2.897-2.169-4.044-4.35-2.965-8.502
		c3.715-14.295,6.782-28.764,9.894-43.209c0.693-3.221,2.75-7.211-2.393-9.067c-0.193-3.44-3.309-4.771-5.203-6.895
		c-5-5.612-6.94-11.665-5.815-19.339c5.502-37.521,8.749-75.301,12.234-113.047c0.397-3.904,0.795-7.809,1.193-11.711
		c4.049-0.351,8.244,0.731,12.125-1.244c18.174,6.137,30.951,19.839,44.669,32.141c4.97,4.457,4.566,10.627,3.469,16.743
		C285.08,583.4,278.607,608.777,272.648,634.27z M233.608,645.627c0.527,0.055,1.053,0.107,1.58,0.163
		c6.875-26.913,13.748-53.829,20.622-80.743c-0.579-0.146-1.158-0.293-1.737-0.438C242.171,590.323,239.336,618.344,233.608,645.627
		z"/>
	<path fill-rule="evenodd" clip-rule="evenodd" fill="#302F42" d="M240.885,726.646c4.821,0.799,6.406-2.689,7.524-6.143
		c3.39-10.471,7.004-20.907,9.573-31.589c1.523-6.332,3.846-6.332,8.687-3.646c9.588,5.323,19.375,10.29,29.225,15.48
		c1.352-3.106-1.123-5.113-0.446-7.425c13.46,6.091,25.743,13.961,36.776,23.833c12.666,11.334,15.672,24.701,9.035,40.298
		c-4.112,8.964-8.225,17.93-12.337,26.895c-4.335,7.231-8.672,14.465-13.008,21.695c-2.064,2.585-4.342,5.036-5.266,8.342
		c-4.594,5.581-9.392,11.008-13.732,16.778c-5.333,7.093-11.479,10.572-20.178,6.131c-10.07-3.144-19.899-6.796-28.294-13.463
		c-8.077-8.979-5.686-18.582-1.644-28.255c1.211-2.898,2.585-5.728,3.883-8.588c2.029-3.466,4.057-6.93,6.084-10.396
		c3.08-4.349,6.027-8.8,9.292-13.005c1.769-2.278,1.933-3.78-0.392-5.792c-8.057-6.971-15.966-14.115-23.931-21.192
		C240.771,733.344,240.412,730.031,240.885,726.646z"/>
	<path fill-rule="evenodd" clip-rule="evenodd" fill="#403E56" d="M165.994,735.718c-0.616-13.214-4.955-25.801-6.531-38.854
		c-0.235-1.94-1.756-1.985-3.273-2.324c-7.581-1.697-15.134-1.614-22.804-0.492c-4.399,0.642-8.924,0.428-13.392,0.6
		c-1.883-4.217,0.437-7.532,2.734-10.493c7.581-9.771,15.25-19.484,23.229-28.93c3.046-3.604,4.124-7.132,3.247-11.692
		c-6.719-34.925-13.285-69.881-20.06-104.795c-0.848-4.37,0.954-7.322,4.195-9.14c13.334-7.477,26.607-15.251,42.227-17.103
		c3.401-0.403,6.699-1.037,9.753-2.642c3,4.283,3.607,9.423,5.104,14.243c0.825,12.722,1.871,25.434,2.429,38.167
		c1.106,25.288,0.742,50.628,2.604,75.89c0.472,6.4,0.182,12.734-1.189,19.011c-1.721,3.871-2.812,8.225-5.313,11.501
		c-3.557,4.657-3.022,9.144-1.961,14.252c3.001,14.456,5.684,28.977,8.492,43.473c-0.852,0.108-1.705,0.218-2.559,0.326
		c-8.918-2.117-15.316,2.991-21.877,7.632C169.369,734.814,168.127,736.91,165.994,735.718z M182.602,660.008
		c0.382-0.14,0.764-0.279,1.146-0.419c0-2.757,0.269-5.546-0.045-8.268c-1.551-13.432-3.108-26.866-4.941-40.264
		c-2.325-16.985-5.013-33.929-10.285-50.3c-1.362-4.229-2.666-8.842-7.908-12.135C168.049,586.438,175.325,623.223,182.602,660.008z
		"/>
	<path fill-rule="evenodd" clip-rule="evenodd" fill="#E75300" d="M1004.984,344.156c-1.275,0.596-2.381,0.25-3.598-0.369
		c-22.86-11.594-45.741-23.15-68.62-34.713c-3.532-19.644-4.055-39.356-1.268-59.135c4.66-19.311,10.854-38.071,20.506-55.523
		c3.403-6.151,7.321-12.017,10.872-18.09c1.717-2.936,3.247-2.703,5.264-0.335c24.252,28.475,41.899,60.053,46.565,97.872
		C1017.708,298.186,1012.869,321.369,1004.984,344.156z"/>
	<path fill-rule="evenodd" clip-rule="evenodd" fill="#BCB9CB" d="M310.648,814.387c0.923-3.306,3.201-5.757,5.266-8.342
		c0.699,0.779,1.249,1.858,2.12,2.296c16.401,8.227,32.834,16.392,49.281,24.529c2.477,1.226,5.104,2.148,7.575,3.383
		c73.874,36.91,147.96,73.408,221.441,111.084c17.81,9.131,33.124,9.121,49.809-1.071c12.34-7.541,25.422-13.889,38.287-20.547
		c30.109-15.584,60.315-30.981,90.429-46.558c32.755-16.945,65.452-34.005,98.172-51.019
		c33.456-17.396,66.923-34.773,100.325-52.272c1.831-0.96,3.24-1.962,5.146-0.58c1.293,7.508-1.437,12.043-8.606,15.634
		c-53.407,26.753-106.6,53.938-159.864,80.979c-58.4,29.648-116.897,59.111-175.139,89.072c-12.617,6.489-24.041,6.129-36.431-0.153
		c-64.133-32.515-128.418-64.728-192.632-97.086c-29.912-15.072-59.788-30.218-89.648-45.392
		C314.174,817.326,311.572,816.979,310.648,814.387z"/>
	<path fill-rule="evenodd" clip-rule="evenodd" fill="#323043" d="M241.565,508.726c-3.881,1.976-8.076,0.894-12.125,1.244
		c-1.497-5.924-0.338-11.998-1.02-17.966c6.078-6.867,8.969-15.522,13.189-23.433c2.177-4.083-1.869-12.354-6.562-12.379
		c-6.108-0.032-11.883,0.097-13.019-8.316c-2.577,2.876,0.382,7.254-4.947,7.456c-5.008,0.189-5.258-3.053-6.141-6.29
		c-0.729-2.677-0.892-5.601-3.199-8.772c-0.743,4.354-1.734,7.65-1.762,10.953c-0.036,4.432-2.114,5.225-5.981,5.009
		c-6.167-0.342-12.361-0.313-18.542-0.268c-5.057,0.036-9.862,7.837-7.638,12.346c4.35,8.815,7.651,18.289,15.435,24.986
		c-0.798,4.5-0.365,9.266-2.911,13.384c-2.119-0.241-4.254-0.387-6.354-0.74c-11.274-1.899-12.676-3.798-13.022-15.27
		c-0.392-12.983-1.98-25.938,0.225-38.93c4.218-24.868,29.281-42.747,51.768-36.761c10.452,2.782,18.33,9.278,23.792,18.226
		c8.877,14.543,16.447,29.811,22.441,45.799c1.426,3.8,2.251,7.763,2.119,11.887c-0.24,7.437-5.864,13.874-13.138,15.247
		c-2.501,0.472-3.354-0.436-3.993-2.688c-1.085-3.828-2.532-7.552-4.063-12.003C243.525,497.52,244.248,503.573,241.565,508.726z"/>
	<path fill-rule="evenodd" clip-rule="evenodd" fill="#302F42" d="M931.499,249.938c-2.787,19.779-2.265,39.491,1.268,59.135
		c-22.885-11.481-45.772-22.959-68.645-34.472c-0.91-0.458-1.656-1.242-2.48-1.875c-4.609-20.661-6.4-41.509-4.471-63.184
		C885.107,217.935,909.753,231.243,931.499,249.938z"/>
	<path fill-rule="evenodd" clip-rule="evenodd" fill="#FDB8B8" d="M135.102,834.531c9.261-5.096,18.582-10.099,26.789-16.861
		c4.061,9.333,9.087,17.755,19.757,20.808c3.587,1.027,6.303,3.292,6.862,6.899c0.909,5.87,1.865,11.998-1.064,17.575
		c-4.708,8.961-4.126,17.58,0.799,26.155c2.761,4.807,3.826,9.712,2.048,15.262c-2.51,7.843-7.557,11.49-15.792,10.736
		c-6.87-0.628-12.349-6.35-12.159-14.06c0.287-11.706-1.786-22.88-5.581-33.851c-2.831-8.186-6.798-15.593-13.405-21.454
		C139.848,842.629,136.755,839.075,135.102,834.531z"/>
	<path fill-rule="evenodd" clip-rule="evenodd" fill="#FDB8B8" d="M248.444,823.833c8.396,6.667,18.224,10.319,28.294,13.463
		c-14.508,11.781-18.631,28.366-20.983,45.702c-0.455,3.354,0.002,6.82-0.205,10.218c-0.383,6.271-2.299,11.847-8.619,14.488
		c-5.339,2.232-10.948,1.637-14.938-2.332c-4.647-4.621-7.047-10.674-4.919-17.496c0.75-2.406,2.033-4.652,3.145-6.935
		c3.499-7.179,5.109-14.629,1.135-21.978c-3.051-5.646-2.893-11.492-2.506-17.411c0.332-5.068,2.616-8.975,8.244-9.812
		C242.19,830.983,244.438,826.15,248.444,823.833z"/>
	<path fill-rule="evenodd" clip-rule="evenodd" fill="#E4A5A5" d="M228.421,492.003c0.682,5.968-0.478,12.042,1.02,17.966
		c-0.397,3.903-0.795,7.808-1.193,11.711c-1.537,1.461-3.103,2.895-4.607,4.39c-7.481,7.437-12.557,8.603-22.276,4.379
		c-3.842-1.67-7.305-4.21-10.941-6.355c-1.497-4.82-2.105-9.96-5.104-14.243c0.342-1.057,0.683-2.113,1.024-3.171
		c2.547-4.118,2.114-8.884,2.912-13.384c9.881,4.198,19.838,7.373,30.47,2.481C222.595,494.458,225.521,493.258,228.421,492.003z"/>
	<path fill-rule="evenodd" clip-rule="evenodd" fill="#BBB8CA" d="M256.768,776.595c-2.027,3.466-4.056,6.93-6.084,10.396
		c-1.049-2.751-3.779-3.261-5.988-4.403c-21.144-10.939-42.308-21.839-63.467-32.749c0,0,0.218-0.244,0.216-0.243
		c5.348,0.834,10.845,2.542,15.193-2.559c0.821,0.637,1.563,1.431,2.474,1.888c17.593,8.838,35.209,17.631,52.808,26.455
		C253.463,776.154,255.009,776.756,256.768,776.595z"/>
	<path fill-rule="evenodd" clip-rule="evenodd" fill="#BBB8CA" d="M165.994,735.718c2.133,1.192,3.375-0.903,5.057-1.372
		c1.247,5.826,5.758,9.54,9.082,14.022l-0.38,0.402c-6.948-1.417-12.345-6.438-19.131-8.23
		C162.412,738.933,164.203,737.325,165.994,735.718z"/>
	<path fill-rule="evenodd" clip-rule="evenodd" fill="#BBB8CA" d="M181.228,749.838c-0.49-0.357-0.98-0.715-1.474-1.069
		c-0.002,0.002,0.378-0.4,0.377-0.4c0.438,0.409,0.876,0.817,1.314,1.226L181.228,749.838z"/>
	<path fill-rule="evenodd" clip-rule="evenodd" fill="#BBB8CA" d="M766.142,872.746c-3.038,0.469-5.712-0.757-8.433-2.121
		c-26.706-13.407-53.653-26.355-80.119-40.223c-36.678-19.224-74.158-36.841-110.832-56.043
		c-38.007-19.9-76.834-38.173-114.833-58.061c-36.688-19.202-74.016-37.112-110.864-55.981
		c-12.149-6.222-24.267-12.503-36.382-18.79c-3.465-1.797-6.638-3.719-6.735-8.437c-0.103-5.029,3.622-6.292,7.037-7.999
		c28.257-14.127,56.331-28.638,84.836-42.246c22.921-10.941,45.541-22.466,68.267-33.781c6.683-3.33,12.654-3.467,19.365-0.083
		c81.372,41.034,163.005,81.554,244.177,122.98c54.751,27.944,109.92,55.039,164.722,82.87c15.215,7.728,30.376,15.559,45.543,23.38
		c1.832,0.944,4.381,1.505,4.306,4.17c-0.076,2.71-2.388,3.81-4.492,4.923c-21.667,11.464-43.35,22.896-64.983,34.419
		c-30.849,16.43-61.669,32.91-92.469,49.43C771.678,872.533,769.059,872.981,766.142,872.746z"/>
	<path fill-rule="evenodd" clip-rule="evenodd" fill="#413F58" d="M1007.215,368.837c-3.113,45.088-6.056,87.25-8.931,129.414
		c-2.292,33.649-4.481,67.306-6.755,100.956c-2.863,42.381-5.772,84.758-8.643,127.139c-0.604,8.946-1.163,17.896-1.645,26.849
		c-0.15,2.798-0.216,5.649-1.589,8.097c-2.179,3.887-4.594,5.886-9.721,3.226c-151.799-78.778-306.135-152.509-458.39-230.385
		c-7.962-4.072-10.234-8.094-9.678-16.754c4.668-72.646,8.819-145.324,13.13-217.991c2.958-49.865,5.919-99.731,8.884-149.596
		c0.367-6.18,0.81-12.355,1.129-18.538c0.662-12.813,8.353-17.356,19.925-11.551c53.188,26.688,106.354,53.427,159.525,80.151
		c95.278,47.887,190.509,95.87,285.891,143.549C1002.54,349.496,1009.177,357.75,1007.215,368.837z M566.469,151.094
		c-10.388-5.879-18.795-3.575-19.559,5.849c-1.259,15.513-1.79,31.085-2.627,46.633c-5.482,15.846-12.711,30.975-19.029,46.478
		c-3.852,9.453-3.932,9.42,4.568,14.913c-1.533,3.479-2.931,7.025-4.636,10.416c-1.458,2.897-0.72,4.332,2.125,5.865
		c4.034,2.173,8.7,3.36,11.881,6.994c-2.202,36.229-4.426,72.457-6.604,108.687c-2.37,39.43-4.607,78.867-7.17,118.284
		c-0.277,4.272,0.603,6.413,4.52,8.367c21.933,10.937,43.708,22.188,65.538,33.331c115.604,59.009,231.207,118.022,346.816,177.021
		c10.877,5.552,16.638,2.405,17.501-9.726c1.834-25.768,3.522-51.548,5.271-77.322c3.277-48.353,6.552-96.705,9.836-145.059
		c2.792-41.111,5.497-82.23,8.444-123.329c0.938-13.086-2.092-19.083-13.998-25.083c-25.318-12.755-50.649-25.489-75.971-38.238
		c-71.19-35.839-142.379-71.682-213.568-107.522c0.482-2.504,2.049-4.744-1.851-6.641c-35.202-17.117-70.294-34.462-105.372-51.826
		C569.646,147.732,567.793,148.162,566.469,151.094z"/>
	<path fill-rule="evenodd" clip-rule="evenodd" fill="#BBB8CA" d="M328.921,784.35c4.112-8.965,8.225-17.931,12.337-26.895
		c5.002,0.039,8.824-3.026,12.911-5.172c18.104-9.512,36.199-19.05,54.074-28.98c7.566-4.203,14.501-3.627,21.838,0.1
		c30.428,15.463,60.894,30.849,91.365,46.229c18.243,9.209,36.526,18.337,54.776,27.534c2.617,1.318,6.092,2.249,6.109,5.818
		c0.018,3.568-2.881,5.253-5.826,6.907c-25.612,14.378-51.271,28.683-76.65,43.463c-10.343,6.023-19.438,7.493-30.925,1.418
		c-33.945-17.951-68.616-34.526-102.873-51.899C353.718,796.615,341.798,789.53,328.921,784.35z"/>
	<path fill-rule="evenodd" clip-rule="evenodd" fill="#CDCADE" d="M190.424,524.095c3.636,2.145,7.099,4.685,10.941,6.355
		c9.719,4.223,14.795,3.058,22.276-4.379c1.504-1.495,3.07-2.928,4.607-4.39c-3.486,37.747-6.732,75.526-12.234,113.047
		c-1.125,7.674,0.815,13.727,5.815,19.339c1.894,2.124,5.01,3.454,5.204,6.895c-11.221,1.31-22.345,1.79-32.765-3.8
		c1.371-6.276,1.662-12.61,1.189-19.011c-1.862-25.262-1.498-50.602-2.604-75.89C192.295,549.529,191.249,536.817,190.424,524.095z"
		/>
	<path fill-rule="evenodd" clip-rule="evenodd" fill="#302F42" d="M194.267,657.162c10.42,5.59,21.544,5.109,32.765,3.8
		c5.142,1.856,3.085,5.847,2.392,9.067c-3.112,14.445-6.179,28.914-9.894,43.209c-1.08,4.152,0.067,6.333,2.965,8.502
		c-0.299,1.825,0.333,3.882-1.327,5.372c-8.561-0.241-17.121-0.483-25.682-0.725c-2.808-14.496-5.491-29.017-8.492-43.473
		c-1.061-5.108-1.596-9.595,1.961-14.252C191.456,665.387,192.546,661.033,194.267,657.162z"/>
	<path fill-rule="evenodd" clip-rule="evenodd" fill="#FDB8B8" d="M221.168,727.112c1.66-1.49,1.027-3.547,1.327-5.372
		c6.13,1.635,12.26,3.27,18.39,4.905c-0.473,3.386-0.113,6.698,0.853,9.96c-0.044,1.918-0.078,3.835-0.135,5.75
		c-0.29,9.68-5.281,15.524-12.779,14.973c-6.922-0.509-11.462-8.139-10.156-17.122c0.122-0.834,0.5-1.629,0.65-2.462
		C219.956,734.204,220.555,730.657,221.168,727.112z"/>
	<path fill-rule="evenodd" clip-rule="evenodd" fill="#323043" d="M233.608,645.627c5.728-27.283,8.563-55.304,20.465-81.018
		c0.579,0.145,1.158,0.291,1.737,0.438c-6.874,26.914-13.747,53.83-20.622,80.743C234.662,645.734,234.136,645.682,233.608,645.627z
		"/>
	<path fill-rule="evenodd" clip-rule="evenodd" fill="#CDCADE" d="M221.168,727.112c-0.613,3.545-1.212,7.092-1.851,10.632
		c-0.15,0.833-0.529,1.628-0.65,2.462c-1.306,8.983,3.234,16.613,10.156,17.122c7.498,0.552,12.489-5.293,12.779-14.973
		c0.057-1.915,0.091-3.832,0.135-5.75c7.965,7.077,15.874,14.222,23.931,21.192c2.324,2.012,2.161,3.514,0.392,5.792
		c-3.265,4.205-6.212,8.656-9.292,13.005c-1.759,0.161-3.305-0.44-4.848-1.216c-17.599-8.824-35.215-17.617-52.808-26.455
		c-0.911-0.457-1.653-1.251-2.472-1.888c0.699-7.127-1.021-13.813-3.712-20.322c0.854-0.108,1.707-0.218,2.559-0.326
		C204.047,726.629,212.607,726.871,221.168,727.112z"/>
	<path fill-rule="evenodd" clip-rule="evenodd" fill="#323043" d="M182.602,660.008c-7.277-36.785-14.553-73.57-22.034-111.385
		c5.242,3.293,6.546,7.906,7.908,12.135c5.271,16.371,7.96,33.314,10.285,50.3c1.833,13.397,3.391,26.832,4.941,40.264
		c0.313,2.722,0.045,5.511,0.045,8.268C183.365,659.729,182.983,659.868,182.602,660.008z"/>
	<path fill-rule="evenodd" clip-rule="evenodd" fill="#FBB5B6" d="M192.927,726.714c2.691,6.509,4.411,13.195,3.712,20.322
		c-4.35,5.101-9.847,3.393-15.195,2.559c-0.437-0.409-0.875-0.817-1.313-1.227c-3.323-4.482-7.834-8.196-9.081-14.022
		C177.611,729.705,184.009,724.597,192.927,726.714z"/>
	<path fill-rule="evenodd" clip-rule="evenodd" fill="#FBB5B6" d="M228.421,492.003c-2.9,1.254-5.826,2.454-8.696,3.775
		c-10.632,4.892-20.589,1.716-30.47-2.481c-7.784-6.697-11.085-16.171-15.435-24.986c-2.224-4.509,2.581-12.31,7.638-12.346
		c6.181-0.045,12.376-0.074,18.542,0.268c3.867,0.215,5.945-0.577,5.981-5.009c0.027-3.303,1.019-6.598,1.762-10.953
		c2.307,3.171,2.47,6.095,3.199,8.772c0.882,3.237,1.132,6.479,6.141,6.29c5.33-0.202,2.371-4.58,4.947-7.456
		c1.136,8.413,6.911,8.284,13.019,8.316c4.693,0.025,8.739,8.296,6.562,12.379C237.39,476.481,234.499,485.136,228.421,492.003z"/>
	<path fill-rule="evenodd" clip-rule="evenodd" fill="#FEFEFE" d="M679.807,207.653c71.189,35.84,142.378,71.683,213.568,107.522
		c25.321,12.749,50.652,25.482,75.971,38.238c11.906,6,14.937,11.997,13.998,25.083c-2.947,41.099-5.652,82.217-8.444,123.329
		c-3.284,48.354-6.559,96.706-9.836,145.059c-1.748,25.774-3.437,51.555-5.271,77.322c-0.863,12.131-6.624,15.277-17.501,9.726
		c-115.609-58.999-231.213-118.013-346.816-177.021c-21.83-11.143-43.605-22.395-65.538-33.331c-3.917-1.955-4.797-4.095-4.52-8.367
		c2.563-39.417,4.8-78.854,7.17-118.284c2.179-36.23,4.402-72.458,6.604-108.687c2.153,0.884,4.394,1.605,6.45,2.677
		c27.964,14.576,55.933,29.142,83.813,43.877c3.958,2.092,5.649,1.854,7.202-2.781c10.478-31.275,21.251-62.451,31.912-93.664
		c0.444-1.302,1.716-2.689-0.083-3.973C671.553,225.17,675.455,216.315,679.807,207.653z M823.729,455.825
		c0.351-0.677,0.702-1.354,1.053-2.031c-49.581-25.348-99.162-50.698-148.745-76.046c-0.338,0.663-0.676,1.326-1.014,1.99
		C724.591,405.1,774.159,430.462,823.729,455.825z M823.663,432.195c0.288-0.674,0.577-1.347,0.866-2.021
		c-49.525-24.753-99.051-49.507-148.575-74.261c-0.323,0.648-0.646,1.297-0.97,1.947
		C724.545,382.637,774.104,407.416,823.663,432.195z M786.531,464.554c0.379-0.653,0.758-1.307,1.137-1.96
		c-27.92-14.253-55.84-28.503-83.761-42.756c-0.331,0.656-0.664,1.314-0.997,1.971C730.782,436.056,758.656,450.306,786.531,464.554
		z"/>
	<path fill-rule="evenodd" clip-rule="evenodd" fill="#E75300" d="M679.807,207.653c-4.352,8.663-8.254,17.517-11.32,26.724
		c-0.813,1.471-1.763,2.884-2.417,4.421c-10.443,24.531-21.012,49.013-31.136,73.674c-2.171,5.287-4.135,5.438-8.693,2.842
		c-10.008-5.697-20.338-10.83-30.561-16.149c-21.944-11.413-43.904-22.8-65.857-34.199c-8.5-5.493-8.42-5.46-4.568-14.913
		c6.318-15.502,13.547-30.632,19.029-46.478c8.133-17.183,15.363-34.746,22.186-52.482c1.324-2.932,3.178-3.362,6.115-1.908
		c35.078,17.364,70.17,34.709,105.372,51.826C681.855,202.909,680.289,205.149,679.807,207.653z M649.434,236.299
		c0.293-0.631,0.585-1.261,0.878-1.892c-27.889-14.232-55.777-28.462-83.666-42.692c-0.304,0.596-0.606,1.194-0.909,1.792
		C593.635,207.771,621.535,222.034,649.434,236.299z M643.038,251.689c0.282-0.639,0.563-1.275,0.843-1.911
		c-27.876-14.223-55.752-28.446-83.627-42.67c-0.303,0.598-0.606,1.195-0.909,1.794
		C587.243,223.163,615.141,237.426,643.038,251.689z"/>
	<path fill-rule="evenodd" clip-rule="evenodd" fill="#EFEFF1" d="M529.822,264.966c21.953,11.398,43.913,22.786,65.857,34.199
		c10.223,5.319,20.553,10.452,30.561,16.149c4.559,2.595,6.522,2.445,8.693-2.842c10.124-24.661,20.692-49.143,31.136-73.674
		c0.654-1.537,1.604-2.95,2.417-4.421c1.799,1.284,0.527,2.671,0.083,3.973c-10.661,31.213-21.435,62.388-31.912,93.664
		c-1.553,4.635-3.244,4.873-7.202,2.781c-27.88-14.735-55.849-29.301-83.813-43.877c-2.057-1.072-4.297-1.793-6.45-2.677
		c-3.182-3.633-7.848-4.82-11.881-6.994c-2.845-1.533-3.583-2.967-2.125-5.865C526.892,271.991,528.29,268.446,529.822,264.966z"/>
	<path fill-rule="evenodd" clip-rule="evenodd" fill="#FEFEFE" d="M566.469,151.094c-6.822,17.736-14.053,35.299-22.186,52.482
		c0.837-15.547,1.368-31.12,2.627-46.633C547.674,147.52,556.081,145.215,566.469,151.094z"/>
	<path fill-rule="evenodd" clip-rule="evenodd" fill="#8B84FE" d="M823.729,455.825c-49.569-25.363-99.138-50.726-148.706-76.087
		c0.338-0.664,0.676-1.327,1.014-1.99c49.583,25.349,99.164,50.698,148.745,76.046C824.431,454.471,824.079,455.148,823.729,455.825
		z"/>
	<path fill-rule="evenodd" clip-rule="evenodd" fill="#8B84FE" d="M823.663,432.195c-49.56-24.779-99.118-49.558-148.679-74.335
		c0.323-0.65,0.646-1.298,0.97-1.947c49.524,24.753,99.05,49.507,148.575,74.261C824.24,430.848,823.951,431.521,823.663,432.195z"
		/>
	<path fill-rule="evenodd" clip-rule="evenodd" fill="#8B84FE" d="M786.531,464.554c-27.875-14.248-55.749-28.499-83.621-42.746
		c0.333-0.656,0.666-1.315,0.997-1.971c27.921,14.253,55.841,28.503,83.761,42.756C787.289,463.247,786.91,463.901,786.531,464.554z
		"/>
	<path fill-rule="evenodd" clip-rule="evenodd" fill="#EFEFF1" d="M649.434,236.299c-27.898-14.265-55.799-28.528-83.697-42.792
		c0.303-0.597,0.605-1.196,0.909-1.792c27.889,14.23,55.777,28.46,83.666,42.692C650.019,235.038,649.727,235.668,649.434,236.299z"
		/>
	<path fill-rule="evenodd" clip-rule="evenodd" fill="#EFEFF1" d="M643.038,251.689c-27.897-14.263-55.795-28.526-83.693-42.787
		c0.303-0.599,0.606-1.196,0.909-1.794c27.875,14.224,55.751,28.447,83.627,42.67C643.601,250.414,643.32,251.05,643.038,251.689z"
		/>
</g>
</svg>
