<?xml version="1.0" encoding="utf-8"?>
<!-- Generator: Adobe Illustrator 16.0.0, SVG Export Plug-In . SVG Version: 6.00 Build 0)  -->
<!DOCTYPE svg PUBLIC "-//W3C//DTD SVG 1.1//EN" "http://www.w3.org/Graphics/SVG/1.1/DTD/svg11.dtd">
<svg version="1.1" id="Layer_1" xmlns="http://www.w3.org/2000/svg" xmlns:xlink="http://www.w3.org/1999/xlink" x="0px" y="0px"
	 width="1080px" height="1080px" viewBox="0 0 1080 1080" enable-background="new 0 0 1080 1080" xml:space="preserve">
<ellipse fill-rule="evenodd" clip-rule="evenodd" fill="#B3B3B3" cx="558.117" cy="830.391" rx="462.888" ry="60.556"/>
<g>
	<path fill-rule="evenodd" clip-rule="evenodd" fill="#302F41" d="M359.133,740.57c-0.442,2.553-0.084,4.805,1.538,7.034
		c1.439,1.979,2.235,4.31,2.359,6.959c0.186,3.96-1.442,6.076-5.265,6.298c-4.519,0.262-6.497,2.24-5.854,6.919
		c1.872,13.612,1.041,27.424,2.961,41.044c1.042,7.388-1.477,11.161-8.688,13.463c-6.287,2.006-12.702,2.533-19.086,0.752
		c-6.004-1.674-8.767-5.933-9.217-12.078c-0.7-9.562,1.737-18.518,5.341-27.08c2.899-6.892,2.557-14.283,4.581-21.249
		c0.355-1.224-0.355-2.059-1.279-2.969c-4.088-4.03-4.493-7.816-0.621-11.814c1.952-2.016,2.16-3.877,1.881-6.223
		c-0.565-24.954-1.188-49.908-1.682-74.864c-1.023-51.746-1.976-103.493-2.966-155.24c-0.028-1.496-0.15-2.988-0.229-4.484
		c2.007-0.028,2.707-1.654,3.645-2.986c3.337-4.738,6.524-9.56,8.399-15.11c11.004,0.318,21.471,3.731,32.203,5.614
		c21.641,3.796,42.634,10.65,64.705,12.641c14.896,1.344,28.641-0.416,41.476-8.191c-1.271,31.734-2.494,63.47-3.83,95.2
		c-1.106,26.252-2.225,52.505-3.567,78.746c-1.123,21.92-2.581,43.822-3.891,65.733c-0.646,3.442,0.626,6.468,1.792,9.618
		c2.921,7.889,1.504,11.188-6.25,14.156c-2.802,1.072-2.568,2.649-2.408,5.003c0.72,10.591,5.87,19.958,8.054,30.118
		c1.064,4.95,2.293,9.827,0.875,15.144c-1.764,6.606-6.383,11.049-13.182,11.182c-6.152,0.121-12.22,0.127-17.952-2.888
		c-4.335-2.281-7.038-5.586-5.893-10.303c1.317-5.427,0.809-10.89,1.34-16.305c1.033-10.537,1.052-21.175,1.505-31.77
		c0.067-1.553-0.526-2.545-2.107-2.868c-0.32-0.064-0.617-0.244-0.923-0.376c-12.06-5.199-9.292-7.738-3.991-16.66
		c0.712-1.197,2.32-1.862,2.079-3.638c1.255-27.961,2.546-55.923,3.706-83.888c0.094-2.264-0.562-4.601-1.126-6.839
		c-4.873-19.346-9.794-38.677-14.723-58.008c-3.731-14.637-7.491-29.266-11.284-44.074c-1.366,0.936-1.41,1.976-1.694,2.923
		c-7.253,24.196-14.391,48.43-21.82,72.573c-7.096,23.061-13.925,46.045-14.612,70.535
		C362.979,708.432,360.631,724.489,359.133,740.57z"/>
	<path fill-rule="evenodd" clip-rule="evenodd" fill="#CF9E76" d="M430.896,258.827c-6.406,3.068-10.641,8.848-16.189,13.002
		c-3.31,2.479-6.251,5.45-9.374,8.181c-3.731,3.263-7.105,2.792-9.641-1.408c-4.967-8.229-9.889-16.484-14.83-24.729
		c0.555-1.905,1.098-3.813,1.667-5.714c1.932-6.456,3.246-12.571-2.89-18.012c-2.773-2.46-3.976-6.432-4.736-10.233
		c2.973-2.673,5.247,0.407,8.03,1.423c1.04-9.49,2.101-18.53,2.984-27.587c0.304-3.115,0.934-4.359,4.791-4.127
		c9.418,0.566,18.898,1.084,28.333-0.492c5-0.834,10.104-2.539,15.104,0.167c0.281,0.239,0.563,0.479,0.844,0.718l-0.066-0.096
		c0.902,3.728,3.065,6.832,4.981,10.058c0.148,0.538,0.096,1.266,1.015,1.075l-0.09,0.003c-0.361,4.933,1.366,9.701,0.487,14.783
		c-1.613,9.336-5.873,16.917-13.403,22.458c-2.672,1.965-3.102,3.673-1.997,6.539C427.699,249.451,428.324,254.484,430.896,258.827z
		"/>
	<path fill-rule="evenodd" clip-rule="evenodd" fill="#CF9E76" d="M331.825,482.84c1.042,2.034,2.083,4.068,3.125,6.102
		c-1.875,5.55-5.062,10.372-8.399,15.11c-0.938,1.332-1.638,2.958-3.645,2.986c-2.853,0.235-4.257-1.806-5.354-3.818
		c-6.892-12.657-12.334-25.884-12.664-40.505c-0.361-15.986,0.404-32.007-0.213-47.977c-0.67-17.313,1.48-34.166,5.618-50.877
		c0.396-1.601,0.527-3.269,0.781-4.905c8.517,2.571,16.837,5.799,25.61,7.521c1.188,0.233,2.722,0.215,3.434,1.646
		c-1.943,6.881-5.255,13.216-7.887,19.821c-1.96,4.919-3.952,9.72-4.284,15.211c-1.011,16.729-2.121,33.464-3.813,50.133
		C323.021,464.279,322.593,474.713,331.825,482.84z"/>
	<path fill-rule="evenodd" clip-rule="evenodd" fill="#CF9E76" d="M476.113,417.095c-6.916-2.746-14.305-3.644-21.52-4.952
		c-8.088-1.466-15.448-4.381-22.593-8.172c-0.273-0.294-0.547-0.589-0.82-0.884c-2.259-0.712-3.796-2.886-6.294-3.116
		c-0.23-0.268-0.461-0.534-0.691-0.8c-0.382-0.369-0.765-0.737-1.146-1.106c-6.064-3.3-10.923-8.037-15.557-13.045
		c-2.943-3.18-2.419-6.926-1.792-10.695c7.535-4.659,15.1-4.09,22.677-0.122c3.084,1.615,6.156,3.254,9.234,4.882
		c0.016,0.89,0.732,0.917,1.335,1.084c5.596,6.405,11.628,11.759,21.161,9.953c2.248-0.426,4.646-0.061,6.974-0.063
		c8.618-0.009,10.594-1.979,9.749-10.154c-0.192-1.865-0.249-3.111,1.803-3.833c9.216-3.247,18.159-7.31,27.811-9.243
		c2.036,8.735,4.16,17.438,4.947,26.423c0.887,10.123-2.039,15.326-11.482,18.959C492.266,415.152,484.333,416.876,476.113,417.095z
		"/>
	<path fill-rule="evenodd" clip-rule="evenodd" fill="#313043" d="M434.147,189.295c-5-2.706-10.104-1.001-15.104-0.167
		c-9.435,1.576-18.916,1.059-28.333,0.492c-3.856-0.231-4.487,1.013-4.791,4.127c-0.883,9.058-1.944,18.098-2.984,27.587
		c-2.784-1.016-5.057-4.096-8.03-1.423c-2.653,0.522-3.484-1.352-4.184-3.269c-3.675-10.075-6.167-21.059-1.398-30.576
		c5.117-10.211,11.399-20.643,22.705-25.999c4-1.896,8.327-2.759,12.626-1.842c9.935,2.121,19.488,5.364,28.111,10.952
		c6.371,4.128,9.826,9.68,9.197,17.506c-0.292,3.639-0.246,7.305-0.352,10.958c-3.352-1.603-3.029-6.386-6.685-7.726l0.066,0.096
		C434.709,189.774,434.428,189.535,434.147,189.295z"/>
	<path fill-rule="evenodd" clip-rule="evenodd" fill="#B8B7BF" d="M434.924,189.917c3.656,1.34,3.333,6.123,6.685,7.726
		c0.478,1.306,0.592,2.527-0.779,3.411l0.09-0.003c-0.339-0.358-0.677-0.717-1.015-1.075
		C437.989,196.75,435.827,193.646,434.924,189.917z"/>
	<path fill-rule="evenodd" clip-rule="evenodd" fill="#3F3D56" d="M437.61,379.085c-3.078-1.628-6.149-3.267-9.234-4.882
		c-7.577-3.968-15.142-4.537-22.677,0.122c-4.515-2.868-9.147-5.569-13.487-8.678c-1.931-1.384-3.951-3.043-4.645-5.613
		c-3.12-8.875-2.799-17.807-0.436-26.772c9.878-0.387,19.689,0.633,28.891,4.079c17.229,6.45,34.398,5.95,51.772,1.202
		c2.479,6.132,0.352,12.308,0.183,18.465l0.013-0.022c-1.32,0.67-1.295,1.806-1.044,3.021l0.023-0.028
		c-0.793-0.089-0.986,0.392-0.995,1.046l0.018-0.022c-1.043,0.306-1.365,0.987-1.046,2.004l0.021-0.028
		c-0.748-0.059-1.082,0.295-1.029,1.033l0.026-0.021c-1.009-0.299-1.678,0.049-2.004,1.051c0,0,0.034-0.022,0.034-0.021
		c-1.295-0.061-1.766,0.641-1.698,1.839c-3.967,0.448-5.866,4.429-9.448,5.531c-1.36-0.152-2.435,0.199-2.887,1.645l0.023-0.02
		c-0.664,0.002-1.11,0.231-1.045,0.998l0.027-0.022c-1.812-0.257-3.229,0.265-4.005,2.042l0.021-0.017
		c-0.668-0.005-1.13,0.207-1.051,0.993l0.034-0.026c-0.935-0.164-1.815-0.219-2.028,1.034c0,0,0.029-0.017,0.029-0.018
		C439.184,379.027,438.397,379.056,437.61,379.085z M404.544,349.528c-0.291-1.453-1.015-2.494-2.64-2.417
		c-1.406,0.066-2.063,1.019-2.084,2.327c-0.02,1.299,0.591,2.282,1.99,2.411C403.444,351.999,404.193,350.974,404.544,349.528z"/>
	<path fill-rule="evenodd" clip-rule="evenodd" fill="#B8B7BF" d="M387.133,333.262c-2.363,8.966-2.684,17.897,0.436,26.772
		c-3.627-2.806-3.515-7.054-3.612-10.864c-0.417-16.216,5.699-30.728,12.463-45.008
		C393.354,313.865,389.114,323.207,387.133,333.262z"/>
	<path fill-rule="evenodd" clip-rule="evenodd" fill="#B8B7BF" d="M431.763,436.876c0.059,8.818,0.329,17.643,0.082,26.453
		c-0.114,4.064,0.984,5.554,5.214,5.548c7.137-0.01,14.26,0.825,20.987,3.448c2.155,0.839,5.009,1.857,2.144,6.202
		c0.063-3.872-2.028-4.87-4.51-5.568c-6.766-1.903-13.68-2.869-20.674-2.849c-3.588,0.01-4.932-0.8-4.699-4.785
		c0.555-9.458,0.521-18.95,0.727-28.427C431.276,436.892,431.52,436.884,431.763,436.876z"/>
	<path fill-rule="evenodd" clip-rule="evenodd" fill="#B8B7BF" d="M423.049,398.065c0.382,0.369,0.765,0.737,1.146,1.106
		c-0.042,0.28,0,0.547,0.125,0.802c-0.063,20.823-0.074,41.646-0.214,62.469c-0.056,8.479,1.595,7.331-7.768,7.641
		c-0.96,0.032-1.922,0.004-3.489,0.004c1.249-1.52,2.376-1.23,3.348-1.277c6.638-0.317,6.622-0.307,6.642-6.776
		C422.902,440.711,422.979,419.388,423.049,398.065z"/>
	<path fill-rule="evenodd" clip-rule="evenodd" fill="#B8B7BF" d="M467.979,357.008c0.169-6.157,2.296-12.333-0.183-18.465
		c-0.704-9.966-5.078-18.951-7.564-28.462c4.273,7.821,6.784,16.244,8.744,24.865c1.3,5.715,1.395,11.508,0.926,17.3
		C469.766,353.911,469.826,355.916,467.979,357.008z"/>
	<path fill-rule="evenodd" clip-rule="evenodd" fill="#B8B7BF" d="M418.017,482.763c-8.209,0.632-16.047-0.688-23.415-4.465
		c0.189-0.2,0.38-0.397,0.575-0.594c7.326,2.793,15.2,2.729,22.747,4.366C417.996,482.295,418.027,482.525,418.017,482.763z"/>
	<path fill-rule="evenodd" clip-rule="evenodd" fill="#B8B7BF" d="M435.935,482.063c7.478-1.765,15.354-1.208,22.708-3.766
		c-7.175,3.612-14.87,4.624-22.796,4.481C435.858,482.537,435.887,482.298,435.935,482.063z"/>
	<path fill-rule="evenodd" clip-rule="evenodd" fill="#B8B7BF" d="M413.016,297.017c8.146,0.883,16.304,1.305,24.504,0.64
		c-8.216,1.671-16.434,2.223-24.683,0.316C412.87,297.648,412.929,297.33,413.016,297.017z"/>
	<path fill-rule="evenodd" clip-rule="evenodd" fill="#FAFAFA" d="M431.763,436.876c-0.243,0.008-0.486,0.016-0.729,0.022
		c0.049-11.27,0.099-22.541,0.147-33.811c0.273,0.295,0.547,0.59,0.82,0.884C431.922,414.94,431.843,425.908,431.763,436.876z"/>
	<path fill-rule="evenodd" clip-rule="evenodd" fill="#B8B7BF" d="M405.818,296.78c-6.008-2.409-5.886,3.656-8.424,6.381
		c0.59-7.73,2.781-9.488,8.603-7.188C405.864,296.227,405.804,296.495,405.818,296.78z"/>
	<path fill-rule="evenodd" clip-rule="evenodd" fill="#5AE559" d="M411.651,326.455c-0.287,1.449-1.04,2.452-2.621,2.445
		c-1.365-0.005-2.125-0.821-2.213-2.159c-0.101-1.523,0.52-2.619,2.171-2.683C410.57,323.997,411.337,325.012,411.651,326.455z"/>
	<path fill-rule="evenodd" clip-rule="evenodd" fill="#B8B7BF" d="M453.782,295.858c-4.124,0.689-8.247,1.379-12.37,2.069
		c-0.057-0.435-0.113-0.871-0.17-1.306c4.138-0.596,8.163-2.067,12.384-2.022C453.678,295.019,453.729,295.438,453.782,295.858z"/>
	<path fill-rule="evenodd" clip-rule="evenodd" fill="#FAFAFA" d="M435.935,482.063c-0.048,0.235-0.077,0.475-0.088,0.715
		c-5.944-0.005-11.887-0.01-17.831-0.015c0.011-0.237-0.021-0.468-0.094-0.693C423.927,482.066,429.931,482.064,435.935,482.063z"/>
	<path fill-rule="evenodd" clip-rule="evenodd" fill="#B8B7BF" d="M404.678,471.191c-3.147,0.9-6.294,1.801-9.441,2.703
		C397.692,471.119,400.992,470.712,404.678,471.191z"/>
	<path fill-rule="evenodd" clip-rule="evenodd" fill="#B8B7BF" d="M456.294,301.188c1.615,2.396,3.512,4.64,3.526,8.464
		C457.662,306.671,456.587,304.07,456.294,301.188z"/>
	<path fill-rule="evenodd" clip-rule="evenodd" fill="#3F3D56" d="M405.818,296.78c-0.014-0.285,0.046-0.554,0.179-0.808
		c2.383,0.051,4.836-0.358,7.02,1.044c-0.087,0.313-0.146,0.632-0.179,0.956C410.501,297.553,407.849,298.997,405.818,296.78z"/>
	<path fill-rule="evenodd" clip-rule="evenodd" fill="#B8B7BF" d="M442.963,377.031c0.776-1.777,2.193-2.298,4.005-2.042
		C445.984,376.359,444.792,377.317,442.963,377.031z"/>
	<path fill-rule="evenodd" clip-rule="evenodd" fill="#3F3D56" d="M413.557,332.541c1.117-0.633,2.471-1.552,3.035-0.54
		c0.769,1.379-0.503,1.42-1.547,1.082C414.604,332.939,414.173,332.767,413.557,332.541z"/>
	<path fill-rule="evenodd" clip-rule="evenodd" fill="#3F3D56" d="M438.973,312.398c1.844-0.361,3.002-1.386,3.553-0.484
		c0.8,1.309-0.186,1.59-1.366,1.202C440.716,312.97,440.271,312.824,438.973,312.398z"/>
	<path fill-rule="evenodd" clip-rule="evenodd" fill="#B8B7BF" d="M447.963,374.033c0.452-1.445,1.527-1.797,2.887-1.645
		C450.311,373.684,449.495,374.487,447.963,374.033z"/>
	<path fill-rule="evenodd" clip-rule="evenodd" fill="#B8B7BF" d="M393.43,477.479c-0.988-0.853-1.209-1.833-0.416-2.917
		c0.152-0.209,0.512-0.266,0.777-0.393c0.1,0.877,0.2,1.753,0.3,2.63C393.857,477.012,393.637,477.238,393.43,477.479z"/>
	<path fill-rule="evenodd" clip-rule="evenodd" fill="#B8B7BF" d="M460.298,366.857c-0.067-1.198,0.403-1.899,1.698-1.839
		C462.363,366.493,461.084,366.447,460.298,366.857z"/>
	<path fill-rule="evenodd" clip-rule="evenodd" fill="#B8B7BF" d="M466.947,360.006c-0.251-1.215-0.276-2.351,1.044-3.021
		C468.397,358.253,468.163,359.299,466.947,360.006z"/>
	<path fill-rule="evenodd" clip-rule="evenodd" fill="#B8B7BF" d="M437.61,379.085c0.787-0.029,1.573-0.059,2.359-0.088
		c-0.341,0.39-0.682,0.781-1.023,1.172C438.343,380.003,437.626,379.976,437.61,379.085z"/>
	<path fill-rule="evenodd" clip-rule="evenodd" fill="#434159" d="M411.213,470.312c-0.011,0.105,0.017,0.262-0.041,0.305
		c-0.092,0.068-0.24,0.063-0.364,0.088c0.018-0.176,0.035-0.351,0.052-0.525C410.978,470.223,411.095,470.268,411.213,470.312z"/>
	<path fill-rule="evenodd" clip-rule="evenodd" fill="#B8B7BF" d="M439.94,379.015c0.213-1.253,1.093-1.198,2.028-1.034
		C441.58,378.89,440.874,379.176,439.94,379.015z"/>
	<path fill-rule="evenodd" clip-rule="evenodd" fill="#B8B7BF" d="M464.947,363.005c-0.319-1.017,0.003-1.698,1.046-2.004
		C466.355,362.041,465.916,362.661,464.947,363.005z"/>
	<path fill-rule="evenodd" clip-rule="evenodd" fill="#B8B7BF" d="M461.962,365.04c0.326-1.002,0.995-1.35,2.004-1.051
		C463.612,364.939,463.076,365.54,461.962,365.04z"/>
	<path fill-rule="evenodd" clip-rule="evenodd" fill="#B8B7BF" d="M455.716,299.339c-0.102,0.194-0.206,0.396-0.312,0.6
		c-0.096-0.104-0.286-0.228-0.27-0.31c0.044-0.217,0.177-0.417,0.274-0.623C455.505,299.11,455.601,299.214,455.716,299.339z"/>
	<path fill-rule="evenodd" clip-rule="evenodd" fill="#B8B7BF" d="M446.941,375.012c-0.065-0.767,0.381-0.996,1.045-0.998
		C448.147,374.879,447.598,375.001,446.941,375.012z"/>
	<path fill-rule="evenodd" clip-rule="evenodd" fill="#B8B7BF" d="M454.507,297.798c-0.161-0.101-0.35-0.218-0.537-0.335
		c0.1-0.104,0.228-0.308,0.295-0.289c0.207,0.057,0.392,0.198,0.585,0.308C454.744,297.579,454.639,297.676,454.507,297.798z"/>
	<path fill-rule="evenodd" clip-rule="evenodd" fill="#B8B7BF" d="M441.934,378.007c-0.079-0.786,0.383-0.998,1.051-0.993
		C443.14,377.88,442.579,377.988,441.934,378.007z"/>
	<path fill-rule="evenodd" clip-rule="evenodd" fill="#434159" d="M424.319,399.974c-0.125-0.255-0.167-0.522-0.125-0.802
		c0.231,0.267,0.462,0.533,0.692,0.8c-0.001,0-0.284,0.002-0.284,0.002H424.319z"/>
	<path fill-rule="evenodd" clip-rule="evenodd" fill="#B8B7BF" d="M463.939,364.01c-0.053-0.738,0.281-1.091,1.029-1.033
		C464.93,363.624,464.586,363.968,463.939,364.01z"/>
	<path fill-rule="evenodd" clip-rule="evenodd" fill="#B8B7BF" d="M465.976,361.024c0.009-0.655,0.202-1.135,0.995-1.046
		C466.961,360.631,466.844,361.186,465.976,361.024z"/>
	<path fill-rule="evenodd" clip-rule="evenodd" fill="#B8B7BF" d="M394.602,478.297c-0.39-0.275-0.779-0.551-1.17-0.823
		c0.206-0.236,0.426-0.463,0.66-0.676c0.362,0.302,0.724,0.604,1.085,0.906C394.982,477.9,394.791,478.097,394.602,478.297z"/>
	<path fill-rule="evenodd" clip-rule="evenodd" fill="#B8B7BF" d="M434.147,189.295c0.281,0.239,0.563,0.479,0.844,0.718
		C434.709,189.774,434.428,189.535,434.147,189.295z"/>
	<path fill-rule="evenodd" clip-rule="evenodd" fill="#FEFEFE" d="M439.905,199.976c0.338,0.358,0.676,0.717,1.015,1.075
		C440.001,201.241,440.054,200.514,439.905,199.976z"/>
	<path fill-rule="evenodd" clip-rule="evenodd" fill="#FAFAFA" d="M404.544,349.528c-0.352,1.445-1.101,2.471-2.734,2.32
		c-1.399-0.129-2.01-1.112-1.99-2.411c0.021-1.308,0.678-2.26,2.084-2.327C403.53,347.035,404.253,348.075,404.544,349.528z"/>
	<path fill="#00A27C" d="M507.561,360.409c-1.122-5.694-2.526-11.331-3.771-17.001c-4-18.225-8.79-36.14-20.099-51.506
		c-1.07-1.454-2.074-3.182-3.54-4.083c-16.232-9.977-31.582-21.464-49.255-28.991c-6.406,3.068-10.641,8.848-16.189,13.002
		c-3.31,2.479-6.251,5.45-9.374,8.181c-3.731,3.263-7.105,2.792-9.641-1.408c-4.967-8.229-9.889-16.484-14.83-24.729
		c-15.679,10.898-31.277,21.918-47.097,32.609c-3.81,2.574-6.037,5.684-7.488,9.926c-6.171,18.043-12.849,35.918-17.967,54.307
		c-0.899,3.231-2.57,6.983,2.764,8.242c8.517,2.57,16.837,5.798,25.61,7.52c1.188,0.233,2.722,0.215,3.436,1.645
		c3.393-1.398,4.038,0.141,3.703,3.225c-2.102,19.324-4.109,38.657-6.184,57.983c-1.915,17.839-3.875,35.675-5.815,53.512
		c1.042,2.034,2.083,4.068,3.125,6.102c11.004,0.318,21.471,3.731,32.203,5.614c21.641,3.796,42.634,10.65,64.705,12.641
		c14.896,1.344,28.641-0.416,41.476-8.191c0.703-2.144,3.06-3.361,2.818-6.137c-2.189-25.252-0.196-50.515-0.284-75.773
		c-2.811-1.115-5.867-1.678-8.867-2.334v0.129c0.163,0.038,0.327,0.072,0.489,0.11c0.001,0-0.489,0-0.489,0v-0.11
		c-4.113-0.95-8.287-1.759-12.406-2.506c-0.731-0.133-1.451-0.41-2.17-0.566c-2.819-0.688-5.441-1.498-7.917-2.285
		c-4.299-1.484-8.44-3.375-12.505-5.531c-0.001,0.203-0.003,0.392-0.004,0.596c-0.278-0.132-0.549-0.273-0.821-0.406
		c0.002-0.366,0.003-0.735,0.005-1.101c-2.259-0.712-3.796-2.875-6.295-3.105L424.603,400H424c0,0,0,0.259,0,0.401
		c0-0.273-0.703-0.544-1.115-0.815c0.001-0.507,0.083-1.014,0.084-1.521c-6.064-3.3-10.883-8.037-15.517-13.045
		c-1.246-1.346-1.867-2.794-2.121-4.302c-0.327-1.935-0.049-3.969,0.285-6.016c0.88-0.573,1.841-1.195,2.911-1.882
		c13.527-8.68,34.484,11.613,34.484,11.613h0c4.566,4.261,9.806,7.071,17.095,5.69c2.248-0.426,4.646-0.061,6.974-0.063
		c8.618-0.009,10.594-1.979,9.749-10.154c-0.192-1.865-0.249-3.111,1.803-3.833c9.216-3.247,18.159-7.31,27.811-9.243
		C508.821,365.048,507.989,362.581,507.561,360.409z"/>
</g>
<path fill-rule="evenodd" clip-rule="evenodd" fill="#466559" d="M658.281,461.905c15.83-6.809,30.646-15.855,47.071-21.347
	c1.938-0.648,3.958-1.053,5.881-1.735c3.159-1.12,5.623-1.453,8.286,1.774c2.979,3.609,9.197,3.231,12.036-0.645
	c2.511-3.432,5.306-2.896,8.445-2.209c7.945,1.733,14.566,5.899,20.486,11.316c-0.019,4.304-0.037,8.607-0.056,12.912
	C726.382,461.95,692.332,461.928,658.281,461.905z"/>
<path fill-rule="evenodd" clip-rule="evenodd" fill="#466559" d="M379.167,472.554c8.99,9.232,18.923,17.096,31.281,21.392
	c3.296,1.146,6.643,2.145,9.966,3.212c-14.111-0.014-28.221-0.026-42.331-0.04c0.003-6.713-0.031-13.426,0.036-20.138
	C378.133,475.465,377.483,473.707,379.167,472.554z"/>
<path fill-rule="evenodd" clip-rule="evenodd" fill="#EFEFEF" d="M532.329,426.893c-0.28,0.583-0.559,1.164-0.836,1.747
	c-50.612-0.024-101.224-0.048-151.836-0.072c-1.676,0-3.352,0-5.105,0c0.267-2.276,1.576-1.731,2.42-1.731
	C428.757,426.834,480.542,426.865,532.329,426.893z"/>
<path fill-rule="evenodd" clip-rule="evenodd" fill="#EFEFEF" d="M495.157,462.132c-0.488,0.597-0.975,1.194-1.461,1.792
	c-37.97-0.039-75.941-0.079-113.913-0.117c-1.713-0.001-3.426,0-5.212,0c0.23-2.46,1.776-1.723,2.709-1.723
	C416.572,462.069,455.864,462.104,495.157,462.132z"/>
<path fill-rule="evenodd" clip-rule="evenodd" fill="#D3F2D3" d="M658.281,461.905c34.051,0.022,68.101,0.045,102.15,0.066
	c0.745,0.636,0.744,1.272,0,1.909c-33.511-0.024-67.021-0.047-100.531-0.077c-2.048-0.003-4.096-0.059-6.146-0.09
	C654.982,462.408,656.629,462.146,658.281,461.905z"/>
<path fill-rule="evenodd" clip-rule="evenodd" fill="#D3F2D3" d="M378.082,497.118c14.11,0.014,28.22,0.026,42.331,0.04
	c3.839,0.375,7.754,0.279,11.401,1.837c-17.911,0.072-35.822,0.145-53.732,0.217c-1.152-0.347-2.532,0.267-3.701-0.812
	C375.236,496.54,376.934,497.592,378.082,497.118z"/>
<path fill-rule="evenodd" clip-rule="evenodd" fill="#EFEFEF" d="M732.356,428.683c-0.568-0.583-1.138-1.166-1.706-1.749
	c10.039,0,20.079,0,30.119,0c-0.001,0.583-0.001,1.166-0.001,1.749C751.299,428.683,741.827,428.683,732.356,428.683z"/>
<g>
	<path opacity="0.8" fill-rule="evenodd" clip-rule="evenodd" fill="#3F3D56" d="M659.186,317.789
		c1.751,0.095,3.502,0.272,5.252,0.273c53.297,0.015,106.593,0.006,159.89,0.017c10.935,0.003,18.33,5.182,21.023,14.508
		c0.503,1.741,0.536,3.466,0.537,5.223c0.002,83.396,0.007,166.791-0.003,250.186c-0.002,10.445-7.14,18.423-17.562,19.622
		c-2.179,0.25-4.392,0.297-6.59,0.297c-169.14,0.013-530.945-2.244-520.981-2.244c-8.109-5.377-10.695-12.052-10.678-20.283
		c0.097-46.246,0.05-92.491,0.039-138.736c0-3.08,3.887-128.592,3.887-128.592s183.919,0.012,258.064,0.001
		c1.308,0,2.614-0.197,3.922-0.303C590.386,318.33,624.785,318.271,659.186,317.789z M378.082,497.118
		c-1.148,0.475-2.846-0.578-3.701,1.283c1.169,1.078,2.549,0.464,3.701,0.812c-0.001,11.049-0.002,22.099-0.003,33.148
		c-1.133,0.46-2.884-0.538-3.756,1.724c1.606,0.083,2.866,0.205,4.125,0.205c126.046,0.007,252.091,0.004,378.136-0.001
		c1.171,0,2.521,0.322,3.474-0.145c1.724-0.842,0.594-1.417-0.491-1.776c0.005-11.05,0.011-22.1,0.016-33.15
		c1.087-0.332,2.159-0.67,0.835-2.007c0.006-11.11,0.011-22.22,0.017-33.329c0.743-0.637,0.744-1.273-0.002-1.909
		c0.02-4.305,0.038-8.607,0.057-12.912c2.444-1.903,0.264-3.022-0.826-4.102c-5.445-5.385-12.235-8.502-19.577-9.797
		c-4.284-0.756-6.781-2.36-7.728-6.479c9.471,0,18.942,0,28.412,0c0-0.583,0-1.166,0.001-1.749c-10.04,0-20.08,0-30.119,0
		c-3.641-2.222-7.28-2.242-10.92-0.001c-57.232-0.012-114.466-0.024-171.698-0.036c-6.135-5.865-9.56-5.865-15.704-0.003
		c-51.786-0.028-103.572-0.059-155.357-0.057c-0.844,0-2.153-0.545-2.42,1.731c1.753,0,3.429,0,5.105,0
		c50.612,0.024,101.224,0.048,151.837,0.072c0.147,1.603-1.103,1.94-2.195,2.247c-9.888,2.773-16.985,9.349-23.2,17.072
		c-3.74,4.65-7.301,9.445-10.942,14.174c-39.292-0.028-78.584-0.063-117.876-0.048c-0.934,0-2.479-0.737-2.709,1.723
		c1.786,0,3.499-0.001,5.212,0c37.971,0.039,75.943,0.078,113.915,0.117c-10.01,15.311-24.15,24.824-41.605,29.736
		c-2.368,0.666-3.286-0.695-4.551-2.265c-4.289-5.324-11.389-4.865-14.534,1.169c-1.365,2.619-2.806,3.217-5.427,2.85
		c-18.313-2.567-33.681-10.537-45.849-24.581c-1.226-1.415-2.46-4.699-4.409-3.249c-2.113,1.573,1.828,2.99,1.844,4.971
		c-1.683,1.153-1.033,2.911-1.048,4.425C378.051,483.691,378.085,490.404,378.082,497.118z M374.66,391.988c0,0.293,0,0.587,0,0.88
		c128.697,0,257.392,0,386.088,0c0-0.293,0-0.587,0.001-0.88C632.053,391.988,503.356,391.988,374.66,391.988z"/>
	<path fill-rule="evenodd" clip-rule="evenodd" fill="#466459" d="M759.581,499.217c-0.005,11.05-0.011,22.1-0.016,33.15
		c-1.316,0.055-2.633,0.158-3.949,0.158c-124.53,0.008-249.06,0.008-373.59,0c-1.316,0-2.631-0.107-3.948-0.165
		c0.001-11.05,0.002-22.099,0.003-33.148c17.911-0.072,35.822-0.145,53.732-0.217c1.839,3.776,4.377,6.432,9.028,6.344
		c4.454-0.084,6.829-2.729,8.592-6.33c101.48,0.012,202.959,0.023,304.44,0.043C755.776,499.053,757.679,499.159,759.581,499.217z"
		/>
	<path fill-rule="evenodd" clip-rule="evenodd" fill="#466459" d="M760.432,463.88c-0.005,11.109-0.01,22.219-0.016,33.329
		c-0.877,0.025-1.756,0.071-2.635,0.071c-101.175,0.003-202.35,0.003-303.523-0.003c-1.318,0-2.636-0.075-3.955-0.114
		c8.231-2.506,16.268-5.367,23.663-9.975c9.76-6.081,17.026-14.575,23.966-23.465c35.837-0.004,71.676-0.009,107.514-0.013
		c8.032,2.739,16.108,4.922,24.773,4.583c8.126-0.319,15.743-2.796,23.536-4.579c2.05,0.032,4.098,0.087,6.146,0.09
		C693.411,463.833,726.921,463.856,760.432,463.88z"/>
	<path fill-rule="evenodd" clip-rule="evenodd" fill="#62F462" d="M653.753,463.713c-7.791,1.783-15.408,4.26-23.534,4.579
		c-8.665,0.34-16.741-1.844-24.774-4.583c-0.961-1.15-2.335-1.455-3.687-1.807c-9.46-5.244-18.359-11.381-27.42-17.264
		c-6.52-4.232-13.337-7.861-20.741-10.337c-2.64-0.883-4.361-0.742-6.176,1.997c-3.65,5.515-11.338,5.407-14.633-0.244
		c-1.648-2.826-3.091-2.688-5.464-1.662c-12.884,5.57-20.629,16.318-27.895,27.562c-0.687,0.429-1.353,0.878-1.499,1.767
		c-6.938,8.891-14.205,17.385-23.965,23.465c-7.395,4.608-15.432,7.469-23.662,9.975c-0.807,0.372-0.962,1.051-0.87,1.846
		c-1.763,3.601-4.138,6.246-8.592,6.33c-4.651,0.088-7.188-2.567-9.028-6.344c-3.647-1.559-7.562-1.463-11.4-1.837
		c-3.324-1.067-6.671-2.066-9.967-3.212c-12.357-4.296-22.291-12.159-31.281-21.392c-0.017-1.981-3.957-3.398-1.844-4.971
		c1.949-1.45,3.184,1.834,4.409,3.249c12.168,14.043,27.537,22.013,45.849,24.581c2.622,0.367,4.063-0.231,5.427-2.85
		c3.145-6.034,10.245-6.494,14.534-1.169c1.265,1.57,2.183,2.931,4.551,2.265c17.455-4.912,31.595-14.425,41.603-29.736
		c0.486-0.597,0.974-1.194,1.461-1.792c3.641-4.729,7.202-9.524,10.942-14.174c6.215-7.723,13.312-14.298,23.2-17.072
		c1.092-0.306,2.342-0.644,2.194-2.247c0.278-0.583,0.557-1.164,0.836-1.747c6.144-5.862,9.569-5.861,15.705,0.003
		c0.268,0.583,0.534,1.166,0.8,1.75c-0.038,1.261,0.738,1.857,1.822,2.118c12.825,3.088,23.438,10.472,34.233,17.531
		c8.086,5.289,16.021,10.876,25.35,13.91c1.773,1.259,3.844,1.506,5.917,1.744c8.104,2.278,16.208,2.281,24.312-0.002
		c2.416-0.279,4.844-0.508,7.015-1.763c5.912-1.248,11.356-3.77,16.844-6.174c14.85-6.508,28.727-15.342,44.604-19.331
		c4.827-1.211,8.197-2.868,9.062-7.998c0.579-0.583,1.159-1.165,1.738-1.749c3.641-2.241,7.28-2.221,10.921,0.001
		c0.568,0.583,1.138,1.166,1.706,1.749c0.946,4.119,3.443,5.723,7.728,6.479c7.342,1.295,14.132,4.412,19.577,9.797
		c1.09,1.079,3.271,2.199,0.826,4.102c-5.92-5.417-12.541-9.583-20.486-11.316c-3.14-0.686-5.935-1.222-8.445,2.209
		c-2.839,3.876-9.057,4.254-12.036,0.645c-2.663-3.228-5.127-2.895-8.286-1.774c-1.923,0.682-3.943,1.087-5.881,1.735
		c-16.425,5.491-31.241,14.538-47.071,21.347C656.629,462.146,654.982,462.408,653.753,463.713z"/>
	<path fill-rule="evenodd" clip-rule="evenodd" fill="#EFEFEF" d="M374.66,391.988c128.697,0,257.393,0,386.089,0
		c-0.001,0.293-0.001,0.587-0.001,0.88c-128.696,0-257.392,0-386.088,0C374.66,392.575,374.66,392.282,374.66,391.988z"/>
	<path fill-rule="evenodd" clip-rule="evenodd" fill="#D9F1D9" d="M378.079,532.36c1.316,0.058,2.632,0.165,3.948,0.165
		c124.53,0.008,249.06,0.008,373.59,0c1.316,0,2.633-0.103,3.949-0.158c1.085,0.359,2.215,0.934,0.491,1.776
		c-0.953,0.466-2.303,0.145-3.474,0.145c-126.045,0.005-252.09,0.008-378.136,0.001c-1.259,0-2.519-0.122-4.125-0.205
		C375.194,531.823,376.946,532.821,378.079,532.36z"/>
	<path fill-rule="evenodd" clip-rule="evenodd" fill="#D3F2D3" d="M449.434,499.009c-0.092-0.795,0.063-1.474,0.87-1.846
		c1.317,0.04,2.635,0.114,3.954,0.114c101.174,0.006,202.349,0.006,303.523,0.003c0.879,0,1.758-0.046,2.635-0.071
		c1.324,1.337,0.252,1.675-0.835,2.007c-1.902-0.058-3.805-0.164-5.707-0.165C652.394,499.032,550.914,499.021,449.434,499.009z"/>
	<path fill-rule="evenodd" clip-rule="evenodd" fill="#EFEFEF" d="M548.833,428.646c-0.266-0.583-0.532-1.167-0.8-1.75
		c57.231,0.012,114.465,0.024,171.697,0.036c-0.58,0.583-1.16,1.166-1.739,1.749C661.606,428.67,605.22,428.658,548.833,428.646z"/>
	<path fill-rule="evenodd" clip-rule="evenodd" fill="#D3F2D3" d="M601.758,461.903c1.352,0.352,2.726,0.657,3.687,1.807
		c-35.837,0.004-71.675,0.008-107.513,0.013c0.145-0.889,0.811-1.338,1.5-1.767C533.542,461.938,567.649,461.92,601.758,461.903z"/>
	<path opacity="0.8" fill-rule="evenodd" clip-rule="evenodd" fill="#3F3E56" d="M548.833,428.646
		c56.387,0.012,112.773,0.024,169.158,0.035c-0.864,5.13-4.234,6.786-9.062,7.998c-15.878,3.989-29.755,12.823-44.604,19.331
		c-5.487,2.404-10.932,4.927-16.843,6.174c-12.414,0.008-24.83,0.015-37.244,0.021c-9.329-3.034-17.264-8.621-25.35-13.91
		c-10.795-7.059-21.408-14.443-34.233-17.531C549.571,430.503,548.795,429.907,548.833,428.646z"/>
	<path fill-rule="evenodd" clip-rule="evenodd" fill="#466559" d="M601.758,461.903c-34.108,0.017-68.216,0.035-102.326,0.053
		c7.263-11.244,15.008-21.992,27.892-27.562c2.373-1.026,3.815-1.164,5.464,1.662c3.294,5.65,10.982,5.758,14.633,0.244
		c1.814-2.739,3.536-2.88,6.176-1.997c7.404,2.476,14.222,6.104,20.741,10.337C583.398,450.521,592.298,456.659,601.758,461.903z"/>
	<path fill-rule="evenodd" clip-rule="evenodd" fill="#EFEFEF" d="M610.238,462.206c12.414-0.007,24.83-0.014,37.244-0.021
		c-2.172,1.255-4.6,1.484-7.015,1.763c-8.104,0-16.208,0.002-24.313,0.002C614.082,463.711,612.012,463.464,610.238,462.206z"/>
	<path fill-rule="evenodd" clip-rule="evenodd" fill="#46445C" d="M616.155,463.949c8.104,0,16.209-0.002,24.313-0.002
		C632.363,466.23,624.26,466.228,616.155,463.949z"/>
</g>
<path fill-rule="evenodd" clip-rule="evenodd" fill="#302E41" d="M783.225,827.92c-2.606-1.514-1.548-4.123-1.602-6.199
	c-1.051-40.568-2.008-81.142-2.947-121.714c-0.936-40.381-1.832-80.764-2.742-121.146c-0.25-10.732-0.605-21.468-0.684-32.205
	c-0.023-3.26-0.779-4.855-4.402-4.766c-3.551,0.084-7.115-0.471-10.674-0.746c-4.303,0.412-4.813-1.579-4.12-5.415
	c6.798-37.633,14.12-75.192,19.83-112.992c3.122-20.663,3.511-41.744,4.992-62.645c1.063-15.008,1.806-30.04,2.853-45.049
	c0.803-11.533,6.04-16.684,17.287-19.303c10.352-2.408,20.465-5.836,30.697-8.772c2.786-0.8,3.537-3.212,4.583-5.425
	c11.423-1.772,22.846-3.543,34.27-5.313c1.09,0.337,2.156,0.803,3.271,0.992c9.228,1.567,15.876,6.479,19.873,14.996
	c1.508,3.211,4.131,5.264,7.293,6.889c11.482,5.899,22.414,12.798,34.113,18.337c9.609,4.549,14.532,13.144,15.073,23.326
	c1.19,22.426,1.502,44.898,2.211,67.349c0.954,30.264,1.861,60.526,1.288,90.814c-0.266,14.101-1.487,28.126-2.724,42.162
	c-0.391,4.431-1.664,6.567-6.582,5.112c-2.494-0.738-5.27-0.532-7.917-0.752c-3.27-0.699-7.624-2.893-9.589-0.281
	c-2.157,2.869-4.074,2.889-6.497,2.238c-2.718-0.728-3.628,0.199-3.239,2.652c1.516,9.561-0.869,19.143,0.229,28.7
	c-0.654,81.274-1.294,162.549-2.041,243.823c-0.02,2.04,1.675,5.298-2.419,5.859c-7.077-0.836-14.176-0.586-21.272-0.415
	c-3.73-1.547-2.565-5.19-3.044-7.882c-2.667-14.981-4.99-30.024-7.475-45.04c-9.006-54.428-18.023-108.853-27.053-163.278
	c-1.857-11.205-3.784-22.399-5.679-33.599c-13.544,77.632-26.244,155.162-39.143,232.66c-0.977,5.867-0.634,12.139-3.986,17.501
	C797.915,828.234,790.57,828.077,783.225,827.92z"/>
<path fill-rule="evenodd" clip-rule="evenodd" fill="#313043" d="M808.338,221.888c-6.993,0-13.983,0-21.428,0
	c8.84-21.4,24.068-33.293,45.512-30.111c8.076,1.199,16.266,1.603,24.389,2.502c13.341,1.476,22.924,12.282,22.302,25.729
	c-0.438,9.484-1.607,18.938-2.542,28.395c-0.562,5.672-3.823,9.78-8.087,13.234c-1.247,0.439-2.472,0.957-3.744,1.303
	c-9.548,2.597-13.498,0.481-16.745-8.921c-0.682-1.974-1.3-3.969-2.035-5.921C839.883,231.962,824.913,221.543,808.338,221.888z"/>
<path fill-rule="evenodd" clip-rule="evenodd" fill="#A46C35" d="M808.338,221.888c16.575-0.345,31.545,10.074,37.621,26.21
	c0.735,1.952,1.354,3.948,2.035,5.921c3.247,9.402,7.197,11.519,16.745,8.921c1.272-0.346,2.497-0.864,3.744-1.303
	c0.694,4.863,1.39,9.728,2.083,14.591c-11.425,1.77-22.848,3.542-34.271,5.313c0.571-7.622-1.665-11.752-10.133-14.599
	c-16.405-5.514-24.126-23.978-19.098-40.703C807.5,224.792,807.913,223.338,808.338,221.888z"/>
<path fill-rule="evenodd" clip-rule="evenodd" fill="#313043" d="M809.652,846.444c0.971,4.849,2.085,9.674,2.873,14.553
	c0.801,4.962-2.27,9.924-6.891,10.188c-18.715,1.068-36.093-2.204-49.545-16.819c-2.106-2.289-3.771-4.789-3.803-8.061
	c0.005-0.837,0.01-1.672,0.014-2.509c3.069-5.104,7.259-7.103,13.369-5.946c6.961,1.318,11.847-3.901,17.494-6.639
	c1.396,0.978,0.838,2.236,0.656,3.561c-1.084,7.895,2.457,11.846,10.365,11.355c3.736-0.231,7.482-0.775,10.932-2.461
	c1.463,0.114,2.926,0.229,4.388,0.342C809.554,844.82,809.604,845.631,809.652,846.444z"/>
<path fill-rule="evenodd" clip-rule="evenodd" fill="#313043" d="M912.767,843.594c1.793,0.157,3.676-1.224,5.387,0.319
	c0.003,0.761,0.006,1.519,0.008,2.279c-0.067,4.424,1.435,8.587,2.137,12.884c1.362,8.324-1.951,12.128-10.393,12.291
	c-16.104,0.309-30.971-2.985-43.184-14.348c-3.244-3.017-5.985-6.335-6.72-10.897c0.91-0.621,0.929-1.543,0.848-2.5
	c1.727-3.79,4.83-6.844,8.775-5.989c8.476,1.84,15.077-2.295,22.128-5.348c0.413,14.644,2.857,16.448,17.386,12.748
	C910.389,844.714,911.56,844.081,912.767,843.594z"/>
<path fill-rule="evenodd" clip-rule="evenodd" fill="#A46C35" d="M917.369,578.763c-1.099-9.558,1.286-19.14-0.229-28.7
	c-0.389-2.453,0.521-3.38,3.239-2.652c2.423,0.65,4.34,0.631,6.497-2.238c1.965-2.611,6.319-0.418,9.589,0.281
	c0.815,5.591,1.394,11.23,2.508,16.761c1.318,6.534,2.24,12.882-3.834,17.624C929.001,584.634,923.121,582.032,917.369,578.763z"/>
<path fill-rule="evenodd" clip-rule="evenodd" fill="#A46C35" d="M760.174,541.145c3.559,0.275,7.123,0.83,10.674,0.746
	c3.623-0.09,4.379,1.506,4.402,4.766c0.078,10.737,0.434,21.473,0.684,32.205c-2.24,0.32-4.474,0.885-6.717,0.918
	c-7.393,0.11-12.934-5.521-12.318-13.255C757.574,558.032,759.048,549.602,760.174,541.145z"/>
<path fill-rule="evenodd" clip-rule="evenodd" fill="#A46C35" d="M805.115,843.666c-3.447,1.686-7.193,2.229-10.93,2.461
	c-7.908,0.49-11.449-3.461-10.365-11.355c0.182-1.324,0.74-2.583-0.656-3.561c0.021-1.098,0.041-2.194,0.061-3.292
	c7.346,0.158,14.69,0.315,22.036,0.474C804.413,833.475,804.672,838.569,805.115,843.666z"/>
<path fill-rule="evenodd" clip-rule="evenodd" fill="#A46C35" d="M912.767,843.594c-1.207,0.487-2.378,1.12-3.628,1.439
	c-14.528,3.7-16.973,1.896-17.385-12.748c-0.039-1.418-0.078-2.837-0.118-4.255c7.098-0.171,14.196-0.421,21.273,0.415
	C912.86,833.496,912.813,838.544,912.767,843.594z"/>
<g>
	<path fill-rule="evenodd" clip-rule="evenodd" fill="#302F42" d="M136.345,455.833c-2.189,15.752-10.917,29.494-13.699,45.115
		c-2.526,14.182-4.165,28.254-0.562,42.455c2.106,8.307,5.669,15.933,11.621,22.159c6.021,6.296,7.901,13.499,6.38,21.961
		c-7.995,44.466-16.374,88.872-23.628,133.46c-3.364,20.67-4.426,41.712-6.643,62.574c-0.587,5.521,4.688,2.246,6.238,4.451
		c6.877,0.32,13.626,1.523,20.346,2.931c6.134,2.056,8.131-0.474,9.425-6.58c4.793-22.607,10.306-45.063,15.552-67.575
		c1.766-7.574,3.518-15.151,5.314-22.718c1.729-7.294,3.507-14.575,5.581-23.181c1.236,2.963,1.971,4.501,2.527,6.104
		c12.985,37.366,27.985,73.876,46.342,108.955c1.32,2.521,1.848,6.153,6.18,5.028c6.725-1.001,13.446-2.001,20.169-3.002
		c3.27-0.996,1.836-3.457,1.537-5.382c-11.821-76.113-26.851-151.635-41.753-227.184c-1.412-7.159-1.274-14.651-1.567-21.999
		c-1.035-25.976-1.947-51.957-2.904-77.936C180.648,455.59,158.495,455.712,136.345,455.833z"/>
	<path fill-rule="evenodd" clip-rule="evenodd" fill="#6D64FD" d="M136.345,455.833c22.15-0.121,44.304-0.243,66.457-0.363
		c2.594-0.014,4.052-0.858,3.285-3.872c-0.522-2.057-0.656-4.21-0.963-6.323c-5.016-3.604-1.875-5.497,1.537-7.332
		c-22.803-3.843-45.918-4.75-68.868-7.229c-9.446-1.021-16.952-10.792-14.404-19.825c0.205-0.734,0.838-1.833,1.394-1.912
		c8.04-1.133,16.034-4.674,24.125-2.936c17.508,3.764,34.837,8.376,52.238,12.641c-1.077-6.395-1.597-12.584-0.139-19.218
		c2.652-12.073-2.401-21.515-12.49-28.396c-8.872-6.05-14.93-14.953-22.513-22.313c-1.635-1.588-1.057-3.672-0.957-5.556
		c0.337-6.267,0.694-12.539,1.275-18.786c0.332-3.563-0.406-5.44-4.503-6.039c-8.121-1.185-16.113-3.212-24.21-4.582
		c-9.01-1.524-12.278,1.223-11.581,10.342c0.383,5.008-0.24,7.465-5.938,8.585c-6.649,1.307-10.892,8.022-10.889,15.222
		c0.006,17.979,0.195,35.958,0.357,53.937c0.036,4.185,0.848,7.944,6.167,8.173c1.57,0.068,2.119,0.793,2.462,2.319
		C121.683,427.919,130.283,441.347,136.345,455.833z"/>
	<path fill-rule="evenodd" clip-rule="evenodd" fill="#302F42" d="M188.84,269.958c4.868,0.75,5.22-1.968,4.646-5.76
		c-2.164-14.301-14.314-26.59-28.857-28.707c-5.346-0.778-10.468-1.958-15.613-3.741c-23.405-8.11-47.566,8.441-48.705,33.559
		c-0.639,14.045-0.062,28.143-0.24,42.214c-0.041,3.23,1.138,4.021,4.128,4.009c22.085-0.088,44.171-0.11,66.255,0.017
		c3.326,0.019,4.081-1.313,3.86-4.231c-0.163-2.148,0.046-4.325,0.087-6.487c-0.071-5.833-0.193-11.668-0.204-17.501
		C174.165,268.655,174.186,268.654,188.84,269.958z"/>
	<path fill-rule="evenodd" clip-rule="evenodd" fill="#CB8C84" d="M201.145,418.683c-17.401-4.265-34.73-8.877-52.238-12.641
		c-8.091-1.738-16.085,1.803-24.125,2.936c-0.556,0.078-1.188,1.178-1.394,1.912c-2.548,9.033,4.958,18.803,14.404,19.825
		c22.949,2.479,46.064,3.386,68.866,7.233c1.96,0.653,2.653,2.477,3.689,3.986c5.784,3.1,11.69,4.676,17.45,0.209
		c4.85-3.763,6.521-8.828,4.938-14.852c-0.975-1.912-1.949-3.822-2.923-5.734c-5.437-4.126-11.156-5.479-17.441-1.871
		C208.425,421.951,204.866,419.269,201.145,418.683z"/>
	<path fill-rule="evenodd" clip-rule="evenodd" fill="#731400" d="M235.816,836.26c3.018-0.045,6.036-0.087,9.055-0.13
		c12.344-3.57,24.655-7.267,37.057-10.635c3.758-1.021,4.139-2.46,2.417-5.669c-4.238-7.894-13.439-12.257-22.386-10.271
		c-3.765,0.837-7.499,1.797-11.247,2.698c-5.579,1.942-11.156,3.884-16.734,5.825c-3.115-0.304-2.815,1.375-2.191,3.517
		C233.206,826.46,234.482,831.369,235.816,836.26z"/>
	<path fill-rule="evenodd" clip-rule="evenodd" fill="#731400" d="M115.693,817.201c-3.013-0.082-3.949,1.4-3.829,4.338
		c0.198,4.865,0.016,9.749-0.008,14.624l0.042-0.124c17.229,1.267,34.463,0.993,51.699,0.153
		c-3.092-13.457-9.62-18.674-23.45-18.826c-2.342-0.025-4.68-0.287-7.018-0.44C127.342,818.617,121.522,818.215,115.693,817.201z"/>
	<path fill-rule="evenodd" clip-rule="evenodd" fill="#CB8C84" d="M115.693,817.201c5.829,1.014,11.648,1.416,17.436-0.275
		c0.678-8.713,1.455-17.416,3.27-25.987c-6.72-1.407-13.469-2.61-20.346-2.931C115.933,797.74,115.813,807.471,115.693,817.201z"/>
	<path fill-rule="evenodd" clip-rule="evenodd" fill="#CB8C84" d="M233.979,818.078c5.577-1.941,11.154-3.883,16.733-5.825
		c-1.073-8.093-2.146-16.19-3.221-24.283c-6.725,1.001-13.446,2.001-20.172,3.002C229.576,799.998,233.653,808.578,233.979,818.078z
		"/>
	<path fill-rule="evenodd" clip-rule="evenodd" fill="#CB8C84" d="M188.84,269.958c-14.654-1.304-14.675-1.303-14.645,13.371
		c0.011,5.833,0.133,11.667,0.204,17.501C184.815,293.158,188.929,282.541,188.84,269.958z"/>
	<path fill-rule="evenodd" clip-rule="evenodd" fill="#302F42" d="M229.813,421.556c0.975,1.912,1.948,3.823,2.923,5.734
		c9.575-5.948,19.165-11.872,28.706-17.871c1.302-0.818,3.531-1.434,2.036-3.816c-1.107-1.767-2.624-1.704-4.491-1.182
		c-1.844,0.516-3.732,0.649-5.437,1.769C245.673,411.368,237.731,416.443,229.813,421.556z"/>
	<path fill-rule="evenodd" clip-rule="evenodd" fill="#302F42" d="M210.349,441.933c-1.037-1.509-1.729-3.333-3.689-3.986
		c-3.411,1.831-6.552,3.724-1.536,7.328C206.864,444.163,208.606,443.048,210.349,441.933z"/>
</g>
</svg>
